<?xml version="1.0" encoding="UTF-8" ?>
<svg version="1.1" width="25" height="25" xmlns="http://www.w3.org/2000/svg">
<rect x="12" y="2" width="1" height="1" fill="#000000" />
<rect x="13" y="2" width="1" height="1" fill="#000300" />
<rect x="14" y="2" width="1" height="1" fill="#000200" />
<rect x="15" y="2" width="1" height="1" fill="#000300" />
<rect x="16" y="2" width="1" height="1" fill="#000200" />
<rect x="17" y="2" width="1" height="1" fill="#000100" />
<rect x="10" y="3" width="1" height="1" fill="#000000" />
<rect x="11" y="3" width="1" height="1" fill="#000000" />
<rect x="12" y="3" width="1" height="1" fill="#838683" />
<rect x="13" y="3" width="1" height="1" fill="#838683" />
<rect x="14" y="3" width="1" height="1" fill="#787A77" />
<rect x="15" y="3" width="1" height="1" fill="#747772" />
<rect x="16" y="3" width="1" height="1" fill="#747570" />
<rect x="17" y="3" width="1" height="1" fill="#72736E" />
<rect x="18" y="3" width="1" height="1" fill="#010400" />
<rect x="9" y="4" width="1" height="1" fill="#040100" />
<rect x="10" y="4" width="1" height="1" fill="#8B857E" />
<rect x="11" y="4" width="1" height="1" fill="#898580" />
<rect x="12" y="4" width="1" height="1" fill="#000100" />
<rect x="13" y="4" width="1" height="1" fill="#000001" />
<rect x="14" y="4" width="1" height="1" fill="#000001" />
<rect x="15" y="4" width="1" height="1" fill="#010103" />
<rect x="16" y="4" width="1" height="1" fill="#030001" />
<rect x="17" y="4" width="1" height="1" fill="#686664" />
<rect x="18" y="4" width="1" height="1" fill="#646761" />
<rect x="19" y="4" width="1" height="1" fill="#000200" />
<rect x="9" y="5" width="1" height="1" fill="#050000" />
<rect x="10" y="5" width="1" height="1" fill="#8A837F" />
<rect x="11" y="5" width="1" height="1" fill="#040000" />
<rect x="17" y="5" width="1" height="1" fill="#000004" />
<rect x="18" y="5" width="1" height="1" fill="#5A5A5A" />
<rect x="19" y="5" width="1" height="1" fill="#000100" />
<rect x="8" y="6" width="1" height="1" fill="#060000" />
<rect x="9" y="6" width="1" height="1" fill="#898582" />
<rect x="10" y="6" width="1" height="1" fill="#000000" />
<rect x="12" y="6" width="1" height="1" fill="#010103" />
<rect x="13" y="6" width="1" height="1" fill="#000006" />
<rect x="14" y="6" width="1" height="1" fill="#00000E" />
<rect x="15" y="6" width="1" height="1" fill="#000012" />
<rect x="16" y="6" width="1" height="1" fill="#000012" />
<rect x="17" y="6" width="1" height="1" fill="#00000E" />
<rect x="18" y="6" width="1" height="1" fill="#58555A" />
<rect x="19" y="6" width="1" height="1" fill="#040001" />
<rect x="2" y="7" width="1" height="1" fill="#010200" />
<rect x="3" y="7" width="1" height="1" fill="#020300" />
<rect x="4" y="7" width="1" height="1" fill="#000000" />
<rect x="8" y="7" width="1" height="1" fill="#030000" />
<rect x="9" y="7" width="1" height="1" fill="#878282" />
<rect x="10" y="7" width="1" height="1" fill="#010200" />
<rect x="11" y="7" width="1" height="1" fill="#000006" />
<rect x="12" y="7" width="1" height="1" fill="#6F7086" />
<rect x="13" y="7" width="1" height="1" fill="#545579" />
<rect x="14" y="7" width="1" height="1" fill="#4F5384" />
<rect x="15" y="7" width="1" height="1" fill="#7E80B8" />
<rect x="16" y="7" width="1" height="1" fill="#7C7FB2" />
<rect x="17" y="7" width="1" height="1" fill="#000024" />
<rect x="18" y="7" width="1" height="1" fill="#494659" />
<rect x="19" y="7" width="1" height="1" fill="#020005" />
<rect x="20" y="7" width="1" height="1" fill="#070106" />
<rect x="1" y="8" width="1" height="1" fill="#000000" />
<rect x="2" y="8" width="1" height="1" fill="#747572" />
<rect x="3" y="8" width="1" height="1" fill="#727270" />
<rect x="4" y="8" width="1" height="1" fill="#72736E" />
<rect x="5" y="8" width="1" height="1" fill="#000000" />
<rect x="7" y="8" width="1" height="1" fill="#020000" />
<rect x="8" y="8" width="1" height="1" fill="#030100" />
<rect x="9" y="8" width="1" height="1" fill="#888584" />
<rect x="10" y="8" width="1" height="1" fill="#010200" />
<rect x="11" y="8" width="1" height="1" fill="#6E7285" />
<rect x="12" y="8" width="1" height="1" fill="#4E5492" />
<rect x="13" y="8" width="1" height="1" fill="#5B63C0" />
<rect x="14" y="8" width="1" height="1" fill="#5B62D1" />
<rect x="15" y="8" width="1" height="1" fill="#5B61D5" />
<rect x="16" y="8" width="1" height="1" fill="#5B61C8" />
<rect x="17" y="8" width="1" height="1" fill="#6367B5" />
<rect x="18" y="8" width="1" height="1" fill="#686793" />
<rect x="19" y="8" width="1" height="1" fill="#3A374A" />
<rect x="20" y="8" width="1" height="1" fill="#000004" />
<rect x="0" y="9" width="1" height="1" fill="#000000" />
<rect x="1" y="9" width="1" height="1" fill="#6F6F6B" />
<rect x="2" y="9" width="1" height="1" fill="#727270" />
<rect x="3" y="9" width="1" height="1" fill="#666764" />
<rect x="4" y="9" width="1" height="1" fill="#666762" />
<rect x="5" y="9" width="1" height="1" fill="#010200" />
<rect x="7" y="9" width="1" height="1" fill="#020000" />
<rect x="8" y="9" width="1" height="1" fill="#060100" />
<rect x="9" y="9" width="1" height="1" fill="#75716E" />
<rect x="10" y="9" width="1" height="1" fill="#020000" />
<rect x="11" y="9" width="1" height="1" fill="#555769" />
<rect x="12" y="9" width="1" height="1" fill="#6167A3" />
<rect x="13" y="9" width="1" height="1" fill="#5C62BB" />
<rect x="14" y="9" width="1" height="1" fill="#5C62CB" />
<rect x="15" y="9" width="1" height="1" fill="#5E61CB" />
<rect x="16" y="9" width="1" height="1" fill="#5D60BD" />
<rect x="17" y="9" width="1" height="1" fill="#33357D" />
<rect x="18" y="9" width="1" height="1" fill="#35365F" />
<rect x="19" y="9" width="1" height="1" fill="#373749" />
<rect x="20" y="9" width="1" height="1" fill="#000003" />
<rect x="0" y="10" width="1" height="1" fill="#000000" />
<rect x="1" y="10" width="1" height="1" fill="#777873" />
<rect x="2" y="10" width="1" height="1" fill="#666764" />
<rect x="3" y="10" width="1" height="1" fill="#565754" />
<rect x="4" y="10" width="1" height="1" fill="#000100" />
<rect x="7" y="10" width="1" height="1" fill="#030000" />
<rect x="8" y="10" width="1" height="1" fill="#756F6A" />
<rect x="9" y="10" width="1" height="1" fill="#77716C" />
<rect x="10" y="10" width="1" height="1" fill="#5E5856" />
<rect x="11" y="10" width="1" height="1" fill="#676467" />
<rect x="12" y="10" width="1" height="1" fill="#5A5768" />
<rect x="13" y="10" width="1" height="1" fill="#57556D" />
<rect x="14" y="10" width="1" height="1" fill="#57536E" />
<rect x="15" y="10" width="1" height="1" fill="#4D4963" />
<rect x="16" y="10" width="1" height="1" fill="#4C465F" />
<rect x="17" y="10" width="1" height="1" fill="#4B4559" />
<rect x="18" y="10" width="1" height="1" fill="#72717A" />
<rect x="19" y="10" width="1" height="1" fill="#000003" />
<rect x="20" y="10" width="1" height="1" fill="#000000" />
<rect x="1" y="11" width="1" height="1" fill="#000100" />
<rect x="2" y="11" width="1" height="1" fill="#010200" />
<rect x="3" y="11" width="1" height="1" fill="#686866" />
<rect x="4" y="11" width="1" height="1" fill="#575853" />
<rect x="5" y="11" width="1" height="1" fill="#000000" />
<rect x="7" y="11" width="1" height="1" fill="#030000" />
<rect x="8" y="11" width="1" height="1" fill="#77716C" />
<rect x="9" y="11" width="1" height="1" fill="#79706A" />
<rect x="10" y="11" width="1" height="1" fill="#7C7571" />
<rect x="11" y="11" width="1" height="1" fill="#99938E" />
<rect x="12" y="11" width="1" height="1" fill="#969189" />
<rect x="13" y="11" width="1" height="1" fill="#8A847B" />
<rect x="14" y="11" width="1" height="1" fill="#8C857A" />
<rect x="15" y="11" width="1" height="1" fill="#8D8379" />
<rect x="16" y="11" width="1" height="1" fill="#80766E" />
<rect x="17" y="11" width="1" height="1" fill="#7B736C" />
<rect x="18" y="11" width="1" height="1" fill="#040100" />
<rect x="19" y="11" width="1" height="1" fill="#73716D" />
<rect x="20" y="11" width="1" height="1" fill="#757371" />
<rect x="21" y="11" width="1" height="1" fill="#000000" />
<rect x="3" y="12" width="1" height="1" fill="#010200" />
<rect x="4" y="12" width="1" height="1" fill="#767672" />
<rect x="5" y="12" width="1" height="1" fill="#656663" />
<rect x="6" y="12" width="1" height="1" fill="#000000" />
<rect x="7" y="12" width="1" height="1" fill="#020000" />
<rect x="8" y="12" width="1" height="1" fill="#79706C" />
<rect x="9" y="12" width="1" height="1" fill="#7B736C" />
<rect x="10" y="12" width="1" height="1" fill="#7C7571" />
<rect x="11" y="12" width="1" height="1" fill="#96928D" />
<rect x="12" y="12" width="1" height="1" fill="#96938B" />
<rect x="13" y="12" width="1" height="1" fill="#88857B" />
<rect x="14" y="12" width="1" height="1" fill="#8B8479" />
<rect x="15" y="12" width="1" height="1" fill="#8C8277" />
<rect x="16" y="12" width="1" height="1" fill="#7F746F" />
<rect x="17" y="12" width="1" height="1" fill="#7A726B" />
<rect x="18" y="12" width="1" height="1" fill="#767069" />
<rect x="19" y="12" width="1" height="1" fill="#040100" />
<rect x="20" y="12" width="1" height="1" fill="#6B6764" />
<rect x="21" y="12" width="1" height="1" fill="#686664" />
<rect x="22" y="12" width="1" height="1" fill="#000100" />
<rect x="4" y="13" width="1" height="1" fill="#000100" />
<rect x="5" y="13" width="1" height="1" fill="#71716F" />
<rect x="6" y="13" width="1" height="1" fill="#5A5A5A" />
<rect x="7" y="13" width="1" height="1" fill="#020000" />
<rect x="8" y="13" width="1" height="1" fill="#79706C" />
<rect x="9" y="13" width="1" height="1" fill="#7B736C" />
<rect x="10" y="13" width="1" height="1" fill="#7C7571" />
<rect x="11" y="13" width="1" height="1" fill="#96928D" />
<rect x="12" y="13" width="1" height="1" fill="#94938B" />
<rect x="13" y="13" width="1" height="1" fill="#88857D" />
<rect x="14" y="13" width="1" height="1" fill="#8B837B" />
<rect x="15" y="13" width="1" height="1" fill="#8C8179" />
<rect x="16" y="13" width="1" height="1" fill="#7D756F" />
<rect x="17" y="13" width="1" height="1" fill="#7A716D" />
<rect x="18" y="13" width="1" height="1" fill="#77716A" />
<rect x="19" y="13" width="1" height="1" fill="#756F68" />
<rect x="20" y="13" width="1" height="1" fill="#030000" />
<rect x="21" y="13" width="1" height="1" fill="#5B5655" />
<rect x="22" y="13" width="1" height="1" fill="#686662" />
<rect x="23" y="13" width="1" height="1" fill="#000100" />
<rect x="4" y="14" width="1" height="1" fill="#000100" />
<rect x="5" y="14" width="1" height="1" fill="#727270" />
<rect x="6" y="14" width="1" height="1" fill="#656565" />
<rect x="7" y="14" width="1" height="1" fill="#000000" />
<rect x="8" y="14" width="1" height="1" fill="#7A716D" />
<rect x="9" y="14" width="1" height="1" fill="#7B736C" />
<rect x="10" y="14" width="1" height="1" fill="#7C7571" />
<rect x="11" y="14" width="1" height="1" fill="#96928D" />
<rect x="12" y="14" width="1" height="1" fill="#94938B" />
<rect x="13" y="14" width="1" height="1" fill="#88857D" />
<rect x="14" y="14" width="1" height="1" fill="#8B837B" />
<rect x="15" y="14" width="1" height="1" fill="#8C8179" />
<rect x="16" y="14" width="1" height="1" fill="#7D756F" />
<rect x="17" y="14" width="1" height="1" fill="#7A716D" />
<rect x="18" y="14" width="1" height="1" fill="#79746C" />
<rect x="19" y="14" width="1" height="1" fill="#79746C" />
<rect x="20" y="14" width="1" height="1" fill="#020000" />
<rect x="21" y="14" width="1" height="1" fill="#040000" />
<rect x="22" y="14" width="1" height="1" fill="#686662" />
<rect x="23" y="14" width="1" height="1" fill="#71726D" />
<rect x="24" y="14" width="1" height="1" fill="#000100" />
<rect x="5" y="15" width="1" height="1" fill="#000000" />
<rect x="6" y="15" width="1" height="1" fill="#656565" />
<rect x="7" y="15" width="1" height="1" fill="#030001" />
<rect x="8" y="15" width="1" height="1" fill="#776F6B" />
<rect x="9" y="15" width="1" height="1" fill="#776F69" />
<rect x="10" y="15" width="1" height="1" fill="#7C7571" />
<rect x="11" y="15" width="1" height="1" fill="#96928D" />
<rect x="12" y="15" width="1" height="1" fill="#94938B" />
<rect x="13" y="15" width="1" height="1" fill="#88857D" />
<rect x="14" y="15" width="1" height="1" fill="#8B837B" />
<rect x="15" y="15" width="1" height="1" fill="#8C8179" />
<rect x="16" y="15" width="1" height="1" fill="#7D756F" />
<rect x="17" y="15" width="1" height="1" fill="#7A716D" />
<rect x="18" y="15" width="1" height="1" fill="#77716A" />
<rect x="19" y="15" width="1" height="1" fill="#77716A" />
<rect x="20" y="15" width="1" height="1" fill="#020000" />
<rect x="22" y="15" width="1" height="1" fill="#020000" />
<rect x="23" y="15" width="1" height="1" fill="#666762" />
<rect x="24" y="15" width="1" height="1" fill="#000100" />
<rect x="5" y="16" width="1" height="1" fill="#000000" />
<rect x="6" y="16" width="1" height="1" fill="#656565" />
<rect x="7" y="16" width="1" height="1" fill="#5A5858" />
<rect x="8" y="16" width="1" height="1" fill="#776F6B" />
<rect x="9" y="16" width="1" height="1" fill="#7A726B" />
<rect x="10" y="16" width="1" height="1" fill="#7D7772" />
<rect x="11" y="16" width="1" height="1" fill="#96928D" />
<rect x="12" y="16" width="1" height="1" fill="#94938B" />
<rect x="13" y="16" width="1" height="1" fill="#88857D" />
<rect x="14" y="16" width="1" height="1" fill="#8B837B" />
<rect x="15" y="16" width="1" height="1" fill="#8C8179" />
<rect x="16" y="16" width="1" height="1" fill="#7D756F" />
<rect x="17" y="16" width="1" height="1" fill="#7A716D" />
<rect x="18" y="16" width="1" height="1" fill="#77716A" />
<rect x="19" y="16" width="1" height="1" fill="#756F68" />
<rect x="20" y="16" width="1" height="1" fill="#040000" />
<rect x="22" y="16" width="1" height="1" fill="#020000" />
<rect x="23" y="16" width="1" height="1" fill="#696A65" />
<rect x="24" y="16" width="1" height="1" fill="#010200" />
<rect x="5" y="17" width="1" height="1" fill="#010200" />
<rect x="6" y="17" width="1" height="1" fill="#656565" />
<rect x="7" y="17" width="1" height="1" fill="#5E5B5C" />
<rect x="8" y="17" width="1" height="1" fill="#79706C" />
<rect x="9" y="17" width="1" height="1" fill="#776F69" />
<rect x="10" y="17" width="1" height="1" fill="#79736E" />
<rect x="11" y="17" width="1" height="1" fill="#96928D" />
<rect x="12" y="17" width="1" height="1" fill="#94938B" />
<rect x="13" y="17" width="1" height="1" fill="#87847C" />
<rect x="14" y="17" width="1" height="1" fill="#8A8279" />
<rect x="15" y="17" width="1" height="1" fill="#8A8078" />
<rect x="16" y="17" width="1" height="1" fill="#7C746E" />
<rect x="17" y="17" width="1" height="1" fill="#79706C" />
<rect x="18" y="17" width="1" height="1" fill="#78726B" />
<rect x="19" y="17" width="1" height="1" fill="#77716A" />
<rect x="20" y="17" width="1" height="1" fill="#060100" />
<rect x="21" y="17" width="1" height="1" fill="#030000" />
<rect x="22" y="17" width="1" height="1" fill="#030100" />
<rect x="23" y="17" width="1" height="1" fill="#686864" />
<rect x="24" y="17" width="1" height="1" fill="#010200" />
<rect x="6" y="18" width="1" height="1" fill="#030001" />
<rect x="7" y="18" width="1" height="1" fill="#5C5758" />
<rect x="8" y="18" width="1" height="1" fill="#7B726E" />
<rect x="9" y="18" width="1" height="1" fill="#79706A" />
<rect x="10" y="18" width="1" height="1" fill="#7E7873" />
<rect x="11" y="18" width="1" height="1" fill="#88847F" />
<rect x="12" y="18" width="1" height="1" fill="#97968D" />
<rect x="13" y="18" width="1" height="1" fill="#89867E" />
<rect x="14" y="18" width="1" height="1" fill="#8C857C" />
<rect x="15" y="18" width="1" height="1" fill="#8D837B" />
<rect x="16" y="18" width="1" height="1" fill="#7E7670" />
<rect x="17" y="18" width="1" height="1" fill="#7B726E" />
<rect x="18" y="18" width="1" height="1" fill="#77716A" />
<rect x="19" y="18" width="1" height="1" fill="#070100" />
<rect x="20" y="18" width="1" height="1" fill="#030000" />
<rect x="21" y="18" width="1" height="1" fill="#5F5B5A" />
<rect x="22" y="18" width="1" height="1" fill="#5A5854" />
<rect x="23" y="18" width="1" height="1" fill="#585954" />
<rect x="24" y="18" width="1" height="1" fill="#000000" />
<rect x="6" y="19" width="1" height="1" fill="#000000" />
<rect x="7" y="19" width="1" height="1" fill="#020000" />
<rect x="8" y="19" width="1" height="1" fill="#79706C" />
<rect x="9" y="19" width="1" height="1" fill="#79706A" />
<rect x="10" y="19" width="1" height="1" fill="#7A7470" />
<rect x="11" y="19" width="1" height="1" fill="#898580" />
<rect x="12" y="19" width="1" height="1" fill="#97948C" />
<rect x="13" y="19" width="1" height="1" fill="#8A847D" />
<rect x="14" y="19" width="1" height="1" fill="#8D837B" />
<rect x="15" y="19" width="1" height="1" fill="#8C8179" />
<rect x="16" y="19" width="1" height="1" fill="#7F746F" />
<rect x="17" y="19" width="1" height="1" fill="#7A716D" />
<rect x="18" y="19" width="1" height="1" fill="#060000" />
<rect x="19" y="19" width="1" height="1" fill="#4B4842" />
<rect x="20" y="19" width="1" height="1" fill="#4D4945" />
<rect x="21" y="19" width="1" height="1" fill="#4C4A48" />
<rect x="22" y="19" width="1" height="1" fill="#000100" />
<rect x="23" y="19" width="1" height="1" fill="#000000" />
<rect x="7" y="20" width="1" height="1" fill="#060200" />
<rect x="8" y="20" width="1" height="1" fill="#78726D" />
<rect x="9" y="20" width="1" height="1" fill="#76706B" />
<rect x="10" y="20" width="1" height="1" fill="#7D7772" />
<rect x="11" y="20" width="1" height="1" fill="#8A837F" />
<rect x="12" y="20" width="1" height="1" fill="#97928B" />
<rect x="13" y="20" width="1" height="1" fill="#8B837D" />
<rect x="14" y="20" width="1" height="1" fill="#8E817D" />
<rect x="15" y="20" width="1" height="1" fill="#8F7F7C" />
<rect x="16" y="20" width="1" height="1" fill="#807572" />
<rect x="17" y="20" width="1" height="1" fill="#776F6B" />
<rect x="18" y="20" width="1" height="1" fill="#797370" />
<rect x="19" y="20" width="1" height="1" fill="#3D3936" />
<rect x="20" y="20" width="1" height="1" fill="#020000" />
<rect x="21" y="20" width="1" height="1" fill="#000000" />
<rect x="22" y="20" width="1" height="1" fill="#000000" />
<rect x="7" y="21" width="1" height="1" fill="#020000" />
<rect x="8" y="21" width="1" height="1" fill="#78746E" />
<rect x="9" y="21" width="1" height="1" fill="#77706E" />
<rect x="10" y="21" width="1" height="1" fill="#7C7573" />
<rect x="11" y="21" width="1" height="1" fill="#88827E" />
<rect x="12" y="21" width="1" height="1" fill="#99938E" />
<rect x="13" y="21" width="1" height="1" fill="#89807C" />
<rect x="14" y="21" width="1" height="1" fill="#8E817D" />
<rect x="15" y="21" width="1" height="1" fill="#8D807C" />
<rect x="16" y="21" width="1" height="1" fill="#817673" />
<rect x="17" y="21" width="1" height="1" fill="#79706C" />
<rect x="18" y="21" width="1" height="1" fill="#75716E" />
<rect x="19" y="21" width="1" height="1" fill="#030100" />
<rect x="20" y="21" width="1" height="1" fill="#000000" />
<rect x="7" y="22" width="1" height="1" fill="#000000" />
<rect x="8" y="22" width="1" height="1" fill="#74726E" />
<rect x="9" y="22" width="1" height="1" fill="#74706F" />
<rect x="10" y="22" width="1" height="1" fill="#7B7776" />
<rect x="11" y="22" width="1" height="1" fill="#96928F" />
<rect x="12" y="22" width="1" height="1" fill="#96928F" />
<rect x="13" y="22" width="1" height="1" fill="#888280" />
<rect x="14" y="22" width="1" height="1" fill="#88827E" />
<rect x="15" y="22" width="1" height="1" fill="#8A847D" />
<rect x="16" y="22" width="1" height="1" fill="#7D7772" />
<rect x="17" y="22" width="1" height="1" fill="#74706B" />
<rect x="18" y="22" width="1" height="1" fill="#75736F" />
<rect x="19" y="22" width="1" height="1" fill="#010200" />
<rect x="8" y="23" width="1" height="1" fill="#040200" />
<rect x="9" y="23" width="1" height="1" fill="#020000" />
<rect x="10" y="23" width="1" height="1" fill="#030100" />
<rect x="11" y="23" width="1" height="1" fill="#939190" />
<rect x="12" y="23" width="1" height="1" fill="#969191" />
<rect x="13" y="23" width="1" height="1" fill="#878380" />
<rect x="14" y="23" width="1" height="1" fill="#88847F" />
<rect x="15" y="23" width="1" height="1" fill="#88847F" />
<rect x="16" y="23" width="1" height="1" fill="#7B7772" />
<rect x="17" y="23" width="1" height="1" fill="#040200" />
<rect x="18" y="23" width="1" height="1" fill="#000000" />
<rect x="11" y="24" width="1" height="1" fill="#000000" />
<rect x="12" y="24" width="1" height="1" fill="#020000" />
<rect x="13" y="24" width="1" height="1" fill="#030100" />
<rect x="14" y="24" width="1" height="1" fill="#010000" />
<rect x="15" y="24" width="1" height="1" fill="#030000" />
<rect x="16" y="24" width="1" height="1" fill="#030100" />
</svg>