<?xml version="1.0" encoding="UTF-8" ?>
<svg version="1.1" width="25" height="25" xmlns="http://www.w3.org/2000/svg">
<rect x="3" y="3" width="1" height="1" fill="#010200" />
<rect x="4" y="3" width="1" height="1" fill="#000200" />
<rect x="5" y="3" width="1" height="1" fill="#000400" />
<rect x="6" y="3" width="1" height="1" fill="#000200" />
<rect x="3" y="4" width="1" height="1" fill="#000100" />
<rect x="4" y="4" width="1" height="1" fill="#797B7A" />
<rect x="5" y="4" width="1" height="1" fill="#767B79" />
<rect x="6" y="4" width="1" height="1" fill="#000400" />
<rect x="9" y="4" width="1" height="1" fill="#000100" />
<rect x="10" y="4" width="1" height="1" fill="#000000" />
<rect x="11" y="4" width="1" height="1" fill="#000100" />
<rect x="12" y="4" width="1" height="1" fill="#000100" />
<rect x="13" y="4" width="1" height="1" fill="#000100" />
<rect x="14" y="4" width="1" height="1" fill="#000002" />
<rect x="15" y="4" width="1" height="1" fill="#000000" />
<rect x="16" y="4" width="1" height="1" fill="#000000" />
<rect x="3" y="5" width="1" height="1" fill="#000002" />
<rect x="4" y="5" width="1" height="1" fill="#797B7C" />
<rect x="5" y="5" width="1" height="1" fill="#75797A" />
<rect x="6" y="5" width="1" height="1" fill="#777C7A" />
<rect x="7" y="5" width="1" height="1" fill="#000100" />
<rect x="8" y="5" width="1" height="1" fill="#040200" />
<rect x="9" y="5" width="1" height="1" fill="#767976" />
<rect x="10" y="5" width="1" height="1" fill="#787A79" />
<rect x="11" y="5" width="1" height="1" fill="#787A79" />
<rect x="12" y="5" width="1" height="1" fill="#787A79" />
<rect x="13" y="5" width="1" height="1" fill="#787A7B" />
<rect x="14" y="5" width="1" height="1" fill="#78797D" />
<rect x="15" y="5" width="1" height="1" fill="#76787A" />
<rect x="16" y="5" width="1" height="1" fill="#767978" />
<rect x="17" y="5" width="1" height="1" fill="#000000" />
<rect x="3" y="6" width="1" height="1" fill="#000203" />
<rect x="4" y="6" width="1" height="1" fill="#797B7C" />
<rect x="5" y="6" width="1" height="1" fill="#767A7B" />
<rect x="6" y="6" width="1" height="1" fill="#787A79" />
<rect x="7" y="6" width="1" height="1" fill="#040300" />
<rect x="8" y="6" width="1" height="1" fill="#302F27" />
<rect x="9" y="6" width="1" height="1" fill="#5C5F59" />
<rect x="10" y="6" width="1" height="1" fill="#757A76" />
<rect x="11" y="6" width="1" height="1" fill="#797E7F" />
<rect x="12" y="6" width="1" height="1" fill="#767A7B" />
<rect x="13" y="6" width="1" height="1" fill="#78797D" />
<rect x="14" y="6" width="1" height="1" fill="#78797D" />
<rect x="15" y="6" width="1" height="1" fill="#76787A" />
<rect x="16" y="6" width="1" height="1" fill="#767978" />
<rect x="17" y="6" width="1" height="1" fill="#2D3129" />
<rect x="18" y="6" width="1" height="1" fill="#000300" />
<rect x="3" y="7" width="1" height="1" fill="#000203" />
<rect x="4" y="7" width="1" height="1" fill="#797B7C" />
<rect x="5" y="7" width="1" height="1" fill="#797B7A" />
<rect x="6" y="7" width="1" height="1" fill="#585956" />
<rect x="7" y="7" width="1" height="1" fill="#333026" />
<rect x="8" y="7" width="1" height="1" fill="#2F2D22" />
<rect x="9" y="7" width="1" height="1" fill="#595D55" />
<rect x="10" y="7" width="1" height="1" fill="#565C58" />
<rect x="11" y="7" width="1" height="1" fill="#75797A" />
<rect x="12" y="7" width="1" height="1" fill="#767A7D" />
<rect x="13" y="7" width="1" height="1" fill="#78797D" />
<rect x="14" y="7" width="1" height="1" fill="#78797D" />
<rect x="15" y="7" width="1" height="1" fill="#76787A" />
<rect x="16" y="7" width="1" height="1" fill="#767978" />
<rect x="17" y="7" width="1" height="1" fill="#2D3129" />
<rect x="18" y="7" width="1" height="1" fill="#565951" />
<rect x="19" y="7" width="1" height="1" fill="#000000" />
<rect x="3" y="8" width="1" height="1" fill="#000203" />
<rect x="4" y="8" width="1" height="1" fill="#757877" />
<rect x="5" y="8" width="1" height="1" fill="#787A77" />
<rect x="6" y="8" width="1" height="1" fill="#585A52" />
<rect x="7" y="8" width="1" height="1" fill="#322F22" />
<rect x="8" y="8" width="1" height="1" fill="#322F22" />
<rect x="9" y="8" width="1" height="1" fill="#585C54" />
<rect x="10" y="8" width="1" height="1" fill="#565E59" />
<rect x="11" y="8" width="1" height="1" fill="#737A7A" />
<rect x="12" y="8" width="1" height="1" fill="#757C7E" />
<rect x="13" y="8" width="1" height="1" fill="#787C7F" />
<rect x="14" y="8" width="1" height="1" fill="#76787C" />
<rect x="15" y="8" width="1" height="1" fill="#757779" />
<rect x="16" y="8" width="1" height="1" fill="#797B7A" />
<rect x="17" y="8" width="1" height="1" fill="#2D3129" />
<rect x="18" y="8" width="1" height="1" fill="#595D55" />
<rect x="19" y="8" width="1" height="1" fill="#767976" />
<rect x="20" y="8" width="1" height="1" fill="#010302" />
<rect x="3" y="9" width="1" height="1" fill="#000203" />
<rect x="4" y="9" width="1" height="1" fill="#787A79" />
<rect x="5" y="9" width="1" height="1" fill="#7D7D79" />
<rect x="6" y="9" width="1" height="1" fill="#302F27" />
<rect x="7" y="9" width="1" height="1" fill="#363123" />
<rect x="8" y="9" width="1" height="1" fill="#312E21" />
<rect x="9" y="9" width="1" height="1" fill="#595D55" />
<rect x="10" y="9" width="1" height="1" fill="#555C58" />
<rect x="11" y="9" width="1" height="1" fill="#545E5D" />
<rect x="12" y="9" width="1" height="1" fill="#6F787A" />
<rect x="13" y="9" width="1" height="1" fill="#55595D" />
<rect x="14" y="9" width="1" height="1" fill="#595B5F" />
<rect x="15" y="9" width="1" height="1" fill="#595B5D" />
<rect x="16" y="9" width="1" height="1" fill="#7A7C7B" />
<rect x="17" y="9" width="1" height="1" fill="#2E322A" />
<rect x="18" y="9" width="1" height="1" fill="#585C54" />
<rect x="19" y="9" width="1" height="1" fill="#595C59" />
<rect x="20" y="9" width="1" height="1" fill="#757877" />
<rect x="21" y="9" width="1" height="1" fill="#010200" />
<rect x="3" y="10" width="1" height="1" fill="#000203" />
<rect x="4" y="10" width="1" height="1" fill="#787876" />
<rect x="5" y="10" width="1" height="1" fill="#7A7970" />
<rect x="6" y="10" width="1" height="1" fill="#353326" />
<rect x="7" y="10" width="1" height="1" fill="#322E1F" />
<rect x="8" y="10" width="1" height="1" fill="#312E21" />
<rect x="9" y="10" width="1" height="1" fill="#575A54" />
<rect x="10" y="10" width="1" height="1" fill="#525C58" />
<rect x="11" y="10" width="1" height="1" fill="#515D58" />
<rect x="12" y="10" width="1" height="1" fill="#535D5C" />
<rect x="13" y="10" width="1" height="1" fill="#55595D" />
<rect x="14" y="10" width="1" height="1" fill="#595B5F" />
<rect x="15" y="10" width="1" height="1" fill="#57595B" />
<rect x="16" y="10" width="1" height="1" fill="#7A7C7B" />
<rect x="17" y="10" width="1" height="1" fill="#2D2F27" />
<rect x="18" y="10" width="1" height="1" fill="#585A52" />
<rect x="19" y="10" width="1" height="1" fill="#585B58" />
<rect x="20" y="10" width="1" height="1" fill="#595C5B" />
<rect x="21" y="10" width="1" height="1" fill="#000000" />
<rect x="3" y="11" width="1" height="1" fill="#000000" />
<rect x="4" y="11" width="1" height="1" fill="#5A5A58" />
<rect x="5" y="11" width="1" height="1" fill="#5C5C51" />
<rect x="6" y="11" width="1" height="1" fill="#322F22" />
<rect x="7" y="11" width="1" height="1" fill="#060100" />
<rect x="8" y="11" width="1" height="1" fill="#343129" />
<rect x="9" y="11" width="1" height="1" fill="#585B56" />
<rect x="10" y="11" width="1" height="1" fill="#515954" />
<rect x="11" y="11" width="1" height="1" fill="#555D56" />
<rect x="12" y="11" width="1" height="1" fill="#555D56" />
<rect x="13" y="11" width="1" height="1" fill="#585B58" />
<rect x="14" y="11" width="1" height="1" fill="#5A5A58" />
<rect x="15" y="11" width="1" height="1" fill="#5B5B5B" />
<rect x="16" y="11" width="1" height="1" fill="#797977" />
<rect x="17" y="11" width="1" height="1" fill="#30312C" />
<rect x="18" y="11" width="1" height="1" fill="#000000" />
<rect x="19" y="11" width="1" height="1" fill="#000200" />
<rect x="20" y="11" width="1" height="1" fill="#000201" />
<rect x="21" y="11" width="1" height="1" fill="#010200" />
<rect x="3" y="12" width="1" height="1" fill="#010200" />
<rect x="4" y="12" width="1" height="1" fill="#2C2D28" />
<rect x="5" y="12" width="1" height="1" fill="#333229" />
<rect x="6" y="12" width="1" height="1" fill="#2F2C24" />
<rect x="7" y="12" width="1" height="1" fill="#030100" />
<rect x="8" y="12" width="1" height="1" fill="#000000" />
<rect x="9" y="12" width="1" height="1" fill="#32332E" />
<rect x="10" y="12" width="1" height="1" fill="#2F3027" />
<rect x="11" y="12" width="1" height="1" fill="#303224" />
<rect x="12" y="12" width="1" height="1" fill="#313222" />
<rect x="13" y="12" width="1" height="1" fill="#323020" />
<rect x="14" y="12" width="1" height="1" fill="#312E23" />
<rect x="15" y="12" width="1" height="1" fill="#333028" />
<rect x="16" y="12" width="1" height="1" fill="#33312D" />
<rect x="17" y="12" width="1" height="1" fill="#030401" />
<rect x="3" y="13" width="1" height="1" fill="#000100" />
<rect x="4" y="13" width="1" height="1" fill="#2F2D29" />
<rect x="5" y="13" width="1" height="1" fill="#302F29" />
<rect x="6" y="13" width="1" height="1" fill="#020000" />
<rect x="9" y="13" width="1" height="1" fill="#000100" />
<rect x="10" y="13" width="1" height="1" fill="#020100" />
<rect x="11" y="13" width="1" height="1" fill="#343221" />
<rect x="12" y="13" width="1" height="1" fill="#312E18" />
<rect x="13" y="13" width="1" height="1" fill="#322E1D" />
<rect x="14" y="13" width="1" height="1" fill="#332E22" />
<rect x="15" y="13" width="1" height="1" fill="#030000" />
<rect x="16" y="13" width="1" height="1" fill="#030100" />
<rect x="3" y="14" width="1" height="1" fill="#040200" />
<rect x="4" y="14" width="1" height="1" fill="#020000" />
<rect x="5" y="14" width="1" height="1" fill="#000000" />
<rect x="6" y="14" width="1" height="1" fill="#030100" />
<rect x="10" y="14" width="1" height="1" fill="#030200" />
<rect x="11" y="14" width="1" height="1" fill="#333120" />
<rect x="12" y="14" width="1" height="1" fill="#32301C" />
<rect x="13" y="14" width="1" height="1" fill="#5E5C4F" />
<rect x="14" y="14" width="1" height="1" fill="#5E5B53" />
<rect x="15" y="14" width="1" height="1" fill="#030100" />
<rect x="10" y="15" width="1" height="1" fill="#030200" />
<rect x="11" y="15" width="1" height="1" fill="#32301E" />
<rect x="12" y="15" width="1" height="1" fill="#313220" />
<rect x="13" y="15" width="1" height="1" fill="#313028" />
<rect x="14" y="15" width="1" height="1" fill="#585956" />
<rect x="15" y="15" width="1" height="1" fill="#020202" />
<rect x="9" y="16" width="1" height="1" fill="#040100" />
<rect x="10" y="16" width="1" height="1" fill="#322F22" />
<rect x="11" y="16" width="1" height="1" fill="#303120" />
<rect x="12" y="16" width="1" height="1" fill="#2E2E20" />
<rect x="13" y="16" width="1" height="1" fill="#575A54" />
<rect x="14" y="16" width="1" height="1" fill="#585A5A" />
<rect x="15" y="16" width="1" height="1" fill="#787A7B" />
<rect x="16" y="16" width="1" height="1" fill="#020204" />
<rect x="8" y="17" width="1" height="1" fill="#030000" />
<rect x="9" y="17" width="1" height="1" fill="#322F24" />
<rect x="10" y="17" width="1" height="1" fill="#323020" />
<rect x="11" y="17" width="1" height="1" fill="#303120" />
<rect x="12" y="17" width="1" height="1" fill="#5A5C50" />
<rect x="13" y="17" width="1" height="1" fill="#595E5A" />
<rect x="14" y="17" width="1" height="1" fill="#777B7C" />
<rect x="15" y="17" width="1" height="1" fill="#75797C" />
<rect x="16" y="17" width="1" height="1" fill="#76787C" />
<rect x="17" y="17" width="1" height="1" fill="#000001" />
<rect x="7" y="18" width="1" height="1" fill="#030000" />
<rect x="8" y="18" width="1" height="1" fill="#343129" />
<rect x="9" y="18" width="1" height="1" fill="#322D23" />
<rect x="10" y="18" width="1" height="1" fill="#5D5A4E" />
<rect x="11" y="18" width="1" height="1" fill="#5A5A4A" />
<rect x="12" y="18" width="1" height="1" fill="#585B4C" />
<rect x="13" y="18" width="1" height="1" fill="#757A74" />
<rect x="14" y="18" width="1" height="1" fill="#727979" />
<rect x="15" y="18" width="1" height="1" fill="#74787B" />
<rect x="16" y="18" width="1" height="1" fill="#78797D" />
<rect x="17" y="18" width="1" height="1" fill="#797A7E" />
<rect x="18" y="18" width="1" height="1" fill="#000002" />
<rect x="6" y="19" width="1" height="1" fill="#000000" />
<rect x="7" y="19" width="1" height="1" fill="#2F2E27" />
<rect x="8" y="19" width="1" height="1" fill="#2F2C24" />
<rect x="9" y="19" width="1" height="1" fill="#363027" />
<rect x="10" y="19" width="1" height="1" fill="#322F24" />
<rect x="11" y="19" width="1" height="1" fill="#303022" />
<rect x="12" y="19" width="1" height="1" fill="#5C5E52" />
<rect x="13" y="19" width="1" height="1" fill="#555B54" />
<rect x="14" y="19" width="1" height="1" fill="#555C5C" />
<rect x="15" y="19" width="1" height="1" fill="#777B7C" />
<rect x="16" y="19" width="1" height="1" fill="#767A7D" />
<rect x="17" y="19" width="1" height="1" fill="#78797D" />
<rect x="18" y="19" width="1" height="1" fill="#737576" />
<rect x="19" y="19" width="1" height="1" fill="#000000" />
<rect x="6" y="20" width="1" height="1" fill="#000100" />
<rect x="7" y="20" width="1" height="1" fill="#302F27" />
<rect x="8" y="20" width="1" height="1" fill="#322F27" />
<rect x="9" y="20" width="1" height="1" fill="#333028" />
<rect x="10" y="20" width="1" height="1" fill="#333028" />
<rect x="11" y="20" width="1" height="1" fill="#313126" />
<rect x="12" y="20" width="1" height="1" fill="#303128" />
<rect x="13" y="20" width="1" height="1" fill="#595C59" />
<rect x="14" y="20" width="1" height="1" fill="#555A5B" />
<rect x="15" y="20" width="1" height="1" fill="#777B7C" />
<rect x="16" y="20" width="1" height="1" fill="#767A7B" />
<rect x="17" y="20" width="1" height="1" fill="#76787A" />
<rect x="18" y="20" width="1" height="1" fill="#777777" />
<rect x="19" y="20" width="1" height="1" fill="#030401" />
<rect x="6" y="21" width="1" height="1" fill="#010200" />
<rect x="7" y="21" width="1" height="1" fill="#040300" />
<rect x="8" y="21" width="1" height="1" fill="#000000" />
<rect x="9" y="21" width="1" height="1" fill="#020000" />
<rect x="10" y="21" width="1" height="1" fill="#030200" />
<rect x="11" y="21" width="1" height="1" fill="#020000" />
<rect x="12" y="21" width="1" height="1" fill="#000000" />
<rect x="13" y="21" width="1" height="1" fill="#000000" />
<rect x="14" y="21" width="1" height="1" fill="#000201" />
<rect x="15" y="21" width="1" height="1" fill="#000000" />
<rect x="16" y="21" width="1" height="1" fill="#000100" />
<rect x="17" y="21" width="1" height="1" fill="#000000" />
<rect x="18" y="21" width="1" height="1" fill="#020300" />
<rect x="19" y="21" width="1" height="1" fill="#010200" />
</svg>