<?xml version="1.0" encoding="UTF-8" ?>
<svg version="1.1" width="25" height="25" xmlns="http://www.w3.org/2000/svg">
<rect x="8" y="1" width="1" height="1" fill="#010101" />
<rect x="9" y="1" width="1" height="1" fill="#010101" />
<rect x="10" y="1" width="1" height="1" fill="#000000" />
<rect x="11" y="1" width="1" height="1" fill="#010103" />
<rect x="12" y="1" width="1" height="1" fill="#000000" />
<rect x="13" y="1" width="1" height="1" fill="#000000" />
<rect x="4" y="2" width="1" height="1" fill="#000000" />
<rect x="5" y="2" width="1" height="1" fill="#000100" />
<rect x="6" y="2" width="1" height="1" fill="#000200" />
<rect x="7" y="2" width="1" height="1" fill="#000100" />
<rect x="8" y="2" width="1" height="1" fill="#797B78" />
<rect x="9" y="2" width="1" height="1" fill="#787A79" />
<rect x="10" y="2" width="1" height="1" fill="#767978" />
<rect x="11" y="2" width="1" height="1" fill="#787A79" />
<rect x="12" y="2" width="1" height="1" fill="#787A79" />
<rect x="13" y="2" width="1" height="1" fill="#797977" />
<rect x="14" y="2" width="1" height="1" fill="#020000" />
<rect x="15" y="2" width="1" height="1" fill="#020000" />
<rect x="18" y="2" width="1" height="1" fill="#020000" />
<rect x="19" y="2" width="1" height="1" fill="#020000" />
<rect x="20" y="2" width="1" height="1" fill="#030100" />
<rect x="21" y="2" width="1" height="1" fill="#030100" />
<rect x="3" y="3" width="1" height="1" fill="#000000" />
<rect x="4" y="3" width="1" height="1" fill="#757875" />
<rect x="5" y="3" width="1" height="1" fill="#7A7D79" />
<rect x="6" y="3" width="1" height="1" fill="#787A77" />
<rect x="7" y="3" width="1" height="1" fill="#767976" />
<rect x="8" y="3" width="1" height="1" fill="#767976" />
<rect x="9" y="3" width="1" height="1" fill="#787A77" />
<rect x="10" y="3" width="1" height="1" fill="#787A79" />
<rect x="11" y="3" width="1" height="1" fill="#767978" />
<rect x="12" y="3" width="1" height="1" fill="#787A79" />
<rect x="13" y="3" width="1" height="1" fill="#797979" />
<rect x="14" y="3" width="1" height="1" fill="#7A7778" />
<rect x="15" y="3" width="1" height="1" fill="#787677" />
<rect x="16" y="3" width="1" height="1" fill="#020000" />
<rect x="17" y="3" width="1" height="1" fill="#040202" />
<rect x="18" y="3" width="1" height="1" fill="#000000" />
<rect x="19" y="3" width="1" height="1" fill="#3F3D3C" />
<rect x="20" y="3" width="1" height="1" fill="#3F3E3A" />
<rect x="21" y="3" width="1" height="1" fill="#000000" />
<rect x="22" y="3" width="1" height="1" fill="#020000" />
<rect x="2" y="4" width="1" height="1" fill="#000000" />
<rect x="3" y="4" width="1" height="1" fill="#787A77" />
<rect x="4" y="4" width="1" height="1" fill="#767976" />
<rect x="5" y="4" width="1" height="1" fill="#777873" />
<rect x="6" y="4" width="1" height="1" fill="#000100" />
<rect x="7" y="4" width="1" height="1" fill="#000100" />
<rect x="8" y="4" width="1" height="1" fill="#000000" />
<rect x="9" y="4" width="1" height="1" fill="#010400" />
<rect x="10" y="4" width="1" height="1" fill="#000100" />
<rect x="11" y="4" width="1" height="1" fill="#000100" />
<rect x="12" y="4" width="1" height="1" fill="#787876" />
<rect x="13" y="4" width="1" height="1" fill="#79797B" />
<rect x="14" y="4" width="1" height="1" fill="#78787A" />
<rect x="15" y="4" width="1" height="1" fill="#78787A" />
<rect x="16" y="4" width="1" height="1" fill="#78787A" />
<rect x="17" y="4" width="1" height="1" fill="#78787A" />
<rect x="18" y="4" width="1" height="1" fill="#000000" />
<rect x="19" y="4" width="1" height="1" fill="#3E3E3A" />
<rect x="20" y="4" width="1" height="1" fill="#3D3D39" />
<rect x="21" y="4" width="1" height="1" fill="#3D3D39" />
<rect x="22" y="4" width="1" height="1" fill="#000000" />
<rect x="1" y="5" width="1" height="1" fill="#010400" />
<rect x="2" y="5" width="1" height="1" fill="#767976" />
<rect x="3" y="5" width="1" height="1" fill="#787A77" />
<rect x="4" y="5" width="1" height="1" fill="#000000" />
<rect x="5" y="5" width="1" height="1" fill="#030400" />
<rect x="12" y="5" width="1" height="1" fill="#010200" />
<rect x="13" y="5" width="1" height="1" fill="#000002" />
<rect x="14" y="5" width="1" height="1" fill="#7B7B7F" />
<rect x="15" y="5" width="1" height="1" fill="#79787D" />
<rect x="16" y="5" width="1" height="1" fill="#7A7A7C" />
<rect x="17" y="5" width="1" height="1" fill="#78787A" />
<rect x="18" y="5" width="1" height="1" fill="#7A7A7A" />
<rect x="19" y="5" width="1" height="1" fill="#000000" />
<rect x="20" y="5" width="1" height="1" fill="#3E3E3A" />
<rect x="21" y="5" width="1" height="1" fill="#3D3D3B" />
<rect x="22" y="5" width="1" height="1" fill="#010200" />
<rect x="1" y="6" width="1" height="1" fill="#000200" />
<rect x="2" y="6" width="1" height="1" fill="#787A77" />
<rect x="3" y="6" width="1" height="1" fill="#010400" />
<rect x="14" y="6" width="1" height="1" fill="#020002" />
<rect x="15" y="6" width="1" height="1" fill="#787A7B" />
<rect x="16" y="6" width="1" height="1" fill="#787A79" />
<rect x="17" y="6" width="1" height="1" fill="#7C7A76" />
<rect x="18" y="6" width="1" height="1" fill="#7E7D79" />
<rect x="19" y="6" width="1" height="1" fill="#797B78" />
<rect x="20" y="6" width="1" height="1" fill="#000100" />
<rect x="21" y="6" width="1" height="1" fill="#000000" />
<rect x="22" y="6" width="1" height="1" fill="#010200" />
<rect x="2" y="7" width="1" height="1" fill="#000100" />
<rect x="15" y="7" width="1" height="1" fill="#000000" />
<rect x="16" y="7" width="1" height="1" fill="#797977" />
<rect x="17" y="7" width="1" height="1" fill="#7B7C77" />
<rect x="18" y="7" width="1" height="1" fill="#7A7B76" />
<rect x="19" y="7" width="1" height="1" fill="#767978" />
<rect x="20" y="7" width="1" height="1" fill="#787A79" />
<rect x="21" y="7" width="1" height="1" fill="#000000" />
<rect x="14" y="8" width="1" height="1" fill="#050301" />
<rect x="15" y="8" width="1" height="1" fill="#3F3B35" />
<rect x="16" y="8" width="1" height="1" fill="#403F39" />
<rect x="17" y="8" width="1" height="1" fill="#787B75" />
<rect x="18" y="8" width="1" height="1" fill="#747975" />
<rect x="19" y="8" width="1" height="1" fill="#787D7B" />
<rect x="20" y="8" width="1" height="1" fill="#787A79" />
<rect x="21" y="8" width="1" height="1" fill="#000000" />
<rect x="13" y="9" width="1" height="1" fill="#030100" />
<rect x="14" y="9" width="1" height="1" fill="#423E3B" />
<rect x="15" y="9" width="1" height="1" fill="#413E36" />
<rect x="16" y="9" width="1" height="1" fill="#424138" />
<rect x="17" y="9" width="1" height="1" fill="#000400" />
<rect x="18" y="9" width="1" height="1" fill="#757D7A" />
<rect x="19" y="9" width="1" height="1" fill="#787F7D" />
<rect x="20" y="9" width="1" height="1" fill="#767B79" />
<rect x="21" y="9" width="1" height="1" fill="#797B78" />
<rect x="22" y="9" width="1" height="1" fill="#000000" />
<rect x="12" y="10" width="1" height="1" fill="#030200" />
<rect x="13" y="10" width="1" height="1" fill="#413E36" />
<rect x="14" y="10" width="1" height="1" fill="#423D36" />
<rect x="15" y="10" width="1" height="1" fill="#423E39" />
<rect x="16" y="10" width="1" height="1" fill="#000000" />
<rect x="18" y="10" width="1" height="1" fill="#000400" />
<rect x="19" y="10" width="1" height="1" fill="#737D77" />
<rect x="20" y="10" width="1" height="1" fill="#747C77" />
<rect x="21" y="10" width="1" height="1" fill="#767976" />
<rect x="22" y="10" width="1" height="1" fill="#020300" />
<rect x="11" y="11" width="1" height="1" fill="#020000" />
<rect x="12" y="11" width="1" height="1" fill="#413E36" />
<rect x="13" y="11" width="1" height="1" fill="#443E35" />
<rect x="14" y="11" width="1" height="1" fill="#413E36" />
<rect x="15" y="11" width="1" height="1" fill="#030100" />
<rect x="19" y="11" width="1" height="1" fill="#000400" />
<rect x="20" y="11" width="1" height="1" fill="#757D78" />
<rect x="21" y="11" width="1" height="1" fill="#747774" />
<rect x="22" y="11" width="1" height="1" fill="#787876" />
<rect x="23" y="11" width="1" height="1" fill="#000000" />
<rect x="10" y="12" width="1" height="1" fill="#040000" />
<rect x="11" y="12" width="1" height="1" fill="#443E37" />
<rect x="12" y="12" width="1" height="1" fill="#443E37" />
<rect x="13" y="12" width="1" height="1" fill="#403C36" />
<rect x="14" y="12" width="1" height="1" fill="#000000" />
<rect x="19" y="12" width="1" height="1" fill="#000000" />
<rect x="20" y="12" width="1" height="1" fill="#797B78" />
<rect x="21" y="12" width="1" height="1" fill="#797979" />
<rect x="22" y="12" width="1" height="1" fill="#7A7A7A" />
<rect x="23" y="12" width="1" height="1" fill="#000000" />
<rect x="10" y="13" width="1" height="1" fill="#040000" />
<rect x="11" y="13" width="1" height="1" fill="#3F3932" />
<rect x="12" y="13" width="1" height="1" fill="#443E37" />
<rect x="13" y="13" width="1" height="1" fill="#030100" />
<rect x="20" y="13" width="1" height="1" fill="#000000" />
<rect x="21" y="13" width="1" height="1" fill="#777777" />
<rect x="22" y="13" width="1" height="1" fill="#787878" />
<rect x="23" y="13" width="1" height="1" fill="#000000" />
<rect x="9" y="14" width="1" height="1" fill="#040100" />
<rect x="10" y="14" width="1" height="1" fill="#413D38" />
<rect x="11" y="14" width="1" height="1" fill="#030000" />
<rect x="12" y="14" width="1" height="1" fill="#000000" />
<rect x="20" y="14" width="1" height="1" fill="#000000" />
<rect x="21" y="14" width="1" height="1" fill="#767676" />
<rect x="22" y="14" width="1" height="1" fill="#797979" />
<rect x="23" y="14" width="1" height="1" fill="#020300" />
<rect x="8" y="15" width="1" height="1" fill="#030000" />
<rect x="9" y="15" width="1" height="1" fill="#413C34" />
<rect x="10" y="15" width="1" height="1" fill="#030000" />
<rect x="20" y="15" width="1" height="1" fill="#030401" />
<rect x="21" y="15" width="1" height="1" fill="#7A7A7A" />
<rect x="22" y="15" width="1" height="1" fill="#7A7A7A" />
<rect x="23" y="15" width="1" height="1" fill="#000000" />
<rect x="7" y="16" width="1" height="1" fill="#030000" />
<rect x="8" y="16" width="1" height="1" fill="#413C34" />
<rect x="9" y="16" width="1" height="1" fill="#040100" />
<rect x="20" y="16" width="1" height="1" fill="#010200" />
<rect x="21" y="16" width="1" height="1" fill="#7B7B7B" />
<rect x="22" y="16" width="1" height="1" fill="#777777" />
<rect x="23" y="16" width="1" height="1" fill="#000000" />
<rect x="5" y="17" width="1" height="1" fill="#020000" />
<rect x="6" y="17" width="1" height="1" fill="#040100" />
<rect x="7" y="17" width="1" height="1" fill="#403C36" />
<rect x="8" y="17" width="1" height="1" fill="#040100" />
<rect x="20" y="17" width="1" height="1" fill="#020300" />
<rect x="21" y="17" width="1" height="1" fill="#797979" />
<rect x="22" y="17" width="1" height="1" fill="#010101" />
<rect x="4" y="18" width="1" height="1" fill="#030200" />
<rect x="5" y="18" width="1" height="1" fill="#423D36" />
<rect x="6" y="18" width="1" height="1" fill="#413C34" />
<rect x="7" y="18" width="1" height="1" fill="#020000" />
<rect x="20" y="18" width="1" height="1" fill="#000000" />
<rect x="21" y="18" width="1" height="1" fill="#7A7A7A" />
<rect x="22" y="18" width="1" height="1" fill="#000000" />
<rect x="3" y="19" width="1" height="1" fill="#020000" />
<rect x="4" y="19" width="1" height="1" fill="#423E39" />
<rect x="5" y="19" width="1" height="1" fill="#423D34" />
<rect x="6" y="19" width="1" height="1" fill="#443E35" />
<rect x="7" y="19" width="1" height="1" fill="#030200" />
<rect x="19" y="19" width="1" height="1" fill="#000000" />
<rect x="20" y="19" width="1" height="1" fill="#787876" />
<rect x="21" y="19" width="1" height="1" fill="#797977" />
<rect x="22" y="19" width="1" height="1" fill="#010200" />
<rect x="2" y="20" width="1" height="1" fill="#040100" />
<rect x="3" y="20" width="1" height="1" fill="#413E36" />
<rect x="4" y="20" width="1" height="1" fill="#423F37" />
<rect x="5" y="20" width="1" height="1" fill="#423F37" />
<rect x="6" y="20" width="1" height="1" fill="#060200" />
<rect x="19" y="20" width="1" height="1" fill="#000200" />
<rect x="20" y="20" width="1" height="1" fill="#767A74" />
<rect x="21" y="20" width="1" height="1" fill="#797C76" />
<rect x="22" y="20" width="1" height="1" fill="#000300" />
<rect x="1" y="21" width="1" height="1" fill="#030000" />
<rect x="2" y="21" width="1" height="1" fill="#403C36" />
<rect x="3" y="21" width="1" height="1" fill="#423F37" />
<rect x="4" y="21" width="1" height="1" fill="#413E36" />
<rect x="5" y="21" width="1" height="1" fill="#030200" />
<rect x="18" y="21" width="1" height="1" fill="#000000" />
<rect x="19" y="21" width="1" height="1" fill="#797C76" />
<rect x="20" y="21" width="1" height="1" fill="#797C76" />
<rect x="21" y="21" width="1" height="1" fill="#000000" />
<rect x="1" y="22" width="1" height="1" fill="#020000" />
<rect x="2" y="22" width="1" height="1" fill="#3C3A36" />
<rect x="3" y="22" width="1" height="1" fill="#3F3D3C" />
<rect x="4" y="22" width="1" height="1" fill="#030100" />
<rect x="17" y="22" width="1" height="1" fill="#000000" />
<rect x="18" y="22" width="1" height="1" fill="#767976" />
<rect x="19" y="22" width="1" height="1" fill="#787A77" />
<rect x="20" y="22" width="1" height="1" fill="#010400" />
<rect x="1" y="23" width="1" height="1" fill="#050300" />
<rect x="2" y="23" width="1" height="1" fill="#020000" />
<rect x="3" y="23" width="1" height="1" fill="#000000" />
<rect x="18" y="23" width="1" height="1" fill="#000000" />
<rect x="19" y="23" width="1" height="1" fill="#000000" />
</svg>