<?xml version="1.0" encoding="UTF-8" ?>
<svg version="1.1" width="25" height="25" xmlns="http://www.w3.org/2000/svg">
<rect x="2" y="1" width="1" height="1" fill="#020000" />
<rect x="8" y="1" width="1" height="1" fill="#090000" />
<rect x="9" y="1" width="1" height="1" fill="#0B0000" />
<rect x="10" y="1" width="1" height="1" fill="#0E0000" />
<rect x="11" y="1" width="1" height="1" fill="#110000" />
<rect x="12" y="1" width="1" height="1" fill="#0E0000" />
<rect x="13" y="1" width="1" height="1" fill="#060100" />
<rect x="1" y="2" width="1" height="1" fill="#050000" />
<rect x="2" y="2" width="1" height="1" fill="#51483D" />
<rect x="3" y="2" width="1" height="1" fill="#090000" />
<rect x="4" y="2" width="1" height="1" fill="#0A0000" />
<rect x="6" y="2" width="1" height="1" fill="#0F0000" />
<rect x="7" y="2" width="1" height="1" fill="#120000" />
<rect x="8" y="2" width="1" height="1" fill="#57422E" />
<rect x="9" y="2" width="1" height="1" fill="#584530" />
<rect x="10" y="2" width="1" height="1" fill="#5A4430" />
<rect x="11" y="2" width="1" height="1" fill="#5E442D" />
<rect x="12" y="2" width="1" height="1" fill="#5B442E" />
<rect x="13" y="2" width="1" height="1" fill="#544435" />
<rect x="14" y="2" width="1" height="1" fill="#0B0000" />
<rect x="15" y="2" width="1" height="1" fill="#0B0000" />
<rect x="19" y="2" width="1" height="1" fill="#040100" />
<rect x="20" y="2" width="1" height="1" fill="#040000" />
<rect x="21" y="2" width="1" height="1" fill="#050000" />
<rect x="22" y="2" width="1" height="1" fill="#010000" />
<rect x="1" y="3" width="1" height="1" fill="#050000" />
<rect x="2" y="3" width="1" height="1" fill="#574532" />
<rect x="3" y="3" width="1" height="1" fill="#644321" />
<rect x="4" y="3" width="1" height="1" fill="#68431D" />
<rect x="5" y="3" width="1" height="1" fill="#1C0000" />
<rect x="6" y="3" width="1" height="1" fill="#644325" />
<rect x="7" y="3" width="1" height="1" fill="#6A4118" />
<rect x="8" y="3" width="1" height="1" fill="#68431B" />
<rect x="9" y="3" width="1" height="1" fill="#5F4328" />
<rect x="10" y="3" width="1" height="1" fill="#5E4630" />
<rect x="11" y="3" width="1" height="1" fill="#5C422D" />
<rect x="12" y="3" width="1" height="1" fill="#62442C" />
<rect x="13" y="3" width="1" height="1" fill="#664328" />
<rect x="14" y="3" width="1" height="1" fill="#643F23" />
<rect x="15" y="3" width="1" height="1" fill="#654124" />
<rect x="16" y="3" width="1" height="1" fill="#160000" />
<rect x="19" y="3" width="1" height="1" fill="#050000" />
<rect x="20" y="3" width="1" height="1" fill="#52463C" />
<rect x="21" y="3" width="1" height="1" fill="#534638" />
<rect x="22" y="3" width="1" height="1" fill="#0B0000" />
<rect x="2" y="4" width="1" height="1" fill="#100000" />
<rect x="3" y="4" width="1" height="1" fill="#674420" />
<rect x="4" y="4" width="1" height="1" fill="#6C431A" />
<rect x="5" y="4" width="1" height="1" fill="#634222" />
<rect x="6" y="4" width="1" height="1" fill="#624023" />
<rect x="7" y="4" width="1" height="1" fill="#6C441F" />
<rect x="8" y="4" width="1" height="1" fill="#66431F" />
<rect x="9" y="4" width="1" height="1" fill="#120000" />
<rect x="10" y="4" width="1" height="1" fill="#100000" />
<rect x="11" y="4" width="1" height="1" fill="#120000" />
<rect x="12" y="4" width="1" height="1" fill="#150000" />
<rect x="13" y="4" width="1" height="1" fill="#1C0000" />
<rect x="14" y="4" width="1" height="1" fill="#684123" />
<rect x="15" y="4" width="1" height="1" fill="#6D3F1A" />
<rect x="16" y="4" width="1" height="1" fill="#654122" />
<rect x="17" y="4" width="1" height="1" fill="#080000" />
<rect x="18" y="4" width="1" height="1" fill="#020000" />
<rect x="19" y="4" width="1" height="1" fill="#040000" />
<rect x="20" y="4" width="1" height="1" fill="#80766E" />
<rect x="21" y="4" width="1" height="1" fill="#56483A" />
<rect x="22" y="4" width="1" height="1" fill="#090000" />
<rect x="3" y="5" width="1" height="1" fill="#100000" />
<rect x="4" y="5" width="1" height="1" fill="#5D452F" />
<rect x="5" y="5" width="1" height="1" fill="#867562" />
<rect x="6" y="5" width="1" height="1" fill="#564838" />
<rect x="7" y="5" width="1" height="1" fill="#0A0000" />
<rect x="8" y="5" width="1" height="1" fill="#0A0000" />
<rect x="9" y="5" width="1" height="1" fill="#060000" />
<rect x="13" y="5" width="1" height="1" fill="#070000" />
<rect x="14" y="5" width="1" height="1" fill="#0F0000" />
<rect x="15" y="5" width="1" height="1" fill="#6C401D" />
<rect x="16" y="5" width="1" height="1" fill="#6B3F1C" />
<rect x="17" y="5" width="1" height="1" fill="#0E0000" />
<rect x="18" y="5" width="1" height="1" fill="#030000" />
<rect x="19" y="5" width="1" height="1" fill="#7C797A" />
<rect x="20" y="5" width="1" height="1" fill="#030100" />
<rect x="21" y="5" width="1" height="1" fill="#030000" />
<rect x="22" y="5" width="1" height="1" fill="#020000" />
<rect x="4" y="6" width="1" height="1" fill="#090000" />
<rect x="5" y="6" width="1" height="1" fill="#7E796F" />
<rect x="6" y="6" width="1" height="1" fill="#7B7973" />
<rect x="7" y="6" width="1" height="1" fill="#000000" />
<rect x="14" y="6" width="1" height="1" fill="#080000" />
<rect x="15" y="6" width="1" height="1" fill="#694121" />
<rect x="16" y="6" width="1" height="1" fill="#6E411E" />
<rect x="17" y="6" width="1" height="1" fill="#150000" />
<rect x="18" y="6" width="1" height="1" fill="#372C24" />
<rect x="19" y="6" width="1" height="1" fill="#040000" />
<rect x="5" y="7" width="1" height="1" fill="#000000" />
<rect x="6" y="7" width="1" height="1" fill="#797B78" />
<rect x="7" y="7" width="1" height="1" fill="#747877" />
<rect x="8" y="7" width="1" height="1" fill="#000200" />
<rect x="14" y="7" width="1" height="1" fill="#080000" />
<rect x="15" y="7" width="1" height="1" fill="#614329" />
<rect x="16" y="7" width="1" height="1" fill="#654122" />
<rect x="17" y="7" width="1" height="1" fill="#44280F" />
<rect x="18" y="7" width="1" height="1" fill="#130000" />
<rect x="19" y="7" width="1" height="1" fill="#100000" />
<rect x="20" y="7" width="1" height="1" fill="#0C0000" />
<rect x="6" y="8" width="1" height="1" fill="#000100" />
<rect x="7" y="8" width="1" height="1" fill="#757A76" />
<rect x="8" y="8" width="1" height="1" fill="#767B77" />
<rect x="9" y="8" width="1" height="1" fill="#000301" />
<rect x="14" y="8" width="1" height="1" fill="#050000" />
<rect x="15" y="8" width="1" height="1" fill="#110000" />
<rect x="16" y="8" width="1" height="1" fill="#44280F" />
<rect x="17" y="8" width="1" height="1" fill="#62462D" />
<rect x="18" y="8" width="1" height="1" fill="#60442B" />
<rect x="19" y="8" width="1" height="1" fill="#61452C" />
<rect x="20" y="8" width="1" height="1" fill="#59432F" />
<rect x="21" y="8" width="1" height="1" fill="#090000" />
<rect x="7" y="9" width="1" height="1" fill="#000000" />
<rect x="8" y="9" width="1" height="1" fill="#7B7977" />
<rect x="9" y="9" width="1" height="1" fill="#777777" />
<rect x="10" y="9" width="1" height="1" fill="#010302" />
<rect x="14" y="9" width="1" height="1" fill="#020000" />
<rect x="15" y="9" width="1" height="1" fill="#372C24" />
<rect x="16" y="9" width="1" height="1" fill="#0D0000" />
<rect x="17" y="9" width="1" height="1" fill="#5D4431" />
<rect x="18" y="9" width="1" height="1" fill="#5E4028" />
<rect x="19" y="9" width="1" height="1" fill="#644325" />
<rect x="20" y="9" width="1" height="1" fill="#5F4024" />
<rect x="21" y="9" width="1" height="1" fill="#594631" />
<rect x="22" y="9" width="1" height="1" fill="#080000" />
<rect x="8" y="10" width="1" height="1" fill="#030000" />
<rect x="9" y="10" width="1" height="1" fill="#7A7B78" />
<rect x="10" y="10" width="1" height="1" fill="#787A77" />
<rect x="11" y="10" width="1" height="1" fill="#000100" />
<rect x="13" y="10" width="1" height="1" fill="#000100" />
<rect x="14" y="10" width="1" height="1" fill="#2C2E2D" />
<rect x="15" y="10" width="1" height="1" fill="#040200" />
<rect x="16" y="10" width="1" height="1" fill="#080000" />
<rect x="17" y="10" width="1" height="1" fill="#0E0000" />
<rect x="18" y="10" width="1" height="1" fill="#100000" />
<rect x="19" y="10" width="1" height="1" fill="#170000" />
<rect x="20" y="10" width="1" height="1" fill="#624128" />
<rect x="21" y="10" width="1" height="1" fill="#614427" />
<rect x="22" y="10" width="1" height="1" fill="#100000" />
<rect x="9" y="11" width="1" height="1" fill="#000000" />
<rect x="10" y="11" width="1" height="1" fill="#787A77" />
<rect x="11" y="11" width="1" height="1" fill="#767976" />
<rect x="12" y="11" width="1" height="1" fill="#010200" />
<rect x="13" y="11" width="1" height="1" fill="#2F2F2D" />
<rect x="14" y="11" width="1" height="1" fill="#000100" />
<rect x="19" y="11" width="1" height="1" fill="#0A0000" />
<rect x="20" y="11" width="1" height="1" fill="#120000" />
<rect x="21" y="11" width="1" height="1" fill="#67411E" />
<rect x="22" y="11" width="1" height="1" fill="#644323" />
<rect x="23" y="11" width="1" height="1" fill="#080000" />
<rect x="10" y="12" width="1" height="1" fill="#000200" />
<rect x="11" y="12" width="1" height="1" fill="#797977" />
<rect x="12" y="12" width="1" height="1" fill="#2C2D2A" />
<rect x="13" y="12" width="1" height="1" fill="#000200" />
<rect x="20" y="12" width="1" height="1" fill="#0E0000" />
<rect x="21" y="12" width="1" height="1" fill="#6E421A" />
<rect x="22" y="12" width="1" height="1" fill="#6B4018" />
<rect x="23" y="12" width="1" height="1" fill="#080000" />
<rect x="10" y="13" width="1" height="1" fill="#020300" />
<rect x="11" y="13" width="1" height="1" fill="#30312C" />
<rect x="12" y="13" width="1" height="1" fill="#797B78" />
<rect x="13" y="13" width="1" height="1" fill="#777C78" />
<rect x="14" y="13" width="1" height="1" fill="#000300" />
<rect x="20" y="13" width="1" height="1" fill="#0C0000" />
<rect x="21" y="13" width="1" height="1" fill="#704017" />
<rect x="22" y="13" width="1" height="1" fill="#704017" />
<rect x="23" y="13" width="1" height="1" fill="#100000" />
<rect x="6" y="14" width="1" height="1" fill="#000A00" />
<rect x="7" y="14" width="1" height="1" fill="#000800" />
<rect x="8" y="14" width="1" height="1" fill="#000600" />
<rect x="9" y="14" width="1" height="1" fill="#000200" />
<rect x="10" y="14" width="1" height="1" fill="#2C3025" />
<rect x="11" y="14" width="1" height="1" fill="#000200" />
<rect x="12" y="14" width="1" height="1" fill="#000300" />
<rect x="13" y="14" width="1" height="1" fill="#737B76" />
<rect x="14" y="14" width="1" height="1" fill="#777C78" />
<rect x="15" y="14" width="1" height="1" fill="#000200" />
<rect x="20" y="14" width="1" height="1" fill="#0C0000" />
<rect x="21" y="14" width="1" height="1" fill="#704017" />
<rect x="22" y="14" width="1" height="1" fill="#704017" />
<rect x="23" y="14" width="1" height="1" fill="#0D0000" />
<rect x="5" y="15" width="1" height="1" fill="#001400" />
<rect x="6" y="15" width="1" height="1" fill="#1F561B" />
<rect x="7" y="15" width="1" height="1" fill="#245A1A" />
<rect x="8" y="15" width="1" height="1" fill="#2A5520" />
<rect x="9" y="15" width="1" height="1" fill="#243B1D" />
<rect x="10" y="15" width="1" height="1" fill="#000600" />
<rect x="13" y="15" width="1" height="1" fill="#000400" />
<rect x="14" y="15" width="1" height="1" fill="#747C77" />
<rect x="15" y="15" width="1" height="1" fill="#797979" />
<rect x="16" y="15" width="1" height="1" fill="#000000" />
<rect x="19" y="15" width="1" height="1" fill="#050000" />
<rect x="20" y="15" width="1" height="1" fill="#100000" />
<rect x="21" y="15" width="1" height="1" fill="#6E4019" />
<rect x="22" y="15" width="1" height="1" fill="#6A3F17" />
<rect x="23" y="15" width="1" height="1" fill="#100000" />
<rect x="4" y="16" width="1" height="1" fill="#000700" />
<rect x="5" y="16" width="1" height="1" fill="#22561E" />
<rect x="6" y="16" width="1" height="1" fill="#1A6014" />
<rect x="7" y="16" width="1" height="1" fill="#1A6010" />
<rect x="8" y="16" width="1" height="1" fill="#0D4802" />
<rect x="9" y="16" width="1" height="1" fill="#2E5029" />
<rect x="10" y="16" width="1" height="1" fill="#000900" />
<rect x="14" y="16" width="1" height="1" fill="#000300" />
<rect x="15" y="16" width="1" height="1" fill="#767978" />
<rect x="16" y="16" width="1" height="1" fill="#787878" />
<rect x="17" y="16" width="1" height="1" fill="#000201" />
<rect x="19" y="16" width="1" height="1" fill="#0B0000" />
<rect x="20" y="16" width="1" height="1" fill="#5D432E" />
<rect x="21" y="16" width="1" height="1" fill="#6A401C" />
<rect x="22" y="16" width="1" height="1" fill="#674120" />
<rect x="23" y="16" width="1" height="1" fill="#0A0000" />
<rect x="3" y="17" width="1" height="1" fill="#010400" />
<rect x="4" y="17" width="1" height="1" fill="#3C4A35" />
<rect x="5" y="17" width="1" height="1" fill="#2C5625" />
<rect x="6" y="17" width="1" height="1" fill="#205A19" />
<rect x="7" y="17" width="1" height="1" fill="#074C00" />
<rect x="8" y="17" width="1" height="1" fill="#1E5B17" />
<rect x="9" y="17" width="1" height="1" fill="#285126" />
<rect x="10" y="17" width="1" height="1" fill="#000A00" />
<rect x="15" y="17" width="1" height="1" fill="#000203" />
<rect x="16" y="17" width="1" height="1" fill="#79797B" />
<rect x="17" y="17" width="1" height="1" fill="#7A7A7A" />
<rect x="18" y="17" width="1" height="1" fill="#050000" />
<rect x="19" y="17" width="1" height="1" fill="#120000" />
<rect x="20" y="17" width="1" height="1" fill="#634124" />
<rect x="21" y="17" width="1" height="1" fill="#644323" />
<rect x="22" y="17" width="1" height="1" fill="#140000" />
<rect x="3" y="18" width="1" height="1" fill="#020500" />
<rect x="4" y="18" width="1" height="1" fill="#000500" />
<rect x="5" y="18" width="1" height="1" fill="#000B00" />
<rect x="6" y="18" width="1" height="1" fill="#133F0E" />
<rect x="7" y="18" width="1" height="1" fill="#1F5C1A" />
<rect x="8" y="18" width="1" height="1" fill="#225C1D" />
<rect x="9" y="18" width="1" height="1" fill="#2F522D" />
<rect x="10" y="18" width="1" height="1" fill="#000800" />
<rect x="16" y="18" width="1" height="1" fill="#000203" />
<rect x="17" y="18" width="1" height="1" fill="#797979" />
<rect x="18" y="18" width="1" height="1" fill="#80766E" />
<rect x="19" y="18" width="1" height="1" fill="#644428" />
<rect x="20" y="18" width="1" height="1" fill="#6A4423" />
<rect x="21" y="18" width="1" height="1" fill="#5F4328" />
<rect x="22" y="18" width="1" height="1" fill="#0E0000" />
<rect x="5" y="19" width="1" height="1" fill="#000400" />
<rect x="6" y="19" width="1" height="1" fill="#000A00" />
<rect x="7" y="19" width="1" height="1" fill="#275823" />
<rect x="8" y="19" width="1" height="1" fill="#235520" />
<rect x="9" y="19" width="1" height="1" fill="#000A00" />
<rect x="17" y="19" width="1" height="1" fill="#000000" />
<rect x="18" y="19" width="1" height="1" fill="#83776D" />
<rect x="19" y="19" width="1" height="1" fill="#957356" />
<rect x="20" y="19" width="1" height="1" fill="#67411E" />
<rect x="21" y="19" width="1" height="1" fill="#110000" />
<rect x="6" y="20" width="1" height="1" fill="#000400" />
<rect x="7" y="20" width="1" height="1" fill="#2F502C" />
<rect x="8" y="20" width="1" height="1" fill="#001200" />
<rect x="18" y="20" width="1" height="1" fill="#080000" />
<rect x="19" y="20" width="1" height="1" fill="#604228" />
<rect x="20" y="20" width="1" height="1" fill="#674324" />
<rect x="21" y="20" width="1" height="1" fill="#5D452F" />
<rect x="22" y="20" width="1" height="1" fill="#090000" />
<rect x="6" y="21" width="1" height="1" fill="#000400" />
<rect x="7" y="21" width="1" height="1" fill="#000400" />
<rect x="19" y="21" width="1" height="1" fill="#0D0000" />
<rect x="20" y="21" width="1" height="1" fill="#60432F" />
<rect x="21" y="21" width="1" height="1" fill="#644629" />
<rect x="22" y="21" width="1" height="1" fill="#130000" />
<rect x="20" y="22" width="1" height="1" fill="#110000" />
<rect x="21" y="22" width="1" height="1" fill="#5D432C" />
<rect x="22" y="22" width="1" height="1" fill="#5B462F" />
<rect x="23" y="22" width="1" height="1" fill="#060000" />
<rect x="21" y="23" width="1" height="1" fill="#080000" />
<rect x="22" y="23" width="1" height="1" fill="#090000" />
</svg>