<?xml version="1.0" encoding="UTF-8" ?>
<svg version="1.1" width="25" height="25" xmlns="http://www.w3.org/2000/svg">
<rect x="21" y="0" width="1" height="1" fill="#000000" />
<rect x="22" y="0" width="1" height="1" fill="#000000" />
<rect x="23" y="0" width="1" height="1" fill="#000000" />
<rect x="24" y="0" width="1" height="1" fill="#000000" />
<rect x="20" y="1" width="1" height="1" fill="#020300" />
<rect x="21" y="1" width="1" height="1" fill="#787878" />
<rect x="22" y="1" width="1" height="1" fill="#797979" />
<rect x="23" y="1" width="1" height="1" fill="#787878" />
<rect x="24" y="1" width="1" height="1" fill="#000000" />
<rect x="19" y="2" width="1" height="1" fill="#000200" />
<rect x="20" y="2" width="1" height="1" fill="#797B78" />
<rect x="21" y="2" width="1" height="1" fill="#767976" />
<rect x="22" y="2" width="1" height="1" fill="#767976" />
<rect x="23" y="2" width="1" height="1" fill="#767976" />
<rect x="24" y="2" width="1" height="1" fill="#000100" />
<rect x="18" y="3" width="1" height="1" fill="#000000" />
<rect x="19" y="3" width="1" height="1" fill="#787D79" />
<rect x="20" y="3" width="1" height="1" fill="#777C78" />
<rect x="21" y="3" width="1" height="1" fill="#7A7D79" />
<rect x="22" y="3" width="1" height="1" fill="#787A77" />
<rect x="23" y="3" width="1" height="1" fill="#797B78" />
<rect x="24" y="3" width="1" height="1" fill="#000000" />
<rect x="17" y="4" width="1" height="1" fill="#000402" />
<rect x="18" y="4" width="1" height="1" fill="#757A78" />
<rect x="19" y="4" width="1" height="1" fill="#727778" />
<rect x="20" y="4" width="1" height="1" fill="#75797A" />
<rect x="21" y="4" width="1" height="1" fill="#767B79" />
<rect x="22" y="4" width="1" height="1" fill="#727776" />
<rect x="23" y="4" width="1" height="1" fill="#010400" />
<rect x="16" y="5" width="1" height="1" fill="#010302" />
<rect x="17" y="5" width="1" height="1" fill="#767B79" />
<rect x="18" y="5" width="1" height="1" fill="#777B7C" />
<rect x="19" y="5" width="1" height="1" fill="#787D7D" />
<rect x="20" y="5" width="1" height="1" fill="#727778" />
<rect x="21" y="5" width="1" height="1" fill="#777C7A" />
<rect x="22" y="5" width="1" height="1" fill="#000000" />
<rect x="15" y="6" width="1" height="1" fill="#000000" />
<rect x="16" y="6" width="1" height="1" fill="#7B7D7D" />
<rect x="17" y="6" width="1" height="1" fill="#787A79" />
<rect x="18" y="6" width="1" height="1" fill="#747676" />
<rect x="19" y="6" width="1" height="1" fill="#777C7A" />
<rect x="20" y="6" width="1" height="1" fill="#757A78" />
<rect x="21" y="6" width="1" height="1" fill="#000000" />
<rect x="14" y="7" width="1" height="1" fill="#000000" />
<rect x="15" y="7" width="1" height="1" fill="#797B7A" />
<rect x="16" y="7" width="1" height="1" fill="#767978" />
<rect x="17" y="7" width="1" height="1" fill="#7A7C7B" />
<rect x="18" y="7" width="1" height="1" fill="#787A79" />
<rect x="19" y="7" width="1" height="1" fill="#797B7A" />
<rect x="20" y="7" width="1" height="1" fill="#000100" />
<rect x="13" y="8" width="1" height="1" fill="#010302" />
<rect x="14" y="8" width="1" height="1" fill="#757779" />
<rect x="15" y="8" width="1" height="1" fill="#7A7C7D" />
<rect x="16" y="8" width="1" height="1" fill="#76787A" />
<rect x="17" y="8" width="1" height="1" fill="#787A79" />
<rect x="18" y="8" width="1" height="1" fill="#787A79" />
<rect x="19" y="8" width="1" height="1" fill="#000100" />
<rect x="12" y="9" width="1" height="1" fill="#000100" />
<rect x="13" y="9" width="1" height="1" fill="#797B7C" />
<rect x="14" y="9" width="1" height="1" fill="#76787A" />
<rect x="15" y="9" width="1" height="1" fill="#787A7B" />
<rect x="16" y="9" width="1" height="1" fill="#7A7C7D" />
<rect x="17" y="9" width="1" height="1" fill="#757877" />
<rect x="18" y="9" width="1" height="1" fill="#000000" />
<rect x="11" y="10" width="1" height="1" fill="#000300" />
<rect x="12" y="10" width="1" height="1" fill="#787A77" />
<rect x="13" y="10" width="1" height="1" fill="#777B7C" />
<rect x="14" y="10" width="1" height="1" fill="#777B7E" />
<rect x="15" y="10" width="1" height="1" fill="#76787A" />
<rect x="16" y="10" width="1" height="1" fill="#757779" />
<rect x="17" y="10" width="1" height="1" fill="#020202" />
<rect x="10" y="11" width="1" height="1" fill="#000000" />
<rect x="11" y="11" width="1" height="1" fill="#767976" />
<rect x="12" y="11" width="1" height="1" fill="#797B7A" />
<rect x="13" y="11" width="1" height="1" fill="#565B5C" />
<rect x="14" y="11" width="1" height="1" fill="#777B7C" />
<rect x="15" y="11" width="1" height="1" fill="#797B7C" />
<rect x="16" y="11" width="1" height="1" fill="#000000" />
<rect x="9" y="12" width="1" height="1" fill="#000000" />
<rect x="10" y="12" width="1" height="1" fill="#797979" />
<rect x="11" y="12" width="1" height="1" fill="#797B7C" />
<rect x="12" y="12" width="1" height="1" fill="#585A5C" />
<rect x="13" y="12" width="1" height="1" fill="#767B79" />
<rect x="14" y="12" width="1" height="1" fill="#767B77" />
<rect x="15" y="12" width="1" height="1" fill="#020501" />
<rect x="8" y="13" width="1" height="1" fill="#000004" />
<rect x="9" y="13" width="1" height="1" fill="#797979" />
<rect x="10" y="13" width="1" height="1" fill="#7B7879" />
<rect x="11" y="13" width="1" height="1" fill="#5B5A5D" />
<rect x="12" y="13" width="1" height="1" fill="#7A7C7D" />
<rect x="13" y="13" width="1" height="1" fill="#797B78" />
<rect x="14" y="13" width="1" height="1" fill="#000000" />
<rect x="7" y="14" width="1" height="1" fill="#000000" />
<rect x="8" y="14" width="1" height="1" fill="#767978" />
<rect x="9" y="14" width="1" height="1" fill="#7A7675" />
<rect x="10" y="14" width="1" height="1" fill="#413C3C" />
<rect x="11" y="14" width="1" height="1" fill="#7B787B" />
<rect x="12" y="14" width="1" height="1" fill="#79797B" />
<rect x="13" y="14" width="1" height="1" fill="#010200" />
<rect x="1" y="15" width="1" height="1" fill="#040400" />
<rect x="2" y="15" width="1" height="1" fill="#040300" />
<rect x="3" y="15" width="1" height="1" fill="#060300" />
<rect x="4" y="15" width="1" height="1" fill="#080400" />
<rect x="5" y="15" width="1" height="1" fill="#080500" />
<rect x="6" y="15" width="1" height="1" fill="#020100" />
<rect x="7" y="15" width="1" height="1" fill="#787B68" />
<rect x="8" y="15" width="1" height="1" fill="#797B71" />
<rect x="9" y="15" width="1" height="1" fill="#423E39" />
<rect x="10" y="15" width="1" height="1" fill="#7B7776" />
<rect x="11" y="15" width="1" height="1" fill="#7A7A7C" />
<rect x="12" y="15" width="1" height="1" fill="#000001" />
<rect x="1" y="16" width="1" height="1" fill="#060100" />
<rect x="2" y="16" width="1" height="1" fill="#706B38" />
<rect x="3" y="16" width="1" height="1" fill="#A79F50" />
<rect x="4" y="16" width="1" height="1" fill="#ADA644" />
<rect x="5" y="16" width="1" height="1" fill="#A9A137" />
<rect x="6" y="16" width="1" height="1" fill="#767015" />
<rect x="7" y="16" width="1" height="1" fill="#7F7E4D" />
<rect x="8" y="16" width="1" height="1" fill="#3F412A" />
<rect x="9" y="16" width="1" height="1" fill="#797B6F" />
<rect x="10" y="16" width="1" height="1" fill="#797B78" />
<rect x="11" y="16" width="1" height="1" fill="#000201" />
<rect x="1" y="17" width="1" height="1" fill="#090200" />
<rect x="2" y="17" width="1" height="1" fill="#6F6736" />
<rect x="3" y="17" width="1" height="1" fill="#726C17" />
<rect x="4" y="17" width="1" height="1" fill="#756D00" />
<rect x="5" y="17" width="1" height="1" fill="#B2A928" />
<rect x="6" y="17" width="1" height="1" fill="#AEA62E" />
<rect x="7" y="17" width="1" height="1" fill="#716C1C" />
<rect x="8" y="17" width="1" height="1" fill="#7E7D4E" />
<rect x="9" y="17" width="1" height="1" fill="#7A7A68" />
<rect x="10" y="17" width="1" height="1" fill="#000000" />
<rect x="1" y="18" width="1" height="1" fill="#020000" />
<rect x="2" y="18" width="1" height="1" fill="#050100" />
<rect x="3" y="18" width="1" height="1" fill="#070200" />
<rect x="4" y="18" width="1" height="1" fill="#6F6B26" />
<rect x="5" y="18" width="1" height="1" fill="#747104" />
<rect x="6" y="18" width="1" height="1" fill="#ABA62D" />
<rect x="7" y="18" width="1" height="1" fill="#AFA637" />
<rect x="8" y="18" width="1" height="1" fill="#706919" />
<rect x="9" y="18" width="1" height="1" fill="#020000" />
<rect x="2" y="19" width="1" height="1" fill="#030200" />
<rect x="3" y="19" width="1" height="1" fill="#040000" />
<rect x="4" y="19" width="1" height="1" fill="#46401B" />
<rect x="5" y="19" width="1" height="1" fill="#6F6C20" />
<rect x="6" y="19" width="1" height="1" fill="#726E09" />
<rect x="7" y="19" width="1" height="1" fill="#ADA232" />
<rect x="8" y="19" width="1" height="1" fill="#73690F" />
<rect x="9" y="19" width="1" height="1" fill="#070000" />
<rect x="1" y="20" width="1" height="1" fill="#000000" />
<rect x="2" y="20" width="1" height="1" fill="#030100" />
<rect x="3" y="20" width="1" height="1" fill="#443E35" />
<rect x="4" y="20" width="1" height="1" fill="#453C2A" />
<rect x="5" y="20" width="1" height="1" fill="#453F1C" />
<rect x="6" y="20" width="1" height="1" fill="#6E682D" />
<rect x="7" y="20" width="1" height="1" fill="#776C13" />
<rect x="8" y="20" width="1" height="1" fill="#76691E" />
<rect x="9" y="20" width="1" height="1" fill="#0A0300" />
<rect x="0" y="21" width="1" height="1" fill="#070300" />
<rect x="1" y="21" width="1" height="1" fill="#030200" />
<rect x="2" y="21" width="1" height="1" fill="#423F2C" />
<rect x="3" y="21" width="1" height="1" fill="#413C32" />
<rect x="4" y="21" width="1" height="1" fill="#443E37" />
<rect x="5" y="21" width="1" height="1" fill="#060100" />
<rect x="6" y="21" width="1" height="1" fill="#090300" />
<rect x="7" y="21" width="1" height="1" fill="#726928" />
<rect x="8" y="21" width="1" height="1" fill="#72672E" />
<rect x="9" y="21" width="1" height="1" fill="#080100" />
<rect x="0" y="22" width="1" height="1" fill="#060000" />
<rect x="1" y="22" width="1" height="1" fill="#706535" />
<rect x="2" y="22" width="1" height="1" fill="#4A400F" />
<rect x="3" y="22" width="1" height="1" fill="#423F2C" />
<rect x="4" y="22" width="1" height="1" fill="#030100" />
<rect x="5" y="22" width="1" height="1" fill="#040300" />
<rect x="6" y="22" width="1" height="1" fill="#020000" />
<rect x="7" y="22" width="1" height="1" fill="#6F663E" />
<rect x="8" y="22" width="1" height="1" fill="#6E6642" />
<rect x="9" y="22" width="1" height="1" fill="#020000" />
<rect x="0" y="23" width="1" height="1" fill="#060100" />
<rect x="1" y="23" width="1" height="1" fill="#A79A6A" />
<rect x="2" y="23" width="1" height="1" fill="#706535" />
<rect x="3" y="23" width="1" height="1" fill="#030200" />
<rect x="4" y="23" width="1" height="1" fill="#000000" />
<rect x="6" y="23" width="1" height="1" fill="#000000" />
<rect x="7" y="23" width="1" height="1" fill="#040000" />
<rect x="8" y="23" width="1" height="1" fill="#060100" />
<rect x="9" y="23" width="1" height="1" fill="#030100" />
<rect x="0" y="24" width="1" height="1" fill="#020000" />
<rect x="1" y="24" width="1" height="1" fill="#050000" />
<rect x="2" y="24" width="1" height="1" fill="#050000" />
<rect x="3" y="24" width="1" height="1" fill="#020000" />
</svg>