<?xml version="1.0" encoding="UTF-8" ?>
<svg version="1.1" width="25" height="25" xmlns="http://www.w3.org/2000/svg">
<rect x="15" y="0" width="1" height="1" fill="#000500" />
<rect x="16" y="0" width="1" height="1" fill="#000000" />
<rect x="14" y="1" width="1" height="1" fill="#000E00" />
<rect x="15" y="1" width="1" height="1" fill="#314F2E" />
<rect x="16" y="1" width="1" height="1" fill="#000500" />
<rect x="13" y="2" width="1" height="1" fill="#000F00" />
<rect x="14" y="2" width="1" height="1" fill="#1E5B1B" />
<rect x="15" y="2" width="1" height="1" fill="#215A1E" />
<rect x="16" y="2" width="1" height="1" fill="#000800" />
<rect x="17" y="2" width="1" height="1" fill="#000100" />
<rect x="12" y="3" width="1" height="1" fill="#000900" />
<rect x="13" y="3" width="1" height="1" fill="#295325" />
<rect x="14" y="3" width="1" height="1" fill="#1C5E16" />
<rect x="15" y="3" width="1" height="1" fill="#1D5F19" />
<rect x="16" y="3" width="1" height="1" fill="#174014" />
<rect x="17" y="3" width="1" height="1" fill="#000900" />
<rect x="18" y="3" width="1" height="1" fill="#000600" />
<rect x="19" y="3" width="1" height="1" fill="#000200" />
<rect x="12" y="4" width="1" height="1" fill="#000C00" />
<rect x="13" y="4" width="1" height="1" fill="#285425" />
<rect x="14" y="4" width="1" height="1" fill="#24571B" />
<rect x="15" y="4" width="1" height="1" fill="#0E4903" />
<rect x="16" y="4" width="1" height="1" fill="#1C5E16" />
<rect x="17" y="4" width="1" height="1" fill="#215A1E" />
<rect x="18" y="4" width="1" height="1" fill="#2F502E" />
<rect x="19" y="4" width="1" height="1" fill="#000800" />
<rect x="12" y="5" width="1" height="1" fill="#000A00" />
<rect x="13" y="5" width="1" height="1" fill="#2C5029" />
<rect x="14" y="5" width="1" height="1" fill="#173F0D" />
<rect x="15" y="5" width="1" height="1" fill="#24571B" />
<rect x="16" y="5" width="1" height="1" fill="#1D6015" />
<rect x="17" y="5" width="1" height="1" fill="#1F5C1A" />
<rect x="18" y="5" width="1" height="1" fill="#000E00" />
<rect x="21" y="5" width="1" height="1" fill="#020000" />
<rect x="22" y="5" width="1" height="1" fill="#080000" />
<rect x="23" y="5" width="1" height="1" fill="#080000" />
<rect x="24" y="5" width="1" height="1" fill="#000000" />
<rect x="12" y="6" width="1" height="1" fill="#000300" />
<rect x="13" y="6" width="1" height="1" fill="#263820" />
<rect x="14" y="6" width="1" height="1" fill="#304F29" />
<rect x="15" y="6" width="1" height="1" fill="#2B5225" />
<rect x="16" y="6" width="1" height="1" fill="#2C5328" />
<rect x="17" y="6" width="1" height="1" fill="#000C00" />
<rect x="21" y="6" width="1" height="1" fill="#080000" />
<rect x="22" y="6" width="1" height="1" fill="#5C422B" />
<rect x="23" y="6" width="1" height="1" fill="#5D432A" />
<rect x="24" y="6" width="1" height="1" fill="#000000" />
<rect x="11" y="7" width="1" height="1" fill="#000100" />
<rect x="12" y="7" width="1" height="1" fill="#302F2B" />
<rect x="13" y="7" width="1" height="1" fill="#000300" />
<rect x="14" y="7" width="1" height="1" fill="#000A00" />
<rect x="15" y="7" width="1" height="1" fill="#000C00" />
<rect x="16" y="7" width="1" height="1" fill="#000800" />
<rect x="21" y="7" width="1" height="1" fill="#050000" />
<rect x="22" y="7" width="1" height="1" fill="#8F775F" />
<rect x="23" y="7" width="1" height="1" fill="#5B442C" />
<rect x="24" y="7" width="1" height="1" fill="#000000" />
<rect x="10" y="8" width="1" height="1" fill="#000300" />
<rect x="11" y="8" width="1" height="1" fill="#2E312C" />
<rect x="12" y="8" width="1" height="1" fill="#000100" />
<rect x="20" y="8" width="1" height="1" fill="#000300" />
<rect x="21" y="8" width="1" height="1" fill="#7A7874" />
<rect x="22" y="8" width="1" height="1" fill="#040000" />
<rect x="23" y="8" width="1" height="1" fill="#060000" />
<rect x="24" y="8" width="1" height="1" fill="#000000" />
<rect x="9" y="9" width="1" height="1" fill="#000100" />
<rect x="10" y="9" width="1" height="1" fill="#2D302B" />
<rect x="11" y="9" width="1" height="1" fill="#000000" />
<rect x="19" y="9" width="1" height="1" fill="#000200" />
<rect x="20" y="9" width="1" height="1" fill="#31322D" />
<rect x="21" y="9" width="1" height="1" fill="#020300" />
<rect x="8" y="10" width="1" height="1" fill="#020300" />
<rect x="9" y="10" width="1" height="1" fill="#2F2F2B" />
<rect x="10" y="10" width="1" height="1" fill="#000100" />
<rect x="18" y="10" width="1" height="1" fill="#000000" />
<rect x="19" y="10" width="1" height="1" fill="#332F2C" />
<rect x="20" y="10" width="1" height="1" fill="#050000" />
<rect x="7" y="11" width="1" height="1" fill="#020000" />
<rect x="8" y="11" width="1" height="1" fill="#2D2F27" />
<rect x="9" y="11" width="1" height="1" fill="#030500" />
<rect x="17" y="11" width="1" height="1" fill="#000000" />
<rect x="18" y="11" width="1" height="1" fill="#33312D" />
<rect x="19" y="11" width="1" height="1" fill="#030000" />
<rect x="6" y="12" width="1" height="1" fill="#040000" />
<rect x="7" y="12" width="1" height="1" fill="#322E29" />
<rect x="8" y="12" width="1" height="1" fill="#030200" />
<rect x="16" y="12" width="1" height="1" fill="#010200" />
<rect x="17" y="12" width="1" height="1" fill="#2F2F2B" />
<rect x="18" y="12" width="1" height="1" fill="#010200" />
<rect x="5" y="13" width="1" height="1" fill="#000000" />
<rect x="6" y="13" width="1" height="1" fill="#332F2C" />
<rect x="7" y="13" width="1" height="1" fill="#030000" />
<rect x="15" y="13" width="1" height="1" fill="#000000" />
<rect x="16" y="13" width="1" height="1" fill="#2F2F2B" />
<rect x="17" y="13" width="1" height="1" fill="#000000" />
<rect x="4" y="14" width="1" height="1" fill="#000000" />
<rect x="5" y="14" width="1" height="1" fill="#332F2A" />
<rect x="6" y="14" width="1" height="1" fill="#060100" />
<rect x="14" y="14" width="1" height="1" fill="#000000" />
<rect x="15" y="14" width="1" height="1" fill="#2D2E29" />
<rect x="16" y="14" width="1" height="1" fill="#010200" />
<rect x="3" y="15" width="1" height="1" fill="#000000" />
<rect x="4" y="15" width="1" height="1" fill="#302F2B" />
<rect x="5" y="15" width="1" height="1" fill="#040000" />
<rect x="13" y="15" width="1" height="1" fill="#000000" />
<rect x="14" y="15" width="1" height="1" fill="#2D2E29" />
<rect x="15" y="15" width="1" height="1" fill="#000100" />
<rect x="0" y="16" width="1" height="1" fill="#040000" />
<rect x="1" y="16" width="1" height="1" fill="#050000" />
<rect x="2" y="16" width="1" height="1" fill="#030000" />
<rect x="3" y="16" width="1" height="1" fill="#7C7A78" />
<rect x="4" y="16" width="1" height="1" fill="#000000" />
<rect x="12" y="16" width="1" height="1" fill="#030401" />
<rect x="13" y="16" width="1" height="1" fill="#31322D" />
<rect x="14" y="16" width="1" height="1" fill="#010200" />
<rect x="0" y="17" width="1" height="1" fill="#060000" />
<rect x="1" y="17" width="1" height="1" fill="#524A44" />
<rect x="2" y="17" width="1" height="1" fill="#7F7976" />
<rect x="3" y="17" width="1" height="1" fill="#030000" />
<rect x="8" y="17" width="1" height="1" fill="#000900" />
<rect x="9" y="17" width="1" height="1" fill="#000900" />
<rect x="10" y="17" width="1" height="1" fill="#000700" />
<rect x="11" y="17" width="1" height="1" fill="#000200" />
<rect x="12" y="17" width="1" height="1" fill="#2E322A" />
<rect x="13" y="17" width="1" height="1" fill="#000000" />
<rect x="0" y="18" width="1" height="1" fill="#060000" />
<rect x="1" y="18" width="1" height="1" fill="#504542" />
<rect x="2" y="18" width="1" height="1" fill="#524948" />
<rect x="3" y="18" width="1" height="1" fill="#050000" />
<rect x="7" y="18" width="1" height="1" fill="#001200" />
<rect x="8" y="18" width="1" height="1" fill="#215B1A" />
<rect x="9" y="18" width="1" height="1" fill="#1E5E16" />
<rect x="10" y="18" width="1" height="1" fill="#25551C" />
<rect x="11" y="18" width="1" height="1" fill="#1E3E16" />
<rect x="12" y="18" width="1" height="1" fill="#000700" />
<rect x="0" y="19" width="1" height="1" fill="#080000" />
<rect x="1" y="19" width="1" height="1" fill="#060000" />
<rect x="2" y="19" width="1" height="1" fill="#050000" />
<rect x="3" y="19" width="1" height="1" fill="#030000" />
<rect x="6" y="19" width="1" height="1" fill="#000C00" />
<rect x="7" y="19" width="1" height="1" fill="#295524" />
<rect x="8" y="19" width="1" height="1" fill="#185E0E" />
<rect x="9" y="19" width="1" height="1" fill="#136208" />
<rect x="10" y="19" width="1" height="1" fill="#094D00" />
<rect x="11" y="19" width="1" height="1" fill="#28561B" />
<rect x="12" y="19" width="1" height="1" fill="#000700" />
<rect x="5" y="20" width="1" height="1" fill="#000400" />
<rect x="6" y="20" width="1" height="1" fill="#365234" />
<rect x="7" y="20" width="1" height="1" fill="#2A5426" />
<rect x="8" y="20" width="1" height="1" fill="#255B1B" />
<rect x="9" y="20" width="1" height="1" fill="#0D4B00" />
<rect x="10" y="20" width="1" height="1" fill="#1A630D" />
<rect x="11" y="20" width="1" height="1" fill="#205B15" />
<rect x="12" y="20" width="1" height="1" fill="#000A00" />
<rect x="5" y="21" width="1" height="1" fill="#000300" />
<rect x="6" y="21" width="1" height="1" fill="#000900" />
<rect x="7" y="21" width="1" height="1" fill="#000F00" />
<rect x="8" y="21" width="1" height="1" fill="#184010" />
<rect x="9" y="21" width="1" height="1" fill="#24571B" />
<rect x="10" y="21" width="1" height="1" fill="#1F6013" />
<rect x="11" y="21" width="1" height="1" fill="#245C1B" />
<rect x="12" y="21" width="1" height="1" fill="#000B00" />
<rect x="7" y="22" width="1" height="1" fill="#000600" />
<rect x="8" y="22" width="1" height="1" fill="#000E00" />
<rect x="9" y="22" width="1" height="1" fill="#2D5427" />
<rect x="10" y="22" width="1" height="1" fill="#2A5424" />
<rect x="11" y="22" width="1" height="1" fill="#001000" />
<rect x="8" y="23" width="1" height="1" fill="#000A00" />
<rect x="9" y="23" width="1" height="1" fill="#334C2F" />
<rect x="10" y="23" width="1" height="1" fill="#000B00" />
<rect x="8" y="24" width="1" height="1" fill="#000200" />
<rect x="9" y="24" width="1" height="1" fill="#000300" />
</svg>