<?xml version="1.0" encoding="UTF-8" ?>
<svg version="1.1" width="25" height="25" xmlns="http://www.w3.org/2000/svg">
<rect x="8" y="1" width="1" height="1" fill="#000200" />
<rect x="9" y="1" width="1" height="1" fill="#000300" />
<rect x="10" y="1" width="1" height="1" fill="#000300" />
<rect x="7" y="2" width="1" height="1" fill="#000200" />
<rect x="8" y="2" width="1" height="1" fill="#E3E9E0" />
<rect x="9" y="2" width="1" height="1" fill="#E3E9E0" />
<rect x="10" y="2" width="1" height="1" fill="#E3E9E0" />
<rect x="11" y="2" width="1" height="1" fill="#000100" />
<rect x="12" y="2" width="1" height="1" fill="#000100" />
<rect x="13" y="2" width="1" height="1" fill="#000000" />
<rect x="14" y="2" width="1" height="1" fill="#000000" />
<rect x="15" y="2" width="1" height="1" fill="#000400" />
<rect x="17" y="2" width="1" height="1" fill="#000300" />
<rect x="18" y="2" width="1" height="1" fill="#000000" />
<rect x="19" y="2" width="1" height="1" fill="#000200" />
<rect x="7" y="3" width="1" height="1" fill="#000200" />
<rect x="8" y="3" width="1" height="1" fill="#E5EDE6" />
<rect x="9" y="3" width="1" height="1" fill="#E2EEE1" />
<rect x="10" y="3" width="1" height="1" fill="#E4EDDF" />
<rect x="11" y="3" width="1" height="1" fill="#000300" />
<rect x="12" y="3" width="1" height="1" fill="#E5EBE0" />
<rect x="13" y="3" width="1" height="1" fill="#000300" />
<rect x="14" y="3" width="1" height="1" fill="#E2E8E1" />
<rect x="15" y="3" width="1" height="1" fill="#000400" />
<rect x="16" y="3" width="1" height="1" fill="#000600" />
<rect x="17" y="3" width="1" height="1" fill="#E2EBDE" />
<rect x="18" y="3" width="1" height="1" fill="#E6ECE3" />
<rect x="19" y="3" width="1" height="1" fill="#000000" />
<rect x="8" y="4" width="1" height="1" fill="#000500" />
<rect x="9" y="4" width="1" height="1" fill="#E0EBDE" />
<rect x="10" y="4" width="1" height="1" fill="#E4EDDF" />
<rect x="11" y="4" width="1" height="1" fill="#000600" />
<rect x="12" y="4" width="1" height="1" fill="#E5EBE0" />
<rect x="13" y="4" width="1" height="1" fill="#000300" />
<rect x="14" y="4" width="1" height="1" fill="#E5EAE4" />
<rect x="15" y="4" width="1" height="1" fill="#000300" />
<rect x="16" y="4" width="1" height="1" fill="#E4EEE4" />
<rect x="17" y="4" width="1" height="1" fill="#E2EBDE" />
<rect x="18" y="4" width="1" height="1" fill="#000400" />
<rect x="19" y="4" width="1" height="1" fill="#000000" />
<rect x="9" y="5" width="1" height="1" fill="#000500" />
<rect x="10" y="5" width="1" height="1" fill="#E2E8DF" />
<rect x="11" y="5" width="1" height="1" fill="#000200" />
<rect x="12" y="5" width="1" height="1" fill="#E3EADE" />
<rect x="13" y="5" width="1" height="1" fill="#000400" />
<rect x="14" y="5" width="1" height="1" fill="#E1ECE2" />
<rect x="15" y="5" width="1" height="1" fill="#000400" />
<rect x="16" y="5" width="1" height="1" fill="#DFEADF" />
<rect x="17" y="5" width="1" height="1" fill="#E2EAE3" />
<rect x="18" y="5" width="1" height="1" fill="#000000" />
<rect x="9" y="6" width="1" height="1" fill="#020100" />
<rect x="10" y="6" width="1" height="1" fill="#E7E7DB" />
<rect x="11" y="6" width="1" height="1" fill="#000000" />
<rect x="12" y="6" width="1" height="1" fill="#E7E9D8" />
<rect x="13" y="6" width="1" height="1" fill="#000400" />
<rect x="14" y="6" width="1" height="1" fill="#E3EBD6" />
<rect x="15" y="6" width="1" height="1" fill="#000400" />
<rect x="16" y="6" width="1" height="1" fill="#E7EED5" />
<rect x="17" y="6" width="1" height="1" fill="#E9ECD7" />
<rect x="18" y="6" width="1" height="1" fill="#030400" />
<rect x="19" y="6" width="1" height="1" fill="#414125" />
<rect x="5" y="7" width="1" height="1" fill="#020000" />
<rect x="6" y="7" width="1" height="1" fill="#060100" />
<rect x="7" y="7" width="1" height="1" fill="#060000" />
<rect x="8" y="7" width="1" height="1" fill="#060000" />
<rect x="9" y="7" width="1" height="1" fill="#080100" />
<rect x="10" y="7" width="1" height="1" fill="#060000" />
<rect x="11" y="7" width="1" height="1" fill="#050000" />
<rect x="12" y="7" width="1" height="1" fill="#050000" />
<rect x="13" y="7" width="1" height="1" fill="#050300" />
<rect x="14" y="7" width="1" height="1" fill="#050400" />
<rect x="15" y="7" width="1" height="1" fill="#060500" />
<rect x="16" y="7" width="1" height="1" fill="#090600" />
<rect x="17" y="7" width="1" height="1" fill="#090700" />
<rect x="18" y="7" width="1" height="1" fill="#0A0500" />
<rect x="19" y="7" width="1" height="1" fill="#0A0500" />
<rect x="20" y="7" width="1" height="1" fill="#060500" />
<rect x="21" y="7" width="1" height="1" fill="#040500" />
<rect x="5" y="8" width="1" height="1" fill="#030200" />
<rect x="6" y="8" width="1" height="1" fill="#3F3C2F" />
<rect x="7" y="8" width="1" height="1" fill="#46402E" />
<rect x="8" y="8" width="1" height="1" fill="#483F27" />
<rect x="9" y="8" width="1" height="1" fill="#473B1F" />
<rect x="10" y="8" width="1" height="1" fill="#4A3E1B" />
<rect x="11" y="8" width="1" height="1" fill="#4A3F15" />
<rect x="12" y="8" width="1" height="1" fill="#716638" />
<rect x="13" y="8" width="1" height="1" fill="#726835" />
<rect x="14" y="8" width="1" height="1" fill="#71692C" />
<rect x="15" y="8" width="1" height="1" fill="#A79F54" />
<rect x="16" y="8" width="1" height="1" fill="#A9A24E" />
<rect x="17" y="8" width="1" height="1" fill="#A8A14F" />
<rect x="18" y="8" width="1" height="1" fill="#A8A254" />
<rect x="19" y="8" width="1" height="1" fill="#A5A05D" />
<rect x="20" y="8" width="1" height="1" fill="#A4A072" />
<rect x="21" y="8" width="1" height="1" fill="#040300" />
<rect x="5" y="9" width="1" height="1" fill="#000100" />
<rect x="6" y="9" width="1" height="1" fill="#020000" />
<rect x="7" y="9" width="1" height="1" fill="#463D2E" />
<rect x="8" y="9" width="1" height="1" fill="#4C3E23" />
<rect x="9" y="9" width="1" height="1" fill="#524012" />
<rect x="10" y="9" width="1" height="1" fill="#766526" />
<rect x="11" y="9" width="1" height="1" fill="#7B6922" />
<rect x="12" y="9" width="1" height="1" fill="#796819" />
<rect x="13" y="9" width="1" height="1" fill="#766818" />
<rect x="14" y="9" width="1" height="1" fill="#776A11" />
<rect x="15" y="9" width="1" height="1" fill="#796C03" />
<rect x="16" y="9" width="1" height="1" fill="#ADA234" />
<rect x="17" y="9" width="1" height="1" fill="#AEA43C" />
<rect x="18" y="9" width="1" height="1" fill="#ADA44F" />
<rect x="19" y="9" width="1" height="1" fill="#A69F66" />
<rect x="20" y="9" width="1" height="1" fill="#070100" />
<rect x="21" y="9" width="1" height="1" fill="#060300" />
<rect x="6" y="10" width="1" height="1" fill="#000000" />
<rect x="7" y="10" width="1" height="1" fill="#040000" />
<rect x="8" y="10" width="1" height="1" fill="#0A0000" />
<rect x="9" y="10" width="1" height="1" fill="#513C0A" />
<rect x="10" y="10" width="1" height="1" fill="#7B641E" />
<rect x="11" y="10" width="1" height="1" fill="#7D6915" />
<rect x="12" y="10" width="1" height="1" fill="#7C690B" />
<rect x="13" y="10" width="1" height="1" fill="#7A6A0B" />
<rect x="14" y="10" width="1" height="1" fill="#796B00" />
<rect x="15" y="10" width="1" height="1" fill="#7D6F00" />
<rect x="16" y="10" width="1" height="1" fill="#B0A525" />
<rect x="17" y="10" width="1" height="1" fill="#AEA536" />
<rect x="18" y="10" width="1" height="1" fill="#0D0600" />
<rect x="19" y="10" width="1" height="1" fill="#0A0300" />
<rect x="20" y="10" width="1" height="1" fill="#020000" />
<rect x="8" y="11" width="1" height="1" fill="#0B0000" />
<rect x="9" y="11" width="1" height="1" fill="#563915" />
<rect x="10" y="11" width="1" height="1" fill="#583A00" />
<rect x="11" y="11" width="1" height="1" fill="#574200" />
<rect x="12" y="11" width="1" height="1" fill="#7A6A0B" />
<rect x="13" y="11" width="1" height="1" fill="#796908" />
<rect x="14" y="11" width="1" height="1" fill="#7A6D00" />
<rect x="15" y="11" width="1" height="1" fill="#B4A91D" />
<rect x="16" y="11" width="1" height="1" fill="#B1A720" />
<rect x="17" y="11" width="1" height="1" fill="#ABA23F" />
<rect x="18" y="11" width="1" height="1" fill="#0C0700" />
<rect x="7" y="12" width="1" height="1" fill="#040000" />
<rect x="8" y="12" width="1" height="1" fill="#0C0000" />
<rect x="9" y="12" width="1" height="1" fill="#523610" />
<rect x="10" y="12" width="1" height="1" fill="#573A00" />
<rect x="11" y="12" width="1" height="1" fill="#7D6817" />
<rect x="12" y="12" width="1" height="1" fill="#786A0A" />
<rect x="13" y="12" width="1" height="1" fill="#7A6B07" />
<rect x="14" y="12" width="1" height="1" fill="#7C6E00" />
<rect x="15" y="12" width="1" height="1" fill="#B4A91D" />
<rect x="16" y="12" width="1" height="1" fill="#B4A81F" />
<rect x="17" y="12" width="1" height="1" fill="#ACA236" />
<rect x="18" y="12" width="1" height="1" fill="#0C0600" />
<rect x="19" y="12" width="1" height="1" fill="#060600" />
<rect x="6" y="13" width="1" height="1" fill="#0A0000" />
<rect x="7" y="13" width="1" height="1" fill="#0E0000" />
<rect x="8" y="13" width="1" height="1" fill="#4D3B18" />
<rect x="9" y="13" width="1" height="1" fill="#543D05" />
<rect x="10" y="13" width="1" height="1" fill="#7C661C" />
<rect x="11" y="13" width="1" height="1" fill="#796A0F" />
<rect x="12" y="13" width="1" height="1" fill="#776C09" />
<rect x="13" y="13" width="1" height="1" fill="#786A06" />
<rect x="14" y="13" width="1" height="1" fill="#7A6C00" />
<rect x="15" y="13" width="1" height="1" fill="#7B6C00" />
<rect x="16" y="13" width="1" height="1" fill="#B5A826" />
<rect x="17" y="13" width="1" height="1" fill="#B4AA1E" />
<rect x="18" y="13" width="1" height="1" fill="#ADA52B" />
<rect x="19" y="13" width="1" height="1" fill="#0C0600" />
<rect x="20" y="13" width="1" height="1" fill="#0A0600" />
<rect x="5" y="14" width="1" height="1" fill="#0A0000" />
<rect x="6" y="14" width="1" height="1" fill="#4F3B27" />
<rect x="7" y="14" width="1" height="1" fill="#50391C" />
<rect x="8" y="14" width="1" height="1" fill="#523C0F" />
<rect x="9" y="14" width="1" height="1" fill="#554000" />
<rect x="10" y="14" width="1" height="1" fill="#786718" />
<rect x="11" y="14" width="1" height="1" fill="#776B0D" />
<rect x="12" y="14" width="1" height="1" fill="#766D07" />
<rect x="13" y="14" width="1" height="1" fill="#7A6F0A" />
<rect x="14" y="14" width="1" height="1" fill="#7A6B05" />
<rect x="15" y="14" width="1" height="1" fill="#7D6C02" />
<rect x="16" y="14" width="1" height="1" fill="#7F6E00" />
<rect x="17" y="14" width="1" height="1" fill="#B4AA13" />
<rect x="18" y="14" width="1" height="1" fill="#B1A916" />
<rect x="19" y="14" width="1" height="1" fill="#AEA536" />
<rect x="20" y="14" width="1" height="1" fill="#A8A158" />
<rect x="21" y="14" width="1" height="1" fill="#060300" />
<rect x="4" y="15" width="1" height="1" fill="#050000" />
<rect x="5" y="15" width="1" height="1" fill="#4C3B23" />
<rect x="6" y="15" width="1" height="1" fill="#523A19" />
<rect x="7" y="15" width="1" height="1" fill="#563915" />
<rect x="8" y="15" width="1" height="1" fill="#563B0D" />
<rect x="9" y="15" width="1" height="1" fill="#533D00" />
<rect x="10" y="15" width="1" height="1" fill="#7A691D" />
<rect x="11" y="15" width="1" height="1" fill="#766A0E" />
<rect x="12" y="15" width="1" height="1" fill="#776E09" />
<rect x="13" y="15" width="1" height="1" fill="#786E09" />
<rect x="14" y="15" width="1" height="1" fill="#786A06" />
<rect x="15" y="15" width="1" height="1" fill="#7D6B09" />
<rect x="16" y="15" width="1" height="1" fill="#7B6C00" />
<rect x="17" y="15" width="1" height="1" fill="#B4A718" />
<rect x="18" y="15" width="1" height="1" fill="#B3AA10" />
<rect x="19" y="15" width="1" height="1" fill="#B3A818" />
<rect x="20" y="15" width="1" height="1" fill="#ACA634" />
<rect x="21" y="15" width="1" height="1" fill="#A2A15F" />
<rect x="22" y="15" width="1" height="1" fill="#020300" />
<rect x="4" y="16" width="1" height="1" fill="#080100" />
<rect x="5" y="16" width="1" height="1" fill="#4F3B1B" />
<rect x="6" y="16" width="1" height="1" fill="#563B0F" />
<rect x="7" y="16" width="1" height="1" fill="#573A0F" />
<rect x="8" y="16" width="1" height="1" fill="#593A0B" />
<rect x="9" y="16" width="1" height="1" fill="#563B04" />
<rect x="10" y="16" width="1" height="1" fill="#796520" />
<rect x="11" y="16" width="1" height="1" fill="#776A13" />
<rect x="12" y="16" width="1" height="1" fill="#766A0C" />
<rect x="13" y="16" width="1" height="1" fill="#776B0D" />
<rect x="14" y="16" width="1" height="1" fill="#7C6E11" />
<rect x="15" y="16" width="1" height="1" fill="#7D6D0C" />
<rect x="16" y="16" width="1" height="1" fill="#7B6A00" />
<rect x="17" y="16" width="1" height="1" fill="#B3A624" />
<rect x="18" y="16" width="1" height="1" fill="#B3A81A" />
<rect x="19" y="16" width="1" height="1" fill="#B4A816" />
<rect x="20" y="16" width="1" height="1" fill="#B0A62A" />
<rect x="21" y="16" width="1" height="1" fill="#6F6E21" />
<rect x="22" y="16" width="1" height="1" fill="#040300" />
<rect x="4" y="17" width="1" height="1" fill="#060000" />
<rect x="5" y="17" width="1" height="1" fill="#513C15" />
<rect x="6" y="17" width="1" height="1" fill="#573A0B" />
<rect x="7" y="17" width="1" height="1" fill="#593A0B" />
<rect x="8" y="17" width="1" height="1" fill="#593A0B" />
<rect x="9" y="17" width="1" height="1" fill="#5A3B0A" />
<rect x="10" y="17" width="1" height="1" fill="#563B02" />
<rect x="11" y="17" width="1" height="1" fill="#7A661E" />
<rect x="12" y="17" width="1" height="1" fill="#7B6B1A" />
<rect x="13" y="17" width="1" height="1" fill="#786716" />
<rect x="14" y="17" width="1" height="1" fill="#786812" />
<rect x="15" y="17" width="1" height="1" fill="#7A6C0D" />
<rect x="16" y="17" width="1" height="1" fill="#796C05" />
<rect x="17" y="17" width="1" height="1" fill="#796C00" />
<rect x="18" y="17" width="1" height="1" fill="#796C00" />
<rect x="19" y="17" width="1" height="1" fill="#7B6C00" />
<rect x="20" y="17" width="1" height="1" fill="#766B06" />
<rect x="21" y="17" width="1" height="1" fill="#706B29" />
<rect x="22" y="17" width="1" height="1" fill="#060500" />
<rect x="4" y="18" width="1" height="1" fill="#080400" />
<rect x="5" y="18" width="1" height="1" fill="#4C3D1B" />
<rect x="6" y="18" width="1" height="1" fill="#523C0F" />
<rect x="7" y="18" width="1" height="1" fill="#563B0B" />
<rect x="8" y="18" width="1" height="1" fill="#593A0B" />
<rect x="9" y="18" width="1" height="1" fill="#5C3A0C" />
<rect x="10" y="18" width="1" height="1" fill="#593A07" />
<rect x="11" y="18" width="1" height="1" fill="#543C00" />
<rect x="12" y="18" width="1" height="1" fill="#524000" />
<rect x="13" y="18" width="1" height="1" fill="#543F00" />
<rect x="14" y="18" width="1" height="1" fill="#7A671C" />
<rect x="15" y="18" width="1" height="1" fill="#796A11" />
<rect x="16" y="18" width="1" height="1" fill="#796A0D" />
<rect x="17" y="18" width="1" height="1" fill="#786A0A" />
<rect x="18" y="18" width="1" height="1" fill="#78690C" />
<rect x="19" y="18" width="1" height="1" fill="#79680E" />
<rect x="20" y="18" width="1" height="1" fill="#76671A" />
<rect x="21" y="18" width="1" height="1" fill="#6F6937" />
<rect x="22" y="18" width="1" height="1" fill="#040100" />
<rect x="5" y="19" width="1" height="1" fill="#090300" />
<rect x="6" y="19" width="1" height="1" fill="#493C1C" />
<rect x="7" y="19" width="1" height="1" fill="#513D11" />
<rect x="8" y="19" width="1" height="1" fill="#583C0C" />
<rect x="9" y="19" width="1" height="1" fill="#5C3A0C" />
<rect x="10" y="19" width="1" height="1" fill="#5C3A0A" />
<rect x="11" y="19" width="1" height="1" fill="#563C09" />
<rect x="12" y="19" width="1" height="1" fill="#533C06" />
<rect x="13" y="19" width="1" height="1" fill="#543B04" />
<rect x="14" y="19" width="1" height="1" fill="#563E00" />
<rect x="15" y="19" width="1" height="1" fill="#7C661E" />
<rect x="16" y="19" width="1" height="1" fill="#7C6919" />
<rect x="17" y="19" width="1" height="1" fill="#796817" />
<rect x="18" y="19" width="1" height="1" fill="#79681C" />
<rect x="19" y="19" width="1" height="1" fill="#7A6823" />
<rect x="20" y="19" width="1" height="1" fill="#756733" />
<rect x="21" y="19" width="1" height="1" fill="#080100" />
<rect x="6" y="20" width="1" height="1" fill="#060100" />
<rect x="7" y="20" width="1" height="1" fill="#4C3F1F" />
<rect x="8" y="20" width="1" height="1" fill="#513B17" />
<rect x="9" y="20" width="1" height="1" fill="#543A17" />
<rect x="10" y="20" width="1" height="1" fill="#533818" />
<rect x="11" y="20" width="1" height="1" fill="#503A18" />
<rect x="12" y="20" width="1" height="1" fill="#503D1B" />
<rect x="13" y="20" width="1" height="1" fill="#513B17" />
<rect x="14" y="20" width="1" height="1" fill="#503B12" />
<rect x="15" y="20" width="1" height="1" fill="#513D0D" />
<rect x="16" y="20" width="1" height="1" fill="#4F3F09" />
<rect x="17" y="20" width="1" height="1" fill="#4F410A" />
<rect x="18" y="20" width="1" height="1" fill="#4F410C" />
<rect x="19" y="20" width="1" height="1" fill="#4B3D12" />
<rect x="20" y="20" width="1" height="1" fill="#0A0000" />
<rect x="7" y="21" width="1" height="1" fill="#040000" />
<rect x="8" y="21" width="1" height="1" fill="#050000" />
<rect x="9" y="21" width="1" height="1" fill="#090000" />
<rect x="10" y="21" width="1" height="1" fill="#080000" />
<rect x="11" y="21" width="1" height="1" fill="#050000" />
<rect x="12" y="21" width="1" height="1" fill="#040000" />
<rect x="13" y="21" width="1" height="1" fill="#050000" />
<rect x="14" y="21" width="1" height="1" fill="#080000" />
<rect x="15" y="21" width="1" height="1" fill="#070000" />
<rect x="16" y="21" width="1" height="1" fill="#060000" />
<rect x="17" y="21" width="1" height="1" fill="#060000" />
<rect x="18" y="21" width="1" height="1" fill="#050100" />
<rect x="19" y="21" width="1" height="1" fill="#050000" />
</svg>