<?xml version="1.0" encoding="UTF-8" ?>
<svg version="1.1" width="25" height="25" xmlns="http://www.w3.org/2000/svg">
<rect x="12" y="0" width="1" height="1" fill="#0C0000" />
<rect x="11" y="1" width="1" height="1" fill="#130000" />
<rect x="12" y="1" width="1" height="1" fill="#744F39" />
<rect x="13" y="1" width="1" height="1" fill="#1C0000" />
<rect x="10" y="2" width="1" height="1" fill="#220000" />
<rect x="11" y="2" width="1" height="1" fill="#894827" />
<rect x="12" y="2" width="1" height="1" fill="#94421A" />
<rect x="13" y="2" width="1" height="1" fill="#8C4522" />
<rect x="14" y="2" width="1" height="1" fill="#1C0000" />
<rect x="9" y="3" width="1" height="1" fill="#0B0000" />
<rect x="10" y="3" width="1" height="1" fill="#7C4A30" />
<rect x="11" y="3" width="1" height="1" fill="#8F4119" />
<rect x="12" y="3" width="1" height="1" fill="#A03D0C" />
<rect x="13" y="3" width="1" height="1" fill="#994018" />
<rect x="14" y="3" width="1" height="1" fill="#774D39" />
<rect x="15" y="3" width="1" height="1" fill="#0E0000" />
<rect x="8" y="4" width="1" height="1" fill="#000201" />
<rect x="9" y="4" width="1" height="1" fill="#060000" />
<rect x="10" y="4" width="1" height="1" fill="#170000" />
<rect x="11" y="4" width="1" height="1" fill="#7A3D1F" />
<rect x="12" y="4" width="1" height="1" fill="#9C3F14" />
<rect x="13" y="4" width="1" height="1" fill="#96431D" />
<rect x="14" y="4" width="1" height="1" fill="#180000" />
<rect x="15" y="4" width="1" height="1" fill="#060000" />
<rect x="16" y="4" width="1" height="1" fill="#030001" />
<rect x="6" y="5" width="1" height="1" fill="#000000" />
<rect x="7" y="5" width="1" height="1" fill="#000000" />
<rect x="8" y="5" width="1" height="1" fill="#919491" />
<rect x="9" y="5" width="1" height="1" fill="#97918D" />
<rect x="10" y="5" width="1" height="1" fill="#140000" />
<rect x="11" y="5" width="1" height="1" fill="#6F3F26" />
<rect x="12" y="5" width="1" height="1" fill="#8D411D" />
<rect x="13" y="5" width="1" height="1" fill="#894626" />
<rect x="14" y="5" width="1" height="1" fill="#130000" />
<rect x="15" y="5" width="1" height="1" fill="#909090" />
<rect x="16" y="5" width="1" height="1" fill="#949494" />
<rect x="17" y="5" width="1" height="1" fill="#000002" />
<rect x="18" y="5" width="1" height="1" fill="#000002" />
<rect x="4" y="6" width="1" height="1" fill="#020000" />
<rect x="5" y="6" width="1" height="1" fill="#030100" />
<rect x="6" y="6" width="1" height="1" fill="#96928D" />
<rect x="7" y="6" width="1" height="1" fill="#96928D" />
<rect x="8" y="6" width="1" height="1" fill="#959490" />
<rect x="9" y="6" width="1" height="1" fill="#060000" />
<rect x="10" y="6" width="1" height="1" fill="#120000" />
<rect x="11" y="6" width="1" height="1" fill="#6A432B" />
<rect x="12" y="6" width="1" height="1" fill="#704025" />
<rect x="13" y="6" width="1" height="1" fill="#1F0000" />
<rect x="14" y="6" width="1" height="1" fill="#080000" />
<rect x="15" y="6" width="1" height="1" fill="#939393" />
<rect x="16" y="6" width="1" height="1" fill="#747570" />
<rect x="17" y="6" width="1" height="1" fill="#787876" />
<rect x="18" y="6" width="1" height="1" fill="#777478" />
<rect x="19" y="6" width="1" height="1" fill="#030003" />
<rect x="20" y="6" width="1" height="1" fill="#000000" />
<rect x="3" y="7" width="1" height="1" fill="#020000" />
<rect x="4" y="7" width="1" height="1" fill="#949293" />
<rect x="5" y="7" width="1" height="1" fill="#989493" />
<rect x="6" y="7" width="1" height="1" fill="#95918E" />
<rect x="7" y="7" width="1" height="1" fill="#95918B" />
<rect x="8" y="7" width="1" height="1" fill="#767470" />
<rect x="9" y="7" width="1" height="1" fill="#080000" />
<rect x="10" y="7" width="1" height="1" fill="#120000" />
<rect x="11" y="7" width="1" height="1" fill="#65442F" />
<rect x="12" y="7" width="1" height="1" fill="#67432F" />
<rect x="13" y="7" width="1" height="1" fill="#150000" />
<rect x="14" y="7" width="1" height="1" fill="#050000" />
<rect x="15" y="7" width="1" height="1" fill="#777777" />
<rect x="16" y="7" width="1" height="1" fill="#787974" />
<rect x="17" y="7" width="1" height="1" fill="#797A75" />
<rect x="18" y="7" width="1" height="1" fill="#787677" />
<rect x="19" y="7" width="1" height="1" fill="#777478" />
<rect x="20" y="7" width="1" height="1" fill="#747474" />
<rect x="21" y="7" width="1" height="1" fill="#010200" />
<rect x="2" y="8" width="1" height="1" fill="#020000" />
<rect x="3" y="8" width="1" height="1" fill="#949291" />
<rect x="4" y="8" width="1" height="1" fill="#989395" />
<rect x="5" y="8" width="1" height="1" fill="#969193" />
<rect x="6" y="8" width="1" height="1" fill="#7B7776" />
<rect x="7" y="8" width="1" height="1" fill="#767472" />
<rect x="8" y="8" width="1" height="1" fill="#757877" />
<rect x="9" y="8" width="1" height="1" fill="#7A7470" />
<rect x="10" y="8" width="1" height="1" fill="#120000" />
<rect x="11" y="8" width="1" height="1" fill="#65442F" />
<rect x="12" y="8" width="1" height="1" fill="#66422E" />
<rect x="13" y="8" width="1" height="1" fill="#5E4333" />
<rect x="14" y="8" width="1" height="1" fill="#040000" />
<rect x="15" y="8" width="1" height="1" fill="#787876" />
<rect x="16" y="8" width="1" height="1" fill="#777873" />
<rect x="17" y="8" width="1" height="1" fill="#777873" />
<rect x="18" y="8" width="1" height="1" fill="#757875" />
<rect x="19" y="8" width="1" height="1" fill="#757875" />
<rect x="20" y="8" width="1" height="1" fill="#777775" />
<rect x="21" y="8" width="1" height="1" fill="#767674" />
<rect x="22" y="8" width="1" height="1" fill="#000000" />
<rect x="1" y="9" width="1" height="1" fill="#000000" />
<rect x="2" y="9" width="1" height="1" fill="#979591" />
<rect x="3" y="9" width="1" height="1" fill="#959490" />
<rect x="4" y="9" width="1" height="1" fill="#969191" />
<rect x="5" y="9" width="1" height="1" fill="#7B7678" />
<rect x="6" y="9" width="1" height="1" fill="#787675" />
<rect x="7" y="9" width="1" height="1" fill="#767676" />
<rect x="8" y="9" width="1" height="1" fill="#000000" />
<rect x="9" y="9" width="1" height="1" fill="#0A0000" />
<rect x="10" y="9" width="1" height="1" fill="#1D0000" />
<rect x="11" y="9" width="1" height="1" fill="#6A412A" />
<rect x="12" y="9" width="1" height="1" fill="#180000" />
<rect x="13" y="9" width="1" height="1" fill="#100000" />
<rect x="14" y="9" width="1" height="1" fill="#060000" />
<rect x="15" y="9" width="1" height="1" fill="#767674" />
<rect x="16" y="9" width="1" height="1" fill="#777775" />
<rect x="17" y="9" width="1" height="1" fill="#777775" />
<rect x="18" y="9" width="1" height="1" fill="#777775" />
<rect x="19" y="9" width="1" height="1" fill="#757875" />
<rect x="20" y="9" width="1" height="1" fill="#787876" />
<rect x="21" y="9" width="1" height="1" fill="#777775" />
<rect x="22" y="9" width="1" height="1" fill="#5A5854" />
<rect x="23" y="9" width="1" height="1" fill="#000000" />
<rect x="1" y="10" width="1" height="1" fill="#000000" />
<rect x="2" y="10" width="1" height="1" fill="#93928E" />
<rect x="3" y="10" width="1" height="1" fill="#94938F" />
<rect x="4" y="10" width="1" height="1" fill="#787675" />
<rect x="5" y="10" width="1" height="1" fill="#787675" />
<rect x="6" y="10" width="1" height="1" fill="#7A7A7A" />
<rect x="7" y="10" width="1" height="1" fill="#777574" />
<rect x="8" y="10" width="1" height="1" fill="#070100" />
<rect x="9" y="10" width="1" height="1" fill="#5E4438" />
<rect x="10" y="10" width="1" height="1" fill="#784020" />
<rect x="11" y="10" width="1" height="1" fill="#773E1F" />
<rect x="12" y="10" width="1" height="1" fill="#120000" />
<rect x="13" y="10" width="1" height="1" fill="#7C7470" />
<rect x="14" y="10" width="1" height="1" fill="#7A7577" />
<rect x="15" y="10" width="1" height="1" fill="#7A777A" />
<rect x="16" y="10" width="1" height="1" fill="#757877" />
<rect x="17" y="10" width="1" height="1" fill="#777777" />
<rect x="18" y="10" width="1" height="1" fill="#787677" />
<rect x="19" y="10" width="1" height="1" fill="#787675" />
<rect x="20" y="10" width="1" height="1" fill="#747572" />
<rect x="21" y="10" width="1" height="1" fill="#777775" />
<rect x="22" y="10" width="1" height="1" fill="#5A5854" />
<rect x="23" y="10" width="1" height="1" fill="#000000" />
<rect x="0" y="11" width="1" height="1" fill="#000100" />
<rect x="1" y="11" width="1" height="1" fill="#90918E" />
<rect x="2" y="11" width="1" height="1" fill="#939190" />
<rect x="3" y="11" width="1" height="1" fill="#94938F" />
<rect x="4" y="11" width="1" height="1" fill="#767672" />
<rect x="5" y="11" width="1" height="1" fill="#767674" />
<rect x="6" y="11" width="1" height="1" fill="#747774" />
<rect x="7" y="11" width="1" height="1" fill="#767674" />
<rect x="8" y="11" width="1" height="1" fill="#040000" />
<rect x="9" y="11" width="1" height="1" fill="#120000" />
<rect x="10" y="11" width="1" height="1" fill="#6F4022" />
<rect x="11" y="11" width="1" height="1" fill="#734124" />
<rect x="12" y="11" width="1" height="1" fill="#130000" />
<rect x="13" y="11" width="1" height="1" fill="#090000" />
<rect x="14" y="11" width="1" height="1" fill="#7C7374" />
<rect x="15" y="11" width="1" height="1" fill="#7A7577" />
<rect x="16" y="11" width="1" height="1" fill="#777777" />
<rect x="17" y="11" width="1" height="1" fill="#757877" />
<rect x="18" y="11" width="1" height="1" fill="#787677" />
<rect x="19" y="11" width="1" height="1" fill="#7A7577" />
<rect x="20" y="11" width="1" height="1" fill="#777574" />
<rect x="21" y="11" width="1" height="1" fill="#777775" />
<rect x="22" y="11" width="1" height="1" fill="#5A5854" />
<rect x="23" y="11" width="1" height="1" fill="#5A5854" />
<rect x="24" y="11" width="1" height="1" fill="#000000" />
<rect x="0" y="12" width="1" height="1" fill="#000100" />
<rect x="1" y="12" width="1" height="1" fill="#939393" />
<rect x="2" y="12" width="1" height="1" fill="#939190" />
<rect x="3" y="12" width="1" height="1" fill="#767672" />
<rect x="4" y="12" width="1" height="1" fill="#757873" />
<rect x="5" y="12" width="1" height="1" fill="#757873" />
<rect x="6" y="12" width="1" height="1" fill="#757873" />
<rect x="7" y="12" width="1" height="1" fill="#747772" />
<rect x="8" y="12" width="1" height="1" fill="#787974" />
<rect x="9" y="12" width="1" height="1" fill="#040100" />
<rect x="10" y="12" width="1" height="1" fill="#0A0000" />
<rect x="11" y="12" width="1" height="1" fill="#0E0000" />
<rect x="12" y="12" width="1" height="1" fill="#5F4436" />
<rect x="13" y="12" width="1" height="1" fill="#160000" />
<rect x="14" y="12" width="1" height="1" fill="#100000" />
<rect x="15" y="12" width="1" height="1" fill="#070000" />
<rect x="16" y="12" width="1" height="1" fill="#767472" />
<rect x="17" y="12" width="1" height="1" fill="#747676" />
<rect x="18" y="12" width="1" height="1" fill="#787878" />
<rect x="19" y="12" width="1" height="1" fill="#787677" />
<rect x="20" y="12" width="1" height="1" fill="#777775" />
<rect x="21" y="12" width="1" height="1" fill="#5A5854" />
<rect x="22" y="12" width="1" height="1" fill="#5A5854" />
<rect x="23" y="12" width="1" height="1" fill="#5A5854" />
<rect x="24" y="12" width="1" height="1" fill="#000000" />
<rect x="0" y="13" width="1" height="1" fill="#000100" />
<rect x="1" y="13" width="1" height="1" fill="#939393" />
<rect x="2" y="13" width="1" height="1" fill="#949291" />
<rect x="3" y="13" width="1" height="1" fill="#949492" />
<rect x="4" y="13" width="1" height="1" fill="#757873" />
<rect x="5" y="13" width="1" height="1" fill="#757873" />
<rect x="6" y="13" width="1" height="1" fill="#757873" />
<rect x="7" y="13" width="1" height="1" fill="#757873" />
<rect x="8" y="13" width="1" height="1" fill="#767A74" />
<rect x="9" y="13" width="1" height="1" fill="#757875" />
<rect x="10" y="13" width="1" height="1" fill="#757A76" />
<rect x="11" y="13" width="1" height="1" fill="#080000" />
<rect x="12" y="13" width="1" height="1" fill="#1A0000" />
<rect x="13" y="13" width="1" height="1" fill="#674130" />
<rect x="14" y="13" width="1" height="1" fill="#5C453A" />
<rect x="15" y="13" width="1" height="1" fill="#0B0000" />
<rect x="16" y="13" width="1" height="1" fill="#030100" />
<rect x="17" y="13" width="1" height="1" fill="#767978" />
<rect x="18" y="13" width="1" height="1" fill="#787878" />
<rect x="19" y="13" width="1" height="1" fill="#747572" />
<rect x="20" y="13" width="1" height="1" fill="#5A5854" />
<rect x="21" y="13" width="1" height="1" fill="#5A5854" />
<rect x="22" y="13" width="1" height="1" fill="#5A5854" />
<rect x="23" y="13" width="1" height="1" fill="#5A5854" />
<rect x="24" y="13" width="1" height="1" fill="#000000" />
<rect x="1" y="14" width="1" height="1" fill="#020202" />
<rect x="2" y="14" width="1" height="1" fill="#7A7776" />
<rect x="3" y="14" width="1" height="1" fill="#939190" />
<rect x="4" y="14" width="1" height="1" fill="#777775" />
<rect x="5" y="14" width="1" height="1" fill="#777775" />
<rect x="6" y="14" width="1" height="1" fill="#777775" />
<rect x="7" y="14" width="1" height="1" fill="#777873" />
<rect x="8" y="14" width="1" height="1" fill="#7A7874" />
<rect x="9" y="14" width="1" height="1" fill="#777873" />
<rect x="10" y="14" width="1" height="1" fill="#747676" />
<rect x="11" y="14" width="1" height="1" fill="#080000" />
<rect x="12" y="14" width="1" height="1" fill="#200000" />
<rect x="13" y="14" width="1" height="1" fill="#6E3F2A" />
<rect x="14" y="14" width="1" height="1" fill="#5E4438" />
<rect x="15" y="14" width="1" height="1" fill="#080000" />
<rect x="16" y="14" width="1" height="1" fill="#020000" />
<rect x="17" y="14" width="1" height="1" fill="#747676" />
<rect x="18" y="14" width="1" height="1" fill="#5A5854" />
<rect x="19" y="14" width="1" height="1" fill="#5A5854" />
<rect x="20" y="14" width="1" height="1" fill="#5A5854" />
<rect x="21" y="14" width="1" height="1" fill="#5A5854" />
<rect x="22" y="14" width="1" height="1" fill="#5A5854" />
<rect x="23" y="14" width="1" height="1" fill="#000000" />
<rect x="1" y="15" width="1" height="1" fill="#000000" />
<rect x="2" y="15" width="1" height="1" fill="#7C7A78" />
<rect x="3" y="15" width="1" height="1" fill="#787675" />
<rect x="4" y="15" width="1" height="1" fill="#787675" />
<rect x="5" y="15" width="1" height="1" fill="#787675" />
<rect x="6" y="15" width="1" height="1" fill="#787675" />
<rect x="7" y="15" width="1" height="1" fill="#787773" />
<rect x="8" y="15" width="1" height="1" fill="#7A7874" />
<rect x="9" y="15" width="1" height="1" fill="#7B7774" />
<rect x="10" y="15" width="1" height="1" fill="#060000" />
<rect x="11" y="15" width="1" height="1" fill="#110000" />
<rect x="12" y="15" width="1" height="1" fill="#6D412B" />
<rect x="13" y="15" width="1" height="1" fill="#6C402A" />
<rect x="14" y="15" width="1" height="1" fill="#0F0000" />
<rect x="15" y="15" width="1" height="1" fill="#050000" />
<rect x="16" y="15" width="1" height="1" fill="#5A5854" />
<rect x="17" y="15" width="1" height="1" fill="#5A5854" />
<rect x="18" y="15" width="1" height="1" fill="#5A5854" />
<rect x="19" y="15" width="1" height="1" fill="#5A5854" />
<rect x="20" y="15" width="1" height="1" fill="#5A5854" />
<rect x="21" y="15" width="1" height="1" fill="#5A5854" />
<rect x="22" y="15" width="1" height="1" fill="#5A5854" />
<rect x="23" y="15" width="1" height="1" fill="#010200" />
<rect x="2" y="16" width="1" height="1" fill="#020000" />
<rect x="3" y="16" width="1" height="1" fill="#777574" />
<rect x="4" y="16" width="1" height="1" fill="#787374" />
<rect x="5" y="16" width="1" height="1" fill="#7B7776" />
<rect x="6" y="16" width="1" height="1" fill="#797572" />
<rect x="7" y="16" width="1" height="1" fill="#7B7772" />
<rect x="8" y="16" width="1" height="1" fill="#575855" />
<rect x="9" y="16" width="1" height="1" fill="#060000" />
<rect x="10" y="16" width="1" height="1" fill="#150000" />
<rect x="11" y="16" width="1" height="1" fill="#68432F" />
<rect x="12" y="16" width="1" height="1" fill="#6A402C" />
<rect x="13" y="16" width="1" height="1" fill="#1A0000" />
<rect x="14" y="16" width="1" height="1" fill="#0C0000" />
<rect x="15" y="16" width="1" height="1" fill="#5A5854" />
<rect x="16" y="16" width="1" height="1" fill="#5A5854" />
<rect x="17" y="16" width="1" height="1" fill="#5A5854" />
<rect x="18" y="16" width="1" height="1" fill="#5A5854" />
<rect x="19" y="16" width="1" height="1" fill="#5A5854" />
<rect x="20" y="16" width="1" height="1" fill="#5A5854" />
<rect x="21" y="16" width="1" height="1" fill="#5A5854" />
<rect x="22" y="16" width="1" height="1" fill="#010200" />
<rect x="3" y="17" width="1" height="1" fill="#040200" />
<rect x="4" y="17" width="1" height="1" fill="#5B5657" />
<rect x="5" y="17" width="1" height="1" fill="#5C5758" />
<rect x="6" y="17" width="1" height="1" fill="#787470" />
<rect x="7" y="17" width="1" height="1" fill="#595851" />
<rect x="8" y="17" width="1" height="1" fill="#585956" />
<rect x="9" y="17" width="1" height="1" fill="#080000" />
<rect x="10" y="17" width="1" height="1" fill="#65442F" />
<rect x="11" y="17" width="1" height="1" fill="#6E3F28" />
<rect x="12" y="17" width="1" height="1" fill="#6E3F2A" />
<rect x="13" y="17" width="1" height="1" fill="#1A0000" />
<rect x="14" y="17" width="1" height="1" fill="#5A5854" />
<rect x="15" y="17" width="1" height="1" fill="#5A5854" />
<rect x="16" y="17" width="1" height="1" fill="#5A5854" />
<rect x="17" y="17" width="1" height="1" fill="#5A5854" />
<rect x="18" y="17" width="1" height="1" fill="#5A5854" />
<rect x="19" y="17" width="1" height="1" fill="#5A5854" />
<rect x="20" y="17" width="1" height="1" fill="#5A5854" />
<rect x="21" y="17" width="1" height="1" fill="#010200" />
<rect x="4" y="18" width="1" height="1" fill="#020002" />
<rect x="5" y="18" width="1" height="1" fill="#000000" />
<rect x="6" y="18" width="1" height="1" fill="#575855" />
<rect x="7" y="18" width="1" height="1" fill="#5A5A56" />
<rect x="8" y="18" width="1" height="1" fill="#585B58" />
<rect x="9" y="18" width="1" height="1" fill="#060000" />
<rect x="10" y="18" width="1" height="1" fill="#170000" />
<rect x="11" y="18" width="1" height="1" fill="#6F4029" />
<rect x="12" y="18" width="1" height="1" fill="#723E24" />
<rect x="13" y="18" width="1" height="1" fill="#1E0000" />
<rect x="14" y="18" width="1" height="1" fill="#0B0000" />
<rect x="15" y="18" width="1" height="1" fill="#5A5854" />
<rect x="16" y="18" width="1" height="1" fill="#5A5854" />
<rect x="17" y="18" width="1" height="1" fill="#5A5854" />
<rect x="18" y="18" width="1" height="1" fill="#5A5854" />
<rect x="19" y="18" width="1" height="1" fill="#000000" />
<rect x="20" y="18" width="1" height="1" fill="#010200" />
<rect x="6" y="19" width="1" height="1" fill="#010200" />
<rect x="7" y="19" width="1" height="1" fill="#000000" />
<rect x="8" y="19" width="1" height="1" fill="#555754" />
<rect x="9" y="19" width="1" height="1" fill="#60564E" />
<rect x="10" y="19" width="1" height="1" fill="#1B0000" />
<rect x="11" y="19" width="1" height="1" fill="#743D22" />
<rect x="12" y="19" width="1" height="1" fill="#8B4524" />
<rect x="13" y="19" width="1" height="1" fill="#783D21" />
<rect x="14" y="19" width="1" height="1" fill="#130000" />
<rect x="15" y="19" width="1" height="1" fill="#5A5854" />
<rect x="16" y="19" width="1" height="1" fill="#5A5854" />
<rect x="17" y="19" width="1" height="1" fill="#000000" />
<rect x="18" y="19" width="1" height="1" fill="#040200" />
<rect x="8" y="20" width="1" height="1" fill="#000000" />
<rect x="9" y="20" width="1" height="1" fill="#0D0000" />
<rect x="10" y="20" width="1" height="1" fill="#260000" />
<rect x="11" y="20" width="1" height="1" fill="#803612" />
<rect x="12" y="20" width="1" height="1" fill="#9C3D0F" />
<rect x="13" y="20" width="1" height="1" fill="#96431D" />
<rect x="14" y="20" width="1" height="1" fill="#1C0000" />
<rect x="15" y="20" width="1" height="1" fill="#070000" />
<rect x="16" y="20" width="1" height="1" fill="#030000" />
<rect x="9" y="21" width="1" height="1" fill="#110000" />
<rect x="10" y="21" width="1" height="1" fill="#784935" />
<rect x="11" y="21" width="1" height="1" fill="#8C4522" />
<rect x="12" y="21" width="1" height="1" fill="#A13E10" />
<rect x="13" y="21" width="1" height="1" fill="#984118" />
<rect x="14" y="21" width="1" height="1" fill="#724C39" />
<rect x="15" y="21" width="1" height="1" fill="#070000" />
<rect x="10" y="22" width="1" height="1" fill="#180000" />
<rect x="11" y="22" width="1" height="1" fill="#7F4A33" />
<rect x="12" y="22" width="1" height="1" fill="#92411D" />
<rect x="13" y="22" width="1" height="1" fill="#8B4323" />
<rect x="14" y="22" width="1" height="1" fill="#120000" />
<rect x="11" y="23" width="1" height="1" fill="#1A0000" />
<rect x="12" y="23" width="1" height="1" fill="#7E4932" />
<rect x="13" y="23" width="1" height="1" fill="#250000" />
<rect x="12" y="24" width="1" height="1" fill="#100000" />
</svg>