<?xml version="1.0" encoding="UTF-8" ?>
<svg version="1.1" width="25" height="25" xmlns="http://www.w3.org/2000/svg">
<rect x="11" y="4" width="1" height="1" fill="#000700" />
<rect x="12" y="4" width="1" height="1" fill="#000A00" />
<rect x="13" y="4" width="1" height="1" fill="#000700" />
<rect x="10" y="5" width="1" height="1" fill="#000800" />
<rect x="11" y="5" width="1" height="1" fill="#2A5428" />
<rect x="12" y="5" width="1" height="1" fill="#285725" />
<rect x="13" y="5" width="1" height="1" fill="#2F522D" />
<rect x="14" y="5" width="1" height="1" fill="#000E00" />
<rect x="4" y="6" width="1" height="1" fill="#000900" />
<rect x="5" y="6" width="1" height="1" fill="#001300" />
<rect x="6" y="6" width="1" height="1" fill="#001600" />
<rect x="9" y="6" width="1" height="1" fill="#000600" />
<rect x="10" y="6" width="1" height="1" fill="#000F00" />
<rect x="11" y="6" width="1" height="1" fill="#1C601B" />
<rect x="12" y="6" width="1" height="1" fill="#186416" />
<rect x="13" y="6" width="1" height="1" fill="#205F1C" />
<rect x="14" y="6" width="1" height="1" fill="#001100" />
<rect x="15" y="6" width="1" height="1" fill="#000900" />
<rect x="18" y="6" width="1" height="1" fill="#000E00" />
<rect x="19" y="6" width="1" height="1" fill="#000900" />
<rect x="20" y="6" width="1" height="1" fill="#000600" />
<rect x="4" y="7" width="1" height="1" fill="#000D00" />
<rect x="5" y="7" width="1" height="1" fill="#408F40" />
<rect x="6" y="7" width="1" height="1" fill="#3E933D" />
<rect x="7" y="7" width="1" height="1" fill="#001500" />
<rect x="8" y="7" width="1" height="1" fill="#000D00" />
<rect x="9" y="7" width="1" height="1" fill="#000C00" />
<rect x="10" y="7" width="1" height="1" fill="#295526" />
<rect x="11" y="7" width="1" height="1" fill="#126412" />
<rect x="12" y="7" width="1" height="1" fill="#0D6A0B" />
<rect x="13" y="7" width="1" height="1" fill="#13630D" />
<rect x="14" y="7" width="1" height="1" fill="#1E5B19" />
<rect x="15" y="7" width="1" height="1" fill="#000B00" />
<rect x="16" y="7" width="1" height="1" fill="#000B00" />
<rect x="17" y="7" width="1" height="1" fill="#001A00" />
<rect x="18" y="7" width="1" height="1" fill="#468A45" />
<rect x="19" y="7" width="1" height="1" fill="#518251" />
<rect x="20" y="7" width="1" height="1" fill="#000B00" />
<rect x="4" y="8" width="1" height="1" fill="#001400" />
<rect x="5" y="8" width="1" height="1" fill="#28A026" />
<rect x="6" y="8" width="1" height="1" fill="#20AB1A" />
<rect x="7" y="8" width="1" height="1" fill="#2F9A2B" />
<rect x="8" y="8" width="1" height="1" fill="#43903F" />
<rect x="9" y="8" width="1" height="1" fill="#001700" />
<rect x="10" y="8" width="1" height="1" fill="#245A21" />
<rect x="11" y="8" width="1" height="1" fill="#12650E" />
<rect x="12" y="8" width="1" height="1" fill="#0B6905" />
<rect x="13" y="8" width="1" height="1" fill="#106907" />
<rect x="14" y="8" width="1" height="1" fill="#1A6211" />
<rect x="15" y="8" width="1" height="1" fill="#001300" />
<rect x="16" y="8" width="1" height="1" fill="#4C854D" />
<rect x="17" y="8" width="1" height="1" fill="#28A028" />
<rect x="18" y="8" width="1" height="1" fill="#24A422" />
<rect x="19" y="8" width="1" height="1" fill="#3C9139" />
<rect x="20" y="8" width="1" height="1" fill="#001300" />
<rect x="0" y="9" width="1" height="1" fill="#000700" />
<rect x="1" y="9" width="1" height="1" fill="#000C00" />
<rect x="2" y="9" width="1" height="1" fill="#000D00" />
<rect x="4" y="9" width="1" height="1" fill="#001700" />
<rect x="5" y="9" width="1" height="1" fill="#2DA029" />
<rect x="6" y="9" width="1" height="1" fill="#22A81D" />
<rect x="7" y="9" width="1" height="1" fill="#2E9E2B" />
<rect x="8" y="9" width="1" height="1" fill="#002300" />
<rect x="9" y="9" width="1" height="1" fill="#001E00" />
<rect x="10" y="9" width="1" height="1" fill="#175E14" />
<rect x="11" y="9" width="1" height="1" fill="#126A0C" />
<rect x="12" y="9" width="1" height="1" fill="#096A03" />
<rect x="13" y="9" width="1" height="1" fill="#0D6C03" />
<rect x="14" y="9" width="1" height="1" fill="#14650C" />
<rect x="15" y="9" width="1" height="1" fill="#001600" />
<rect x="16" y="9" width="1" height="1" fill="#001900" />
<rect x="17" y="9" width="1" height="1" fill="#28A028" />
<rect x="18" y="9" width="1" height="1" fill="#22A522" />
<rect x="19" y="9" width="1" height="1" fill="#349432" />
<rect x="20" y="9" width="1" height="1" fill="#001E00" />
<rect x="22" y="9" width="1" height="1" fill="#000800" />
<rect x="23" y="9" width="1" height="1" fill="#000800" />
<rect x="24" y="9" width="1" height="1" fill="#000600" />
<rect x="0" y="10" width="1" height="1" fill="#000B00" />
<rect x="1" y="10" width="1" height="1" fill="#428C43" />
<rect x="2" y="10" width="1" height="1" fill="#002300" />
<rect x="3" y="10" width="1" height="1" fill="#001B00" />
<rect x="4" y="10" width="1" height="1" fill="#001B00" />
<rect x="5" y="10" width="1" height="1" fill="#001D00" />
<rect x="6" y="10" width="1" height="1" fill="#001B00" />
<rect x="7" y="10" width="1" height="1" fill="#4C884A" />
<rect x="8" y="10" width="1" height="1" fill="#001B00" />
<rect x="9" y="10" width="1" height="1" fill="#126510" />
<rect x="10" y="10" width="1" height="1" fill="#0D6A0B" />
<rect x="11" y="10" width="1" height="1" fill="#076C06" />
<rect x="12" y="10" width="1" height="1" fill="#046900" />
<rect x="13" y="10" width="1" height="1" fill="#0C6D03" />
<rect x="14" y="10" width="1" height="1" fill="#15660D" />
<rect x="15" y="10" width="1" height="1" fill="#23551E" />
<rect x="16" y="10" width="1" height="1" fill="#001400" />
<rect x="17" y="10" width="1" height="1" fill="#498B49" />
<rect x="18" y="10" width="1" height="1" fill="#002100" />
<rect x="19" y="10" width="1" height="1" fill="#002200" />
<rect x="20" y="10" width="1" height="1" fill="#001D00" />
<rect x="21" y="10" width="1" height="1" fill="#001900" />
<rect x="22" y="10" width="1" height="1" fill="#001700" />
<rect x="23" y="10" width="1" height="1" fill="#4B824B" />
<rect x="24" y="10" width="1" height="1" fill="#001200" />
<rect x="0" y="11" width="1" height="1" fill="#000E00" />
<rect x="1" y="11" width="1" height="1" fill="#2F9B32" />
<rect x="2" y="11" width="1" height="1" fill="#1EA521" />
<rect x="3" y="11" width="1" height="1" fill="#2A9E2C" />
<rect x="4" y="11" width="1" height="1" fill="#359638" />
<rect x="5" y="11" width="1" height="1" fill="#409143" />
<rect x="6" y="11" width="1" height="1" fill="#001900" />
<rect x="7" y="11" width="1" height="1" fill="#001400" />
<rect x="8" y="11" width="1" height="1" fill="#001800" />
<rect x="9" y="11" width="1" height="1" fill="#136A0F" />
<rect x="10" y="11" width="1" height="1" fill="#066D04" />
<rect x="11" y="11" width="1" height="1" fill="#066D04" />
<rect x="12" y="11" width="1" height="1" fill="#076D04" />
<rect x="13" y="11" width="1" height="1" fill="#0A6D05" />
<rect x="14" y="11" width="1" height="1" fill="#12680B" />
<rect x="15" y="11" width="1" height="1" fill="#225C1B" />
<rect x="16" y="11" width="1" height="1" fill="#001600" />
<rect x="17" y="11" width="1" height="1" fill="#001500" />
<rect x="18" y="11" width="1" height="1" fill="#002000" />
<rect x="19" y="11" width="1" height="1" fill="#35963A" />
<rect x="20" y="11" width="1" height="1" fill="#2F9933" />
<rect x="21" y="11" width="1" height="1" fill="#329934" />
<rect x="22" y="11" width="1" height="1" fill="#3A9639" />
<rect x="23" y="11" width="1" height="1" fill="#439241" />
<rect x="24" y="11" width="1" height="1" fill="#001700" />
<rect x="0" y="12" width="1" height="1" fill="#001100" />
<rect x="1" y="12" width="1" height="1" fill="#1FA423" />
<rect x="2" y="12" width="1" height="1" fill="#08B50E" />
<rect x="3" y="12" width="1" height="1" fill="#0CB10F" />
<rect x="4" y="12" width="1" height="1" fill="#13B115" />
<rect x="5" y="12" width="1" height="1" fill="#16AB17" />
<rect x="6" y="12" width="1" height="1" fill="#24A127" />
<rect x="7" y="12" width="1" height="1" fill="#001E00" />
<rect x="8" y="12" width="1" height="1" fill="#001B00" />
<rect x="9" y="12" width="1" height="1" fill="#0E680C" />
<rect x="10" y="12" width="1" height="1" fill="#076D04" />
<rect x="11" y="12" width="1" height="1" fill="#0B6B04" />
<rect x="12" y="12" width="1" height="1" fill="#0B6B04" />
<rect x="13" y="12" width="1" height="1" fill="#086B03" />
<rect x="14" y="12" width="1" height="1" fill="#0F6A09" />
<rect x="15" y="12" width="1" height="1" fill="#186011" />
<rect x="16" y="12" width="1" height="1" fill="#002200" />
<rect x="17" y="12" width="1" height="1" fill="#002900" />
<rect x="18" y="12" width="1" height="1" fill="#2BA22A" />
<rect x="19" y="12" width="1" height="1" fill="#1BAC19" />
<rect x="20" y="12" width="1" height="1" fill="#12B012" />
<rect x="21" y="12" width="1" height="1" fill="#0EAE0F" />
<rect x="22" y="12" width="1" height="1" fill="#1EA91F" />
<rect x="23" y="12" width="1" height="1" fill="#359734" />
<rect x="24" y="12" width="1" height="1" fill="#001A00" />
<rect x="0" y="13" width="1" height="1" fill="#000F00" />
<rect x="1" y="13" width="1" height="1" fill="#2A9E30" />
<rect x="2" y="13" width="1" height="1" fill="#0FB116" />
<rect x="3" y="13" width="1" height="1" fill="#04B709" />
<rect x="4" y="13" width="1" height="1" fill="#00BA03" />
<rect x="5" y="13" width="1" height="1" fill="#00BB01" />
<rect x="6" y="13" width="1" height="1" fill="#0FB210" />
<rect x="7" y="13" width="1" height="1" fill="#2C9E2A" />
<rect x="8" y="13" width="1" height="1" fill="#0D6A0B" />
<rect x="9" y="13" width="1" height="1" fill="#096B06" />
<rect x="10" y="13" width="1" height="1" fill="#096C04" />
<rect x="11" y="13" width="1" height="1" fill="#0B6B04" />
<rect x="12" y="13" width="1" height="1" fill="#0B6B04" />
<rect x="13" y="13" width="1" height="1" fill="#086E05" />
<rect x="14" y="13" width="1" height="1" fill="#096B06" />
<rect x="15" y="13" width="1" height="1" fill="#0E6908" />
<rect x="16" y="13" width="1" height="1" fill="#066C01" />
<rect x="17" y="13" width="1" height="1" fill="#23A621" />
<rect x="18" y="13" width="1" height="1" fill="#15B013" />
<rect x="19" y="13" width="1" height="1" fill="#0AB807" />
<rect x="20" y="13" width="1" height="1" fill="#03B701" />
<rect x="21" y="13" width="1" height="1" fill="#08B909" />
<rect x="22" y="13" width="1" height="1" fill="#17AA19" />
<rect x="23" y="13" width="1" height="1" fill="#3A943A" />
<rect x="24" y="13" width="1" height="1" fill="#001200" />
<rect x="0" y="14" width="1" height="1" fill="#000900" />
<rect x="1" y="14" width="1" height="1" fill="#001700" />
<rect x="2" y="14" width="1" height="1" fill="#329A3B" />
<rect x="3" y="14" width="1" height="1" fill="#12B01B" />
<rect x="4" y="14" width="1" height="1" fill="#02BF09" />
<rect x="5" y="14" width="1" height="1" fill="#00BC00" />
<rect x="6" y="14" width="1" height="1" fill="#04B801" />
<rect x="7" y="14" width="1" height="1" fill="#10B30F" />
<rect x="8" y="14" width="1" height="1" fill="#1BA618" />
<rect x="9" y="14" width="1" height="1" fill="#037100" />
<rect x="10" y="14" width="1" height="1" fill="#0B6B04" />
<rect x="11" y="14" width="1" height="1" fill="#096C04" />
<rect x="12" y="14" width="1" height="1" fill="#076D04" />
<rect x="13" y="14" width="1" height="1" fill="#076F05" />
<rect x="14" y="14" width="1" height="1" fill="#006F01" />
<rect x="15" y="14" width="1" height="1" fill="#007500" />
<rect x="16" y="14" width="1" height="1" fill="#1EA91F" />
<rect x="17" y="14" width="1" height="1" fill="#0DB310" />
<rect x="18" y="14" width="1" height="1" fill="#05B808" />
<rect x="19" y="14" width="1" height="1" fill="#04BA04" />
<rect x="20" y="14" width="1" height="1" fill="#0AB809" />
<rect x="21" y="14" width="1" height="1" fill="#18B018" />
<rect x="22" y="14" width="1" height="1" fill="#309F30" />
<rect x="23" y="14" width="1" height="1" fill="#001800" />
<rect x="24" y="14" width="1" height="1" fill="#000700" />
<rect x="1" y="15" width="1" height="1" fill="#000900" />
<rect x="2" y="15" width="1" height="1" fill="#001700" />
<rect x="3" y="15" width="1" height="1" fill="#2AA031" />
<rect x="4" y="15" width="1" height="1" fill="#12B117" />
<rect x="5" y="15" width="1" height="1" fill="#05BB05" />
<rect x="6" y="15" width="1" height="1" fill="#01C000" />
<rect x="7" y="15" width="1" height="1" fill="#00BB00" />
<rect x="8" y="15" width="1" height="1" fill="#0FB30C" />
<rect x="9" y="15" width="1" height="1" fill="#007500" />
<rect x="10" y="15" width="1" height="1" fill="#086B00" />
<rect x="11" y="15" width="1" height="1" fill="#076D04" />
<rect x="12" y="15" width="1" height="1" fill="#076D04" />
<rect x="13" y="15" width="1" height="1" fill="#036B01" />
<rect x="14" y="15" width="1" height="1" fill="#007100" />
<rect x="15" y="15" width="1" height="1" fill="#007B00" />
<rect x="16" y="15" width="1" height="1" fill="#0FAF13" />
<rect x="17" y="15" width="1" height="1" fill="#04B906" />
<rect x="18" y="15" width="1" height="1" fill="#00B800" />
<rect x="19" y="15" width="1" height="1" fill="#07B806" />
<rect x="20" y="15" width="1" height="1" fill="#15AD16" />
<rect x="21" y="15" width="1" height="1" fill="#2C9D2E" />
<rect x="22" y="15" width="1" height="1" fill="#001F00" />
<rect x="23" y="15" width="1" height="1" fill="#000A00" />
<rect x="2" y="16" width="1" height="1" fill="#000B00" />
<rect x="3" y="16" width="1" height="1" fill="#001600" />
<rect x="4" y="16" width="1" height="1" fill="#379A36" />
<rect x="5" y="16" width="1" height="1" fill="#0FB20E" />
<rect x="6" y="16" width="1" height="1" fill="#00BF00" />
<rect x="7" y="16" width="1" height="1" fill="#01BF02" />
<rect x="8" y="16" width="1" height="1" fill="#0BB30B" />
<rect x="9" y="16" width="1" height="1" fill="#007900" />
<rect x="10" y="16" width="1" height="1" fill="#016F00" />
<rect x="11" y="16" width="1" height="1" fill="#056D00" />
<rect x="12" y="16" width="1" height="1" fill="#076D02" />
<rect x="13" y="16" width="1" height="1" fill="#086B03" />
<rect x="14" y="16" width="1" height="1" fill="#007200" />
<rect x="15" y="16" width="1" height="1" fill="#007E00" />
<rect x="16" y="16" width="1" height="1" fill="#0CB40C" />
<rect x="17" y="16" width="1" height="1" fill="#04BA02" />
<rect x="18" y="16" width="1" height="1" fill="#08B905" />
<rect x="19" y="16" width="1" height="1" fill="#14AF10" />
<rect x="20" y="16" width="1" height="1" fill="#299C28" />
<rect x="21" y="16" width="1" height="1" fill="#001A00" />
<rect x="22" y="16" width="1" height="1" fill="#000900" />
<rect x="3" y="17" width="1" height="1" fill="#000800" />
<rect x="4" y="17" width="1" height="1" fill="#001800" />
<rect x="5" y="17" width="1" height="1" fill="#2D9F2B" />
<rect x="6" y="17" width="1" height="1" fill="#15AD16" />
<rect x="7" y="17" width="1" height="1" fill="#12AF14" />
<rect x="8" y="17" width="1" height="1" fill="#16AB17" />
<rect x="9" y="17" width="1" height="1" fill="#28A325" />
<rect x="10" y="17" width="1" height="1" fill="#046F00" />
<rect x="11" y="17" width="1" height="1" fill="#056D00" />
<rect x="12" y="17" width="1" height="1" fill="#0B6E04" />
<rect x="13" y="17" width="1" height="1" fill="#0B6B04" />
<rect x="14" y="17" width="1" height="1" fill="#046F00" />
<rect x="15" y="17" width="1" height="1" fill="#20A620" />
<rect x="16" y="17" width="1" height="1" fill="#1AAD19" />
<rect x="17" y="17" width="1" height="1" fill="#17AD14" />
<rect x="18" y="17" width="1" height="1" fill="#1EA719" />
<rect x="19" y="17" width="1" height="1" fill="#2E9B29" />
<rect x="20" y="17" width="1" height="1" fill="#001F00" />
<rect x="21" y="17" width="1" height="1" fill="#000D00" />
<rect x="4" y="18" width="1" height="1" fill="#000600" />
<rect x="5" y="18" width="1" height="1" fill="#001000" />
<rect x="6" y="18" width="1" height="1" fill="#001B00" />
<rect x="7" y="18" width="1" height="1" fill="#37933B" />
<rect x="8" y="18" width="1" height="1" fill="#329934" />
<rect x="9" y="18" width="1" height="1" fill="#379634" />
<rect x="10" y="18" width="1" height="1" fill="#0C6A06" />
<rect x="11" y="18" width="1" height="1" fill="#096C02" />
<rect x="12" y="18" width="1" height="1" fill="#096C02" />
<rect x="13" y="18" width="1" height="1" fill="#086900" />
<rect x="14" y="18" width="1" height="1" fill="#0E6F05" />
<rect x="15" y="18" width="1" height="1" fill="#339530" />
<rect x="16" y="18" width="1" height="1" fill="#349336" />
<rect x="17" y="18" width="1" height="1" fill="#3F913C" />
<rect x="18" y="18" width="1" height="1" fill="#001900" />
<rect x="19" y="18" width="1" height="1" fill="#001300" />
<rect x="20" y="18" width="1" height="1" fill="#000A00" />
<rect x="6" y="19" width="1" height="1" fill="#000900" />
<rect x="7" y="19" width="1" height="1" fill="#001300" />
<rect x="8" y="19" width="1" height="1" fill="#001900" />
<rect x="9" y="19" width="1" height="1" fill="#001A00" />
<rect x="10" y="19" width="1" height="1" fill="#1D6017" />
<rect x="11" y="19" width="1" height="1" fill="#1A6213" />
<rect x="12" y="19" width="1" height="1" fill="#176210" />
<rect x="13" y="19" width="1" height="1" fill="#18610D" />
<rect x="14" y="19" width="1" height="1" fill="#1A6012" />
<rect x="15" y="19" width="1" height="1" fill="#001A00" />
<rect x="16" y="19" width="1" height="1" fill="#001300" />
<rect x="17" y="19" width="1" height="1" fill="#001100" />
<rect x="18" y="19" width="1" height="1" fill="#000A00" />
<rect x="9" y="20" width="1" height="1" fill="#000800" />
<rect x="10" y="20" width="1" height="1" fill="#000900" />
<rect x="11" y="20" width="1" height="1" fill="#000B00" />
<rect x="12" y="20" width="1" height="1" fill="#000C00" />
<rect x="13" y="20" width="1" height="1" fill="#000C00" />
<rect x="14" y="20" width="1" height="1" fill="#000800" />
<rect x="15" y="20" width="1" height="1" fill="#000B00" />
</svg>