<?xml version="1.0" encoding="UTF-8" ?>
<svg version="1.1" width="25" height="25" xmlns="http://www.w3.org/2000/svg">
<rect x="17" y="0" width="1" height="1" fill="#040000" />
<rect x="18" y="0" width="1" height="1" fill="#040000" />
<rect x="19" y="0" width="1" height="1" fill="#050000" />
<rect x="20" y="0" width="1" height="1" fill="#040000" />
<rect x="21" y="0" width="1" height="1" fill="#010000" />
<rect x="16" y="1" width="1" height="1" fill="#070000" />
<rect x="17" y="1" width="1" height="1" fill="#776A65" />
<rect x="18" y="1" width="1" height="1" fill="#635652" />
<rect x="19" y="1" width="1" height="1" fill="#574C4B" />
<rect x="20" y="1" width="1" height="1" fill="#564B4A" />
<rect x="21" y="1" width="1" height="1" fill="#534A49" />
<rect x="22" y="1" width="1" height="1" fill="#080000" />
<rect x="15" y="2" width="1" height="1" fill="#080000" />
<rect x="16" y="2" width="1" height="1" fill="#6C594F" />
<rect x="17" y="2" width="1" height="1" fill="#5C443C" />
<rect x="18" y="2" width="1" height="1" fill="#533E37" />
<rect x="19" y="2" width="1" height="1" fill="#493739" />
<rect x="20" y="2" width="1" height="1" fill="#49383C" />
<rect x="21" y="2" width="1" height="1" fill="#49393A" />
<rect x="22" y="2" width="1" height="1" fill="#534442" />
<rect x="23" y="2" width="1" height="1" fill="#0B0000" />
<rect x="14" y="3" width="1" height="1" fill="#120A04" />
<rect x="15" y="3" width="1" height="1" fill="#66564C" />
<rect x="16" y="3" width="1" height="1" fill="#6C5549" />
<rect x="17" y="3" width="1" height="1" fill="#4F352B" />
<rect x="18" y="3" width="1" height="1" fill="#4C342E" />
<rect x="19" y="3" width="1" height="1" fill="#0B0000" />
<rect x="20" y="3" width="1" height="1" fill="#080000" />
<rect x="21" y="3" width="1" height="1" fill="#49393A" />
<rect x="22" y="3" width="1" height="1" fill="#4A3A39" />
<rect x="23" y="3" width="1" height="1" fill="#544744" />
<rect x="24" y="3" width="1" height="1" fill="#060000" />
<rect x="13" y="4" width="1" height="1" fill="#0B0000" />
<rect x="14" y="4" width="1" height="1" fill="#69574B" />
<rect x="15" y="4" width="1" height="1" fill="#70594C" />
<rect x="16" y="4" width="1" height="1" fill="#553E33" />
<rect x="17" y="4" width="1" height="1" fill="#4B382E" />
<rect x="18" y="4" width="1" height="1" fill="#0B0000" />
<rect x="21" y="4" width="1" height="1" fill="#080000" />
<rect x="22" y="4" width="1" height="1" fill="#463936" />
<rect x="23" y="4" width="1" height="1" fill="#453A36" />
<rect x="24" y="4" width="1" height="1" fill="#080000" />
<rect x="12" y="5" width="1" height="1" fill="#040000" />
<rect x="13" y="5" width="1" height="1" fill="#695749" />
<rect x="14" y="5" width="1" height="1" fill="#6D5443" />
<rect x="15" y="5" width="1" height="1" fill="#563D2E" />
<rect x="16" y="5" width="1" height="1" fill="#553E33" />
<rect x="17" y="5" width="1" height="1" fill="#4A362F" />
<rect x="18" y="5" width="1" height="1" fill="#55463F" />
<rect x="19" y="5" width="1" height="1" fill="#080000" />
<rect x="22" y="5" width="1" height="1" fill="#060000" />
<rect x="23" y="5" width="1" height="1" fill="#423C3A" />
<rect x="24" y="5" width="1" height="1" fill="#060000" />
<rect x="11" y="6" width="1" height="1" fill="#060100" />
<rect x="12" y="6" width="1" height="1" fill="#645954" />
<rect x="13" y="6" width="1" height="1" fill="#5E4B3D" />
<rect x="14" y="6" width="1" height="1" fill="#533D2B" />
<rect x="15" y="6" width="1" height="1" fill="#604739" />
<rect x="16" y="6" width="1" height="1" fill="#62493D" />
<rect x="17" y="6" width="1" height="1" fill="#533B33" />
<rect x="18" y="6" width="1" height="1" fill="#4A362F" />
<rect x="19" y="6" width="1" height="1" fill="#56453F" />
<rect x="20" y="6" width="1" height="1" fill="#080000" />
<rect x="22" y="6" width="1" height="1" fill="#000000" />
<rect x="23" y="6" width="1" height="1" fill="#3F3E3A" />
<rect x="24" y="6" width="1" height="1" fill="#030100" />
<rect x="11" y="7" width="1" height="1" fill="#050000" />
<rect x="12" y="7" width="1" height="1" fill="#4D403B" />
<rect x="13" y="7" width="1" height="1" fill="#68554A" />
<rect x="14" y="7" width="1" height="1" fill="#523E2E" />
<rect x="15" y="7" width="1" height="1" fill="#543D30" />
<rect x="16" y="7" width="1" height="1" fill="#533B31" />
<rect x="17" y="7" width="1" height="1" fill="#533E35" />
<rect x="18" y="7" width="1" height="1" fill="#533E37" />
<rect x="19" y="7" width="1" height="1" fill="#4D3632" />
<rect x="20" y="7" width="1" height="1" fill="#564642" />
<rect x="21" y="7" width="1" height="1" fill="#080000" />
<rect x="22" y="7" width="1" height="1" fill="#010000" />
<rect x="23" y="7" width="1" height="1" fill="#44403D" />
<rect x="24" y="7" width="1" height="1" fill="#000000" />
<rect x="10" y="8" width="1" height="1" fill="#050000" />
<rect x="11" y="8" width="1" height="1" fill="#B5AAA9" />
<rect x="12" y="8" width="1" height="1" fill="#4D403B" />
<rect x="13" y="8" width="1" height="1" fill="#433329" />
<rect x="14" y="8" width="1" height="1" fill="#523F33" />
<rect x="15" y="8" width="1" height="1" fill="#423227" />
<rect x="16" y="8" width="1" height="1" fill="#423227" />
<rect x="17" y="8" width="1" height="1" fill="#49352E" />
<rect x="18" y="8" width="1" height="1" fill="#513D38" />
<rect x="19" y="8" width="1" height="1" fill="#4E3834" />
<rect x="20" y="8" width="1" height="1" fill="#4B3734" />
<rect x="21" y="8" width="1" height="1" fill="#574844" />
<rect x="22" y="8" width="1" height="1" fill="#4B3D3B" />
<rect x="23" y="8" width="1" height="1" fill="#3C312E" />
<rect x="24" y="8" width="1" height="1" fill="#050000" />
<rect x="9" y="9" width="1" height="1" fill="#060100" />
<rect x="10" y="9" width="1" height="1" fill="#B2ACA9" />
<rect x="11" y="9" width="1" height="1" fill="#8A8180" />
<rect x="12" y="9" width="1" height="1" fill="#827472" />
<rect x="13" y="9" width="1" height="1" fill="#41322B" />
<rect x="14" y="9" width="1" height="1" fill="#413229" />
<rect x="15" y="9" width="1" height="1" fill="#61554B" />
<rect x="16" y="9" width="1" height="1" fill="#635951" />
<rect x="17" y="9" width="1" height="1" fill="#3C322A" />
<rect x="18" y="9" width="1" height="1" fill="#3F322D" />
<rect x="19" y="9" width="1" height="1" fill="#4E3E3A" />
<rect x="20" y="9" width="1" height="1" fill="#42312D" />
<rect x="21" y="9" width="1" height="1" fill="#41312D" />
<rect x="22" y="9" width="1" height="1" fill="#3C2E2C" />
<rect x="23" y="9" width="1" height="1" fill="#3C312E" />
<rect x="24" y="9" width="1" height="1" fill="#040000" />
<rect x="2" y="10" width="1" height="1" fill="#030000" />
<rect x="3" y="10" width="1" height="1" fill="#060000" />
<rect x="4" y="10" width="1" height="1" fill="#070000" />
<rect x="5" y="10" width="1" height="1" fill="#090000" />
<rect x="6" y="10" width="1" height="1" fill="#060000" />
<rect x="7" y="10" width="1" height="1" fill="#050000" />
<rect x="8" y="10" width="1" height="1" fill="#040000" />
<rect x="9" y="10" width="1" height="1" fill="#B1ADA9" />
<rect x="10" y="10" width="1" height="1" fill="#888481" />
<rect x="11" y="10" width="1" height="1" fill="#7E7775" />
<rect x="12" y="10" width="1" height="1" fill="#7A716F" />
<rect x="13" y="10" width="1" height="1" fill="#6E6460" />
<rect x="14" y="10" width="1" height="1" fill="#605852" />
<rect x="15" y="10" width="1" height="1" fill="#5B574F" />
<rect x="16" y="10" width="1" height="1" fill="#5A5950" />
<rect x="17" y="10" width="1" height="1" fill="#59584F" />
<rect x="18" y="10" width="1" height="1" fill="#57554F" />
<rect x="19" y="10" width="1" height="1" fill="#38322D" />
<rect x="20" y="10" width="1" height="1" fill="#3C3330" />
<rect x="21" y="10" width="1" height="1" fill="#38302C" />
<rect x="22" y="10" width="1" height="1" fill="#3B322E" />
<rect x="23" y="10" width="1" height="1" fill="#040000" />
<rect x="1" y="11" width="1" height="1" fill="#030000" />
<rect x="2" y="11" width="1" height="1" fill="#736B64" />
<rect x="3" y="11" width="1" height="1" fill="#72665F" />
<rect x="4" y="11" width="1" height="1" fill="#776B63" />
<rect x="5" y="11" width="1" height="1" fill="#746762" />
<rect x="6" y="11" width="1" height="1" fill="#726764" />
<rect x="7" y="11" width="1" height="1" fill="#130B07" />
<rect x="8" y="11" width="1" height="1" fill="#B1ADA7" />
<rect x="9" y="11" width="1" height="1" fill="#84817B" />
<rect x="10" y="11" width="1" height="1" fill="#7A7671" />
<rect x="11" y="11" width="1" height="1" fill="#797570" />
<rect x="12" y="11" width="1" height="1" fill="#6C6664" />
<rect x="13" y="11" width="1" height="1" fill="#6A6461" />
<rect x="14" y="11" width="1" height="1" fill="#5D5754" />
<rect x="15" y="11" width="1" height="1" fill="#5A5952" />
<rect x="16" y="11" width="1" height="1" fill="#575A52" />
<rect x="17" y="11" width="1" height="1" fill="#000000" />
<rect x="18" y="11" width="1" height="1" fill="#000200" />
<rect x="19" y="11" width="1" height="1" fill="#000000" />
<rect x="20" y="11" width="1" height="1" fill="#020000" />
<rect x="21" y="11" width="1" height="1" fill="#020000" />
<rect x="22" y="11" width="1" height="1" fill="#030000" />
<rect x="1" y="12" width="1" height="1" fill="#080000" />
<rect x="2" y="12" width="1" height="1" fill="#66574F" />
<rect x="3" y="12" width="1" height="1" fill="#6C5C4D" />
<rect x="4" y="12" width="1" height="1" fill="#736354" />
<rect x="5" y="12" width="1" height="1" fill="#796F65" />
<rect x="6" y="12" width="1" height="1" fill="#120A02" />
<rect x="7" y="12" width="1" height="1" fill="#B2ADA3" />
<rect x="8" y="12" width="1" height="1" fill="#89867C" />
<rect x="9" y="12" width="1" height="1" fill="#79766E" />
<rect x="10" y="12" width="1" height="1" fill="#79766E" />
<rect x="11" y="12" width="1" height="1" fill="#6B6860" />
<rect x="12" y="12" width="1" height="1" fill="#6B6762" />
<rect x="13" y="12" width="1" height="1" fill="#5D5954" />
<rect x="14" y="12" width="1" height="1" fill="#6B6762" />
<rect x="15" y="12" width="1" height="1" fill="#5D5956" />
<rect x="16" y="12" width="1" height="1" fill="#595753" />
<rect x="17" y="12" width="1" height="1" fill="#000000" />
<rect x="1" y="13" width="1" height="1" fill="#080000" />
<rect x="2" y="13" width="1" height="1" fill="#65574C" />
<rect x="3" y="13" width="1" height="1" fill="#665748" />
<rect x="4" y="13" width="1" height="1" fill="#655748" />
<rect x="5" y="13" width="1" height="1" fill="#080000" />
<rect x="6" y="13" width="1" height="1" fill="#B3AC9E" />
<rect x="7" y="13" width="1" height="1" fill="#797061" />
<rect x="8" y="13" width="1" height="1" fill="#7A7260" />
<rect x="9" y="13" width="1" height="1" fill="#797061" />
<rect x="10" y="13" width="1" height="1" fill="#71675B" />
<rect x="11" y="13" width="1" height="1" fill="#6D665A" />
<rect x="12" y="13" width="1" height="1" fill="#6E665E" />
<rect x="13" y="13" width="1" height="1" fill="#6B665E" />
<rect x="14" y="13" width="1" height="1" fill="#6A645F" />
<rect x="15" y="13" width="1" height="1" fill="#030000" />
<rect x="16" y="13" width="1" height="1" fill="#020000" />
<rect x="17" y="13" width="1" height="1" fill="#000000" />
<rect x="1" y="14" width="1" height="1" fill="#080000" />
<rect x="2" y="14" width="1" height="1" fill="#62584E" />
<rect x="3" y="14" width="1" height="1" fill="#645B4E" />
<rect x="4" y="14" width="1" height="1" fill="#070000" />
<rect x="5" y="14" width="1" height="1" fill="#B6AB9C" />
<rect x="6" y="14" width="1" height="1" fill="#4F402E" />
<rect x="7" y="14" width="1" height="1" fill="#6B563F" />
<rect x="8" y="14" width="1" height="1" fill="#816951" />
<rect x="9" y="14" width="1" height="1" fill="#826F56" />
<rect x="10" y="14" width="1" height="1" fill="#76654D" />
<rect x="11" y="14" width="1" height="1" fill="#746553" />
<rect x="12" y="14" width="1" height="1" fill="#726456" />
<rect x="13" y="14" width="1" height="1" fill="#70645A" />
<rect x="14" y="14" width="1" height="1" fill="#6F6761" />
<rect x="15" y="14" width="1" height="1" fill="#020000" />
<rect x="1" y="15" width="1" height="1" fill="#040000" />
<rect x="2" y="15" width="1" height="1" fill="#605A53" />
<rect x="3" y="15" width="1" height="1" fill="#0F0A00" />
<rect x="4" y="15" width="1" height="1" fill="#B5AC9F" />
<rect x="5" y="15" width="1" height="1" fill="#706451" />
<rect x="6" y="15" width="1" height="1" fill="#6B563F" />
<rect x="7" y="15" width="1" height="1" fill="#73583D" />
<rect x="8" y="15" width="1" height="1" fill="#816347" />
<rect x="9" y="15" width="1" height="1" fill="#856A4C" />
<rect x="10" y="15" width="1" height="1" fill="#836A4E" />
<rect x="11" y="15" width="1" height="1" fill="#806B52" />
<rect x="12" y="15" width="1" height="1" fill="#7D6C58" />
<rect x="13" y="15" width="1" height="1" fill="#6C594B" />
<rect x="14" y="15" width="1" height="1" fill="#180A00" />
<rect x="15" y="15" width="1" height="1" fill="#050000" />
<rect x="16" y="15" width="1" height="1" fill="#030000" />
<rect x="1" y="16" width="1" height="1" fill="#040000" />
<rect x="2" y="16" width="1" height="1" fill="#030000" />
<rect x="3" y="16" width="1" height="1" fill="#B2AEA9" />
<rect x="4" y="16" width="1" height="1" fill="#8A8375" />
<rect x="5" y="16" width="1" height="1" fill="#6B583F" />
<rect x="6" y="16" width="1" height="1" fill="#705739" />
<rect x="7" y="16" width="1" height="1" fill="#735539" />
<rect x="8" y="16" width="1" height="1" fill="#765437" />
<rect x="9" y="16" width="1" height="1" fill="#876248" />
<rect x="10" y="16" width="1" height="1" fill="#89664B" />
<rect x="11" y="16" width="1" height="1" fill="#836A4E" />
<rect x="12" y="16" width="1" height="1" fill="#856E54" />
<rect x="13" y="16" width="1" height="1" fill="#836954" />
<rect x="14" y="16" width="1" height="1" fill="#7F6756" />
<rect x="15" y="16" width="1" height="1" fill="#806B60" />
<rect x="16" y="16" width="1" height="1" fill="#0B0000" />
<rect x="17" y="16" width="1" height="1" fill="#040000" />
<rect x="1" y="17" width="1" height="1" fill="#020000" />
<rect x="2" y="17" width="1" height="1" fill="#B1ACAB" />
<rect x="3" y="17" width="1" height="1" fill="#888680" />
<rect x="4" y="17" width="1" height="1" fill="#7D7767" />
<rect x="5" y="17" width="1" height="1" fill="#6C583D" />
<rect x="6" y="17" width="1" height="1" fill="#715734" />
<rect x="7" y="17" width="1" height="1" fill="#735634" />
<rect x="8" y="17" width="1" height="1" fill="#745537" />
<rect x="9" y="17" width="1" height="1" fill="#785339" />
<rect x="10" y="17" width="1" height="1" fill="#85624A" />
<rect x="11" y="17" width="1" height="1" fill="#856950" />
<rect x="12" y="17" width="1" height="1" fill="#7F654E" />
<rect x="13" y="17" width="1" height="1" fill="#7F634F" />
<rect x="14" y="17" width="1" height="1" fill="#7F6251" />
<rect x="15" y="17" width="1" height="1" fill="#7C6153" />
<rect x="16" y="17" width="1" height="1" fill="#796459" />
<rect x="17" y="17" width="1" height="1" fill="#150900" />
<rect x="18" y="17" width="1" height="1" fill="#040000" />
<rect x="0" y="18" width="1" height="1" fill="#000100" />
<rect x="1" y="18" width="1" height="1" fill="#B1AFAE" />
<rect x="2" y="18" width="1" height="1" fill="#858480" />
<rect x="3" y="18" width="1" height="1" fill="#78746E" />
<rect x="4" y="18" width="1" height="1" fill="#70665A" />
<rect x="5" y="18" width="1" height="1" fill="#6B593D" />
<rect x="6" y="18" width="1" height="1" fill="#715734" />
<rect x="7" y="18" width="1" height="1" fill="#715734" />
<rect x="8" y="18" width="1" height="1" fill="#715637" />
<rect x="9" y="18" width="1" height="1" fill="#6E5237" />
<rect x="10" y="18" width="1" height="1" fill="#725640" />
<rect x="11" y="18" width="1" height="1" fill="#806354" />
<rect x="12" y="18" width="1" height="1" fill="#563B2D" />
<rect x="13" y="18" width="1" height="1" fill="#523B2A" />
<rect x="14" y="18" width="1" height="1" fill="#523F2C" />
<rect x="15" y="18" width="1" height="1" fill="#543E2A" />
<rect x="16" y="18" width="1" height="1" fill="#533D2B" />
<rect x="17" y="18" width="1" height="1" fill="#503D2F" />
<rect x="18" y="18" width="1" height="1" fill="#160A01" />
<rect x="19" y="18" width="1" height="1" fill="#020000" />
<rect x="0" y="19" width="1" height="1" fill="#000000" />
<rect x="1" y="19" width="1" height="1" fill="#010200" />
<rect x="2" y="19" width="1" height="1" fill="#787773" />
<rect x="3" y="19" width="1" height="1" fill="#686662" />
<rect x="4" y="19" width="1" height="1" fill="#5C574B" />
<rect x="5" y="19" width="1" height="1" fill="#695843" />
<rect x="6" y="19" width="1" height="1" fill="#6E573B" />
<rect x="7" y="19" width="1" height="1" fill="#705739" />
<rect x="8" y="19" width="1" height="1" fill="#705739" />
<rect x="9" y="19" width="1" height="1" fill="#6D5639" />
<rect x="10" y="19" width="1" height="1" fill="#715740" />
<rect x="11" y="19" width="1" height="1" fill="#593B2C" />
<rect x="12" y="19" width="1" height="1" fill="#63473A" />
<rect x="13" y="19" width="1" height="1" fill="#604C3C" />
<rect x="14" y="19" width="1" height="1" fill="#5F4D3A" />
<rect x="15" y="19" width="1" height="1" fill="#5F4C35" />
<rect x="16" y="19" width="1" height="1" fill="#6C5741" />
<rect x="17" y="19" width="1" height="1" fill="#6B5541" />
<rect x="18" y="19" width="1" height="1" fill="#523F33" />
<rect x="19" y="19" width="1" height="1" fill="#070100" />
<rect x="1" y="20" width="1" height="1" fill="#000000" />
<rect x="2" y="20" width="1" height="1" fill="#000100" />
<rect x="3" y="20" width="1" height="1" fill="#636962" />
<rect x="4" y="20" width="1" height="1" fill="#696A63" />
<rect x="5" y="20" width="1" height="1" fill="#635750" />
<rect x="6" y="20" width="1" height="1" fill="#6A554A" />
<rect x="7" y="20" width="1" height="1" fill="#705A46" />
<rect x="8" y="20" width="1" height="1" fill="#6B573B" />
<rect x="9" y="20" width="1" height="1" fill="#6D5639" />
<rect x="10" y="20" width="1" height="1" fill="#71583C" />
<rect x="11" y="20" width="1" height="1" fill="#593D24" />
<rect x="12" y="20" width="1" height="1" fill="#715541" />
<rect x="13" y="20" width="1" height="1" fill="#604A34" />
<rect x="14" y="20" width="1" height="1" fill="#6B5743" />
<rect x="15" y="20" width="1" height="1" fill="#6B5743" />
<rect x="16" y="20" width="1" height="1" fill="#634E37" />
<rect x="17" y="20" width="1" height="1" fill="#715740" />
<rect x="18" y="20" width="1" height="1" fill="#5F4C37" />
<rect x="19" y="20" width="1" height="1" fill="#080000" />
<rect x="2" y="21" width="1" height="1" fill="#000000" />
<rect x="3" y="21" width="1" height="1" fill="#000400" />
<rect x="4" y="21" width="1" height="1" fill="#585B58" />
<rect x="5" y="21" width="1" height="1" fill="#050000" />
<rect x="6" y="21" width="1" height="1" fill="#0B0000" />
<rect x="7" y="21" width="1" height="1" fill="#211406" />
<rect x="8" y="21" width="1" height="1" fill="#695845" />
<rect x="9" y="21" width="1" height="1" fill="#68563C" />
<rect x="10" y="21" width="1" height="1" fill="#6D5639" />
<rect x="11" y="21" width="1" height="1" fill="#594024" />
<rect x="12" y="21" width="1" height="1" fill="#70563D" />
<rect x="13" y="21" width="1" height="1" fill="#614C33" />
<rect x="14" y="21" width="1" height="1" fill="#523F28" />
<rect x="15" y="21" width="1" height="1" fill="#5F4C37" />
<rect x="16" y="21" width="1" height="1" fill="#5F4C37" />
<rect x="17" y="21" width="1" height="1" fill="#70563D" />
<rect x="18" y="21" width="1" height="1" fill="#604D36" />
<rect x="19" y="21" width="1" height="1" fill="#060000" />
<rect x="3" y="22" width="1" height="1" fill="#010400" />
<rect x="4" y="22" width="1" height="1" fill="#000201" />
<rect x="5" y="22" width="1" height="1" fill="#000000" />
<rect x="7" y="22" width="1" height="1" fill="#060000" />
<rect x="8" y="22" width="1" height="1" fill="#0F0800" />
<rect x="9" y="22" width="1" height="1" fill="#665947" />
<rect x="10" y="22" width="1" height="1" fill="#695A44" />
<rect x="11" y="22" width="1" height="1" fill="#614F35" />
<rect x="12" y="22" width="1" height="1" fill="#604E32" />
<rect x="13" y="22" width="1" height="1" fill="#6A5B3E" />
<rect x="14" y="22" width="1" height="1" fill="#69593F" />
<rect x="15" y="22" width="1" height="1" fill="#655740" />
<rect x="16" y="22" width="1" height="1" fill="#5E4D37" />
<rect x="17" y="22" width="1" height="1" fill="#6B583F" />
<rect x="18" y="22" width="1" height="1" fill="#5C4B36" />
<rect x="19" y="22" width="1" height="1" fill="#060100" />
<rect x="8" y="23" width="1" height="1" fill="#040100" />
<rect x="9" y="23" width="1" height="1" fill="#080000" />
<rect x="10" y="23" width="1" height="1" fill="#564D3E" />
<rect x="11" y="23" width="1" height="1" fill="#4D432F" />
<rect x="12" y="23" width="1" height="1" fill="#594F37" />
<rect x="13" y="23" width="1" height="1" fill="#594F39" />
<rect x="14" y="23" width="1" height="1" fill="#564C39" />
<rect x="15" y="23" width="1" height="1" fill="#594E3D" />
<rect x="16" y="23" width="1" height="1" fill="#594E3B" />
<rect x="17" y="23" width="1" height="1" fill="#584B37" />
<rect x="18" y="23" width="1" height="1" fill="#3E3322" />
<rect x="19" y="23" width="1" height="1" fill="#060200" />
<rect x="9" y="24" width="1" height="1" fill="#030100" />
<rect x="10" y="24" width="1" height="1" fill="#040000" />
<rect x="11" y="24" width="1" height="1" fill="#040100" />
<rect x="12" y="24" width="1" height="1" fill="#040100" />
<rect x="13" y="24" width="1" height="1" fill="#040100" />
<rect x="14" y="24" width="1" height="1" fill="#040000" />
<rect x="15" y="24" width="1" height="1" fill="#040100" />
<rect x="16" y="24" width="1" height="1" fill="#040100" />
<rect x="17" y="24" width="1" height="1" fill="#060100" />
<rect x="18" y="24" width="1" height="1" fill="#020000" />
<rect x="19" y="24" width="1" height="1" fill="#000100" />
</svg>