<?xml version="1.0" encoding="UTF-8" ?>
<svg version="1.1" width="25" height="25" xmlns="http://www.w3.org/2000/svg">
<rect x="14" y="2" width="1" height="1" fill="#010200" />
<rect x="15" y="2" width="1" height="1" fill="#000000" />
<rect x="16" y="2" width="1" height="1" fill="#000000" />
<rect x="17" y="2" width="1" height="1" fill="#010200" />
<rect x="2" y="3" width="1" height="1" fill="#030100" />
<rect x="3" y="3" width="1" height="1" fill="#040100" />
<rect x="4" y="3" width="1" height="1" fill="#020000" />
<rect x="14" y="3" width="1" height="1" fill="#010200" />
<rect x="15" y="3" width="1" height="1" fill="#797977" />
<rect x="16" y="3" width="1" height="1" fill="#787974" />
<rect x="17" y="3" width="1" height="1" fill="#000000" />
<rect x="18" y="3" width="1" height="1" fill="#020300" />
<rect x="1" y="4" width="1" height="1" fill="#000000" />
<rect x="2" y="4" width="1" height="1" fill="#060000" />
<rect x="3" y="4" width="1" height="1" fill="#4C3D27" />
<rect x="4" y="4" width="1" height="1" fill="#4D3D25" />
<rect x="5" y="4" width="1" height="1" fill="#090200" />
<rect x="14" y="4" width="1" height="1" fill="#020002" />
<rect x="15" y="4" width="1" height="1" fill="#787878" />
<rect x="16" y="4" width="1" height="1" fill="#797B78" />
<rect x="17" y="4" width="1" height="1" fill="#787B75" />
<rect x="18" y="4" width="1" height="1" fill="#000200" />
<rect x="19" y="4" width="1" height="1" fill="#000200" />
<rect x="1" y="5" width="1" height="1" fill="#000001" />
<rect x="2" y="5" width="1" height="1" fill="#020000" />
<rect x="3" y="5" width="1" height="1" fill="#4B3B20" />
<rect x="4" y="5" width="1" height="1" fill="#4E3C1D" />
<rect x="5" y="5" width="1" height="1" fill="#4A3D29" />
<rect x="6" y="5" width="1" height="1" fill="#090200" />
<rect x="14" y="5" width="1" height="1" fill="#000003" />
<rect x="15" y="5" width="1" height="1" fill="#79797B" />
<rect x="16" y="5" width="1" height="1" fill="#767978" />
<rect x="17" y="5" width="1" height="1" fill="#767B77" />
<rect x="18" y="5" width="1" height="1" fill="#777C78" />
<rect x="19" y="5" width="1" height="1" fill="#777C7A" />
<rect x="20" y="5" width="1" height="1" fill="#000301" />
<rect x="21" y="5" width="1" height="1" fill="#000100" />
<rect x="2" y="6" width="1" height="1" fill="#030200" />
<rect x="3" y="6" width="1" height="1" fill="#060000" />
<rect x="4" y="6" width="1" height="1" fill="#483C24" />
<rect x="5" y="6" width="1" height="1" fill="#4A3A1B" />
<rect x="6" y="6" width="1" height="1" fill="#4C3C21" />
<rect x="7" y="6" width="1" height="1" fill="#080000" />
<rect x="14" y="6" width="1" height="1" fill="#000003" />
<rect x="15" y="6" width="1" height="1" fill="#000004" />
<rect x="16" y="6" width="1" height="1" fill="#787D7D" />
<rect x="17" y="6" width="1" height="1" fill="#737A78" />
<rect x="18" y="6" width="1" height="1" fill="#757D78" />
<rect x="19" y="6" width="1" height="1" fill="#767B79" />
<rect x="20" y="6" width="1" height="1" fill="#787A79" />
<rect x="21" y="6" width="1" height="1" fill="#010101" />
<rect x="22" y="6" width="1" height="1" fill="#020202" />
<rect x="3" y="7" width="1" height="1" fill="#020000" />
<rect x="4" y="7" width="1" height="1" fill="#080100" />
<rect x="5" y="7" width="1" height="1" fill="#4C3C1F" />
<rect x="6" y="7" width="1" height="1" fill="#4F3D1F" />
<rect x="7" y="7" width="1" height="1" fill="#4C3B23" />
<rect x="8" y="7" width="1" height="1" fill="#0B0000" />
<rect x="14" y="7" width="1" height="1" fill="#020000" />
<rect x="15" y="7" width="1" height="1" fill="#030001" />
<rect x="16" y="7" width="1" height="1" fill="#797979" />
<rect x="17" y="7" width="1" height="1" fill="#757A78" />
<rect x="18" y="7" width="1" height="1" fill="#737A78" />
<rect x="19" y="7" width="1" height="1" fill="#767B79" />
<rect x="20" y="7" width="1" height="1" fill="#787A7B" />
<rect x="21" y="7" width="1" height="1" fill="#7A7A7A" />
<rect x="22" y="7" width="1" height="1" fill="#000000" />
<rect x="23" y="7" width="1" height="1" fill="#000000" />
<rect x="4" y="8" width="1" height="1" fill="#060501" />
<rect x="5" y="8" width="1" height="1" fill="#070000" />
<rect x="6" y="8" width="1" height="1" fill="#4C3B23" />
<rect x="7" y="8" width="1" height="1" fill="#523C1B" />
<rect x="8" y="8" width="1" height="1" fill="#533D20" />
<rect x="9" y="8" width="1" height="1" fill="#0C0000" />
<rect x="13" y="8" width="1" height="1" fill="#040000" />
<rect x="14" y="8" width="1" height="1" fill="#060000" />
<rect x="15" y="8" width="1" height="1" fill="#050000" />
<rect x="16" y="8" width="1" height="1" fill="#060200" />
<rect x="17" y="8" width="1" height="1" fill="#000000" />
<rect x="18" y="8" width="1" height="1" fill="#787A7B" />
<rect x="19" y="8" width="1" height="1" fill="#747B7D" />
<rect x="20" y="8" width="1" height="1" fill="#747B7D" />
<rect x="21" y="8" width="1" height="1" fill="#76787A" />
<rect x="22" y="8" width="1" height="1" fill="#787878" />
<rect x="23" y="8" width="1" height="1" fill="#000000" />
<rect x="24" y="8" width="1" height="1" fill="#000000" />
<rect x="5" y="9" width="1" height="1" fill="#030000" />
<rect x="6" y="9" width="1" height="1" fill="#070000" />
<rect x="7" y="9" width="1" height="1" fill="#4E3A1C" />
<rect x="8" y="9" width="1" height="1" fill="#523C1D" />
<rect x="9" y="9" width="1" height="1" fill="#4D3C27" />
<rect x="10" y="9" width="1" height="1" fill="#0B0000" />
<rect x="12" y="9" width="1" height="1" fill="#070100" />
<rect x="13" y="9" width="1" height="1" fill="#0C0000" />
<rect x="14" y="9" width="1" height="1" fill="#574534" />
<rect x="15" y="9" width="1" height="1" fill="#50463C" />
<rect x="16" y="9" width="1" height="1" fill="#050000" />
<rect x="17" y="9" width="1" height="1" fill="#040000" />
<rect x="18" y="9" width="1" height="1" fill="#010103" />
<rect x="19" y="9" width="1" height="1" fill="#000204" />
<rect x="20" y="9" width="1" height="1" fill="#757C7E" />
<rect x="21" y="9" width="1" height="1" fill="#797B7C" />
<rect x="22" y="9" width="1" height="1" fill="#797979" />
<rect x="23" y="9" width="1" height="1" fill="#010200" />
<rect x="24" y="9" width="1" height="1" fill="#010200" />
<rect x="6" y="10" width="1" height="1" fill="#020000" />
<rect x="7" y="10" width="1" height="1" fill="#0A0000" />
<rect x="8" y="10" width="1" height="1" fill="#4C3B25" />
<rect x="9" y="10" width="1" height="1" fill="#4F3B1B" />
<rect x="10" y="10" width="1" height="1" fill="#4F3D1F" />
<rect x="11" y="10" width="1" height="1" fill="#090000" />
<rect x="12" y="10" width="1" height="1" fill="#0C0000" />
<rect x="13" y="10" width="1" height="1" fill="#614123" />
<rect x="14" y="10" width="1" height="1" fill="#634327" />
<rect x="15" y="10" width="1" height="1" fill="#0C0000" />
<rect x="16" y="10" width="1" height="1" fill="#020000" />
<rect x="19" y="10" width="1" height="1" fill="#000205" />
<rect x="20" y="10" width="1" height="1" fill="#000003" />
<rect x="21" y="10" width="1" height="1" fill="#767978" />
<rect x="22" y="10" width="1" height="1" fill="#000000" />
<rect x="23" y="10" width="1" height="1" fill="#030401" />
<rect x="7" y="11" width="1" height="1" fill="#060000" />
<rect x="8" y="11" width="1" height="1" fill="#0C0000" />
<rect x="9" y="11" width="1" height="1" fill="#4B3B1C" />
<rect x="10" y="11" width="1" height="1" fill="#4D3B1A" />
<rect x="11" y="11" width="1" height="1" fill="#4C3B25" />
<rect x="12" y="11" width="1" height="1" fill="#130000" />
<rect x="13" y="11" width="1" height="1" fill="#644323" />
<rect x="14" y="11" width="1" height="1" fill="#614125" />
<rect x="15" y="11" width="1" height="1" fill="#0A0000" />
<rect x="20" y="11" width="1" height="1" fill="#000002" />
<rect x="21" y="11" width="1" height="1" fill="#020202" />
<rect x="22" y="11" width="1" height="1" fill="#010200" />
<rect x="8" y="12" width="1" height="1" fill="#060000" />
<rect x="9" y="12" width="1" height="1" fill="#080100" />
<rect x="10" y="12" width="1" height="1" fill="#473A23" />
<rect x="11" y="12" width="1" height="1" fill="#52391D" />
<rect x="12" y="12" width="1" height="1" fill="#54391D" />
<rect x="13" y="12" width="1" height="1" fill="#130000" />
<rect x="14" y="12" width="1" height="1" fill="#0C0000" />
<rect x="7" y="13" width="1" height="1" fill="#080000" />
<rect x="8" y="13" width="1" height="1" fill="#0A0000" />
<rect x="9" y="13" width="1" height="1" fill="#060000" />
<rect x="10" y="13" width="1" height="1" fill="#090000" />
<rect x="11" y="13" width="1" height="1" fill="#523B1F" />
<rect x="12" y="13" width="1" height="1" fill="#50391E" />
<rect x="13" y="13" width="1" height="1" fill="#4A3B2C" />
<rect x="14" y="13" width="1" height="1" fill="#090100" />
<rect x="6" y="14" width="1" height="1" fill="#090000" />
<rect x="7" y="14" width="1" height="1" fill="#120000" />
<rect x="8" y="14" width="1" height="1" fill="#65472F" />
<rect x="9" y="14" width="1" height="1" fill="#5E442F" />
<rect x="10" y="14" width="1" height="1" fill="#120000" />
<rect x="11" y="14" width="1" height="1" fill="#0E0000" />
<rect x="12" y="14" width="1" height="1" fill="#483B28" />
<rect x="13" y="14" width="1" height="1" fill="#493C28" />
<rect x="14" y="14" width="1" height="1" fill="#4A3F2E" />
<rect x="15" y="14" width="1" height="1" fill="#060200" />
<rect x="5" y="15" width="1" height="1" fill="#080000" />
<rect x="6" y="15" width="1" height="1" fill="#120000" />
<rect x="7" y="15" width="1" height="1" fill="#664127" />
<rect x="8" y="15" width="1" height="1" fill="#6A4327" />
<rect x="9" y="15" width="1" height="1" fill="#604331" />
<rect x="10" y="15" width="1" height="1" fill="#0D0000" />
<rect x="11" y="15" width="1" height="1" fill="#050000" />
<rect x="12" y="15" width="1" height="1" fill="#050000" />
<rect x="13" y="15" width="1" height="1" fill="#453C2A" />
<rect x="14" y="15" width="1" height="1" fill="#080000" />
<rect x="15" y="15" width="1" height="1" fill="#060100" />
<rect x="4" y="16" width="1" height="1" fill="#080000" />
<rect x="5" y="16" width="1" height="1" fill="#140000" />
<rect x="6" y="16" width="1" height="1" fill="#684429" />
<rect x="7" y="16" width="1" height="1" fill="#694123" />
<rect x="8" y="16" width="1" height="1" fill="#63402A" />
<rect x="9" y="16" width="1" height="1" fill="#0D0000" />
<rect x="10" y="16" width="1" height="1" fill="#050000" />
<rect x="12" y="16" width="1" height="1" fill="#010200" />
<rect x="13" y="16" width="1" height="1" fill="#000000" />
<rect x="14" y="16" width="1" height="1" fill="#020000" />
<rect x="15" y="16" width="1" height="1" fill="#000000" />
<rect x="16" y="16" width="1" height="1" fill="#000000" />
<rect x="17" y="16" width="1" height="1" fill="#020206" />
<rect x="18" y="16" width="1" height="1" fill="#010103" />
<rect x="3" y="17" width="1" height="1" fill="#090000" />
<rect x="4" y="17" width="1" height="1" fill="#110000" />
<rect x="5" y="17" width="1" height="1" fill="#684429" />
<rect x="6" y="17" width="1" height="1" fill="#6A4222" />
<rect x="7" y="17" width="1" height="1" fill="#644227" />
<rect x="8" y="17" width="1" height="1" fill="#120000" />
<rect x="9" y="17" width="1" height="1" fill="#080000" />
<rect x="16" y="17" width="1" height="1" fill="#020202" />
<rect x="17" y="17" width="1" height="1" fill="#000003" />
<rect x="18" y="17" width="1" height="1" fill="#000004" />
<rect x="2" y="18" width="1" height="1" fill="#060000" />
<rect x="3" y="18" width="1" height="1" fill="#140000" />
<rect x="4" y="18" width="1" height="1" fill="#624025" />
<rect x="5" y="18" width="1" height="1" fill="#684221" />
<rect x="6" y="18" width="1" height="1" fill="#634325" />
<rect x="7" y="18" width="1" height="1" fill="#110000" />
<rect x="8" y="18" width="1" height="1" fill="#060000" />
<rect x="16" y="18" width="1" height="1" fill="#000301" />
<rect x="17" y="18" width="1" height="1" fill="#777B7C" />
<rect x="18" y="18" width="1" height="1" fill="#747879" />
<rect x="19" y="18" width="1" height="1" fill="#000102" />
<rect x="20" y="18" width="1" height="1" fill="#000201" />
<rect x="1" y="19" width="1" height="1" fill="#000100" />
<rect x="2" y="19" width="1" height="1" fill="#080000" />
<rect x="3" y="19" width="1" height="1" fill="#644325" />
<rect x="4" y="19" width="1" height="1" fill="#6A431E" />
<rect x="5" y="19" width="1" height="1" fill="#624322" />
<rect x="6" y="19" width="1" height="1" fill="#100000" />
<rect x="7" y="19" width="1" height="1" fill="#050000" />
<rect x="16" y="19" width="1" height="1" fill="#000301" />
<rect x="17" y="19" width="1" height="1" fill="#000100" />
<rect x="18" y="19" width="1" height="1" fill="#747C79" />
<rect x="19" y="19" width="1" height="1" fill="#767A7B" />
<rect x="20" y="19" width="1" height="1" fill="#010302" />
<rect x="21" y="19" width="1" height="1" fill="#010200" />
<rect x="1" y="20" width="1" height="1" fill="#000400" />
<rect x="2" y="20" width="1" height="1" fill="#070000" />
<rect x="3" y="20" width="1" height="1" fill="#6A431C" />
<rect x="4" y="20" width="1" height="1" fill="#6C431A" />
<rect x="5" y="20" width="1" height="1" fill="#5A442E" />
<rect x="6" y="20" width="1" height="1" fill="#080000" />
<rect x="17" y="20" width="1" height="1" fill="#000000" />
<rect x="18" y="20" width="1" height="1" fill="#000200" />
<rect x="19" y="20" width="1" height="1" fill="#7A7D79" />
<rect x="20" y="20" width="1" height="1" fill="#797977" />
<rect x="21" y="20" width="1" height="1" fill="#010200" />
<rect x="2" y="21" width="1" height="1" fill="#050000" />
<rect x="3" y="21" width="1" height="1" fill="#644524" />
<rect x="4" y="21" width="1" height="1" fill="#634222" />
<rect x="5" y="21" width="1" height="1" fill="#0A0000" />
<rect x="6" y="21" width="1" height="1" fill="#020000" />
<rect x="18" y="21" width="1" height="1" fill="#000100" />
<rect x="19" y="21" width="1" height="1" fill="#020300" />
<rect x="20" y="21" width="1" height="1" fill="#000100" />
<rect x="21" y="21" width="1" height="1" fill="#020300" />
<rect x="2" y="22" width="1" height="1" fill="#020000" />
<rect x="3" y="22" width="1" height="1" fill="#080000" />
<rect x="4" y="22" width="1" height="1" fill="#080000" />
<rect x="5" y="22" width="1" height="1" fill="#040100" />
<rect x="3" y="23" width="1" height="1" fill="#030100" />
<rect x="4" y="23" width="1" height="1" fill="#040200" />
</svg>