<?xml version="1.0" encoding="UTF-8" ?>
<svg version="1.1" width="25" height="25" xmlns="http://www.w3.org/2000/svg">
<rect x="6" y="6" width="1" height="1" fill="#010200" />
<rect x="7" y="6" width="1" height="1" fill="#020300" />
<rect x="8" y="6" width="1" height="1" fill="#000000" />
<rect x="9" y="6" width="1" height="1" fill="#000000" />
<rect x="10" y="6" width="1" height="1" fill="#010200" />
<rect x="11" y="6" width="1" height="1" fill="#000000" />
<rect x="12" y="6" width="1" height="1" fill="#000000" />
<rect x="13" y="6" width="1" height="1" fill="#000000" />
<rect x="14" y="6" width="1" height="1" fill="#000000" />
<rect x="15" y="6" width="1" height="1" fill="#000000" />
<rect x="16" y="6" width="1" height="1" fill="#000000" />
<rect x="17" y="6" width="1" height="1" fill="#010200" />
<rect x="18" y="6" width="1" height="1" fill="#010200" />
<rect x="3" y="7" width="1" height="1" fill="#000200" />
<rect x="4" y="7" width="1" height="1" fill="#000000" />
<rect x="5" y="7" width="1" height="1" fill="#000000" />
<rect x="6" y="7" width="1" height="1" fill="#010101" />
<rect x="7" y="7" width="1" height="1" fill="#000000" />
<rect x="8" y="7" width="1" height="1" fill="#000000" />
<rect x="9" y="7" width="1" height="1" fill="#010101" />
<rect x="10" y="7" width="1" height="1" fill="#000000" />
<rect x="11" y="7" width="1" height="1" fill="#000000" />
<rect x="12" y="7" width="1" height="1" fill="#010101" />
<rect x="13" y="7" width="1" height="1" fill="#000002" />
<rect x="14" y="7" width="1" height="1" fill="#000002" />
<rect x="15" y="7" width="1" height="1" fill="#000000" />
<rect x="16" y="7" width="1" height="1" fill="#000000" />
<rect x="17" y="7" width="1" height="1" fill="#000000" />
<rect x="18" y="7" width="1" height="1" fill="#000000" />
<rect x="19" y="7" width="1" height="1" fill="#000000" />
<rect x="20" y="7" width="1" height="1" fill="#000000" />
<rect x="21" y="7" width="1" height="1" fill="#010101" />
<rect x="2" y="8" width="1" height="1" fill="#010400" />
<rect x="3" y="8" width="1" height="1" fill="#000100" />
<rect x="4" y="8" width="1" height="1" fill="#000000" />
<rect x="5" y="8" width="1" height="1" fill="#020202" />
<rect x="6" y="8" width="1" height="1" fill="#010101" />
<rect x="7" y="8" width="1" height="1" fill="#000000" />
<rect x="8" y="8" width="1" height="1" fill="#000000" />
<rect x="9" y="8" width="1" height="1" fill="#000000" />
<rect x="10" y="8" width="1" height="1" fill="#000000" />
<rect x="11" y="8" width="1" height="1" fill="#000000" />
<rect x="12" y="8" width="1" height="1" fill="#000002" />
<rect x="13" y="8" width="1" height="1" fill="#000002" />
<rect x="14" y="8" width="1" height="1" fill="#000002" />
<rect x="15" y="8" width="1" height="1" fill="#000002" />
<rect x="16" y="8" width="1" height="1" fill="#000000" />
<rect x="17" y="8" width="1" height="1" fill="#000000" />
<rect x="18" y="8" width="1" height="1" fill="#000000" />
<rect x="19" y="8" width="1" height="1" fill="#010101" />
<rect x="20" y="8" width="1" height="1" fill="#000000" />
<rect x="21" y="8" width="1" height="1" fill="#000000" />
<rect x="22" y="8" width="1" height="1" fill="#020202" />
<rect x="1" y="9" width="1" height="1" fill="#010200" />
<rect x="2" y="9" width="1" height="1" fill="#010400" />
<rect x="3" y="9" width="1" height="1" fill="#000000" />
<rect x="4" y="9" width="1" height="1" fill="#010101" />
<rect x="5" y="9" width="1" height="1" fill="#000001" />
<rect x="6" y="9" width="1" height="1" fill="#000001" />
<rect x="7" y="9" width="1" height="1" fill="#000002" />
<rect x="8" y="9" width="1" height="1" fill="#000000" />
<rect x="9" y="9" width="1" height="1" fill="#010101" />
<rect x="10" y="9" width="1" height="1" fill="#010101" />
<rect x="11" y="9" width="1" height="1" fill="#010101" />
<rect x="12" y="9" width="1" height="1" fill="#000002" />
<rect x="13" y="9" width="1" height="1" fill="#000002" />
<rect x="14" y="9" width="1" height="1" fill="#000002" />
<rect x="15" y="9" width="1" height="1" fill="#000002" />
<rect x="16" y="9" width="1" height="1" fill="#000000" />
<rect x="17" y="9" width="1" height="1" fill="#000000" />
<rect x="18" y="9" width="1" height="1" fill="#020202" />
<rect x="19" y="9" width="1" height="1" fill="#000000" />
<rect x="20" y="9" width="1" height="1" fill="#000000" />
<rect x="21" y="9" width="1" height="1" fill="#000000" />
<rect x="22" y="9" width="1" height="1" fill="#000000" />
<rect x="23" y="9" width="1" height="1" fill="#000000" />
<rect x="0" y="10" width="1" height="1" fill="#010200" />
<rect x="1" y="10" width="1" height="1" fill="#020300" />
<rect x="2" y="10" width="1" height="1" fill="#000200" />
<rect x="3" y="10" width="1" height="1" fill="#000100" />
<rect x="4" y="10" width="1" height="1" fill="#000000" />
<rect x="10" y="10" width="1" height="1" fill="#000000" />
<rect x="11" y="10" width="1" height="1" fill="#000000" />
<rect x="12" y="10" width="1" height="1" fill="#000002" />
<rect x="13" y="10" width="1" height="1" fill="#000002" />
<rect x="14" y="10" width="1" height="1" fill="#000002" />
<rect x="20" y="10" width="1" height="1" fill="#000000" />
<rect x="21" y="10" width="1" height="1" fill="#010101" />
<rect x="22" y="10" width="1" height="1" fill="#000000" />
<rect x="23" y="10" width="1" height="1" fill="#000000" />
<rect x="24" y="10" width="1" height="1" fill="#000000" />
<rect x="0" y="11" width="1" height="1" fill="#000000" />
<rect x="1" y="11" width="1" height="1" fill="#000000" />
<rect x="2" y="11" width="1" height="1" fill="#000100" />
<rect x="3" y="11" width="1" height="1" fill="#000000" />
<rect x="10" y="11" width="1" height="1" fill="#000000" />
<rect x="11" y="11" width="1" height="1" fill="#000000" />
<rect x="12" y="11" width="1" height="1" fill="#000000" />
<rect x="13" y="11" width="1" height="1" fill="#000000" />
<rect x="14" y="11" width="1" height="1" fill="#000000" />
<rect x="21" y="11" width="1" height="1" fill="#000000" />
<rect x="22" y="11" width="1" height="1" fill="#000000" />
<rect x="23" y="11" width="1" height="1" fill="#010101" />
<rect x="24" y="11" width="1" height="1" fill="#000000" />
<rect x="0" y="12" width="1" height="1" fill="#000000" />
<rect x="1" y="12" width="1" height="1" fill="#000000" />
<rect x="2" y="12" width="1" height="1" fill="#000100" />
<rect x="10" y="12" width="1" height="1" fill="#000000" />
<rect x="11" y="12" width="1" height="1" fill="#000000" />
<rect x="12" y="12" width="1" height="1" fill="#000000" />
<rect x="13" y="12" width="1" height="1" fill="#000000" />
<rect x="14" y="12" width="1" height="1" fill="#000000" />
<rect x="22" y="12" width="1" height="1" fill="#000000" />
<rect x="23" y="12" width="1" height="1" fill="#000000" />
<rect x="24" y="12" width="1" height="1" fill="#000000" />
<rect x="0" y="13" width="1" height="1" fill="#000000" />
<rect x="1" y="13" width="1" height="1" fill="#000000" />
<rect x="2" y="13" width="1" height="1" fill="#010400" />
<rect x="3" y="13" width="1" height="1" fill="#000200" />
<rect x="9" y="13" width="1" height="1" fill="#000002" />
<rect x="10" y="13" width="1" height="1" fill="#020204" />
<rect x="11" y="13" width="1" height="1" fill="#000002" />
<rect x="12" y="13" width="1" height="1" fill="#000000" />
<rect x="13" y="13" width="1" height="1" fill="#000000" />
<rect x="14" y="13" width="1" height="1" fill="#000000" />
<rect x="15" y="13" width="1" height="1" fill="#010101" />
<rect x="21" y="13" width="1" height="1" fill="#010200" />
<rect x="22" y="13" width="1" height="1" fill="#000000" />
<rect x="23" y="13" width="1" height="1" fill="#010200" />
<rect x="24" y="13" width="1" height="1" fill="#000000" />
<rect x="0" y="14" width="1" height="1" fill="#010200" />
<rect x="1" y="14" width="1" height="1" fill="#000000" />
<rect x="2" y="14" width="1" height="1" fill="#000000" />
<rect x="3" y="14" width="1" height="1" fill="#000100" />
<rect x="4" y="14" width="1" height="1" fill="#000002" />
<rect x="5" y="14" width="1" height="1" fill="#000001" />
<rect x="6" y="14" width="1" height="1" fill="#000001" />
<rect x="7" y="14" width="1" height="1" fill="#000002" />
<rect x="8" y="14" width="1" height="1" fill="#000002" />
<rect x="9" y="14" width="1" height="1" fill="#010103" />
<rect x="10" y="14" width="1" height="1" fill="#010103" />
<rect x="11" y="14" width="1" height="1" fill="#000001" />
<rect x="12" y="14" width="1" height="1" fill="#000000" />
<rect x="13" y="14" width="1" height="1" fill="#000000" />
<rect x="14" y="14" width="1" height="1" fill="#010101" />
<rect x="15" y="14" width="1" height="1" fill="#000000" />
<rect x="16" y="14" width="1" height="1" fill="#000000" />
<rect x="17" y="14" width="1" height="1" fill="#010101" />
<rect x="18" y="14" width="1" height="1" fill="#010101" />
<rect x="19" y="14" width="1" height="1" fill="#000000" />
<rect x="20" y="14" width="1" height="1" fill="#000000" />
<rect x="21" y="14" width="1" height="1" fill="#000000" />
<rect x="22" y="14" width="1" height="1" fill="#000000" />
<rect x="23" y="14" width="1" height="1" fill="#010200" />
<rect x="24" y="14" width="1" height="1" fill="#000000" />
<rect x="1" y="15" width="1" height="1" fill="#000000" />
<rect x="2" y="15" width="1" height="1" fill="#000000" />
<rect x="3" y="15" width="1" height="1" fill="#000100" />
<rect x="4" y="15" width="1" height="1" fill="#000002" />
<rect x="5" y="15" width="1" height="1" fill="#010103" />
<rect x="6" y="15" width="1" height="1" fill="#000001" />
<rect x="7" y="15" width="1" height="1" fill="#000001" />
<rect x="8" y="15" width="1" height="1" fill="#000001" />
<rect x="9" y="15" width="1" height="1" fill="#000001" />
<rect x="10" y="15" width="1" height="1" fill="#010103" />
<rect x="11" y="15" width="1" height="1" fill="#000001" />
<rect x="12" y="15" width="1" height="1" fill="#000000" />
<rect x="13" y="15" width="1" height="1" fill="#000000" />
<rect x="14" y="15" width="1" height="1" fill="#000000" />
<rect x="15" y="15" width="1" height="1" fill="#000000" />
<rect x="16" y="15" width="1" height="1" fill="#010101" />
<rect x="17" y="15" width="1" height="1" fill="#000000" />
<rect x="18" y="15" width="1" height="1" fill="#000000" />
<rect x="19" y="15" width="1" height="1" fill="#000000" />
<rect x="20" y="15" width="1" height="1" fill="#000000" />
<rect x="21" y="15" width="1" height="1" fill="#020300" />
<rect x="22" y="15" width="1" height="1" fill="#020300" />
<rect x="23" y="15" width="1" height="1" fill="#010200" />
<rect x="2" y="16" width="1" height="1" fill="#000200" />
<rect x="3" y="16" width="1" height="1" fill="#000000" />
<rect x="4" y="16" width="1" height="1" fill="#010101" />
<rect x="5" y="16" width="1" height="1" fill="#010101" />
<rect x="6" y="16" width="1" height="1" fill="#000000" />
<rect x="7" y="16" width="1" height="1" fill="#010101" />
<rect x="8" y="16" width="1" height="1" fill="#010101" />
<rect x="9" y="16" width="1" height="1" fill="#010103" />
<rect x="10" y="16" width="1" height="1" fill="#010103" />
<rect x="11" y="16" width="1" height="1" fill="#010101" />
<rect x="12" y="16" width="1" height="1" fill="#000000" />
<rect x="13" y="16" width="1" height="1" fill="#000000" />
<rect x="14" y="16" width="1" height="1" fill="#000000" />
<rect x="15" y="16" width="1" height="1" fill="#000000" />
<rect x="16" y="16" width="1" height="1" fill="#000000" />
<rect x="17" y="16" width="1" height="1" fill="#000000" />
<rect x="18" y="16" width="1" height="1" fill="#000000" />
<rect x="19" y="16" width="1" height="1" fill="#000000" />
<rect x="20" y="16" width="1" height="1" fill="#020300" />
<rect x="21" y="16" width="1" height="1" fill="#010200" />
<rect x="22" y="16" width="1" height="1" fill="#000000" />
<rect x="8" y="17" width="1" height="1" fill="#000000" />
<rect x="9" y="17" width="1" height="1" fill="#000000" />
<rect x="10" y="17" width="1" height="1" fill="#000000" />
<rect x="11" y="17" width="1" height="1" fill="#000000" />
<rect x="12" y="17" width="1" height="1" fill="#000000" />
<rect x="13" y="17" width="1" height="1" fill="#000000" />
<rect x="14" y="17" width="1" height="1" fill="#000000" />
<rect x="15" y="17" width="1" height="1" fill="#000000" />
<rect x="16" y="17" width="1" height="1" fill="#000000" />
<rect x="10" y="18" width="1" height="1" fill="#000000" />
<rect x="11" y="18" width="1" height="1" fill="#000000" />
<rect x="12" y="18" width="1" height="1" fill="#000000" />
<rect x="13" y="18" width="1" height="1" fill="#000000" />
<rect x="14" y="18" width="1" height="1" fill="#000000" />
</svg>