<?xml version="1.0" encoding="UTF-8" ?>
<svg version="1.1" width="25" height="25" xmlns="http://www.w3.org/2000/svg">
<rect x="11" y="1" width="1" height="1" fill="#010200" />
<rect x="11" y="2" width="1" height="1" fill="#000300" />
<rect x="12" y="2" width="1" height="1" fill="#000000" />
<rect x="5" y="3" width="1" height="1" fill="#020300" />
<rect x="11" y="3" width="1" height="1" fill="#010000" />
<rect x="12" y="3" width="1" height="1" fill="#020200" />
<rect x="13" y="3" width="1" height="1" fill="#020500" />
<rect x="17" y="3" width="1" height="1" fill="#010200" />
<rect x="5" y="4" width="1" height="1" fill="#000000" />
<rect x="6" y="4" width="1" height="1" fill="#020000" />
<rect x="10" y="4" width="1" height="1" fill="#000200" />
<rect x="11" y="4" width="1" height="1" fill="#0B0600" />
<rect x="12" y="4" width="1" height="1" fill="#A6A258" />
<rect x="13" y="4" width="1" height="1" fill="#060600" />
<rect x="14" y="4" width="1" height="1" fill="#020300" />
<rect x="17" y="4" width="1" height="1" fill="#030001" />
<rect x="18" y="4" width="1" height="1" fill="#000000" />
<rect x="5" y="5" width="1" height="1" fill="#060300" />
<rect x="6" y="5" width="1" height="1" fill="#040100" />
<rect x="7" y="5" width="1" height="1" fill="#060300" />
<rect x="10" y="5" width="1" height="1" fill="#060300" />
<rect x="11" y="5" width="1" height="1" fill="#B4A047" />
<rect x="12" y="5" width="1" height="1" fill="#B39F3B" />
<rect x="13" y="5" width="1" height="1" fill="#A69F5B" />
<rect x="14" y="5" width="1" height="1" fill="#050400" />
<rect x="17" y="5" width="1" height="1" fill="#060200" />
<rect x="18" y="5" width="1" height="1" fill="#030200" />
<rect x="19" y="5" width="1" height="1" fill="#010400" />
<rect x="4" y="6" width="1" height="1" fill="#050100" />
<rect x="5" y="6" width="1" height="1" fill="#0F0900" />
<rect x="6" y="6" width="1" height="1" fill="#A6A25A" />
<rect x="7" y="6" width="1" height="1" fill="#060600" />
<rect x="8" y="6" width="1" height="1" fill="#020400" />
<rect x="10" y="6" width="1" height="1" fill="#110200" />
<rect x="11" y="6" width="1" height="1" fill="#C79B3C" />
<rect x="12" y="6" width="1" height="1" fill="#9F7101" />
<rect x="13" y="6" width="1" height="1" fill="#B6A13F" />
<rect x="14" y="6" width="1" height="1" fill="#0A0500" />
<rect x="16" y="6" width="1" height="1" fill="#030200" />
<rect x="17" y="6" width="1" height="1" fill="#080500" />
<rect x="18" y="6" width="1" height="1" fill="#A2A25B" />
<rect x="19" y="6" width="1" height="1" fill="#000500" />
<rect x="20" y="6" width="1" height="1" fill="#000200" />
<rect x="4" y="7" width="1" height="1" fill="#0A0000" />
<rect x="5" y="7" width="1" height="1" fill="#B39F46" />
<rect x="6" y="7" width="1" height="1" fill="#B3A13C" />
<rect x="7" y="7" width="1" height="1" fill="#A6A25A" />
<rect x="8" y="7" width="1" height="1" fill="#050700" />
<rect x="9" y="7" width="1" height="1" fill="#060600" />
<rect x="10" y="7" width="1" height="1" fill="#B49D59" />
<rect x="11" y="7" width="1" height="1" fill="#D49234" />
<rect x="12" y="7" width="1" height="1" fill="#B06600" />
<rect x="13" y="7" width="1" height="1" fill="#C59A29" />
<rect x="14" y="7" width="1" height="1" fill="#B39D45" />
<rect x="15" y="7" width="1" height="1" fill="#0B0200" />
<rect x="16" y="7" width="1" height="1" fill="#0A0300" />
<rect x="17" y="7" width="1" height="1" fill="#B2A145" />
<rect x="18" y="7" width="1" height="1" fill="#B0A03D" />
<rect x="19" y="7" width="1" height="1" fill="#A6A15E" />
<rect x="20" y="7" width="1" height="1" fill="#040300" />
<rect x="4" y="8" width="1" height="1" fill="#120000" />
<rect x="5" y="8" width="1" height="1" fill="#C49636" />
<rect x="6" y="8" width="1" height="1" fill="#9E7000" />
<rect x="7" y="8" width="1" height="1" fill="#B2A03D" />
<rect x="8" y="8" width="1" height="1" fill="#0D0A00" />
<rect x="9" y="8" width="1" height="1" fill="#0E0900" />
<rect x="10" y="8" width="1" height="1" fill="#BB9B3D" />
<rect x="11" y="8" width="1" height="1" fill="#BA6209" />
<rect x="12" y="8" width="1" height="1" fill="#C35C00" />
<rect x="13" y="8" width="1" height="1" fill="#B06500" />
<rect x="14" y="8" width="1" height="1" fill="#C99832" />
<rect x="15" y="8" width="1" height="1" fill="#160100" />
<rect x="16" y="8" width="1" height="1" fill="#160300" />
<rect x="17" y="8" width="1" height="1" fill="#C49730" />
<rect x="18" y="8" width="1" height="1" fill="#9E7000" />
<rect x="19" y="8" width="1" height="1" fill="#B39F3D" />
<rect x="20" y="8" width="1" height="1" fill="#0D0600" />
<rect x="3" y="9" width="1" height="1" fill="#0B0400" />
<rect x="4" y="9" width="1" height="1" fill="#B69A56" />
<rect x="5" y="9" width="1" height="1" fill="#D69132" />
<rect x="6" y="9" width="1" height="1" fill="#B06600" />
<rect x="7" y="9" width="1" height="1" fill="#C69C2D" />
<rect x="8" y="9" width="1" height="1" fill="#B6A02D" />
<rect x="9" y="9" width="1" height="1" fill="#B6A52B" />
<rect x="10" y="9" width="1" height="1" fill="#C89D2E" />
<rect x="11" y="9" width="1" height="1" fill="#C15D08" />
<rect x="12" y="9" width="1" height="1" fill="#B43D00" />
<rect x="13" y="9" width="1" height="1" fill="#C26100" />
<rect x="14" y="9" width="1" height="1" fill="#D79527" />
<rect x="15" y="9" width="1" height="1" fill="#BCA03E" />
<rect x="16" y="9" width="1" height="1" fill="#B89C3D" />
<rect x="17" y="9" width="1" height="1" fill="#D8922A" />
<rect x="18" y="9" width="1" height="1" fill="#B16600" />
<rect x="19" y="9" width="1" height="1" fill="#C99B2D" />
<rect x="20" y="9" width="1" height="1" fill="#B39D45" />
<rect x="21" y="9" width="1" height="1" fill="#070200" />
<rect x="3" y="10" width="1" height="1" fill="#0B0700" />
<rect x="4" y="10" width="1" height="1" fill="#BC9B40" />
<rect x="5" y="10" width="1" height="1" fill="#BD620C" />
<rect x="6" y="10" width="1" height="1" fill="#C45C02" />
<rect x="7" y="10" width="1" height="1" fill="#AF6800" />
<rect x="8" y="10" width="1" height="1" fill="#CC9A1E" />
<rect x="9" y="10" width="1" height="1" fill="#C59D19" />
<rect x="10" y="10" width="1" height="1" fill="#D09820" />
<rect x="11" y="10" width="1" height="1" fill="#C55E0C" />
<rect x="12" y="10" width="1" height="1" fill="#B23D00" />
<rect x="13" y="10" width="1" height="1" fill="#C35C00" />
<rect x="14" y="10" width="1" height="1" fill="#DB9220" />
<rect x="15" y="10" width="1" height="1" fill="#C0A41E" />
<rect x="16" y="10" width="1" height="1" fill="#C29E1D" />
<rect x="17" y="10" width="1" height="1" fill="#C06300" />
<rect x="18" y="10" width="1" height="1" fill="#C75B00" />
<rect x="19" y="10" width="1" height="1" fill="#B26700" />
<rect x="20" y="10" width="1" height="1" fill="#C49938" />
<rect x="21" y="10" width="1" height="1" fill="#0E0200" />
<rect x="2" y="11" width="1" height="1" fill="#080000" />
<rect x="3" y="11" width="1" height="1" fill="#AF9D48" />
<rect x="4" y="11" width="1" height="1" fill="#CA9933" />
<rect x="5" y="11" width="1" height="1" fill="#C55B0F" />
<rect x="6" y="11" width="1" height="1" fill="#B33B00" />
<rect x="7" y="11" width="1" height="1" fill="#C15F00" />
<rect x="8" y="11" width="1" height="1" fill="#DE8F1D" />
<rect x="9" y="11" width="1" height="1" fill="#D99717" />
<rect x="10" y="11" width="1" height="1" fill="#B26800" />
<rect x="11" y="11" width="1" height="1" fill="#A83E00" />
<rect x="12" y="11" width="1" height="1" fill="#B13A00" />
<rect x="13" y="11" width="1" height="1" fill="#AF3F00" />
<rect x="14" y="11" width="1" height="1" fill="#B96200" />
<rect x="15" y="11" width="1" height="1" fill="#CA9C0E" />
<rect x="16" y="11" width="1" height="1" fill="#CE9913" />
<rect x="17" y="11" width="1" height="1" fill="#C85C01" />
<rect x="18" y="11" width="1" height="1" fill="#B63A00" />
<rect x="19" y="11" width="1" height="1" fill="#C15F00" />
<rect x="20" y="11" width="1" height="1" fill="#D29133" />
<rect x="21" y="11" width="1" height="1" fill="#AE9B5D" />
<rect x="22" y="11" width="1" height="1" fill="#010200" />
<rect x="2" y="12" width="1" height="1" fill="#120000" />
<rect x="3" y="12" width="1" height="1" fill="#C49742" />
<rect x="4" y="12" width="1" height="1" fill="#B16401" />
<rect x="5" y="12" width="1" height="1" fill="#B04100" />
<rect x="6" y="12" width="1" height="1" fill="#B73B00" />
<rect x="7" y="12" width="1" height="1" fill="#B33E00" />
<rect x="8" y="12" width="1" height="1" fill="#C85B05" />
<rect x="9" y="12" width="1" height="1" fill="#C16000" />
<rect x="10" y="12" width="1" height="1" fill="#C45F00" />
<rect x="11" y="12" width="1" height="1" fill="#AF3D00" />
<rect x="12" y="12" width="1" height="1" fill="#B53D01" />
<rect x="13" y="12" width="1" height="1" fill="#B43B00" />
<rect x="14" y="12" width="1" height="1" fill="#C65B02" />
<rect x="15" y="12" width="1" height="1" fill="#B46700" />
<rect x="16" y="12" width="1" height="1" fill="#DD901D" />
<rect x="17" y="12" width="1" height="1" fill="#C95908" />
<rect x="18" y="12" width="1" height="1" fill="#B63B00" />
<rect x="19" y="12" width="1" height="1" fill="#C85C03" />
<rect x="20" y="12" width="1" height="1" fill="#DA8A36" />
<rect x="21" y="12" width="1" height="1" fill="#B99A59" />
<rect x="22" y="12" width="1" height="1" fill="#070200" />
<rect x="2" y="13" width="1" height="1" fill="#130000" />
<rect x="3" y="13" width="1" height="1" fill="#C19650" />
<rect x="4" y="13" width="1" height="1" fill="#AF6611" />
<rect x="5" y="13" width="1" height="1" fill="#A94000" />
<rect x="6" y="13" width="1" height="1" fill="#AF3C00" />
<rect x="7" y="13" width="1" height="1" fill="#A83C05" />
<rect x="8" y="13" width="1" height="1" fill="#BB5A1D" />
<rect x="9" y="13" width="1" height="1" fill="#E08738" />
<rect x="10" y="13" width="1" height="1" fill="#B95D0F" />
<rect x="11" y="13" width="1" height="1" fill="#A93E03" />
<rect x="12" y="13" width="1" height="1" fill="#AA3D07" />
<rect x="13" y="13" width="1" height="1" fill="#A93E03" />
<rect x="14" y="13" width="1" height="1" fill="#B95C15" />
<rect x="15" y="13" width="1" height="1" fill="#D58C38" />
<rect x="16" y="13" width="1" height="1" fill="#B06511" />
<rect x="17" y="13" width="1" height="1" fill="#A63F00" />
<rect x="18" y="13" width="1" height="1" fill="#AF3F00" />
<rect x="19" y="13" width="1" height="1" fill="#A94500" />
<rect x="20" y="13" width="1" height="1" fill="#AF6517" />
<rect x="21" y="13" width="1" height="1" fill="#B79A62" />
<rect x="22" y="13" width="1" height="1" fill="#090300" />
<rect x="2" y="14" width="1" height="1" fill="#050000" />
<rect x="3" y="14" width="1" height="1" fill="#100000" />
<rect x="4" y="14" width="1" height="1" fill="#BD935F" />
<rect x="5" y="14" width="1" height="1" fill="#B45E17" />
<rect x="6" y="14" width="1" height="1" fill="#A24402" />
<rect x="7" y="14" width="1" height="1" fill="#A16237" />
<rect x="8" y="14" width="1" height="1" fill="#260000" />
<rect x="9" y="14" width="1" height="1" fill="#240000" />
<rect x="10" y="14" width="1" height="1" fill="#C8915A" />
<rect x="11" y="14" width="1" height="1" fill="#B25F2C" />
<rect x="12" y="14" width="1" height="1" fill="#994210" />
<rect x="13" y="14" width="1" height="1" fill="#A66631" />
<rect x="14" y="14" width="1" height="1" fill="#C19360" />
<rect x="15" y="14" width="1" height="1" fill="#1D0000" />
<rect x="16" y="14" width="1" height="1" fill="#250000" />
<rect x="17" y="14" width="1" height="1" fill="#B15E2C" />
<rect x="18" y="14" width="1" height="1" fill="#9F4504" />
<rect x="19" y="14" width="1" height="1" fill="#AC6610" />
<rect x="20" y="14" width="1" height="1" fill="#C4954A" />
<rect x="21" y="14" width="1" height="1" fill="#100000" />
<rect x="22" y="14" width="1" height="1" fill="#070400" />
<rect x="2" y="15" width="1" height="1" fill="#030100" />
<rect x="3" y="15" width="1" height="1" fill="#020100" />
<rect x="4" y="15" width="1" height="1" fill="#130000" />
<rect x="5" y="15" width="1" height="1" fill="#CA8E59" />
<rect x="6" y="15" width="1" height="1" fill="#A3632D" />
<rect x="7" y="15" width="1" height="1" fill="#1C0000" />
<rect x="8" y="15" width="1" height="1" fill="#110000" />
<rect x="9" y="15" width="1" height="1" fill="#523C1B" />
<rect x="10" y="15" width="1" height="1" fill="#1D0000" />
<rect x="11" y="15" width="1" height="1" fill="#310000" />
<rect x="12" y="15" width="1" height="1" fill="#A26336" />
<rect x="13" y="15" width="1" height="1" fill="#220000" />
<rect x="14" y="15" width="1" height="1" fill="#150000" />
<rect x="15" y="15" width="1" height="1" fill="#4D3D2C" />
<rect x="16" y="15" width="1" height="1" fill="#140000" />
<rect x="17" y="15" width="1" height="1" fill="#2A0000" />
<rect x="18" y="15" width="1" height="1" fill="#A16436" />
<rect x="19" y="15" width="1" height="1" fill="#BE9553" />
<rect x="20" y="15" width="1" height="1" fill="#160000" />
<rect x="21" y="15" width="1" height="1" fill="#090100" />
<rect x="22" y="15" width="1" height="1" fill="#000000" />
<rect x="2" y="16" width="1" height="1" fill="#040200" />
<rect x="3" y="16" width="1" height="1" fill="#000000" />
<rect x="4" y="16" width="1" height="1" fill="#050000" />
<rect x="5" y="16" width="1" height="1" fill="#130000" />
<rect x="6" y="16" width="1" height="1" fill="#130000" />
<rect x="7" y="16" width="1" height="1" fill="#100000" />
<rect x="8" y="16" width="1" height="1" fill="#4E3A28" />
<rect x="9" y="16" width="1" height="1" fill="#523A19" />
<rect x="10" y="16" width="1" height="1" fill="#573913" />
<rect x="11" y="16" width="1" height="1" fill="#603816" />
<rect x="12" y="16" width="1" height="1" fill="#1F0000" />
<rect x="13" y="16" width="1" height="1" fill="#593717" />
<rect x="14" y="16" width="1" height="1" fill="#52391D" />
<rect x="15" y="16" width="1" height="1" fill="#503F29" />
<rect x="16" y="16" width="1" height="1" fill="#493A2A" />
<rect x="17" y="16" width="1" height="1" fill="#100000" />
<rect x="18" y="16" width="1" height="1" fill="#120000" />
<rect x="19" y="16" width="1" height="1" fill="#0D0000" />
<rect x="20" y="16" width="1" height="1" fill="#080000" />
<rect x="21" y="16" width="1" height="1" fill="#040100" />
<rect x="22" y="16" width="1" height="1" fill="#000000" />
<rect x="3" y="17" width="1" height="1" fill="#040000" />
<rect x="4" y="17" width="1" height="1" fill="#060000" />
<rect x="5" y="17" width="1" height="1" fill="#050000" />
<rect x="6" y="17" width="1" height="1" fill="#030000" />
<rect x="7" y="17" width="1" height="1" fill="#0A0000" />
<rect x="8" y="17" width="1" height="1" fill="#4D3B2B" />
<rect x="9" y="17" width="1" height="1" fill="#503C21" />
<rect x="10" y="17" width="1" height="1" fill="#51391A" />
<rect x="11" y="17" width="1" height="1" fill="#533D20" />
<rect x="12" y="17" width="1" height="1" fill="#52391D" />
<rect x="13" y="17" width="1" height="1" fill="#553A1D" />
<rect x="14" y="17" width="1" height="1" fill="#160000" />
<rect x="15" y="17" width="1" height="1" fill="#100000" />
<rect x="16" y="17" width="1" height="1" fill="#0B0000" />
<rect x="17" y="17" width="1" height="1" fill="#080000" />
<rect x="18" y="17" width="1" height="1" fill="#040000" />
<rect x="19" y="17" width="1" height="1" fill="#060000" />
<rect x="20" y="17" width="1" height="1" fill="#060000" />
<rect x="21" y="17" width="1" height="1" fill="#030000" />
<rect x="2" y="18" width="1" height="1" fill="#030000" />
<rect x="3" y="18" width="1" height="1" fill="#080100" />
<rect x="4" y="18" width="1" height="1" fill="#080000" />
<rect x="5" y="18" width="1" height="1" fill="#0C0000" />
<rect x="6" y="18" width="1" height="1" fill="#0A0000" />
<rect x="7" y="18" width="1" height="1" fill="#0B0000" />
<rect x="8" y="18" width="1" height="1" fill="#0C0000" />
<rect x="9" y="18" width="1" height="1" fill="#0C0000" />
<rect x="10" y="18" width="1" height="1" fill="#4A3D2B" />
<rect x="11" y="18" width="1" height="1" fill="#4A3E27" />
<rect x="12" y="18" width="1" height="1" fill="#4C3C1F" />
<rect x="13" y="18" width="1" height="1" fill="#513A14" />
<rect x="14" y="18" width="1" height="1" fill="#533914" />
<rect x="15" y="18" width="1" height="1" fill="#4D391B" />
<rect x="16" y="18" width="1" height="1" fill="#0C0000" />
<rect x="17" y="18" width="1" height="1" fill="#0B0000" />
<rect x="18" y="18" width="1" height="1" fill="#090000" />
<rect x="19" y="18" width="1" height="1" fill="#0B0000" />
<rect x="20" y="18" width="1" height="1" fill="#0C0000" />
<rect x="21" y="18" width="1" height="1" fill="#0B0000" />
<rect x="22" y="18" width="1" height="1" fill="#080000" />
<rect x="1" y="19" width="1" height="1" fill="#030100" />
<rect x="2" y="19" width="1" height="1" fill="#443E2C" />
<rect x="3" y="19" width="1" height="1" fill="#4C3D27" />
<rect x="4" y="19" width="1" height="1" fill="#4A3720" />
<rect x="5" y="19" width="1" height="1" fill="#4B3A24" />
<rect x="6" y="19" width="1" height="1" fill="#4E3D2A" />
<rect x="7" y="19" width="1" height="1" fill="#4C3B28" />
<rect x="8" y="19" width="1" height="1" fill="#4A3D2B" />
<rect x="9" y="19" width="1" height="1" fill="#080000" />
<rect x="10" y="19" width="1" height="1" fill="#050000" />
<rect x="11" y="19" width="1" height="1" fill="#040000" />
<rect x="12" y="19" width="1" height="1" fill="#080000" />
<rect x="13" y="19" width="1" height="1" fill="#4F3D1D" />
<rect x="14" y="19" width="1" height="1" fill="#4F3917" />
<rect x="15" y="19" width="1" height="1" fill="#4F3B1F" />
<rect x="16" y="19" width="1" height="1" fill="#4C3C21" />
<rect x="17" y="19" width="1" height="1" fill="#4A3D1F" />
<rect x="18" y="19" width="1" height="1" fill="#4A3D21" />
<rect x="19" y="19" width="1" height="1" fill="#4E3B23" />
<rect x="20" y="19" width="1" height="1" fill="#4F3A23" />
<rect x="21" y="19" width="1" height="1" fill="#4D381D" />
<rect x="22" y="19" width="1" height="1" fill="#4A3C25" />
<rect x="23" y="19" width="1" height="1" fill="#040000" />
<rect x="1" y="20" width="1" height="1" fill="#050000" />
<rect x="2" y="20" width="1" height="1" fill="#4D3E28" />
<rect x="3" y="20" width="1" height="1" fill="#543B1B" />
<rect x="4" y="20" width="1" height="1" fill="#543814" />
<rect x="5" y="20" width="1" height="1" fill="#543A17" />
<rect x="6" y="20" width="1" height="1" fill="#553C1E" />
<rect x="7" y="20" width="1" height="1" fill="#4F3B1F" />
<rect x="8" y="20" width="1" height="1" fill="#4E3E26" />
<rect x="9" y="20" width="1" height="1" fill="#463D2C" />
<rect x="10" y="20" width="1" height="1" fill="#403C2D" />
<rect x="11" y="20" width="1" height="1" fill="#030200" />
<rect x="12" y="20" width="1" height="1" fill="#020000" />
<rect x="13" y="20" width="1" height="1" fill="#0A0000" />
<rect x="14" y="20" width="1" height="1" fill="#4C3C2B" />
<rect x="15" y="20" width="1" height="1" fill="#4A3C28" />
<rect x="16" y="20" width="1" height="1" fill="#4D3D23" />
<rect x="17" y="20" width="1" height="1" fill="#4E3D19" />
<rect x="18" y="20" width="1" height="1" fill="#503B14" />
<rect x="19" y="20" width="1" height="1" fill="#553B17" />
<rect x="20" y="20" width="1" height="1" fill="#563915" />
<rect x="21" y="20" width="1" height="1" fill="#543A15" />
<rect x="22" y="20" width="1" height="1" fill="#4D3B1C" />
<rect x="23" y="20" width="1" height="1" fill="#060100" />
<rect x="1" y="21" width="1" height="1" fill="#060000" />
<rect x="2" y="21" width="1" height="1" fill="#493B24" />
<rect x="3" y="21" width="1" height="1" fill="#51391A" />
<rect x="4" y="21" width="1" height="1" fill="#543814" />
<rect x="5" y="21" width="1" height="1" fill="#4F3716" />
<rect x="6" y="21" width="1" height="1" fill="#50391C" />
<rect x="7" y="21" width="1" height="1" fill="#4E3B21" />
<rect x="8" y="21" width="1" height="1" fill="#0B0000" />
<rect x="9" y="21" width="1" height="1" fill="#080100" />
<rect x="10" y="21" width="1" height="1" fill="#060200" />
<rect x="11" y="21" width="1" height="1" fill="#010200" />
<rect x="12" y="21" width="1" height="1" fill="#010200" />
<rect x="13" y="21" width="1" height="1" fill="#060000" />
<rect x="14" y="21" width="1" height="1" fill="#070000" />
<rect x="15" y="21" width="1" height="1" fill="#080000" />
<rect x="16" y="21" width="1" height="1" fill="#0D0000" />
<rect x="17" y="21" width="1" height="1" fill="#4F3D21" />
<rect x="18" y="21" width="1" height="1" fill="#513B19" />
<rect x="19" y="21" width="1" height="1" fill="#523B17" />
<rect x="20" y="21" width="1" height="1" fill="#563E1B" />
<rect x="21" y="21" width="1" height="1" fill="#513B17" />
<rect x="22" y="21" width="1" height="1" fill="#4D3D23" />
<rect x="23" y="21" width="1" height="1" fill="#020000" />
<rect x="1" y="22" width="1" height="1" fill="#020000" />
<rect x="2" y="22" width="1" height="1" fill="#090000" />
<rect x="3" y="22" width="1" height="1" fill="#4A3C28" />
<rect x="4" y="22" width="1" height="1" fill="#4D3C27" />
<rect x="5" y="22" width="1" height="1" fill="#493C2A" />
<rect x="6" y="22" width="1" height="1" fill="#0C0100" />
<rect x="7" y="22" width="1" height="1" fill="#090000" />
<rect x="8" y="22" width="1" height="1" fill="#060000" />
<rect x="9" y="22" width="1" height="1" fill="#030000" />
<rect x="10" y="22" width="1" height="1" fill="#020000" />
<rect x="11" y="22" width="1" height="1" fill="#010005" />
<rect x="12" y="22" width="1" height="1" fill="#010103" />
<rect x="13" y="22" width="1" height="1" fill="#030000" />
<rect x="14" y="22" width="1" height="1" fill="#040000" />
<rect x="15" y="22" width="1" height="1" fill="#080000" />
<rect x="16" y="22" width="1" height="1" fill="#080000" />
<rect x="17" y="22" width="1" height="1" fill="#080000" />
<rect x="18" y="22" width="1" height="1" fill="#0B0000" />
<rect x="19" y="22" width="1" height="1" fill="#493C28" />
<rect x="20" y="22" width="1" height="1" fill="#483C24" />
<rect x="21" y="22" width="1" height="1" fill="#483E29" />
<rect x="22" y="22" width="1" height="1" fill="#060000" />
<rect x="23" y="22" width="1" height="1" fill="#020000" />
<rect x="2" y="23" width="1" height="1" fill="#030000" />
<rect x="3" y="23" width="1" height="1" fill="#090200" />
<rect x="4" y="23" width="1" height="1" fill="#050000" />
<rect x="5" y="23" width="1" height="1" fill="#060000" />
<rect x="6" y="23" width="1" height="1" fill="#030000" />
<rect x="7" y="23" width="1" height="1" fill="#030100" />
<rect x="8" y="23" width="1" height="1" fill="#030100" />
<rect x="9" y="23" width="1" height="1" fill="#010101" />
<rect x="10" y="23" width="1" height="1" fill="#000002" />
<rect x="11" y="23" width="1" height="1" fill="#010005" />
<rect x="12" y="23" width="1" height="1" fill="#000001" />
<rect x="13" y="23" width="1" height="1" fill="#000000" />
<rect x="14" y="23" width="1" height="1" fill="#020000" />
<rect x="15" y="23" width="1" height="1" fill="#030000" />
<rect x="16" y="23" width="1" height="1" fill="#040000" />
<rect x="17" y="23" width="1" height="1" fill="#040000" />
<rect x="18" y="23" width="1" height="1" fill="#060000" />
<rect x="19" y="23" width="1" height="1" fill="#040000" />
<rect x="20" y="23" width="1" height="1" fill="#050000" />
<rect x="21" y="23" width="1" height="1" fill="#040100" />
<rect x="22" y="23" width="1" height="1" fill="#030000" />
</svg>