<?xml version="1.0" encoding="UTF-8" ?>
<svg version="1.1" width="25" height="25" xmlns="http://www.w3.org/2000/svg">
<rect x="9" y="2" width="1" height="1" fill="#000600" />
<rect x="10" y="2" width="1" height="1" fill="#000C00" />
<rect x="11" y="2" width="1" height="1" fill="#001200" />
<rect x="12" y="2" width="1" height="1" fill="#001800" />
<rect x="13" y="2" width="1" height="1" fill="#001900" />
<rect x="14" y="2" width="1" height="1" fill="#001400" />
<rect x="15" y="2" width="1" height="1" fill="#000D00" />
<rect x="16" y="2" width="1" height="1" fill="#000500" />
<rect x="8" y="3" width="1" height="1" fill="#000500" />
<rect x="9" y="3" width="1" height="1" fill="#000B00" />
<rect x="10" y="3" width="1" height="1" fill="#225922" />
<rect x="11" y="3" width="1" height="1" fill="#418D3F" />
<rect x="12" y="3" width="1" height="1" fill="#3B973A" />
<rect x="13" y="3" width="1" height="1" fill="#349633" />
<rect x="14" y="3" width="1" height="1" fill="#379638" />
<rect x="15" y="3" width="1" height="1" fill="#438F45" />
<rect x="16" y="3" width="1" height="1" fill="#001700" />
<rect x="17" y="3" width="1" height="1" fill="#000800" />
<rect x="7" y="4" width="1" height="1" fill="#000400" />
<rect x="8" y="4" width="1" height="1" fill="#000C00" />
<rect x="9" y="4" width="1" height="1" fill="#1E5C1E" />
<rect x="10" y="4" width="1" height="1" fill="#0D670B" />
<rect x="11" y="4" width="1" height="1" fill="#2C9C29" />
<rect x="12" y="4" width="1" height="1" fill="#22A51E" />
<rect x="13" y="4" width="1" height="1" fill="#1AAD17" />
<rect x="14" y="4" width="1" height="1" fill="#16AF15" />
<rect x="15" y="4" width="1" height="1" fill="#16AB19" />
<rect x="16" y="4" width="1" height="1" fill="#2E9D33" />
<rect x="17" y="4" width="1" height="1" fill="#000F00" />
<rect x="6" y="5" width="1" height="1" fill="#000700" />
<rect x="7" y="5" width="1" height="1" fill="#001000" />
<rect x="8" y="5" width="1" height="1" fill="#225E20" />
<rect x="9" y="5" width="1" height="1" fill="#0C6B09" />
<rect x="10" y="5" width="1" height="1" fill="#007500" />
<rect x="11" y="5" width="1" height="1" fill="#007C00" />
<rect x="12" y="5" width="1" height="1" fill="#008400" />
<rect x="13" y="5" width="1" height="1" fill="#0BB70B" />
<rect x="14" y="5" width="1" height="1" fill="#05B906" />
<rect x="15" y="5" width="1" height="1" fill="#03B903" />
<rect x="16" y="5" width="1" height="1" fill="#14AC17" />
<rect x="17" y="5" width="1" height="1" fill="#002200" />
<rect x="18" y="5" width="1" height="1" fill="#001000" />
<rect x="19" y="5" width="1" height="1" fill="#000900" />
<rect x="5" y="6" width="1" height="1" fill="#000600" />
<rect x="6" y="6" width="1" height="1" fill="#000D00" />
<rect x="7" y="6" width="1" height="1" fill="#1C5E18" />
<rect x="8" y="6" width="1" height="1" fill="#086B03" />
<rect x="9" y="6" width="1" height="1" fill="#007800" />
<rect x="10" y="6" width="1" height="1" fill="#17AD14" />
<rect x="11" y="6" width="1" height="1" fill="#008600" />
<rect x="12" y="6" width="1" height="1" fill="#0EB411" />
<rect x="13" y="6" width="1" height="1" fill="#0CB40E" />
<rect x="14" y="6" width="1" height="1" fill="#0BB90C" />
<rect x="15" y="6" width="1" height="1" fill="#04BA04" />
<rect x="16" y="6" width="1" height="1" fill="#08B708" />
<rect x="17" y="6" width="1" height="1" fill="#14AD1A" />
<rect x="18" y="6" width="1" height="1" fill="#2A9B31" />
<rect x="19" y="6" width="1" height="1" fill="#001800" />
<rect x="20" y="6" width="1" height="1" fill="#000800" />
<rect x="4" y="7" width="1" height="1" fill="#000600" />
<rect x="5" y="7" width="1" height="1" fill="#000E00" />
<rect x="6" y="7" width="1" height="1" fill="#21581F" />
<rect x="7" y="7" width="1" height="1" fill="#10650B" />
<rect x="8" y="7" width="1" height="1" fill="#007100" />
<rect x="9" y="7" width="1" height="1" fill="#1DAC15" />
<rect x="10" y="7" width="1" height="1" fill="#13B20F" />
<rect x="11" y="7" width="1" height="1" fill="#0FB210" />
<rect x="12" y="7" width="1" height="1" fill="#10B112" />
<rect x="13" y="7" width="1" height="1" fill="#008200" />
<rect x="14" y="7" width="1" height="1" fill="#12B012" />
<rect x="15" y="7" width="1" height="1" fill="#0BB908" />
<rect x="16" y="7" width="1" height="1" fill="#07B806" />
<rect x="17" y="7" width="1" height="1" fill="#0BB30D" />
<rect x="18" y="7" width="1" height="1" fill="#1CA61F" />
<rect x="19" y="7" width="1" height="1" fill="#3B8F3C" />
<rect x="20" y="7" width="1" height="1" fill="#001200" />
<rect x="4" y="8" width="1" height="1" fill="#000900" />
<rect x="5" y="8" width="1" height="1" fill="#1F5C1A" />
<rect x="6" y="8" width="1" height="1" fill="#11660C" />
<rect x="7" y="8" width="1" height="1" fill="#0E6906" />
<rect x="8" y="8" width="1" height="1" fill="#047000" />
<rect x="9" y="8" width="1" height="1" fill="#23A819" />
<rect x="10" y="8" width="1" height="1" fill="#18A90F" />
<rect x="11" y="8" width="1" height="1" fill="#16AA12" />
<rect x="12" y="8" width="1" height="1" fill="#1DAB1B" />
<rect x="13" y="8" width="1" height="1" fill="#007800" />
<rect x="14" y="8" width="1" height="1" fill="#007900" />
<rect x="15" y="8" width="1" height="1" fill="#10B10E" />
<rect x="16" y="8" width="1" height="1" fill="#12B30F" />
<rect x="17" y="8" width="1" height="1" fill="#007C00" />
<rect x="18" y="8" width="1" height="1" fill="#007500" />
<rect x="19" y="8" width="1" height="1" fill="#2EA02E" />
<rect x="20" y="8" width="1" height="1" fill="#002100" />
<rect x="21" y="8" width="1" height="1" fill="#000D00" />
<rect x="4" y="9" width="1" height="1" fill="#000B00" />
<rect x="5" y="9" width="1" height="1" fill="#176210" />
<rect x="6" y="9" width="1" height="1" fill="#0B6B02" />
<rect x="7" y="9" width="1" height="1" fill="#0F6904" />
<rect x="8" y="9" width="1" height="1" fill="#0C6B00" />
<rect x="9" y="9" width="1" height="1" fill="#047300" />
<rect x="10" y="9" width="1" height="1" fill="#007700" />
<rect x="11" y="9" width="1" height="1" fill="#007700" />
<rect x="12" y="9" width="1" height="1" fill="#017500" />
<rect x="13" y="9" width="1" height="1" fill="#0C6C00" />
<rect x="14" y="9" width="1" height="1" fill="#086D00" />
<rect x="15" y="9" width="1" height="1" fill="#21A31A" />
<rect x="16" y="9" width="1" height="1" fill="#007900" />
<rect x="17" y="9" width="1" height="1" fill="#0C6B00" />
<rect x="18" y="9" width="1" height="1" fill="#0F6B01" />
<rect x="19" y="9" width="1" height="1" fill="#2AA225" />
<rect x="20" y="9" width="1" height="1" fill="#329731" />
<rect x="21" y="9" width="1" height="1" fill="#000C00" />
<rect x="4" y="10" width="1" height="1" fill="#000B00" />
<rect x="5" y="10" width="1" height="1" fill="#176212" />
<rect x="6" y="10" width="1" height="1" fill="#0E6904" />
<rect x="7" y="10" width="1" height="1" fill="#146606" />
<rect x="8" y="10" width="1" height="1" fill="#166504" />
<rect x="9" y="10" width="1" height="1" fill="#116700" />
<rect x="10" y="10" width="1" height="1" fill="#116900" />
<rect x="11" y="10" width="1" height="1" fill="#0F6A00" />
<rect x="12" y="10" width="1" height="1" fill="#136600" />
<rect x="13" y="10" width="1" height="1" fill="#1C5B00" />
<rect x="14" y="10" width="1" height="1" fill="#205E03" />
<rect x="15" y="10" width="1" height="1" fill="#146602" />
<rect x="16" y="10" width="1" height="1" fill="#166303" />
<rect x="17" y="10" width="1" height="1" fill="#2C590A" />
<rect x="18" y="10" width="1" height="1" fill="#205700" />
<rect x="19" y="10" width="1" height="1" fill="#047100" />
<rect x="20" y="10" width="1" height="1" fill="#34992E" />
<rect x="21" y="10" width="1" height="1" fill="#001000" />
<rect x="4" y="11" width="1" height="1" fill="#000900" />
<rect x="5" y="11" width="1" height="1" fill="#215B1C" />
<rect x="6" y="11" width="1" height="1" fill="#196112" />
<rect x="7" y="11" width="1" height="1" fill="#1C6010" />
<rect x="8" y="11" width="1" height="1" fill="#215E0E" />
<rect x="9" y="11" width="1" height="1" fill="#215906" />
<rect x="10" y="11" width="1" height="1" fill="#245E06" />
<rect x="11" y="11" width="1" height="1" fill="#215F06" />
<rect x="12" y="11" width="1" height="1" fill="#1F5B02" />
<rect x="13" y="11" width="1" height="1" fill="#215600" />
<rect x="14" y="11" width="1" height="1" fill="#285909" />
<rect x="15" y="11" width="1" height="1" fill="#255D11" />
<rect x="16" y="11" width="1" height="1" fill="#26530F" />
<rect x="17" y="11" width="1" height="1" fill="#36490E" />
<rect x="18" y="11" width="1" height="1" fill="#32520C" />
<rect x="19" y="11" width="1" height="1" fill="#146604" />
<rect x="20" y="11" width="1" height="1" fill="#3F8F39" />
<rect x="21" y="11" width="1" height="1" fill="#000D00" />
<rect x="4" y="12" width="1" height="1" fill="#000500" />
<rect x="5" y="12" width="1" height="1" fill="#000A00" />
<rect x="6" y="12" width="1" height="1" fill="#2C522A" />
<rect x="7" y="12" width="1" height="1" fill="#285423" />
<rect x="8" y="12" width="1" height="1" fill="#2D561D" />
<rect x="9" y="12" width="1" height="1" fill="#324F0E" />
<rect x="10" y="12" width="1" height="1" fill="#38540D" />
<rect x="11" y="12" width="1" height="1" fill="#2E5607" />
<rect x="12" y="12" width="1" height="1" fill="#245601" />
<rect x="13" y="12" width="1" height="1" fill="#225E06" />
<rect x="14" y="12" width="1" height="1" fill="#215E0C" />
<rect x="15" y="12" width="1" height="1" fill="#24571B" />
<rect x="16" y="12" width="1" height="1" fill="#2E5121" />
<rect x="17" y="12" width="1" height="1" fill="#384A19" />
<rect x="18" y="12" width="1" height="1" fill="#3D4E1F" />
<rect x="19" y="12" width="1" height="1" fill="#2F5427" />
<rect x="20" y="12" width="1" height="1" fill="#000E00" />
<rect x="21" y="12" width="1" height="1" fill="#000800" />
<rect x="5" y="13" width="1" height="1" fill="#000100" />
<rect x="6" y="13" width="1" height="1" fill="#000800" />
<rect x="7" y="13" width="1" height="1" fill="#000800" />
<rect x="8" y="13" width="1" height="1" fill="#000A00" />
<rect x="9" y="13" width="1" height="1" fill="#3C471D" />
<rect x="10" y="13" width="1" height="1" fill="#3E4611" />
<rect x="11" y="13" width="1" height="1" fill="#3E4F0E" />
<rect x="12" y="13" width="1" height="1" fill="#334F03" />
<rect x="13" y="13" width="1" height="1" fill="#275101" />
<rect x="14" y="13" width="1" height="1" fill="#2F5811" />
<rect x="15" y="13" width="1" height="1" fill="#000D00" />
<rect x="16" y="13" width="1" height="1" fill="#000A00" />
<rect x="17" y="13" width="1" height="1" fill="#3B451F" />
<rect x="18" y="13" width="1" height="1" fill="#000700" />
<rect x="19" y="13" width="1" height="1" fill="#000500" />
<rect x="20" y="13" width="1" height="1" fill="#000400" />
<rect x="8" y="14" width="1" height="1" fill="#000400" />
<rect x="9" y="14" width="1" height="1" fill="#010400" />
<rect x="10" y="14" width="1" height="1" fill="#403E21" />
<rect x="11" y="14" width="1" height="1" fill="#46410E" />
<rect x="12" y="14" width="1" height="1" fill="#4A4408" />
<rect x="13" y="14" width="1" height="1" fill="#474309" />
<rect x="14" y="14" width="1" height="1" fill="#47420F" />
<rect x="15" y="14" width="1" height="1" fill="#0C0000" />
<rect x="16" y="14" width="1" height="1" fill="#493E1D" />
<rect x="17" y="14" width="1" height="1" fill="#454027" />
<rect x="18" y="14" width="1" height="1" fill="#000000" />
<rect x="9" y="15" width="1" height="1" fill="#040200" />
<rect x="10" y="15" width="1" height="1" fill="#0A0100" />
<rect x="11" y="15" width="1" height="1" fill="#533E18" />
<rect x="12" y="15" width="1" height="1" fill="#573B09" />
<rect x="13" y="15" width="1" height="1" fill="#593A0B" />
<rect x="14" y="15" width="1" height="1" fill="#563810" />
<rect x="15" y="15" width="1" height="1" fill="#604525" />
<rect x="16" y="15" width="1" height="1" fill="#5A452C" />
<rect x="17" y="15" width="1" height="1" fill="#0B0000" />
<rect x="10" y="16" width="1" height="1" fill="#0B0000" />
<rect x="11" y="16" width="1" height="1" fill="#503913" />
<rect x="12" y="16" width="1" height="1" fill="#593806" />
<rect x="13" y="16" width="1" height="1" fill="#5F3707" />
<rect x="14" y="16" width="1" height="1" fill="#644119" />
<rect x="15" y="16" width="1" height="1" fill="#5B462D" />
<rect x="16" y="16" width="1" height="1" fill="#0C0000" />
<rect x="17" y="16" width="1" height="1" fill="#060000" />
<rect x="10" y="17" width="1" height="1" fill="#0A0000" />
<rect x="11" y="17" width="1" height="1" fill="#513A14" />
<rect x="12" y="17" width="1" height="1" fill="#5B3806" />
<rect x="13" y="17" width="1" height="1" fill="#613705" />
<rect x="14" y="17" width="1" height="1" fill="#68431B" />
<rect x="15" y="17" width="1" height="1" fill="#0D0000" />
<rect x="16" y="17" width="1" height="1" fill="#080300" />
<rect x="10" y="18" width="1" height="1" fill="#070000" />
<rect x="11" y="18" width="1" height="1" fill="#513C15" />
<rect x="12" y="18" width="1" height="1" fill="#5A3A07" />
<rect x="13" y="18" width="1" height="1" fill="#6E4412" />
<rect x="14" y="18" width="1" height="1" fill="#66431D" />
<rect x="15" y="18" width="1" height="1" fill="#0A0000" />
<rect x="10" y="19" width="1" height="1" fill="#060000" />
<rect x="11" y="19" width="1" height="1" fill="#523D19" />
<rect x="12" y="19" width="1" height="1" fill="#5A3909" />
<rect x="13" y="19" width="1" height="1" fill="#623A0A" />
<rect x="14" y="19" width="1" height="1" fill="#664520" />
<rect x="15" y="19" width="1" height="1" fill="#090000" />
<rect x="9" y="20" width="1" height="1" fill="#020000" />
<rect x="10" y="20" width="1" height="1" fill="#0C0000" />
<rect x="11" y="20" width="1" height="1" fill="#543A17" />
<rect x="12" y="20" width="1" height="1" fill="#59370C" />
<rect x="13" y="20" width="1" height="1" fill="#60380A" />
<rect x="14" y="20" width="1" height="1" fill="#63431E" />
<rect x="15" y="20" width="1" height="1" fill="#0C0000" />
<rect x="16" y="20" width="1" height="1" fill="#030000" />
<rect x="8" y="21" width="1" height="1" fill="#000000" />
<rect x="9" y="21" width="1" height="1" fill="#080300" />
<rect x="10" y="21" width="1" height="1" fill="#493C2C" />
<rect x="11" y="21" width="1" height="1" fill="#51381C" />
<rect x="12" y="21" width="1" height="1" fill="#573915" />
<rect x="13" y="21" width="1" height="1" fill="#593813" />
<rect x="14" y="21" width="1" height="1" fill="#614626" />
<rect x="15" y="21" width="1" height="1" fill="#584633" />
<rect x="16" y="21" width="1" height="1" fill="#070000" />
<rect x="17" y="21" width="1" height="1" fill="#050000" />
<rect x="8" y="22" width="1" height="1" fill="#020000" />
<rect x="9" y="22" width="1" height="1" fill="#453E33" />
<rect x="10" y="22" width="1" height="1" fill="#483A2A" />
<rect x="11" y="22" width="1" height="1" fill="#503C2A" />
<rect x="12" y="22" width="1" height="1" fill="#4F3925" />
<rect x="13" y="22" width="1" height="1" fill="#4D3C27" />
<rect x="14" y="22" width="1" height="1" fill="#4D3C27" />
<rect x="15" y="22" width="1" height="1" fill="#564230" />
<rect x="16" y="22" width="1" height="1" fill="#574436" />
<rect x="17" y="22" width="1" height="1" fill="#080000" />
<rect x="8" y="23" width="1" height="1" fill="#020000" />
<rect x="9" y="23" width="1" height="1" fill="#050000" />
<rect x="10" y="23" width="1" height="1" fill="#070000" />
<rect x="11" y="23" width="1" height="1" fill="#0B0000" />
<rect x="12" y="23" width="1" height="1" fill="#0A0000" />
<rect x="13" y="23" width="1" height="1" fill="#040000" />
<rect x="14" y="23" width="1" height="1" fill="#090000" />
<rect x="15" y="23" width="1" height="1" fill="#0E0000" />
<rect x="16" y="23" width="1" height="1" fill="#0C0000" />
<rect x="17" y="23" width="1" height="1" fill="#080000" />
</svg>