<?xml version="1.0" encoding="UTF-8" ?>
<svg version="1.1" width="25" height="25" xmlns="http://www.w3.org/2000/svg">
<rect x="9" y="2" width="1" height="1" fill="#020000" />
<rect x="10" y="2" width="1" height="1" fill="#040300" />
<rect x="11" y="2" width="1" height="1" fill="#030200" />
<rect x="8" y="3" width="1" height="1" fill="#060100" />
<rect x="9" y="3" width="1" height="1" fill="#060000" />
<rect x="10" y="3" width="1" height="1" fill="#AEA79A" />
<rect x="11" y="3" width="1" height="1" fill="#ADA69A" />
<rect x="12" y="3" width="1" height="1" fill="#040000" />
<rect x="13" y="3" width="1" height="1" fill="#080100" />
<rect x="14" y="3" width="1" height="1" fill="#040000" />
<rect x="7" y="4" width="1" height="1" fill="#0B0000" />
<rect x="8" y="4" width="1" height="1" fill="#0F0000" />
<rect x="9" y="4" width="1" height="1" fill="#B7A78F" />
<rect x="10" y="4" width="1" height="1" fill="#B5A588" />
<rect x="11" y="4" width="1" height="1" fill="#B3A28A" />
<rect x="12" y="4" width="1" height="1" fill="#4C3C21" />
<rect x="13" y="4" width="1" height="1" fill="#B8A484" />
<rect x="14" y="4" width="1" height="1" fill="#B8A589" />
<rect x="15" y="4" width="1" height="1" fill="#080000" />
<rect x="6" y="5" width="1" height="1" fill="#070000" />
<rect x="7" y="5" width="1" height="1" fill="#B2A293" />
<rect x="8" y="5" width="1" height="1" fill="#B8A38A" />
<rect x="9" y="5" width="1" height="1" fill="#523C1B" />
<rect x="10" y="5" width="1" height="1" fill="#BBA583" />
<rect x="11" y="5" width="1" height="1" fill="#4B391D" />
<rect x="12" y="5" width="1" height="1" fill="#B8A486" />
<rect x="13" y="5" width="1" height="1" fill="#BAA37B" />
<rect x="14" y="5" width="1" height="1" fill="#BBA380" />
<rect x="15" y="5" width="1" height="1" fill="#483925" />
<rect x="16" y="5" width="1" height="1" fill="#090000" />
<rect x="5" y="6" width="1" height="1" fill="#060000" />
<rect x="6" y="6" width="1" height="1" fill="#090000" />
<rect x="7" y="6" width="1" height="1" fill="#BAA787" />
<rect x="8" y="6" width="1" height="1" fill="#BBA47C" />
<rect x="9" y="6" width="1" height="1" fill="#BCA581" />
<rect x="10" y="6" width="1" height="1" fill="#50391A" />
<rect x="11" y="6" width="1" height="1" fill="#4A3D21" />
<rect x="12" y="6" width="1" height="1" fill="#B2A68A" />
<rect x="13" y="6" width="1" height="1" fill="#B9A585" />
<rect x="14" y="6" width="1" height="1" fill="#BAA482" />
<rect x="15" y="6" width="1" height="1" fill="#553C1E" />
<rect x="16" y="6" width="1" height="1" fill="#B6A38E" />
<rect x="17" y="6" width="1" height="1" fill="#080000" />
<rect x="5" y="7" width="1" height="1" fill="#070000" />
<rect x="6" y="7" width="1" height="1" fill="#B8A88E" />
<rect x="7" y="7" width="1" height="1" fill="#BBA67D" />
<rect x="8" y="7" width="1" height="1" fill="#BCA379" />
<rect x="9" y="7" width="1" height="1" fill="#BCA581" />
<rect x="10" y="7" width="1" height="1" fill="#BCA78A" />
<rect x="11" y="7" width="1" height="1" fill="#4A3E25" />
<rect x="12" y="7" width="1" height="1" fill="#483F25" />
<rect x="13" y="7" width="1" height="1" fill="#B6A586" />
<rect x="14" y="7" width="1" height="1" fill="#523C1D" />
<rect x="15" y="7" width="1" height="1" fill="#BFA688" />
<rect x="16" y="7" width="1" height="1" fill="#B8A38A" />
<rect x="17" y="7" width="1" height="1" fill="#443928" />
<rect x="18" y="7" width="1" height="1" fill="#070200" />
<rect x="4" y="8" width="1" height="1" fill="#020000" />
<rect x="5" y="8" width="1" height="1" fill="#B7A98C" />
<rect x="6" y="8" width="1" height="1" fill="#BBA67F" />
<rect x="7" y="8" width="1" height="1" fill="#BFA782" />
<rect x="8" y="8" width="1" height="1" fill="#BBA380" />
<rect x="9" y="8" width="1" height="1" fill="#533D1E" />
<rect x="10" y="8" width="1" height="1" fill="#B8A589" />
<rect x="11" y="8" width="1" height="1" fill="#B3A58A" />
<rect x="12" y="8" width="1" height="1" fill="#4A3D21" />
<rect x="13" y="8" width="1" height="1" fill="#4E3C1B" />
<rect x="14" y="8" width="1" height="1" fill="#B9A587" />
<rect x="15" y="8" width="1" height="1" fill="#B6A38C" />
<rect x="16" y="8" width="1" height="1" fill="#4B3A24" />
<rect x="17" y="8" width="1" height="1" fill="#4B3B20" />
<rect x="18" y="8" width="1" height="1" fill="#B4A891" />
<rect x="19" y="8" width="1" height="1" fill="#020000" />
<rect x="4" y="9" width="1" height="1" fill="#050000" />
<rect x="5" y="9" width="1" height="1" fill="#B7A985" />
<rect x="6" y="9" width="1" height="1" fill="#BCA87C" />
<rect x="7" y="9" width="1" height="1" fill="#BCA57F" />
<rect x="8" y="9" width="1" height="1" fill="#553D1C" />
<rect x="9" y="9" width="1" height="1" fill="#523B1F" />
<rect x="10" y="9" width="1" height="1" fill="#B9A589" />
<rect x="11" y="9" width="1" height="1" fill="#B4A68D" />
<rect x="12" y="9" width="1" height="1" fill="#4C3E23" />
<rect x="13" y="9" width="1" height="1" fill="#B8A589" />
<rect x="14" y="9" width="1" height="1" fill="#B9A68D" />
<rect x="15" y="9" width="1" height="1" fill="#4D3E2A" />
<rect x="16" y="9" width="1" height="1" fill="#4A3C28" />
<rect x="17" y="9" width="1" height="1" fill="#B8A98C" />
<rect x="18" y="9" width="1" height="1" fill="#B4A891" />
<rect x="19" y="9" width="1" height="1" fill="#010000" />
<rect x="4" y="10" width="1" height="1" fill="#060100" />
<rect x="5" y="10" width="1" height="1" fill="#B3A686" />
<rect x="6" y="10" width="1" height="1" fill="#B9A77D" />
<rect x="7" y="10" width="1" height="1" fill="#BEA47F" />
<rect x="8" y="10" width="1" height="1" fill="#BEA280" />
<rect x="9" y="10" width="1" height="1" fill="#BEA383" />
<rect x="10" y="10" width="1" height="1" fill="#50391E" />
<rect x="11" y="10" width="1" height="1" fill="#503F29" />
<rect x="12" y="10" width="1" height="1" fill="#4C3D29" />
<rect x="13" y="10" width="1" height="1" fill="#4C3D27" />
<rect x="14" y="10" width="1" height="1" fill="#483A23" />
<rect x="15" y="10" width="1" height="1" fill="#4C3D27" />
<rect x="16" y="10" width="1" height="1" fill="#B4A891" />
<rect x="17" y="10" width="1" height="1" fill="#B1A993" />
<rect x="18" y="10" width="1" height="1" fill="#060000" />
<rect x="5" y="11" width="1" height="1" fill="#060000" />
<rect x="6" y="11" width="1" height="1" fill="#B7A889" />
<rect x="7" y="11" width="1" height="1" fill="#BEA585" />
<rect x="8" y="11" width="1" height="1" fill="#C1A483" />
<rect x="9" y="11" width="1" height="1" fill="#BEA280" />
<rect x="10" y="11" width="1" height="1" fill="#BCA485" />
<rect x="11" y="11" width="1" height="1" fill="#4D3C27" />
<rect x="12" y="11" width="1" height="1" fill="#B4A591" />
<rect x="13" y="11" width="1" height="1" fill="#B6A791" />
<rect x="14" y="11" width="1" height="1" fill="#4C3D25" />
<rect x="15" y="11" width="1" height="1" fill="#493B22" />
<rect x="16" y="11" width="1" height="1" fill="#B3A78F" />
<rect x="17" y="11" width="1" height="1" fill="#464030" />
<rect x="18" y="11" width="1" height="1" fill="#040100" />
<rect x="6" y="12" width="1" height="1" fill="#0A0100" />
<rect x="7" y="12" width="1" height="1" fill="#B5A58A" />
<rect x="8" y="12" width="1" height="1" fill="#BCA685" />
<rect x="9" y="12" width="1" height="1" fill="#BEA47F" />
<rect x="10" y="12" width="1" height="1" fill="#BEA683" />
<rect x="11" y="12" width="1" height="1" fill="#B5A58A" />
<rect x="12" y="12" width="1" height="1" fill="#4D3F26" />
<rect x="13" y="12" width="1" height="1" fill="#B9A789" />
<rect x="14" y="12" width="1" height="1" fill="#B8A687" />
<rect x="15" y="12" width="1" height="1" fill="#4C3C21" />
<rect x="16" y="12" width="1" height="1" fill="#4A3C28" />
<rect x="17" y="12" width="1" height="1" fill="#AEA59A" />
<rect x="18" y="12" width="1" height="1" fill="#060000" />
<rect x="7" y="13" width="1" height="1" fill="#0C0100" />
<rect x="8" y="13" width="1" height="1" fill="#B6A488" />
<rect x="9" y="13" width="1" height="1" fill="#BCA57F" />
<rect x="10" y="13" width="1" height="1" fill="#BCA57D" />
<rect x="11" y="13" width="1" height="1" fill="#4F3D1D" />
<rect x="12" y="13" width="1" height="1" fill="#4D3E1F" />
<rect x="13" y="13" width="1" height="1" fill="#503F1E" />
<rect x="14" y="13" width="1" height="1" fill="#BAA785" />
<rect x="15" y="13" width="1" height="1" fill="#B9A587" />
<rect x="16" y="13" width="1" height="1" fill="#B6A58F" />
<rect x="17" y="13" width="1" height="1" fill="#0A0100" />
<rect x="18" y="13" width="1" height="1" fill="#030000" />
<rect x="7" y="14" width="1" height="1" fill="#040000" />
<rect x="8" y="14" width="1" height="1" fill="#B1A48D" />
<rect x="9" y="14" width="1" height="1" fill="#BCA783" />
<rect x="10" y="14" width="1" height="1" fill="#BFA67C" />
<rect x="11" y="14" width="1" height="1" fill="#BBA47E" />
<rect x="12" y="14" width="1" height="1" fill="#B9A381" />
<rect x="13" y="14" width="1" height="1" fill="#4F3D1F" />
<rect x="14" y="14" width="1" height="1" fill="#BAA689" />
<rect x="15" y="14" width="1" height="1" fill="#BEA481" />
<rect x="16" y="14" width="1" height="1" fill="#B8A486" />
<rect x="17" y="14" width="1" height="1" fill="#060000" />
<rect x="8" y="15" width="1" height="1" fill="#090100" />
<rect x="9" y="15" width="1" height="1" fill="#BCA685" />
<rect x="10" y="15" width="1" height="1" fill="#C0A47B" />
<rect x="11" y="15" width="1" height="1" fill="#C1A67A" />
<rect x="12" y="15" width="1" height="1" fill="#BDA37C" />
<rect x="13" y="15" width="1" height="1" fill="#4E3A1A" />
<rect x="14" y="15" width="1" height="1" fill="#4E3A1C" />
<rect x="15" y="15" width="1" height="1" fill="#BCA581" />
<rect x="16" y="15" width="1" height="1" fill="#B8A486" />
<rect x="17" y="15" width="1" height="1" fill="#040000" />
<rect x="8" y="16" width="1" height="1" fill="#080100" />
<rect x="9" y="16" width="1" height="1" fill="#BCA687" />
<rect x="10" y="16" width="1" height="1" fill="#C1A479" />
<rect x="11" y="16" width="1" height="1" fill="#C1A477" />
<rect x="12" y="16" width="1" height="1" fill="#C1A479" />
<rect x="13" y="16" width="1" height="1" fill="#553B17" />
<rect x="14" y="16" width="1" height="1" fill="#B9A381" />
<rect x="15" y="16" width="1" height="1" fill="#B8A589" />
<rect x="16" y="16" width="1" height="1" fill="#0B0000" />
<rect x="17" y="16" width="1" height="1" fill="#040200" />
<rect x="8" y="17" width="1" height="1" fill="#080100" />
<rect x="9" y="17" width="1" height="1" fill="#BBA585" />
<rect x="10" y="17" width="1" height="1" fill="#C1A479" />
<rect x="11" y="17" width="1" height="1" fill="#C1A477" />
<rect x="12" y="17" width="1" height="1" fill="#C1A477" />
<rect x="13" y="17" width="1" height="1" fill="#C0A47B" />
<rect x="14" y="17" width="1" height="1" fill="#BCA581" />
<rect x="15" y="17" width="1" height="1" fill="#B4A38B" />
<rect x="16" y="17" width="1" height="1" fill="#0A0100" />
<rect x="8" y="18" width="1" height="1" fill="#060000" />
<rect x="9" y="18" width="1" height="1" fill="#BCA483" />
<rect x="10" y="18" width="1" height="1" fill="#C1A479" />
<rect x="11" y="18" width="1" height="1" fill="#BEA579" />
<rect x="12" y="18" width="1" height="1" fill="#BEA579" />
<rect x="13" y="18" width="1" height="1" fill="#BFA67A" />
<rect x="14" y="18" width="1" height="1" fill="#BAA27F" />
<rect x="15" y="18" width="1" height="1" fill="#B7A691" />
<rect x="16" y="18" width="1" height="1" fill="#0A0000" />
<rect x="8" y="19" width="1" height="1" fill="#060000" />
<rect x="9" y="19" width="1" height="1" fill="#BCA483" />
<rect x="10" y="19" width="1" height="1" fill="#C1A479" />
<rect x="11" y="19" width="1" height="1" fill="#BEA579" />
<rect x="12" y="19" width="1" height="1" fill="#BCA679" />
<rect x="13" y="19" width="1" height="1" fill="#BEA579" />
<rect x="14" y="19" width="1" height="1" fill="#BCA581" />
<rect x="15" y="19" width="1" height="1" fill="#B6A390" />
<rect x="16" y="19" width="1" height="1" fill="#060000" />
<rect x="8" y="20" width="1" height="1" fill="#060000" />
<rect x="9" y="20" width="1" height="1" fill="#B7A381" />
<rect x="10" y="20" width="1" height="1" fill="#BFA778" />
<rect x="11" y="20" width="1" height="1" fill="#BEA378" />
<rect x="12" y="20" width="1" height="1" fill="#C1A67A" />
<rect x="13" y="20" width="1" height="1" fill="#C0A47B" />
<rect x="14" y="20" width="1" height="1" fill="#BFA686" />
<rect x="15" y="20" width="1" height="1" fill="#B9A593" />
<rect x="16" y="20" width="1" height="1" fill="#070000" />
<rect x="8" y="21" width="1" height="1" fill="#070200" />
<rect x="9" y="21" width="1" height="1" fill="#B4A78B" />
<rect x="10" y="21" width="1" height="1" fill="#B8A582" />
<rect x="11" y="21" width="1" height="1" fill="#B9A381" />
<rect x="12" y="21" width="1" height="1" fill="#BAA384" />
<rect x="13" y="21" width="1" height="1" fill="#B9A585" />
<rect x="14" y="21" width="1" height="1" fill="#B8A58B" />
<rect x="15" y="21" width="1" height="1" fill="#B3A696" />
<rect x="16" y="21" width="1" height="1" fill="#0D0200" />
</svg>