<?xml version="1.0" encoding="UTF-8" ?>
<svg version="1.1" width="25" height="25" xmlns="http://www.w3.org/2000/svg">
<rect x="3" y="3" width="1" height="1" fill="#120000" />
<rect x="4" y="3" width="1" height="1" fill="#180000" />
<rect x="5" y="3" width="1" height="1" fill="#1B0000" />
<rect x="6" y="3" width="1" height="1" fill="#1D0000" />
<rect x="7" y="3" width="1" height="1" fill="#1E0000" />
<rect x="8" y="3" width="1" height="1" fill="#170000" />
<rect x="9" y="3" width="1" height="1" fill="#0E0000" />
<rect x="15" y="3" width="1" height="1" fill="#0C0000" />
<rect x="16" y="3" width="1" height="1" fill="#0D0000" />
<rect x="17" y="3" width="1" height="1" fill="#120000" />
<rect x="18" y="3" width="1" height="1" fill="#0E0000" />
<rect x="19" y="3" width="1" height="1" fill="#0D0000" />
<rect x="20" y="3" width="1" height="1" fill="#0B0000" />
<rect x="21" y="3" width="1" height="1" fill="#050000" />
<rect x="2" y="4" width="1" height="1" fill="#140000" />
<rect x="3" y="4" width="1" height="1" fill="#2D0000" />
<rect x="4" y="4" width="1" height="1" fill="#B45B30" />
<rect x="5" y="4" width="1" height="1" fill="#BF5822" />
<rect x="6" y="4" width="1" height="1" fill="#C6561C" />
<rect x="7" y="4" width="1" height="1" fill="#C6561E" />
<rect x="8" y="4" width="1" height="1" fill="#B95A2A" />
<rect x="9" y="4" width="1" height="1" fill="#310000" />
<rect x="10" y="4" width="1" height="1" fill="#170000" />
<rect x="11" y="4" width="1" height="1" fill="#0A0000" />
<rect x="13" y="4" width="1" height="1" fill="#0A0100" />
<rect x="14" y="4" width="1" height="1" fill="#100000" />
<rect x="15" y="4" width="1" height="1" fill="#220000" />
<rect x="16" y="4" width="1" height="1" fill="#703C1E" />
<rect x="17" y="4" width="1" height="1" fill="#723F1E" />
<rect x="18" y="4" width="1" height="1" fill="#71401A" />
<rect x="19" y="4" width="1" height="1" fill="#6B4016" />
<rect x="20" y="4" width="1" height="1" fill="#664522" />
<rect x="21" y="4" width="1" height="1" fill="#0B0000" />
<rect x="22" y="4" width="1" height="1" fill="#040100" />
<rect x="2" y="5" width="1" height="1" fill="#1D0000" />
<rect x="3" y="5" width="1" height="1" fill="#B45B30" />
<rect x="4" y="5" width="1" height="1" fill="#CE5414" />
<rect x="5" y="5" width="1" height="1" fill="#D95106" />
<rect x="6" y="5" width="1" height="1" fill="#DF4E02" />
<rect x="7" y="5" width="1" height="1" fill="#E14D04" />
<rect x="8" y="5" width="1" height="1" fill="#D45110" />
<rect x="9" y="5" width="1" height="1" fill="#BC5B27" />
<rect x="10" y="5" width="1" height="1" fill="#A66138" />
<rect x="11" y="5" width="1" height="1" fill="#250000" />
<rect x="12" y="5" width="1" height="1" fill="#1E0000" />
<rect x="13" y="5" width="1" height="1" fill="#230000" />
<rect x="14" y="5" width="1" height="1" fill="#824B27" />
<rect x="15" y="5" width="1" height="1" fill="#924821" />
<rect x="16" y="5" width="1" height="1" fill="#97451C" />
<rect x="17" y="5" width="1" height="1" fill="#853608" />
<rect x="18" y="5" width="1" height="1" fill="#803606" />
<rect x="19" y="5" width="1" height="1" fill="#7D3F0B" />
<rect x="20" y="5" width="1" height="1" fill="#6E3F12" />
<rect x="21" y="5" width="1" height="1" fill="#5F462A" />
<rect x="22" y="5" width="1" height="1" fill="#070000" />
<rect x="1" y="6" width="1" height="1" fill="#0C0000" />
<rect x="2" y="6" width="1" height="1" fill="#240000" />
<rect x="3" y="6" width="1" height="1" fill="#C05925" />
<rect x="4" y="6" width="1" height="1" fill="#D45109" />
<rect x="5" y="6" width="1" height="1" fill="#DA5004" />
<rect x="6" y="6" width="1" height="1" fill="#DC5002" />
<rect x="7" y="6" width="1" height="1" fill="#DD4F04" />
<rect x="8" y="6" width="1" height="1" fill="#D95008" />
<rect x="9" y="6" width="1" height="1" fill="#CE5211" />
<rect x="10" y="6" width="1" height="1" fill="#C95616" />
<rect x="11" y="6" width="1" height="1" fill="#C6571A" />
<rect x="12" y="6" width="1" height="1" fill="#C2551A" />
<rect x="13" y="6" width="1" height="1" fill="#C6561C" />
<rect x="14" y="6" width="1" height="1" fill="#C5581F" />
<rect x="15" y="6" width="1" height="1" fill="#A93C0D" />
<rect x="16" y="6" width="1" height="1" fill="#AC4113" />
<rect x="17" y="6" width="1" height="1" fill="#A43C0E" />
<rect x="18" y="6" width="1" height="1" fill="#913404" />
<rect x="19" y="6" width="1" height="1" fill="#813A07" />
<rect x="20" y="6" width="1" height="1" fill="#743E11" />
<rect x="21" y="6" width="1" height="1" fill="#68401E" />
<rect x="22" y="6" width="1" height="1" fill="#130000" />
<rect x="23" y="6" width="1" height="1" fill="#080000" />
<rect x="1" y="7" width="1" height="1" fill="#120000" />
<rect x="2" y="7" width="1" height="1" fill="#9B6341" />
<rect x="3" y="7" width="1" height="1" fill="#C6571A" />
<rect x="4" y="7" width="1" height="1" fill="#DA5006" />
<rect x="5" y="7" width="1" height="1" fill="#DA5102" />
<rect x="6" y="7" width="1" height="1" fill="#DA5102" />
<rect x="7" y="7" width="1" height="1" fill="#DC5002" />
<rect x="8" y="7" width="1" height="1" fill="#DC5004" />
<rect x="9" y="7" width="1" height="1" fill="#DB4E03" />
<rect x="10" y="7" width="1" height="1" fill="#DB4E03" />
<rect x="11" y="7" width="1" height="1" fill="#DD5103" />
<rect x="12" y="7" width="1" height="1" fill="#DF5003" />
<rect x="13" y="7" width="1" height="1" fill="#DD4F04" />
<rect x="14" y="7" width="1" height="1" fill="#D84F0B" />
<rect x="15" y="7" width="1" height="1" fill="#BA3800" />
<rect x="16" y="7" width="1" height="1" fill="#B33A06" />
<rect x="17" y="7" width="1" height="1" fill="#B13D09" />
<rect x="18" y="7" width="1" height="1" fill="#A23C0A" />
<rect x="19" y="7" width="1" height="1" fill="#863908" />
<rect x="20" y="7" width="1" height="1" fill="#793C0F" />
<rect x="21" y="7" width="1" height="1" fill="#6F3D13" />
<rect x="22" y="7" width="1" height="1" fill="#644323" />
<rect x="23" y="7" width="1" height="1" fill="#0A0000" />
<rect x="1" y="8" width="1" height="1" fill="#1E0000" />
<rect x="2" y="8" width="1" height="1" fill="#A96036" />
<rect x="3" y="8" width="1" height="1" fill="#CD5517" />
<rect x="4" y="8" width="1" height="1" fill="#DD5105" />
<rect x="5" y="8" width="1" height="1" fill="#DC5002" />
<rect x="6" y="8" width="1" height="1" fill="#DC5002" />
<rect x="7" y="8" width="1" height="1" fill="#DA5102" />
<rect x="8" y="8" width="1" height="1" fill="#DC5000" />
<rect x="9" y="8" width="1" height="1" fill="#DC5000" />
<rect x="10" y="8" width="1" height="1" fill="#DC5000" />
<rect x="11" y="8" width="1" height="1" fill="#DC5002" />
<rect x="12" y="8" width="1" height="1" fill="#DC5004" />
<rect x="13" y="8" width="1" height="1" fill="#DD5105" />
<rect x="14" y="8" width="1" height="1" fill="#DB5107" />
<rect x="15" y="8" width="1" height="1" fill="#D64F0B" />
<rect x="16" y="8" width="1" height="1" fill="#B93800" />
<rect x="17" y="8" width="1" height="1" fill="#B23903" />
<rect x="18" y="8" width="1" height="1" fill="#A63E0B" />
<rect x="19" y="8" width="1" height="1" fill="#863707" />
<rect x="20" y="8" width="1" height="1" fill="#7A3B0A" />
<rect x="21" y="8" width="1" height="1" fill="#7B4110" />
<rect x="22" y="8" width="1" height="1" fill="#6B411B" />
<rect x="23" y="8" width="1" height="1" fill="#0B0000" />
<rect x="1" y="9" width="1" height="1" fill="#220000" />
<rect x="2" y="9" width="1" height="1" fill="#AD5B2E" />
<rect x="3" y="9" width="1" height="1" fill="#CE5213" />
<rect x="4" y="9" width="1" height="1" fill="#DC4E03" />
<rect x="5" y="9" width="1" height="1" fill="#DC5002" />
<rect x="6" y="9" width="1" height="1" fill="#DC5000" />
<rect x="7" y="9" width="1" height="1" fill="#DA5100" />
<rect x="8" y="9" width="1" height="1" fill="#DA5100" />
<rect x="9" y="9" width="1" height="1" fill="#DC5100" />
<rect x="10" y="9" width="1" height="1" fill="#DC5100" />
<rect x="11" y="9" width="1" height="1" fill="#DC5002" />
<rect x="12" y="9" width="1" height="1" fill="#DB4E03" />
<rect x="13" y="9" width="1" height="1" fill="#DB4F01" />
<rect x="14" y="9" width="1" height="1" fill="#DB4E03" />
<rect x="15" y="9" width="1" height="1" fill="#D94F05" />
<rect x="16" y="9" width="1" height="1" fill="#D64F0B" />
<rect x="17" y="9" width="1" height="1" fill="#B63900" />
<rect x="18" y="9" width="1" height="1" fill="#A93D09" />
<rect x="19" y="9" width="1" height="1" fill="#863805" />
<rect x="20" y="9" width="1" height="1" fill="#7A3C08" />
<rect x="21" y="9" width="1" height="1" fill="#7B3D09" />
<rect x="22" y="9" width="1" height="1" fill="#6D3F18" />
<rect x="23" y="9" width="1" height="1" fill="#0C0000" />
<rect x="1" y="10" width="1" height="1" fill="#230000" />
<rect x="2" y="10" width="1" height="1" fill="#AF5E30" />
<rect x="3" y="10" width="1" height="1" fill="#D05415" />
<rect x="4" y="10" width="1" height="1" fill="#E04F05" />
<rect x="5" y="10" width="1" height="1" fill="#DD5000" />
<rect x="6" y="10" width="1" height="1" fill="#DC5100" />
<rect x="7" y="10" width="1" height="1" fill="#DA5100" />
<rect x="8" y="10" width="1" height="1" fill="#DA5100" />
<rect x="9" y="10" width="1" height="1" fill="#DA5200" />
<rect x="10" y="10" width="1" height="1" fill="#DC5100" />
<rect x="11" y="10" width="1" height="1" fill="#DD4F02" />
<rect x="12" y="10" width="1" height="1" fill="#DF4E04" />
<rect x="13" y="10" width="1" height="1" fill="#E14D04" />
<rect x="14" y="10" width="1" height="1" fill="#E15006" />
<rect x="15" y="10" width="1" height="1" fill="#DC4D05" />
<rect x="16" y="10" width="1" height="1" fill="#DA510D" />
<rect x="17" y="10" width="1" height="1" fill="#B93700" />
<rect x="18" y="10" width="1" height="1" fill="#AA3D07" />
<rect x="19" y="10" width="1" height="1" fill="#863901" />
<rect x="20" y="10" width="1" height="1" fill="#7A3C06" />
<rect x="21" y="10" width="1" height="1" fill="#7A3F0A" />
<rect x="22" y="10" width="1" height="1" fill="#70441C" />
<rect x="23" y="10" width="1" height="1" fill="#080000" />
<rect x="1" y="11" width="1" height="1" fill="#1D0000" />
<rect x="2" y="11" width="1" height="1" fill="#A95E33" />
<rect x="3" y="11" width="1" height="1" fill="#CE5414" />
<rect x="4" y="11" width="1" height="1" fill="#DF4E04" />
<rect x="5" y="11" width="1" height="1" fill="#DD5000" />
<rect x="6" y="11" width="1" height="1" fill="#DC5000" />
<rect x="7" y="11" width="1" height="1" fill="#DC5002" />
<rect x="8" y="11" width="1" height="1" fill="#DC5002" />
<rect x="9" y="11" width="1" height="1" fill="#DA5200" />
<rect x="10" y="11" width="1" height="1" fill="#DC5100" />
<rect x="11" y="11" width="1" height="1" fill="#DF4E02" />
<rect x="12" y="11" width="1" height="1" fill="#E14E02" />
<rect x="13" y="11" width="1" height="1" fill="#E24E05" />
<rect x="14" y="11" width="1" height="1" fill="#DF4E04" />
<rect x="15" y="11" width="1" height="1" fill="#DB4C04" />
<rect x="16" y="11" width="1" height="1" fill="#DB520E" />
<rect x="17" y="11" width="1" height="1" fill="#B73800" />
<rect x="18" y="11" width="1" height="1" fill="#A93E05" />
<rect x="19" y="11" width="1" height="1" fill="#833800" />
<rect x="20" y="11" width="1" height="1" fill="#783D06" />
<rect x="21" y="11" width="1" height="1" fill="#77400E" />
<rect x="22" y="11" width="1" height="1" fill="#69411F" />
<rect x="23" y="11" width="1" height="1" fill="#0A0000" />
<rect x="1" y="12" width="1" height="1" fill="#140000" />
<rect x="2" y="12" width="1" height="1" fill="#A16241" />
<rect x="3" y="12" width="1" height="1" fill="#CA5518" />
<rect x="4" y="12" width="1" height="1" fill="#DF4E02" />
<rect x="5" y="12" width="1" height="1" fill="#DF4E02" />
<rect x="6" y="12" width="1" height="1" fill="#DC4E01" />
<rect x="7" y="12" width="1" height="1" fill="#DD4F04" />
<rect x="8" y="12" width="1" height="1" fill="#DF5005" />
<rect x="9" y="12" width="1" height="1" fill="#DF4E02" />
<rect x="10" y="12" width="1" height="1" fill="#DF4E02" />
<rect x="11" y="12" width="1" height="1" fill="#E14E00" />
<rect x="12" y="12" width="1" height="1" fill="#E14E00" />
<rect x="13" y="12" width="1" height="1" fill="#E05003" />
<rect x="14" y="12" width="1" height="1" fill="#DC5004" />
<rect x="15" y="12" width="1" height="1" fill="#D95106" />
<rect x="16" y="12" width="1" height="1" fill="#D3510B" />
<rect x="17" y="12" width="1" height="1" fill="#B73A00" />
<rect x="18" y="12" width="1" height="1" fill="#A53C04" />
<rect x="19" y="12" width="1" height="1" fill="#823900" />
<rect x="20" y="12" width="1" height="1" fill="#753E0A" />
<rect x="21" y="12" width="1" height="1" fill="#703E14" />
<rect x="22" y="12" width="1" height="1" fill="#664328" />
<rect x="23" y="12" width="1" height="1" fill="#0B0000" />
<rect x="1" y="13" width="1" height="1" fill="#0C0000" />
<rect x="2" y="13" width="1" height="1" fill="#260000" />
<rect x="3" y="13" width="1" height="1" fill="#BF5826" />
<rect x="4" y="13" width="1" height="1" fill="#D5510E" />
<rect x="5" y="13" width="1" height="1" fill="#DB500B" />
<rect x="6" y="13" width="1" height="1" fill="#DB4C04" />
<rect x="7" y="13" width="1" height="1" fill="#E15008" />
<rect x="8" y="13" width="1" height="1" fill="#DF4E04" />
<rect x="9" y="13" width="1" height="1" fill="#DF4E04" />
<rect x="10" y="13" width="1" height="1" fill="#DF4E02" />
<rect x="11" y="13" width="1" height="1" fill="#DF4F00" />
<rect x="12" y="13" width="1" height="1" fill="#DF4F00" />
<rect x="13" y="13" width="1" height="1" fill="#E05204" />
<rect x="14" y="13" width="1" height="1" fill="#DB5205" />
<rect x="15" y="13" width="1" height="1" fill="#D75108" />
<rect x="16" y="13" width="1" height="1" fill="#BB3B00" />
<rect x="17" y="13" width="1" height="1" fill="#B23A01" />
<rect x="18" y="13" width="1" height="1" fill="#A8410B" />
<rect x="19" y="13" width="1" height="1" fill="#843B02" />
<rect x="20" y="13" width="1" height="1" fill="#73400D" />
<rect x="21" y="13" width="1" height="1" fill="#6A4220" />
<rect x="22" y="13" width="1" height="1" fill="#170000" />
<rect x="23" y="13" width="1" height="1" fill="#080000" />
<rect x="2" y="14" width="1" height="1" fill="#150000" />
<rect x="3" y="14" width="1" height="1" fill="#924526" />
<rect x="4" y="14" width="1" height="1" fill="#AB3F0F" />
<rect x="5" y="14" width="1" height="1" fill="#D25114" />
<rect x="6" y="14" width="1" height="1" fill="#D94E09" />
<rect x="7" y="14" width="1" height="1" fill="#DB4C04" />
<rect x="8" y="14" width="1" height="1" fill="#DC4E03" />
<rect x="9" y="14" width="1" height="1" fill="#DD4F02" />
<rect x="10" y="14" width="1" height="1" fill="#DD5000" />
<rect x="11" y="14" width="1" height="1" fill="#DD5000" />
<rect x="12" y="14" width="1" height="1" fill="#DD5000" />
<rect x="13" y="14" width="1" height="1" fill="#DC5002" />
<rect x="14" y="14" width="1" height="1" fill="#DA5006" />
<rect x="15" y="14" width="1" height="1" fill="#D7520D" />
<rect x="16" y="14" width="1" height="1" fill="#B33700" />
<rect x="17" y="14" width="1" height="1" fill="#AE3A03" />
<rect x="18" y="14" width="1" height="1" fill="#9F3D07" />
<rect x="19" y="14" width="1" height="1" fill="#843B04" />
<rect x="20" y="14" width="1" height="1" fill="#724112" />
<rect x="21" y="14" width="1" height="1" fill="#614329" />
<rect x="22" y="14" width="1" height="1" fill="#090000" />
<rect x="2" y="15" width="1" height="1" fill="#0D0000" />
<rect x="3" y="15" width="1" height="1" fill="#220000" />
<rect x="4" y="15" width="1" height="1" fill="#934725" />
<rect x="5" y="15" width="1" height="1" fill="#AA3E0C" />
<rect x="6" y="15" width="1" height="1" fill="#D15312" />
<rect x="7" y="15" width="1" height="1" fill="#D8520D" />
<rect x="8" y="15" width="1" height="1" fill="#DB5107" />
<rect x="9" y="15" width="1" height="1" fill="#DC5002" />
<rect x="10" y="15" width="1" height="1" fill="#DC5000" />
<rect x="11" y="15" width="1" height="1" fill="#DD5000" />
<rect x="12" y="15" width="1" height="1" fill="#DC5004" />
<rect x="13" y="15" width="1" height="1" fill="#D94E07" />
<rect x="14" y="15" width="1" height="1" fill="#D5510C" />
<rect x="15" y="15" width="1" height="1" fill="#B73900" />
<rect x="16" y="15" width="1" height="1" fill="#AE3A00" />
<rect x="17" y="15" width="1" height="1" fill="#A73E09" />
<rect x="18" y="15" width="1" height="1" fill="#8B3505" />
<rect x="19" y="15" width="1" height="1" fill="#783B0E" />
<rect x="20" y="15" width="1" height="1" fill="#6A4220" />
<rect x="21" y="15" width="1" height="1" fill="#100000" />
<rect x="22" y="15" width="1" height="1" fill="#050000" />
<rect x="3" y="16" width="1" height="1" fill="#0A0000" />
<rect x="4" y="16" width="1" height="1" fill="#1D0000" />
<rect x="5" y="16" width="1" height="1" fill="#92451D" />
<rect x="6" y="16" width="1" height="1" fill="#A73E09" />
<rect x="7" y="16" width="1" height="1" fill="#D05415" />
<rect x="8" y="16" width="1" height="1" fill="#D7510A" />
<rect x="9" y="16" width="1" height="1" fill="#DA5004" />
<rect x="10" y="16" width="1" height="1" fill="#DC5000" />
<rect x="11" y="16" width="1" height="1" fill="#DD4F02" />
<rect x="12" y="16" width="1" height="1" fill="#DA5008" />
<rect x="13" y="16" width="1" height="1" fill="#D3500F" />
<rect x="14" y="16" width="1" height="1" fill="#B43900" />
<rect x="15" y="16" width="1" height="1" fill="#B03C04" />
<rect x="16" y="16" width="1" height="1" fill="#A43E07" />
<rect x="17" y="16" width="1" height="1" fill="#8C3905" />
<rect x="18" y="16" width="1" height="1" fill="#773911" />
<rect x="19" y="16" width="1" height="1" fill="#67422A" />
<rect x="20" y="16" width="1" height="1" fill="#110000" />
<rect x="21" y="16" width="1" height="1" fill="#050000" />
<rect x="4" y="17" width="1" height="1" fill="#0B0000" />
<rect x="5" y="17" width="1" height="1" fill="#240000" />
<rect x="6" y="17" width="1" height="1" fill="#92471E" />
<rect x="7" y="17" width="1" height="1" fill="#A63E0D" />
<rect x="8" y="17" width="1" height="1" fill="#B33800" />
<rect x="9" y="17" width="1" height="1" fill="#D4520C" />
<rect x="10" y="17" width="1" height="1" fill="#D95008" />
<rect x="11" y="17" width="1" height="1" fill="#D9500A" />
<rect x="12" y="17" width="1" height="1" fill="#D5510E" />
<rect x="13" y="17" width="1" height="1" fill="#B33800" />
<rect x="14" y="17" width="1" height="1" fill="#AC3C07" />
<rect x="15" y="17" width="1" height="1" fill="#A33E0C" />
<rect x="16" y="17" width="1" height="1" fill="#8A3708" />
<rect x="17" y="17" width="1" height="1" fill="#793C11" />
<rect x="18" y="17" width="1" height="1" fill="#694123" />
<rect x="19" y="17" width="1" height="1" fill="#0E0000" />
<rect x="20" y="17" width="1" height="1" fill="#050000" />
<rect x="5" y="18" width="1" height="1" fill="#080000" />
<rect x="6" y="18" width="1" height="1" fill="#1B0000" />
<rect x="7" y="18" width="1" height="1" fill="#904322" />
<rect x="8" y="18" width="1" height="1" fill="#A23A0D" />
<rect x="9" y="18" width="1" height="1" fill="#B13A03" />
<rect x="10" y="18" width="1" height="1" fill="#B73900" />
<rect x="11" y="18" width="1" height="1" fill="#B73800" />
<rect x="12" y="18" width="1" height="1" fill="#B43901" />
<rect x="13" y="18" width="1" height="1" fill="#AE3B07" />
<rect x="14" y="18" width="1" height="1" fill="#A43E0F" />
<rect x="15" y="18" width="1" height="1" fill="#8A390B" />
<rect x="16" y="18" width="1" height="1" fill="#783A14" />
<rect x="17" y="18" width="1" height="1" fill="#6A4329" />
<rect x="18" y="18" width="1" height="1" fill="#140000" />
<rect x="19" y="18" width="1" height="1" fill="#060000" />
<rect x="6" y="19" width="1" height="1" fill="#0A0000" />
<rect x="7" y="19" width="1" height="1" fill="#240000" />
<rect x="8" y="19" width="1" height="1" fill="#8F4427" />
<rect x="9" y="19" width="1" height="1" fill="#9E4017" />
<rect x="10" y="19" width="1" height="1" fill="#A63E0B" />
<rect x="11" y="19" width="1" height="1" fill="#AA3D07" />
<rect x="12" y="19" width="1" height="1" fill="#A93D09" />
<rect x="13" y="19" width="1" height="1" fill="#A03F0E" />
<rect x="14" y="19" width="1" height="1" fill="#883609" />
<rect x="15" y="19" width="1" height="1" fill="#783C15" />
<rect x="16" y="19" width="1" height="1" fill="#694226" />
<rect x="17" y="19" width="1" height="1" fill="#110000" />
<rect x="18" y="19" width="1" height="1" fill="#060000" />
<rect x="7" y="20" width="1" height="1" fill="#0F0000" />
<rect x="8" y="20" width="1" height="1" fill="#1A0000" />
<rect x="9" y="20" width="1" height="1" fill="#703C20" />
<rect x="10" y="20" width="1" height="1" fill="#7E3712" />
<rect x="11" y="20" width="1" height="1" fill="#9E4413" />
<rect x="12" y="20" width="1" height="1" fill="#9C420F" />
<rect x="13" y="20" width="1" height="1" fill="#823806" />
<rect x="14" y="20" width="1" height="1" fill="#733C14" />
<rect x="15" y="20" width="1" height="1" fill="#654529" />
<rect x="16" y="20" width="1" height="1" fill="#0E0000" />
<rect x="17" y="20" width="1" height="1" fill="#080000" />
<rect x="8" y="21" width="1" height="1" fill="#090000" />
<rect x="9" y="21" width="1" height="1" fill="#150000" />
<rect x="10" y="21" width="1" height="1" fill="#693F29" />
<rect x="11" y="21" width="1" height="1" fill="#763C19" />
<rect x="12" y="21" width="1" height="1" fill="#7A3E17" />
<rect x="13" y="21" width="1" height="1" fill="#6D3F1A" />
<rect x="14" y="21" width="1" height="1" fill="#5F4223" />
<rect x="15" y="21" width="1" height="1" fill="#0E0000" />
<rect x="16" y="21" width="1" height="1" fill="#050000" />
<rect x="9" y="22" width="1" height="1" fill="#090000" />
<rect x="10" y="22" width="1" height="1" fill="#0B0000" />
<rect x="11" y="22" width="1" height="1" fill="#0D0000" />
<rect x="12" y="22" width="1" height="1" fill="#0D0000" />
<rect x="13" y="22" width="1" height="1" fill="#0C0000" />
<rect x="14" y="22" width="1" height="1" fill="#0A0100" />
<rect x="15" y="22" width="1" height="1" fill="#060100" />
</svg>