<?xml version="1.0" encoding="UTF-8" ?>
<svg version="1.1" width="25" height="25" xmlns="http://www.w3.org/2000/svg">
<rect x="12" y="1" width="1" height="1" fill="#000100" />
<rect x="11" y="2" width="1" height="1" fill="#010200" />
<rect x="12" y="2" width="1" height="1" fill="#EAEBE6" />
<rect x="13" y="2" width="1" height="1" fill="#000000" />
<rect x="11" y="3" width="1" height="1" fill="#010200" />
<rect x="12" y="3" width="1" height="1" fill="#E7E7E3" />
<rect x="13" y="3" width="1" height="1" fill="#020300" />
<rect x="11" y="4" width="1" height="1" fill="#000000" />
<rect x="12" y="4" width="1" height="1" fill="#E8E8E4" />
<rect x="13" y="4" width="1" height="1" fill="#010200" />
<rect x="10" y="5" width="1" height="1" fill="#000000" />
<rect x="11" y="5" width="1" height="1" fill="#000100" />
<rect x="12" y="5" width="1" height="1" fill="#E5E9E0" />
<rect x="13" y="5" width="1" height="1" fill="#000200" />
<rect x="14" y="5" width="1" height="1" fill="#010200" />
<rect x="10" y="6" width="1" height="1" fill="#000000" />
<rect x="11" y="6" width="1" height="1" fill="#969993" />
<rect x="12" y="6" width="1" height="1" fill="#E1EDE0" />
<rect x="13" y="6" width="1" height="1" fill="#BDC8BC" />
<rect x="14" y="6" width="1" height="1" fill="#000400" />
<rect x="9" y="7" width="1" height="1" fill="#000000" />
<rect x="10" y="7" width="1" height="1" fill="#9A9A98" />
<rect x="11" y="7" width="1" height="1" fill="#949A93" />
<rect x="12" y="7" width="1" height="1" fill="#DEEFDE" />
<rect x="13" y="7" width="1" height="1" fill="#B9C9B8" />
<rect x="14" y="7" width="1" height="1" fill="#C0C8BF" />
<rect x="15" y="7" width="1" height="1" fill="#000300" />
<rect x="9" y="8" width="1" height="1" fill="#000200" />
<rect x="10" y="8" width="1" height="1" fill="#979A97" />
<rect x="11" y="8" width="1" height="1" fill="#949C92" />
<rect x="12" y="8" width="1" height="1" fill="#DDF0DC" />
<rect x="13" y="8" width="1" height="1" fill="#B8CCB8" />
<rect x="14" y="8" width="1" height="1" fill="#BCC9BC" />
<rect x="15" y="8" width="1" height="1" fill="#000400" />
<rect x="7" y="9" width="1" height="1" fill="#000100" />
<rect x="8" y="9" width="1" height="1" fill="#000100" />
<rect x="9" y="9" width="1" height="1" fill="#979A97" />
<rect x="10" y="9" width="1" height="1" fill="#959794" />
<rect x="11" y="9" width="1" height="1" fill="#949C92" />
<rect x="12" y="9" width="1" height="1" fill="#DEEFDA" />
<rect x="13" y="9" width="1" height="1" fill="#BBCFB6" />
<rect x="14" y="9" width="1" height="1" fill="#B7CAB6" />
<rect x="15" y="9" width="1" height="1" fill="#B8C8B9" />
<rect x="16" y="9" width="1" height="1" fill="#000400" />
<rect x="17" y="9" width="1" height="1" fill="#000300" />
<rect x="5" y="10" width="1" height="1" fill="#000200" />
<rect x="6" y="10" width="1" height="1" fill="#000200" />
<rect x="7" y="10" width="1" height="1" fill="#959B97" />
<rect x="8" y="10" width="1" height="1" fill="#959B97" />
<rect x="9" y="10" width="1" height="1" fill="#939894" />
<rect x="10" y="10" width="1" height="1" fill="#949995" />
<rect x="11" y="10" width="1" height="1" fill="#949A91" />
<rect x="12" y="10" width="1" height="1" fill="#E1EED8" />
<rect x="13" y="10" width="1" height="1" fill="#BACCB1" />
<rect x="14" y="10" width="1" height="1" fill="#B7CDB5" />
<rect x="15" y="10" width="1" height="1" fill="#B5CDBA" />
<rect x="16" y="10" width="1" height="1" fill="#BACFC1" />
<rect x="17" y="10" width="1" height="1" fill="#BACBC1" />
<rect x="18" y="10" width="1" height="1" fill="#000600" />
<rect x="19" y="10" width="1" height="1" fill="#000100" />
<rect x="2" y="11" width="1" height="1" fill="#000000" />
<rect x="3" y="11" width="1" height="1" fill="#000200" />
<rect x="4" y="11" width="1" height="1" fill="#000200" />
<rect x="5" y="11" width="1" height="1" fill="#949A93" />
<rect x="6" y="11" width="1" height="1" fill="#939B93" />
<rect x="7" y="11" width="1" height="1" fill="#939B93" />
<rect x="8" y="11" width="1" height="1" fill="#949C94" />
<rect x="9" y="11" width="1" height="1" fill="#939B91" />
<rect x="10" y="11" width="1" height="1" fill="#959B92" />
<rect x="11" y="11" width="1" height="1" fill="#E5EBDE" />
<rect x="12" y="11" width="1" height="1" fill="#E2EDD4" />
<rect x="13" y="11" width="1" height="1" fill="#DFEDD1" />
<rect x="14" y="11" width="1" height="1" fill="#B7CDB5" />
<rect x="15" y="11" width="1" height="1" fill="#B4CCB8" />
<rect x="16" y="11" width="1" height="1" fill="#B5CEBD" />
<rect x="17" y="11" width="1" height="1" fill="#B6CABC" />
<rect x="18" y="11" width="1" height="1" fill="#BDCABF" />
<rect x="19" y="11" width="1" height="1" fill="#BDC5BB" />
<rect x="20" y="11" width="1" height="1" fill="#000300" />
<rect x="21" y="11" width="1" height="1" fill="#010200" />
<rect x="22" y="11" width="1" height="1" fill="#000100" />
<rect x="1" y="12" width="1" height="1" fill="#000200" />
<rect x="2" y="12" width="1" height="1" fill="#E8E8E4" />
<rect x="3" y="12" width="1" height="1" fill="#E6E9E4" />
<rect x="4" y="12" width="1" height="1" fill="#E5EBE2" />
<rect x="5" y="12" width="1" height="1" fill="#E3ECE0" />
<rect x="6" y="12" width="1" height="1" fill="#E1EFDF" />
<rect x="7" y="12" width="1" height="1" fill="#DDEDDC" />
<rect x="8" y="12" width="1" height="1" fill="#DEEFDE" />
<rect x="9" y="12" width="1" height="1" fill="#E1EFDD" />
<rect x="10" y="12" width="1" height="1" fill="#E4EEDD" />
<rect x="11" y="12" width="1" height="1" fill="#E2ECD8" />
<rect x="12" y="12" width="1" height="1" fill="#E5EDD6" />
<rect x="13" y="12" width="1" height="1" fill="#E2F0D7" />
<rect x="14" y="12" width="1" height="1" fill="#B9CAB4" />
<rect x="15" y="12" width="1" height="1" fill="#B6CBB6" />
<rect x="16" y="12" width="1" height="1" fill="#B6CEBB" />
<rect x="17" y="12" width="1" height="1" fill="#B7CCBC" />
<rect x="18" y="12" width="1" height="1" fill="#B8CBBA" />
<rect x="19" y="12" width="1" height="1" fill="#B9C7B9" />
<rect x="20" y="12" width="1" height="1" fill="#C2C8BF" />
<rect x="21" y="12" width="1" height="1" fill="#E7EAE5" />
<rect x="22" y="12" width="1" height="1" fill="#E5E8E3" />
<rect x="23" y="12" width="1" height="1" fill="#000200" />
<rect x="2" y="13" width="1" height="1" fill="#020300" />
<rect x="3" y="13" width="1" height="1" fill="#000200" />
<rect x="4" y="13" width="1" height="1" fill="#000000" />
<rect x="5" y="13" width="1" height="1" fill="#BEC6BA" />
<rect x="6" y="13" width="1" height="1" fill="#BCCABA" />
<rect x="7" y="13" width="1" height="1" fill="#BACABA" />
<rect x="8" y="13" width="1" height="1" fill="#BBCEBA" />
<rect x="9" y="13" width="1" height="1" fill="#BCCDBA" />
<rect x="10" y="13" width="1" height="1" fill="#BAC9B4" />
<rect x="11" y="13" width="1" height="1" fill="#E1EED8" />
<rect x="12" y="13" width="1" height="1" fill="#E5F0D8" />
<rect x="13" y="13" width="1" height="1" fill="#C0CCB6" />
<rect x="14" y="13" width="1" height="1" fill="#BBCCB9" />
<rect x="15" y="13" width="1" height="1" fill="#B8CBBA" />
<rect x="16" y="13" width="1" height="1" fill="#B6CBBA" />
<rect x="17" y="13" width="1" height="1" fill="#B7CABA" />
<rect x="18" y="13" width="1" height="1" fill="#BCCDBC" />
<rect x="19" y="13" width="1" height="1" fill="#BCC9BC" />
<rect x="20" y="13" width="1" height="1" fill="#000500" />
<rect x="21" y="13" width="1" height="1" fill="#000300" />
<rect x="22" y="13" width="1" height="1" fill="#020500" />
<rect x="5" y="14" width="1" height="1" fill="#000400" />
<rect x="6" y="14" width="1" height="1" fill="#000400" />
<rect x="7" y="14" width="1" height="1" fill="#BDCABF" />
<rect x="8" y="14" width="1" height="1" fill="#BACABC" />
<rect x="9" y="14" width="1" height="1" fill="#BACABC" />
<rect x="10" y="14" width="1" height="1" fill="#BACABA" />
<rect x="11" y="14" width="1" height="1" fill="#BBCCB9" />
<rect x="12" y="14" width="1" height="1" fill="#BACBB5" />
<rect x="13" y="14" width="1" height="1" fill="#BACBB8" />
<rect x="14" y="14" width="1" height="1" fill="#B7CABA" />
<rect x="15" y="14" width="1" height="1" fill="#8B9D90" />
<rect x="16" y="14" width="1" height="1" fill="#8D9C92" />
<rect x="17" y="14" width="1" height="1" fill="#BCC8C0" />
<rect x="18" y="14" width="1" height="1" fill="#000300" />
<rect x="19" y="14" width="1" height="1" fill="#000200" />
<rect x="7" y="15" width="1" height="1" fill="#000300" />
<rect x="8" y="15" width="1" height="1" fill="#000300" />
<rect x="9" y="15" width="1" height="1" fill="#BBCBBF" />
<rect x="10" y="15" width="1" height="1" fill="#B8C8B9" />
<rect x="11" y="15" width="1" height="1" fill="#B8CBBA" />
<rect x="12" y="15" width="1" height="1" fill="#B8CBBA" />
<rect x="13" y="15" width="1" height="1" fill="#B7CAB8" />
<rect x="14" y="15" width="1" height="1" fill="#8B9D90" />
<rect x="15" y="15" width="1" height="1" fill="#BAC9C2" />
<rect x="16" y="15" width="1" height="1" fill="#000600" />
<rect x="17" y="15" width="1" height="1" fill="#000400" />
<rect x="9" y="16" width="1" height="1" fill="#000600" />
<rect x="10" y="16" width="1" height="1" fill="#B8C7BB" />
<rect x="11" y="16" width="1" height="1" fill="#B6C9B9" />
<rect x="12" y="16" width="1" height="1" fill="#B6CBB8" />
<rect x="13" y="16" width="1" height="1" fill="#B9CEBE" />
<rect x="14" y="16" width="1" height="1" fill="#BECDC3" />
<rect x="15" y="16" width="1" height="1" fill="#000400" />
<rect x="9" y="17" width="1" height="1" fill="#000500" />
<rect x="10" y="17" width="1" height="1" fill="#BDC8BE" />
<rect x="11" y="17" width="1" height="1" fill="#BACABC" />
<rect x="12" y="17" width="1" height="1" fill="#B6CBB8" />
<rect x="13" y="17" width="1" height="1" fill="#B8CBBC" />
<rect x="14" y="17" width="1" height="1" fill="#BCC8C0" />
<rect x="15" y="17" width="1" height="1" fill="#000400" />
<rect x="10" y="18" width="1" height="1" fill="#000300" />
<rect x="11" y="18" width="1" height="1" fill="#BCCABA" />
<rect x="12" y="18" width="1" height="1" fill="#B7CAB8" />
<rect x="13" y="18" width="1" height="1" fill="#BACABA" />
<rect x="14" y="18" width="1" height="1" fill="#000400" />
<rect x="10" y="19" width="1" height="1" fill="#000100" />
<rect x="11" y="19" width="1" height="1" fill="#BEC7B8" />
<rect x="12" y="19" width="1" height="1" fill="#BDC9BA" />
<rect x="13" y="19" width="1" height="1" fill="#BCC7BA" />
<rect x="14" y="19" width="1" height="1" fill="#000400" />
<rect x="11" y="20" width="1" height="1" fill="#000200" />
<rect x="12" y="20" width="1" height="1" fill="#C2C6BC" />
<rect x="13" y="20" width="1" height="1" fill="#000300" />
<rect x="11" y="21" width="1" height="1" fill="#000000" />
<rect x="12" y="21" width="1" height="1" fill="#E7E8E0" />
<rect x="13" y="21" width="1" height="1" fill="#010200" />
<rect x="11" y="22" width="1" height="1" fill="#000300" />
<rect x="12" y="22" width="1" height="1" fill="#E6E9E4" />
<rect x="13" y="22" width="1" height="1" fill="#000300" />
<rect x="12" y="23" width="1" height="1" fill="#000200" />
</svg>