<?xml version="1.0" encoding="UTF-8" ?>
<svg version="1.1" width="25" height="25" xmlns="http://www.w3.org/2000/svg">
<rect x="8" y="1" width="1" height="1" fill="#010200" />
<rect x="9" y="1" width="1" height="1" fill="#000000" />
<rect x="10" y="1" width="1" height="1" fill="#000000" />
<rect x="11" y="1" width="1" height="1" fill="#020000" />
<rect x="12" y="1" width="1" height="1" fill="#000000" />
<rect x="13" y="1" width="1" height="1" fill="#010200" />
<rect x="2" y="2" width="1" height="1" fill="#040200" />
<rect x="3" y="2" width="1" height="1" fill="#030200" />
<rect x="4" y="2" width="1" height="1" fill="#000000" />
<rect x="5" y="2" width="1" height="1" fill="#030200" />
<rect x="6" y="2" width="1" height="1" fill="#020000" />
<rect x="7" y="2" width="1" height="1" fill="#000000" />
<rect x="8" y="2" width="1" height="1" fill="#000000" />
<rect x="9" y="2" width="1" height="1" fill="#403F39" />
<rect x="10" y="2" width="1" height="1" fill="#423E39" />
<rect x="11" y="2" width="1" height="1" fill="#413D38" />
<rect x="12" y="2" width="1" height="1" fill="#403F39" />
<rect x="13" y="2" width="1" height="1" fill="#000000" />
<rect x="14" y="2" width="1" height="1" fill="#000100" />
<rect x="16" y="2" width="1" height="1" fill="#000100" />
<rect x="17" y="2" width="1" height="1" fill="#000000" />
<rect x="18" y="2" width="1" height="1" fill="#010101" />
<rect x="19" y="2" width="1" height="1" fill="#000000" />
<rect x="20" y="2" width="1" height="1" fill="#010200" />
<rect x="21" y="2" width="1" height="1" fill="#000000" />
<rect x="0" y="3" width="1" height="1" fill="#000000" />
<rect x="1" y="3" width="1" height="1" fill="#010200" />
<rect x="2" y="3" width="1" height="1" fill="#000000" />
<rect x="3" y="3" width="1" height="1" fill="#3D3C35" />
<rect x="4" y="3" width="1" height="1" fill="#413D38" />
<rect x="5" y="3" width="1" height="1" fill="#040100" />
<rect x="6" y="3" width="1" height="1" fill="#43403A" />
<rect x="7" y="3" width="1" height="1" fill="#413D38" />
<rect x="8" y="3" width="1" height="1" fill="#403C36" />
<rect x="9" y="3" width="1" height="1" fill="#423E39" />
<rect x="10" y="3" width="1" height="1" fill="#030000" />
<rect x="11" y="3" width="1" height="1" fill="#060200" />
<rect x="12" y="3" width="1" height="1" fill="#3F3E3A" />
<rect x="13" y="3" width="1" height="1" fill="#3E3E3E" />
<rect x="14" y="3" width="1" height="1" fill="#3C3E40" />
<rect x="15" y="3" width="1" height="1" fill="#000001" />
<rect x="16" y="3" width="1" height="1" fill="#585A5C" />
<rect x="17" y="3" width="1" height="1" fill="#565656" />
<rect x="18" y="3" width="1" height="1" fill="#5C5C5C" />
<rect x="19" y="3" width="1" height="1" fill="#5C5C5C" />
<rect x="20" y="3" width="1" height="1" fill="#5B5B5B" />
<rect x="21" y="3" width="1" height="1" fill="#000000" />
<rect x="22" y="3" width="1" height="1" fill="#000000" />
<rect x="1" y="4" width="1" height="1" fill="#000000" />
<rect x="2" y="4" width="1" height="1" fill="#000000" />
<rect x="3" y="4" width="1" height="1" fill="#000100" />
<rect x="4" y="4" width="1" height="1" fill="#3C3A36" />
<rect x="5" y="4" width="1" height="1" fill="#3F3E3A" />
<rect x="6" y="4" width="1" height="1" fill="#3F3E3A" />
<rect x="7" y="4" width="1" height="1" fill="#020000" />
<rect x="8" y="4" width="1" height="1" fill="#020000" />
<rect x="9" y="4" width="1" height="1" fill="#000000" />
<rect x="10" y="4" width="1" height="1" fill="#020000" />
<rect x="11" y="4" width="1" height="1" fill="#030100" />
<rect x="12" y="4" width="1" height="1" fill="#000000" />
<rect x="13" y="4" width="1" height="1" fill="#000000" />
<rect x="14" y="4" width="1" height="1" fill="#3E3E3E" />
<rect x="15" y="4" width="1" height="1" fill="#3D403F" />
<rect x="16" y="4" width="1" height="1" fill="#000000" />
<rect x="17" y="4" width="1" height="1" fill="#000000" />
<rect x="18" y="4" width="1" height="1" fill="#000000" />
<rect x="19" y="4" width="1" height="1" fill="#000000" />
<rect x="20" y="4" width="1" height="1" fill="#585A5A" />
<rect x="21" y="4" width="1" height="1" fill="#5A5A5A" />
<rect x="22" y="4" width="1" height="1" fill="#000000" />
<rect x="3" y="5" width="1" height="1" fill="#010200" />
<rect x="4" y="5" width="1" height="1" fill="#000000" />
<rect x="5" y="5" width="1" height="1" fill="#000000" />
<rect x="6" y="5" width="1" height="1" fill="#020000" />
<rect x="7" y="5" width="1" height="1" fill="#040200" />
<rect x="13" y="5" width="1" height="1" fill="#000000" />
<rect x="14" y="5" width="1" height="1" fill="#010101" />
<rect x="15" y="5" width="1" height="1" fill="#000100" />
<rect x="16" y="5" width="1" height="1" fill="#000100" />
<rect x="19" y="5" width="1" height="1" fill="#000201" />
<rect x="20" y="5" width="1" height="1" fill="#010302" />
<rect x="21" y="5" width="1" height="1" fill="#585858" />
<rect x="22" y="5" width="1" height="1" fill="#000000" />
<rect x="19" y="6" width="1" height="1" fill="#000201" />
<rect x="20" y="6" width="1" height="1" fill="#575958" />
<rect x="21" y="6" width="1" height="1" fill="#5B5B5B" />
<rect x="22" y="6" width="1" height="1" fill="#000000" />
<rect x="20" y="7" width="1" height="1" fill="#000100" />
<rect x="21" y="7" width="1" height="1" fill="#000000" />
<rect x="22" y="7" width="1" height="1" fill="#000000" />
<rect x="5" y="8" width="1" height="1" fill="#000000" />
<rect x="6" y="8" width="1" height="1" fill="#000201" />
<rect x="7" y="8" width="1" height="1" fill="#000100" />
<rect x="8" y="8" width="1" height="1" fill="#000000" />
<rect x="9" y="8" width="1" height="1" fill="#000000" />
<rect x="10" y="8" width="1" height="1" fill="#000000" />
<rect x="11" y="8" width="1" height="1" fill="#000002" />
<rect x="12" y="8" width="1" height="1" fill="#000001" />
<rect x="18" y="8" width="1" height="1" fill="#000201" />
<rect x="19" y="8" width="1" height="1" fill="#000201" />
<rect x="20" y="8" width="1" height="1" fill="#000100" />
<rect x="21" y="8" width="1" height="1" fill="#000000" />
<rect x="22" y="8" width="1" height="1" fill="#000000" />
<rect x="7" y="9" width="1" height="1" fill="#010302" />
<rect x="8" y="9" width="1" height="1" fill="#797B7C" />
<rect x="9" y="9" width="1" height="1" fill="#797B7C" />
<rect x="10" y="9" width="1" height="1" fill="#787A7B" />
<rect x="11" y="9" width="1" height="1" fill="#797B7C" />
<rect x="12" y="9" width="1" height="1" fill="#000001" />
<rect x="13" y="9" width="1" height="1" fill="#000002" />
<rect x="14" y="9" width="1" height="1" fill="#000203" />
<rect x="15" y="9" width="1" height="1" fill="#000201" />
<rect x="16" y="9" width="1" height="1" fill="#000201" />
<rect x="17" y="9" width="1" height="1" fill="#000000" />
<rect x="18" y="9" width="1" height="1" fill="#010302" />
<rect x="19" y="9" width="1" height="1" fill="#787A79" />
<rect x="20" y="9" width="1" height="1" fill="#787A79" />
<rect x="21" y="9" width="1" height="1" fill="#797979" />
<rect x="22" y="9" width="1" height="1" fill="#797979" />
<rect x="23" y="9" width="1" height="1" fill="#000000" />
<rect x="8" y="10" width="1" height="1" fill="#000000" />
<rect x="9" y="10" width="1" height="1" fill="#000000" />
<rect x="10" y="10" width="1" height="1" fill="#777C7A" />
<rect x="11" y="10" width="1" height="1" fill="#747877" />
<rect x="12" y="10" width="1" height="1" fill="#757A78" />
<rect x="13" y="10" width="1" height="1" fill="#787A79" />
<rect x="14" y="10" width="1" height="1" fill="#767978" />
<rect x="15" y="10" width="1" height="1" fill="#000000" />
<rect x="16" y="10" width="1" height="1" fill="#767978" />
<rect x="17" y="10" width="1" height="1" fill="#787A79" />
<rect x="18" y="10" width="1" height="1" fill="#757877" />
<rect x="19" y="10" width="1" height="1" fill="#767978" />
<rect x="20" y="10" width="1" height="1" fill="#767978" />
<rect x="21" y="10" width="1" height="1" fill="#7B7B7B" />
<rect x="22" y="10" width="1" height="1" fill="#797979" />
<rect x="23" y="10" width="1" height="1" fill="#000000" />
<rect x="6" y="11" width="1" height="1" fill="#000200" />
<rect x="7" y="11" width="1" height="1" fill="#000100" />
<rect x="8" y="11" width="1" height="1" fill="#767976" />
<rect x="9" y="11" width="1" height="1" fill="#767B77" />
<rect x="10" y="11" width="1" height="1" fill="#777C78" />
<rect x="11" y="11" width="1" height="1" fill="#565C58" />
<rect x="12" y="11" width="1" height="1" fill="#555B56" />
<rect x="13" y="11" width="1" height="1" fill="#575958" />
<rect x="14" y="11" width="1" height="1" fill="#000100" />
<rect x="15" y="11" width="1" height="1" fill="#767978" />
<rect x="16" y="11" width="1" height="1" fill="#787A79" />
<rect x="17" y="11" width="1" height="1" fill="#7A7C7B" />
<rect x="18" y="11" width="1" height="1" fill="#767978" />
<rect x="19" y="11" width="1" height="1" fill="#000000" />
<rect x="20" y="11" width="1" height="1" fill="#000000" />
<rect x="21" y="11" width="1" height="1" fill="#797979" />
<rect x="22" y="11" width="1" height="1" fill="#5A5A5A" />
<rect x="23" y="11" width="1" height="1" fill="#000000" />
<rect x="8" y="12" width="1" height="1" fill="#000201" />
<rect x="9" y="12" width="1" height="1" fill="#010400" />
<rect x="10" y="12" width="1" height="1" fill="#565955" />
<rect x="11" y="12" width="1" height="1" fill="#5A5D5A" />
<rect x="12" y="12" width="1" height="1" fill="#5A5D5A" />
<rect x="13" y="12" width="1" height="1" fill="#000000" />
<rect x="14" y="12" width="1" height="1" fill="#76787A" />
<rect x="15" y="12" width="1" height="1" fill="#7A7C7D" />
<rect x="16" y="12" width="1" height="1" fill="#565859" />
<rect x="17" y="12" width="1" height="1" fill="#787A79" />
<rect x="18" y="12" width="1" height="1" fill="#787A79" />
<rect x="19" y="12" width="1" height="1" fill="#000100" />
<rect x="20" y="12" width="1" height="1" fill="#595C5B" />
<rect x="21" y="12" width="1" height="1" fill="#5B5B5B" />
<rect x="22" y="12" width="1" height="1" fill="#5A5A5A" />
<rect x="23" y="12" width="1" height="1" fill="#000000" />
<rect x="6" y="13" width="1" height="1" fill="#000201" />
<rect x="7" y="13" width="1" height="1" fill="#000201" />
<rect x="8" y="13" width="1" height="1" fill="#000000" />
<rect x="9" y="13" width="1" height="1" fill="#585B58" />
<rect x="10" y="13" width="1" height="1" fill="#595C59" />
<rect x="11" y="13" width="1" height="1" fill="#000100" />
<rect x="12" y="13" width="1" height="1" fill="#000100" />
<rect x="13" y="13" width="1" height="1" fill="#585A5C" />
<rect x="14" y="13" width="1" height="1" fill="#797B7C" />
<rect x="15" y="13" width="1" height="1" fill="#797B7C" />
<rect x="16" y="13" width="1" height="1" fill="#595B5D" />
<rect x="17" y="13" width="1" height="1" fill="#595C5B" />
<rect x="18" y="13" width="1" height="1" fill="#747676" />
<rect x="19" y="13" width="1" height="1" fill="#575958" />
<rect x="20" y="13" width="1" height="1" fill="#575958" />
<rect x="21" y="13" width="1" height="1" fill="#5C5C5C" />
<rect x="22" y="13" width="1" height="1" fill="#010101" />
<rect x="23" y="13" width="1" height="1" fill="#000000" />
<rect x="8" y="14" width="1" height="1" fill="#020403" />
<rect x="9" y="14" width="1" height="1" fill="#020403" />
<rect x="10" y="14" width="1" height="1" fill="#000201" />
<rect x="11" y="14" width="1" height="1" fill="#585A5A" />
<rect x="12" y="14" width="1" height="1" fill="#575958" />
<rect x="13" y="14" width="1" height="1" fill="#797B7C" />
<rect x="14" y="14" width="1" height="1" fill="#76787A" />
<rect x="15" y="14" width="1" height="1" fill="#595B5D" />
<rect x="16" y="14" width="1" height="1" fill="#585A5C" />
<rect x="17" y="14" width="1" height="1" fill="#585A5A" />
<rect x="18" y="14" width="1" height="1" fill="#585A5A" />
<rect x="19" y="14" width="1" height="1" fill="#585A5A" />
<rect x="20" y="14" width="1" height="1" fill="#585A5A" />
<rect x="21" y="14" width="1" height="1" fill="#797979" />
<rect x="22" y="14" width="1" height="1" fill="#000000" />
<rect x="8" y="15" width="1" height="1" fill="#000201" />
<rect x="9" y="15" width="1" height="1" fill="#585A5A" />
<rect x="10" y="15" width="1" height="1" fill="#575958" />
<rect x="11" y="15" width="1" height="1" fill="#595C5B" />
<rect x="12" y="15" width="1" height="1" fill="#757877" />
<rect x="13" y="15" width="1" height="1" fill="#787A7B" />
<rect x="14" y="15" width="1" height="1" fill="#5C5E5F" />
<rect x="15" y="15" width="1" height="1" fill="#585A5C" />
<rect x="16" y="15" width="1" height="1" fill="#57595B" />
<rect x="17" y="15" width="1" height="1" fill="#585A5A" />
<rect x="18" y="15" width="1" height="1" fill="#595C5B" />
<rect x="19" y="15" width="1" height="1" fill="#767978" />
<rect x="20" y="15" width="1" height="1" fill="#000201" />
<rect x="21" y="15" width="1" height="1" fill="#000000" />
<rect x="0" y="16" width="1" height="1" fill="#000000" />
<rect x="1" y="16" width="1" height="1" fill="#000000" />
<rect x="2" y="16" width="1" height="1" fill="#000000" />
<rect x="3" y="16" width="1" height="1" fill="#000000" />
<rect x="4" y="16" width="1" height="1" fill="#020300" />
<rect x="5" y="16" width="1" height="1" fill="#000100" />
<rect x="7" y="16" width="1" height="1" fill="#000201" />
<rect x="8" y="16" width="1" height="1" fill="#000201" />
<rect x="9" y="16" width="1" height="1" fill="#595C5B" />
<rect x="10" y="16" width="1" height="1" fill="#787A79" />
<rect x="11" y="16" width="1" height="1" fill="#797B7A" />
<rect x="12" y="16" width="1" height="1" fill="#787A79" />
<rect x="13" y="16" width="1" height="1" fill="#565859" />
<rect x="14" y="16" width="1" height="1" fill="#5A5C5E" />
<rect x="15" y="16" width="1" height="1" fill="#595B5D" />
<rect x="16" y="16" width="1" height="1" fill="#595B5D" />
<rect x="17" y="16" width="1" height="1" fill="#010302" />
<rect x="18" y="16" width="1" height="1" fill="#010302" />
<rect x="19" y="16" width="1" height="1" fill="#000000" />
<rect x="20" y="16" width="1" height="1" fill="#000000" />
<rect x="0" y="17" width="1" height="1" fill="#000000" />
<rect x="1" y="17" width="1" height="1" fill="#787876" />
<rect x="2" y="17" width="1" height="1" fill="#777775" />
<rect x="3" y="17" width="1" height="1" fill="#797977" />
<rect x="4" y="17" width="1" height="1" fill="#797977" />
<rect x="5" y="17" width="1" height="1" fill="#020403" />
<rect x="6" y="17" width="1" height="1" fill="#000201" />
<rect x="7" y="17" width="1" height="1" fill="#000100" />
<rect x="8" y="17" width="1" height="1" fill="#797B7A" />
<rect x="9" y="17" width="1" height="1" fill="#797B7A" />
<rect x="10" y="17" width="1" height="1" fill="#787A79" />
<rect x="11" y="17" width="1" height="1" fill="#595C5B" />
<rect x="12" y="17" width="1" height="1" fill="#575958" />
<rect x="13" y="17" width="1" height="1" fill="#585A5C" />
<rect x="14" y="17" width="1" height="1" fill="#57595B" />
<rect x="15" y="17" width="1" height="1" fill="#57595B" />
<rect x="16" y="17" width="1" height="1" fill="#000001" />
<rect x="17" y="17" width="1" height="1" fill="#585A5A" />
<rect x="18" y="17" width="1" height="1" fill="#757877" />
<rect x="19" y="17" width="1" height="1" fill="#000100" />
<rect x="0" y="18" width="1" height="1" fill="#010200" />
<rect x="1" y="18" width="1" height="1" fill="#5B5B59" />
<rect x="2" y="18" width="1" height="1" fill="#5C5C5A" />
<rect x="3" y="18" width="1" height="1" fill="#575855" />
<rect x="4" y="18" width="1" height="1" fill="#7A7B78" />
<rect x="5" y="18" width="1" height="1" fill="#757877" />
<rect x="6" y="18" width="1" height="1" fill="#797B7A" />
<rect x="7" y="18" width="1" height="1" fill="#767978" />
<rect x="8" y="18" width="1" height="1" fill="#787A79" />
<rect x="9" y="18" width="1" height="1" fill="#787A79" />
<rect x="10" y="18" width="1" height="1" fill="#575958" />
<rect x="11" y="18" width="1" height="1" fill="#000100" />
<rect x="12" y="18" width="1" height="1" fill="#000201" />
<rect x="13" y="18" width="1" height="1" fill="#000002" />
<rect x="14" y="18" width="1" height="1" fill="#000001" />
<rect x="15" y="18" width="1" height="1" fill="#000203" />
<rect x="16" y="18" width="1" height="1" fill="#000001" />
<rect x="17" y="18" width="1" height="1" fill="#5A5D5C" />
<rect x="18" y="18" width="1" height="1" fill="#000100" />
<rect x="19" y="18" width="1" height="1" fill="#000000" />
<rect x="1" y="19" width="1" height="1" fill="#000000" />
<rect x="2" y="19" width="1" height="1" fill="#5B5B59" />
<rect x="3" y="19" width="1" height="1" fill="#777775" />
<rect x="4" y="19" width="1" height="1" fill="#787876" />
<rect x="5" y="19" width="1" height="1" fill="#767978" />
<rect x="6" y="19" width="1" height="1" fill="#767978" />
<rect x="7" y="19" width="1" height="1" fill="#7B7D7D" />
<rect x="8" y="19" width="1" height="1" fill="#575958" />
<rect x="9" y="19" width="1" height="1" fill="#585A5A" />
<rect x="10" y="19" width="1" height="1" fill="#000000" />
<rect x="11" y="19" width="1" height="1" fill="#000000" />
<rect x="15" y="19" width="1" height="1" fill="#000001" />
<rect x="16" y="19" width="1" height="1" fill="#575958" />
<rect x="17" y="19" width="1" height="1" fill="#7A7C7B" />
<rect x="18" y="19" width="1" height="1" fill="#000100" />
<rect x="2" y="20" width="1" height="1" fill="#010200" />
<rect x="3" y="20" width="1" height="1" fill="#000100" />
<rect x="4" y="20" width="1" height="1" fill="#010200" />
<rect x="5" y="20" width="1" height="1" fill="#585956" />
<rect x="6" y="20" width="1" height="1" fill="#797977" />
<rect x="7" y="20" width="1" height="1" fill="#5B5B59" />
<rect x="8" y="20" width="1" height="1" fill="#000000" />
<rect x="9" y="20" width="1" height="1" fill="#000000" />
<rect x="10" y="20" width="1" height="1" fill="#000000" />
<rect x="15" y="20" width="1" height="1" fill="#020202" />
<rect x="16" y="20" width="1" height="1" fill="#7A7B78" />
<rect x="17" y="20" width="1" height="1" fill="#010200" />
<rect x="18" y="20" width="1" height="1" fill="#000000" />
<rect x="4" y="21" width="1" height="1" fill="#000100" />
<rect x="5" y="21" width="1" height="1" fill="#5B5B59" />
<rect x="6" y="21" width="1" height="1" fill="#5B5B59" />
<rect x="7" y="21" width="1" height="1" fill="#5A5A58" />
<rect x="8" y="21" width="1" height="1" fill="#010200" />
<rect x="15" y="21" width="1" height="1" fill="#000000" />
<rect x="16" y="21" width="1" height="1" fill="#010200" />
<rect x="17" y="21" width="1" height="1" fill="#010200" />
<rect x="4" y="22" width="1" height="1" fill="#000000" />
<rect x="5" y="22" width="1" height="1" fill="#000000" />
<rect x="6" y="22" width="1" height="1" fill="#575A56" />
<rect x="7" y="22" width="1" height="1" fill="#757875" />
<rect x="8" y="22" width="1" height="1" fill="#000200" />
<rect x="6" y="23" width="1" height="1" fill="#010200" />
<rect x="7" y="23" width="1" height="1" fill="#000000" />
<rect x="8" y="23" width="1" height="1" fill="#000000" />
</svg>