<?xml version="1.0" encoding="UTF-8" ?>
<svg version="1.1" width="25" height="25" xmlns="http://www.w3.org/2000/svg">
<rect x="4" y="4" width="1" height="1" fill="#000000" />
<rect x="5" y="4" width="1" height="1" fill="#000201" />
<rect x="6" y="4" width="1" height="1" fill="#000201" />
<rect x="7" y="4" width="1" height="1" fill="#000201" />
<rect x="8" y="4" width="1" height="1" fill="#000100" />
<rect x="9" y="4" width="1" height="1" fill="#000100" />
<rect x="10" y="4" width="1" height="1" fill="#000000" />
<rect x="11" y="4" width="1" height="1" fill="#000100" />
<rect x="12" y="4" width="1" height="1" fill="#000201" />
<rect x="13" y="4" width="1" height="1" fill="#000201" />
<rect x="14" y="4" width="1" height="1" fill="#000000" />
<rect x="15" y="4" width="1" height="1" fill="#000000" />
<rect x="16" y="4" width="1" height="1" fill="#000000" />
<rect x="17" y="4" width="1" height="1" fill="#000200" />
<rect x="18" y="4" width="1" height="1" fill="#000000" />
<rect x="19" y="4" width="1" height="1" fill="#010400" />
<rect x="20" y="4" width="1" height="1" fill="#000200" />
<rect x="4" y="5" width="1" height="1" fill="#000000" />
<rect x="5" y="5" width="1" height="1" fill="#585A5C" />
<rect x="6" y="5" width="1" height="1" fill="#585A5C" />
<rect x="7" y="5" width="1" height="1" fill="#585A5C" />
<rect x="8" y="5" width="1" height="1" fill="#585A5C" />
<rect x="9" y="5" width="1" height="1" fill="#595B5D" />
<rect x="10" y="5" width="1" height="1" fill="#787A7B" />
<rect x="11" y="5" width="1" height="1" fill="#787A7B" />
<rect x="12" y="5" width="1" height="1" fill="#787A7B" />
<rect x="13" y="5" width="1" height="1" fill="#797B7A" />
<rect x="14" y="5" width="1" height="1" fill="#797B7A" />
<rect x="15" y="5" width="1" height="1" fill="#979999" />
<rect x="16" y="5" width="1" height="1" fill="#959796" />
<rect x="17" y="5" width="1" height="1" fill="#959794" />
<rect x="18" y="5" width="1" height="1" fill="#969995" />
<rect x="19" y="5" width="1" height="1" fill="#979A97" />
<rect x="20" y="5" width="1" height="1" fill="#000200" />
<rect x="4" y="6" width="1" height="1" fill="#030303" />
<rect x="5" y="6" width="1" height="1" fill="#595B5D" />
<rect x="6" y="6" width="1" height="1" fill="#595B5D" />
<rect x="7" y="6" width="1" height="1" fill="#595B5D" />
<rect x="8" y="6" width="1" height="1" fill="#595B5D" />
<rect x="9" y="6" width="1" height="1" fill="#76787A" />
<rect x="10" y="6" width="1" height="1" fill="#787A7B" />
<rect x="11" y="6" width="1" height="1" fill="#797B7C" />
<rect x="12" y="6" width="1" height="1" fill="#787A7B" />
<rect x="13" y="6" width="1" height="1" fill="#767978" />
<rect x="14" y="6" width="1" height="1" fill="#797B7A" />
<rect x="15" y="6" width="1" height="1" fill="#767978" />
<rect x="16" y="6" width="1" height="1" fill="#959796" />
<rect x="17" y="6" width="1" height="1" fill="#939693" />
<rect x="18" y="6" width="1" height="1" fill="#969995" />
<rect x="19" y="6" width="1" height="1" fill="#979A97" />
<rect x="20" y="6" width="1" height="1" fill="#000100" />
<rect x="4" y="7" width="1" height="1" fill="#000000" />
<rect x="5" y="7" width="1" height="1" fill="#585A5C" />
<rect x="6" y="7" width="1" height="1" fill="#585A5C" />
<rect x="7" y="7" width="1" height="1" fill="#585A5C" />
<rect x="8" y="7" width="1" height="1" fill="#585A5C" />
<rect x="9" y="7" width="1" height="1" fill="#797B7C" />
<rect x="10" y="7" width="1" height="1" fill="#76787A" />
<rect x="11" y="7" width="1" height="1" fill="#000002" />
<rect x="12" y="7" width="1" height="1" fill="#000203" />
<rect x="13" y="7" width="1" height="1" fill="#000000" />
<rect x="14" y="7" width="1" height="1" fill="#797B7A" />
<rect x="15" y="7" width="1" height="1" fill="#797B7A" />
<rect x="16" y="7" width="1" height="1" fill="#979999" />
<rect x="17" y="7" width="1" height="1" fill="#959794" />
<rect x="18" y="7" width="1" height="1" fill="#969995" />
<rect x="19" y="7" width="1" height="1" fill="#989B98" />
<rect x="20" y="7" width="1" height="1" fill="#000100" />
<rect x="4" y="8" width="1" height="1" fill="#010101" />
<rect x="5" y="8" width="1" height="1" fill="#595B5D" />
<rect x="6" y="8" width="1" height="1" fill="#595B5D" />
<rect x="7" y="8" width="1" height="1" fill="#585A5C" />
<rect x="8" y="8" width="1" height="1" fill="#595B5D" />
<rect x="9" y="8" width="1" height="1" fill="#787A7B" />
<rect x="10" y="8" width="1" height="1" fill="#797B7C" />
<rect x="11" y="8" width="1" height="1" fill="#000002" />
<rect x="12" y="8" width="1" height="1" fill="#000002" />
<rect x="13" y="8" width="1" height="1" fill="#000201" />
<rect x="14" y="8" width="1" height="1" fill="#767978" />
<rect x="15" y="8" width="1" height="1" fill="#767978" />
<rect x="16" y="8" width="1" height="1" fill="#979999" />
<rect x="17" y="8" width="1" height="1" fill="#939693" />
<rect x="18" y="8" width="1" height="1" fill="#969995" />
<rect x="19" y="8" width="1" height="1" fill="#969995" />
<rect x="20" y="8" width="1" height="1" fill="#000200" />
<rect x="4" y="9" width="1" height="1" fill="#020202" />
<rect x="5" y="9" width="1" height="1" fill="#555758" />
<rect x="6" y="9" width="1" height="1" fill="#5A5C5E" />
<rect x="7" y="9" width="1" height="1" fill="#585A5C" />
<rect x="8" y="9" width="1" height="1" fill="#585A5C" />
<rect x="9" y="9" width="1" height="1" fill="#76787A" />
<rect x="10" y="9" width="1" height="1" fill="#787A7B" />
<rect x="11" y="9" width="1" height="1" fill="#000203" />
<rect x="12" y="9" width="1" height="1" fill="#000002" />
<rect x="13" y="9" width="1" height="1" fill="#000000" />
<rect x="14" y="9" width="1" height="1" fill="#787A79" />
<rect x="15" y="9" width="1" height="1" fill="#787A79" />
<rect x="16" y="9" width="1" height="1" fill="#979999" />
<rect x="17" y="9" width="1" height="1" fill="#959794" />
<rect x="18" y="9" width="1" height="1" fill="#959794" />
<rect x="19" y="9" width="1" height="1" fill="#959794" />
<rect x="20" y="9" width="1" height="1" fill="#000200" />
<rect x="4" y="10" width="1" height="1" fill="#030303" />
<rect x="5" y="10" width="1" height="1" fill="#585A5C" />
<rect x="6" y="10" width="1" height="1" fill="#57595B" />
<rect x="7" y="10" width="1" height="1" fill="#595B5D" />
<rect x="8" y="10" width="1" height="1" fill="#585A5C" />
<rect x="9" y="10" width="1" height="1" fill="#797B7C" />
<rect x="10" y="10" width="1" height="1" fill="#787A7B" />
<rect x="11" y="10" width="1" height="1" fill="#010304" />
<rect x="12" y="10" width="1" height="1" fill="#000002" />
<rect x="13" y="10" width="1" height="1" fill="#000000" />
<rect x="14" y="10" width="1" height="1" fill="#757877" />
<rect x="15" y="10" width="1" height="1" fill="#757877" />
<rect x="16" y="10" width="1" height="1" fill="#939695" />
<rect x="17" y="10" width="1" height="1" fill="#959794" />
<rect x="18" y="10" width="1" height="1" fill="#969995" />
<rect x="19" y="10" width="1" height="1" fill="#979A97" />
<rect x="20" y="10" width="1" height="1" fill="#000100" />
<rect x="4" y="11" width="1" height="1" fill="#010101" />
<rect x="5" y="11" width="1" height="1" fill="#585A5C" />
<rect x="6" y="11" width="1" height="1" fill="#57595B" />
<rect x="7" y="11" width="1" height="1" fill="#000203" />
<rect x="8" y="11" width="1" height="1" fill="#010304" />
<rect x="9" y="11" width="1" height="1" fill="#000002" />
<rect x="10" y="11" width="1" height="1" fill="#000002" />
<rect x="11" y="11" width="1" height="1" fill="#000002" />
<rect x="12" y="11" width="1" height="1" fill="#000000" />
<rect x="13" y="11" width="1" height="1" fill="#000100" />
<rect x="14" y="11" width="1" height="1" fill="#000000" />
<rect x="15" y="11" width="1" height="1" fill="#010302" />
<rect x="16" y="11" width="1" height="1" fill="#000100" />
<rect x="17" y="11" width="1" height="1" fill="#000100" />
<rect x="18" y="11" width="1" height="1" fill="#959794" />
<rect x="19" y="11" width="1" height="1" fill="#999C99" />
<rect x="20" y="11" width="1" height="1" fill="#000000" />
<rect x="4" y="12" width="1" height="1" fill="#000000" />
<rect x="5" y="12" width="1" height="1" fill="#565859" />
<rect x="6" y="12" width="1" height="1" fill="#555758" />
<rect x="7" y="12" width="1" height="1" fill="#000002" />
<rect x="8" y="12" width="1" height="1" fill="#000002" />
<rect x="9" y="12" width="1" height="1" fill="#000001" />
<rect x="10" y="12" width="1" height="1" fill="#000002" />
<rect x="11" y="12" width="1" height="1" fill="#000001" />
<rect x="12" y="12" width="1" height="1" fill="#000001" />
<rect x="13" y="12" width="1" height="1" fill="#000000" />
<rect x="14" y="12" width="1" height="1" fill="#000100" />
<rect x="15" y="12" width="1" height="1" fill="#000100" />
<rect x="16" y="12" width="1" height="1" fill="#000201" />
<rect x="17" y="12" width="1" height="1" fill="#010400" />
<rect x="18" y="12" width="1" height="1" fill="#959794" />
<rect x="19" y="12" width="1" height="1" fill="#959794" />
<rect x="20" y="12" width="1" height="1" fill="#000100" />
<rect x="4" y="13" width="1" height="1" fill="#000000" />
<rect x="5" y="13" width="1" height="1" fill="#585A5C" />
<rect x="6" y="13" width="1" height="1" fill="#585A5C" />
<rect x="7" y="13" width="1" height="1" fill="#000002" />
<rect x="8" y="13" width="1" height="1" fill="#000002" />
<rect x="9" y="13" width="1" height="1" fill="#000002" />
<rect x="10" y="13" width="1" height="1" fill="#000002" />
<rect x="11" y="13" width="1" height="1" fill="#000002" />
<rect x="12" y="13" width="1" height="1" fill="#000002" />
<rect x="13" y="13" width="1" height="1" fill="#000000" />
<rect x="14" y="13" width="1" height="1" fill="#010302" />
<rect x="15" y="13" width="1" height="1" fill="#000000" />
<rect x="16" y="13" width="1" height="1" fill="#000201" />
<rect x="17" y="13" width="1" height="1" fill="#000200" />
<rect x="18" y="13" width="1" height="1" fill="#979A97" />
<rect x="19" y="13" width="1" height="1" fill="#989B98" />
<rect x="20" y="13" width="1" height="1" fill="#000000" />
<rect x="4" y="14" width="1" height="1" fill="#020202" />
<rect x="5" y="14" width="1" height="1" fill="#57595B" />
<rect x="6" y="14" width="1" height="1" fill="#585A5C" />
<rect x="7" y="14" width="1" height="1" fill="#565859" />
<rect x="8" y="14" width="1" height="1" fill="#585A5C" />
<rect x="9" y="14" width="1" height="1" fill="#76787A" />
<rect x="10" y="14" width="1" height="1" fill="#76787A" />
<rect x="11" y="14" width="1" height="1" fill="#000001" />
<rect x="12" y="14" width="1" height="1" fill="#000002" />
<rect x="13" y="14" width="1" height="1" fill="#000100" />
<rect x="14" y="14" width="1" height="1" fill="#757877" />
<rect x="15" y="14" width="1" height="1" fill="#797B7A" />
<rect x="16" y="14" width="1" height="1" fill="#939695" />
<rect x="17" y="14" width="1" height="1" fill="#979A97" />
<rect x="18" y="14" width="1" height="1" fill="#979A97" />
<rect x="19" y="14" width="1" height="1" fill="#979A97" />
<rect x="20" y="14" width="1" height="1" fill="#000000" />
<rect x="4" y="15" width="1" height="1" fill="#000000" />
<rect x="5" y="15" width="1" height="1" fill="#595B5D" />
<rect x="6" y="15" width="1" height="1" fill="#5A5C5E" />
<rect x="7" y="15" width="1" height="1" fill="#565859" />
<rect x="8" y="15" width="1" height="1" fill="#585A5C" />
<rect x="9" y="15" width="1" height="1" fill="#797B7C" />
<rect x="10" y="15" width="1" height="1" fill="#787A7B" />
<rect x="11" y="15" width="1" height="1" fill="#000203" />
<rect x="12" y="15" width="1" height="1" fill="#000203" />
<rect x="13" y="15" width="1" height="1" fill="#000000" />
<rect x="14" y="15" width="1" height="1" fill="#797B7A" />
<rect x="15" y="15" width="1" height="1" fill="#767978" />
<rect x="16" y="15" width="1" height="1" fill="#979999" />
<rect x="17" y="15" width="1" height="1" fill="#969995" />
<rect x="18" y="15" width="1" height="1" fill="#969995" />
<rect x="19" y="15" width="1" height="1" fill="#969995" />
<rect x="20" y="15" width="1" height="1" fill="#000100" />
<rect x="4" y="16" width="1" height="1" fill="#000000" />
<rect x="5" y="16" width="1" height="1" fill="#57595B" />
<rect x="6" y="16" width="1" height="1" fill="#585A5C" />
<rect x="7" y="16" width="1" height="1" fill="#585A5C" />
<rect x="8" y="16" width="1" height="1" fill="#57595B" />
<rect x="9" y="16" width="1" height="1" fill="#787A7B" />
<rect x="10" y="16" width="1" height="1" fill="#76787A" />
<rect x="11" y="16" width="1" height="1" fill="#000203" />
<rect x="12" y="16" width="1" height="1" fill="#000002" />
<rect x="13" y="16" width="1" height="1" fill="#000000" />
<rect x="14" y="16" width="1" height="1" fill="#787A79" />
<rect x="15" y="16" width="1" height="1" fill="#797B7A" />
<rect x="16" y="16" width="1" height="1" fill="#979999" />
<rect x="17" y="16" width="1" height="1" fill="#959794" />
<rect x="18" y="16" width="1" height="1" fill="#969995" />
<rect x="19" y="16" width="1" height="1" fill="#969995" />
<rect x="20" y="16" width="1" height="1" fill="#000100" />
<rect x="4" y="17" width="1" height="1" fill="#020202" />
<rect x="5" y="17" width="1" height="1" fill="#595B5D" />
<rect x="6" y="17" width="1" height="1" fill="#565859" />
<rect x="7" y="17" width="1" height="1" fill="#57595B" />
<rect x="8" y="17" width="1" height="1" fill="#585A5C" />
<rect x="9" y="17" width="1" height="1" fill="#7A7C7D" />
<rect x="10" y="17" width="1" height="1" fill="#76787A" />
<rect x="11" y="17" width="1" height="1" fill="#000203" />
<rect x="12" y="17" width="1" height="1" fill="#000001" />
<rect x="13" y="17" width="1" height="1" fill="#000100" />
<rect x="14" y="17" width="1" height="1" fill="#7A7C7B" />
<rect x="15" y="17" width="1" height="1" fill="#767978" />
<rect x="16" y="17" width="1" height="1" fill="#999C9B" />
<rect x="17" y="17" width="1" height="1" fill="#969995" />
<rect x="18" y="17" width="1" height="1" fill="#989B98" />
<rect x="19" y="17" width="1" height="1" fill="#959794" />
<rect x="20" y="17" width="1" height="1" fill="#000200" />
<rect x="5" y="18" width="1" height="1" fill="#000001" />
<rect x="6" y="18" width="1" height="1" fill="#595B5D" />
<rect x="7" y="18" width="1" height="1" fill="#555758" />
<rect x="8" y="18" width="1" height="1" fill="#565859" />
<rect x="9" y="18" width="1" height="1" fill="#757779" />
<rect x="10" y="18" width="1" height="1" fill="#787A7B" />
<rect x="11" y="18" width="1" height="1" fill="#000002" />
<rect x="12" y="18" width="1" height="1" fill="#010304" />
<rect x="13" y="18" width="1" height="1" fill="#000100" />
<rect x="14" y="18" width="1" height="1" fill="#757877" />
<rect x="15" y="18" width="1" height="1" fill="#787A79" />
<rect x="16" y="18" width="1" height="1" fill="#959796" />
<rect x="17" y="18" width="1" height="1" fill="#979A97" />
<rect x="18" y="18" width="1" height="1" fill="#979A97" />
<rect x="19" y="18" width="1" height="1" fill="#000200" />
<rect x="6" y="19" width="1" height="1" fill="#010304" />
<rect x="7" y="19" width="1" height="1" fill="#585A5C" />
<rect x="8" y="19" width="1" height="1" fill="#595B5D" />
<rect x="9" y="19" width="1" height="1" fill="#787A7B" />
<rect x="10" y="19" width="1" height="1" fill="#797B7C" />
<rect x="11" y="19" width="1" height="1" fill="#787A7B" />
<rect x="12" y="19" width="1" height="1" fill="#787A7B" />
<rect x="13" y="19" width="1" height="1" fill="#787A79" />
<rect x="14" y="19" width="1" height="1" fill="#757877" />
<rect x="15" y="19" width="1" height="1" fill="#767978" />
<rect x="16" y="19" width="1" height="1" fill="#979999" />
<rect x="17" y="19" width="1" height="1" fill="#969995" />
<rect x="18" y="19" width="1" height="1" fill="#010400" />
<rect x="7" y="20" width="1" height="1" fill="#000200" />
<rect x="8" y="20" width="1" height="1" fill="#545957" />
<rect x="9" y="20" width="1" height="1" fill="#585C5B" />
<rect x="10" y="20" width="1" height="1" fill="#757A78" />
<rect x="11" y="20" width="1" height="1" fill="#767B79" />
<rect x="12" y="20" width="1" height="1" fill="#747877" />
<rect x="13" y="20" width="1" height="1" fill="#797B7A" />
<rect x="14" y="20" width="1" height="1" fill="#787A79" />
<rect x="15" y="20" width="1" height="1" fill="#959796" />
<rect x="16" y="20" width="1" height="1" fill="#959796" />
<rect x="17" y="20" width="1" height="1" fill="#000100" />
<rect x="8" y="21" width="1" height="1" fill="#000100" />
<rect x="9" y="21" width="1" height="1" fill="#585A5A" />
<rect x="10" y="21" width="1" height="1" fill="#565857" />
<rect x="11" y="21" width="1" height="1" fill="#787A79" />
<rect x="12" y="21" width="1" height="1" fill="#787A79" />
<rect x="13" y="21" width="1" height="1" fill="#787A79" />
<rect x="14" y="21" width="1" height="1" fill="#969897" />
<rect x="15" y="21" width="1" height="1" fill="#989B9A" />
<rect x="16" y="21" width="1" height="1" fill="#000000" />
<rect x="9" y="22" width="1" height="1" fill="#040202" />
<rect x="10" y="22" width="1" height="1" fill="#020000" />
<rect x="11" y="22" width="1" height="1" fill="#000000" />
<rect x="12" y="22" width="1" height="1" fill="#010101" />
<rect x="13" y="22" width="1" height="1" fill="#010101" />
<rect x="14" y="22" width="1" height="1" fill="#000000" />
<rect x="15" y="22" width="1" height="1" fill="#000000" />
</svg>