<?xml version="1.0" encoding="UTF-8" ?>
<svg version="1.1" width="25" height="25" xmlns="http://www.w3.org/2000/svg">
<rect x="9" y="1" width="1" height="1" fill="#0A0B06" />
<rect x="14" y="1" width="1" height="1" fill="#0D0D0B" />
<rect x="9" y="2" width="1" height="1" fill="#0D0C08" />
<rect x="14" y="2" width="1" height="1" fill="#0E0D09" />
<rect x="8" y="3" width="1" height="1" fill="#0C0A08" />
<rect x="9" y="3" width="1" height="1" fill="#3C3A38" />
<rect x="10" y="3" width="1" height="1" fill="#0E0C0B" />
<rect x="13" y="3" width="1" height="1" fill="#0D0C08" />
<rect x="14" y="3" width="1" height="1" fill="#3C3A38" />
<rect x="15" y="3" width="1" height="1" fill="#0C0A08" />
<rect x="7" y="4" width="1" height="1" fill="#0E0C0D" />
<rect x="8" y="4" width="1" height="1" fill="#403B3D" />
<rect x="9" y="4" width="1" height="1" fill="#3D393A" />
<rect x="10" y="4" width="1" height="1" fill="#0E090A" />
<rect x="13" y="4" width="1" height="1" fill="#0F0A0A" />
<rect x="14" y="4" width="1" height="1" fill="#3D393A" />
<rect x="15" y="4" width="1" height="1" fill="#3D393A" />
<rect x="16" y="4" width="1" height="1" fill="#0D0B0A" />
<rect x="7" y="5" width="1" height="1" fill="#0F0A0C" />
<rect x="8" y="5" width="1" height="1" fill="#3F393D" />
<rect x="9" y="5" width="1" height="1" fill="#3F393D" />
<rect x="10" y="5" width="1" height="1" fill="#100B0D" />
<rect x="13" y="5" width="1" height="1" fill="#0F0A0C" />
<rect x="14" y="5" width="1" height="1" fill="#3D393A" />
<rect x="15" y="5" width="1" height="1" fill="#3D393A" />
<rect x="16" y="5" width="1" height="1" fill="#0F0A0C" />
<rect x="6" y="6" width="1" height="1" fill="#0D0B0A" />
<rect x="7" y="6" width="1" height="1" fill="#2F2B2C" />
<rect x="8" y="6" width="1" height="1" fill="#3D383C" />
<rect x="9" y="6" width="1" height="1" fill="#3D383C" />
<rect x="10" y="6" width="1" height="1" fill="#100B0D" />
<rect x="13" y="6" width="1" height="1" fill="#0F0A0C" />
<rect x="14" y="6" width="1" height="1" fill="#3D393A" />
<rect x="15" y="6" width="1" height="1" fill="#3D393A" />
<rect x="16" y="6" width="1" height="1" fill="#0F0A0C" />
<rect x="6" y="7" width="1" height="1" fill="#0C0A08" />
<rect x="7" y="7" width="1" height="1" fill="#2E292B" />
<rect x="8" y="7" width="1" height="1" fill="#3C373B" />
<rect x="9" y="7" width="1" height="1" fill="#3A3539" />
<rect x="10" y="7" width="1" height="1" fill="#0E090A" />
<rect x="13" y="7" width="1" height="1" fill="#0F0A0C" />
<rect x="14" y="7" width="1" height="1" fill="#3D393A" />
<rect x="15" y="7" width="1" height="1" fill="#3D393A" />
<rect x="16" y="7" width="1" height="1" fill="#0F0A0C" />
<rect x="17" y="7" width="1" height="1" fill="#0E0C0B" />
<rect x="3" y="8" width="1" height="1" fill="#2D2B27" />
<rect x="6" y="8" width="1" height="1" fill="#0E0C0B" />
<rect x="7" y="8" width="1" height="1" fill="#2F2B2C" />
<rect x="8" y="8" width="1" height="1" fill="#3D383C" />
<rect x="9" y="8" width="1" height="1" fill="#3C373B" />
<rect x="10" y="8" width="1" height="1" fill="#0E090A" />
<rect x="13" y="8" width="1" height="1" fill="#0D0809" />
<rect x="14" y="8" width="1" height="1" fill="#3C3739" />
<rect x="15" y="8" width="1" height="1" fill="#3D393A" />
<rect x="16" y="8" width="1" height="1" fill="#110C0E" />
<rect x="17" y="8" width="1" height="1" fill="#0E0C0B" />
<rect x="20" y="8" width="1" height="1" fill="#0B0E0B" />
<rect x="3" y="9" width="1" height="1" fill="#181612" />
<rect x="6" y="9" width="1" height="1" fill="#0E0C0D" />
<rect x="7" y="9" width="1" height="1" fill="#2E292D" />
<rect x="8" y="9" width="1" height="1" fill="#3F393D" />
<rect x="9" y="9" width="1" height="1" fill="#3D383C" />
<rect x="10" y="9" width="1" height="1" fill="#0D070B" />
<rect x="13" y="9" width="1" height="1" fill="#100B0D" />
<rect x="14" y="9" width="1" height="1" fill="#3D393A" />
<rect x="15" y="9" width="1" height="1" fill="#3C3739" />
<rect x="16" y="9" width="1" height="1" fill="#0E0C0D" />
<rect x="20" y="9" width="1" height="1" fill="#0B0E0B" />
<rect x="2" y="10" width="1" height="1" fill="#0A0B08" />
<rect x="3" y="10" width="1" height="1" fill="#2C2A26" />
<rect x="4" y="10" width="1" height="1" fill="#0D0C08" />
<rect x="6" y="10" width="1" height="1" fill="#0D0B0C" />
<rect x="7" y="10" width="1" height="1" fill="#3D383C" />
<rect x="8" y="10" width="1" height="1" fill="#3F393D" />
<rect x="9" y="10" width="1" height="1" fill="#3C373B" />
<rect x="10" y="10" width="1" height="1" fill="#0E080C" />
<rect x="13" y="10" width="1" height="1" fill="#100B0D" />
<rect x="14" y="10" width="1" height="1" fill="#3B3638" />
<rect x="15" y="10" width="1" height="1" fill="#3C393A" />
<rect x="16" y="10" width="1" height="1" fill="#100D0E" />
<rect x="19" y="10" width="1" height="1" fill="#0A0D0A" />
<rect x="20" y="10" width="1" height="1" fill="#373A37" />
<rect x="21" y="10" width="1" height="1" fill="#0E0E0C" />
<rect x="2" y="11" width="1" height="1" fill="#090A07" />
<rect x="3" y="11" width="1" height="1" fill="#3C3A36" />
<rect x="4" y="11" width="1" height="1" fill="#0D0C08" />
<rect x="6" y="11" width="1" height="1" fill="#090A07" />
<rect x="7" y="11" width="1" height="1" fill="#0E0C0D" />
<rect x="8" y="11" width="1" height="1" fill="#3B383B" />
<rect x="9" y="11" width="1" height="1" fill="#0C090C" />
<rect x="10" y="11" width="1" height="1" fill="#0D0B0C" />
<rect x="13" y="11" width="1" height="1" fill="#0E090A" />
<rect x="14" y="11" width="1" height="1" fill="#3B3638" />
<rect x="15" y="11" width="1" height="1" fill="#0E0C0D" />
<rect x="16" y="11" width="1" height="1" fill="#0C0A0A" />
<rect x="18" y="11" width="1" height="1" fill="#0C0C0A" />
<rect x="19" y="11" width="1" height="1" fill="#3D3D3B" />
<rect x="20" y="11" width="1" height="1" fill="#393937" />
<rect x="21" y="11" width="1" height="1" fill="#0A0B08" />
<rect x="22" y="11" width="1" height="1" fill="#0C0C0A" />
<rect x="2" y="12" width="1" height="1" fill="#0A0B08" />
<rect x="3" y="12" width="1" height="1" fill="#3F3E3A" />
<rect x="4" y="12" width="1" height="1" fill="#0E0D09" />
<rect x="7" y="12" width="1" height="1" fill="#0D0D0D" />
<rect x="8" y="12" width="1" height="1" fill="#0D0D0D" />
<rect x="9" y="12" width="1" height="1" fill="#0D0D0D" />
<rect x="14" y="12" width="1" height="1" fill="#0B0907" />
<rect x="15" y="12" width="1" height="1" fill="#0C0A08" />
<rect x="18" y="12" width="1" height="1" fill="#0E0E0C" />
<rect x="19" y="12" width="1" height="1" fill="#3A3B38" />
<rect x="20" y="12" width="1" height="1" fill="#3B3937" />
<rect x="21" y="12" width="1" height="1" fill="#4A4844" />
<rect x="22" y="12" width="1" height="1" fill="#0E0D09" />
<rect x="1" y="13" width="1" height="1" fill="#0D0D0D" />
<rect x="2" y="13" width="1" height="1" fill="#3D3B3B" />
<rect x="3" y="13" width="1" height="1" fill="#3D3938" />
<rect x="4" y="13" width="1" height="1" fill="#3C3A36" />
<rect x="5" y="13" width="1" height="1" fill="#0C0C0A" />
<rect x="18" y="13" width="1" height="1" fill="#0A0B08" />
<rect x="19" y="13" width="1" height="1" fill="#3D3B39" />
<rect x="20" y="13" width="1" height="1" fill="#3B3937" />
<rect x="21" y="13" width="1" height="1" fill="#3C3A36" />
<rect x="22" y="13" width="1" height="1" fill="#0E0D09" />
<rect x="1" y="14" width="1" height="1" fill="#0A0A0A" />
<rect x="2" y="14" width="1" height="1" fill="#3D3B3B" />
<rect x="3" y="14" width="1" height="1" fill="#3D3938" />
<rect x="4" y="14" width="1" height="1" fill="#4A4844" />
<rect x="5" y="14" width="1" height="1" fill="#0A0B08" />
<rect x="17" y="14" width="1" height="1" fill="#0D0D0B" />
<rect x="18" y="14" width="1" height="1" fill="#393937" />
<rect x="19" y="14" width="1" height="1" fill="#4A4846" />
<rect x="20" y="14" width="1" height="1" fill="#3B3937" />
<rect x="21" y="14" width="1" height="1" fill="#0C0A06" />
<rect x="22" y="14" width="1" height="1" fill="#0D0C08" />
<rect x="1" y="15" width="1" height="1" fill="#0A0A0A" />
<rect x="2" y="15" width="1" height="1" fill="#100D0E" />
<rect x="3" y="15" width="1" height="1" fill="#3F3A39" />
<rect x="4" y="15" width="1" height="1" fill="#4D4945" />
<rect x="5" y="15" width="1" height="1" fill="#0B0907" />
<rect x="9" y="15" width="1" height="1" fill="#0E0C0D" />
<rect x="10" y="15" width="1" height="1" fill="#0E0C0D" />
<rect x="11" y="15" width="1" height="1" fill="#0D0B0A" />
<rect x="12" y="15" width="1" height="1" fill="#0E0C0B" />
<rect x="13" y="15" width="1" height="1" fill="#0D0B0A" />
<rect x="17" y="15" width="1" height="1" fill="#0C0C0A" />
<rect x="18" y="15" width="1" height="1" fill="#585956" />
<rect x="19" y="15" width="1" height="1" fill="#3D3B39" />
<rect x="20" y="15" width="1" height="1" fill="#3B3937" />
<rect x="21" y="15" width="1" height="1" fill="#0D0C08" />
<rect x="2" y="16" width="1" height="1" fill="#0E0C0D" />
<rect x="3" y="16" width="1" height="1" fill="#3F3A39" />
<rect x="4" y="16" width="1" height="1" fill="#3D3936" />
<rect x="5" y="16" width="1" height="1" fill="#100C0B" />
<rect x="8" y="16" width="1" height="1" fill="#0E090A" />
<rect x="9" y="16" width="1" height="1" fill="#3D393A" />
<rect x="10" y="16" width="1" height="1" fill="#3D393A" />
<rect x="11" y="16" width="1" height="1" fill="#3D393A" />
<rect x="12" y="16" width="1" height="1" fill="#3D393A" />
<rect x="13" y="16" width="1" height="1" fill="#312C2B" />
<rect x="14" y="16" width="1" height="1" fill="#0B0907" />
<rect x="17" y="16" width="1" height="1" fill="#0D0D0B" />
<rect x="18" y="16" width="1" height="1" fill="#3A3B38" />
<rect x="19" y="16" width="1" height="1" fill="#3D3B39" />
<rect x="20" y="16" width="1" height="1" fill="#3C3A38" />
<rect x="21" y="16" width="1" height="1" fill="#0B0905" />
<rect x="2" y="17" width="1" height="1" fill="#0D0D0D" />
<rect x="3" y="17" width="1" height="1" fill="#3E3C3B" />
<rect x="4" y="17" width="1" height="1" fill="#3F3A39" />
<rect x="5" y="17" width="1" height="1" fill="#0F0A0C" />
<rect x="7" y="17" width="1" height="1" fill="#110C0E" />
<rect x="8" y="17" width="1" height="1" fill="#0F0A0C" />
<rect x="9" y="17" width="1" height="1" fill="#3D393A" />
<rect x="10" y="17" width="1" height="1" fill="#3D393A" />
<rect x="11" y="17" width="1" height="1" fill="#3D393A" />
<rect x="12" y="17" width="1" height="1" fill="#3D393A" />
<rect x="13" y="17" width="1" height="1" fill="#2D2928" />
<rect x="14" y="17" width="1" height="1" fill="#0E0908" />
<rect x="17" y="17" width="1" height="1" fill="#0E0E0C" />
<rect x="18" y="17" width="1" height="1" fill="#0E0E0C" />
<rect x="19" y="17" width="1" height="1" fill="#3B3937" />
<rect x="20" y="17" width="1" height="1" fill="#3B3937" />
<rect x="21" y="17" width="1" height="1" fill="#0C0A06" />
<rect x="3" y="18" width="1" height="1" fill="#0D0B0A" />
<rect x="4" y="18" width="1" height="1" fill="#0F0A0A" />
<rect x="7" y="18" width="1" height="1" fill="#10090C" />
<rect x="8" y="18" width="1" height="1" fill="#40393B" />
<rect x="9" y="18" width="1" height="1" fill="#3F383A" />
<rect x="10" y="18" width="1" height="1" fill="#3F383A" />
<rect x="11" y="18" width="1" height="1" fill="#3F383A" />
<rect x="12" y="18" width="1" height="1" fill="#3F383A" />
<rect x="13" y="18" width="1" height="1" fill="#3F3A39" />
<rect x="14" y="18" width="1" height="1" fill="#100C0B" />
<rect x="15" y="18" width="1" height="1" fill="#0C0A08" />
<rect x="18" y="18" width="1" height="1" fill="#0A0B08" />
<rect x="19" y="18" width="1" height="1" fill="#0D0B0A" />
<rect x="20" y="18" width="1" height="1" fill="#0E0C0B" />
<rect x="6" y="19" width="1" height="1" fill="#10090C" />
<rect x="7" y="19" width="1" height="1" fill="#3F383A" />
<rect x="8" y="19" width="1" height="1" fill="#4D4648" />
<rect x="9" y="19" width="1" height="1" fill="#3F383A" />
<rect x="10" y="19" width="1" height="1" fill="#3F383A" />
<rect x="11" y="19" width="1" height="1" fill="#3F383A" />
<rect x="12" y="19" width="1" height="1" fill="#3F383A" />
<rect x="13" y="19" width="1" height="1" fill="#3F3A39" />
<rect x="14" y="19" width="1" height="1" fill="#4D4847" />
<rect x="15" y="19" width="1" height="1" fill="#0D0B0A" />
<rect x="6" y="20" width="1" height="1" fill="#0F0A0A" />
<rect x="7" y="20" width="1" height="1" fill="#3D3938" />
<rect x="8" y="20" width="1" height="1" fill="#3B3736" />
<rect x="9" y="20" width="1" height="1" fill="#3D3636" />
<rect x="10" y="20" width="1" height="1" fill="#3E3737" />
<rect x="11" y="20" width="1" height="1" fill="#3F3A39" />
<rect x="12" y="20" width="1" height="1" fill="#3D3938" />
<rect x="13" y="20" width="1" height="1" fill="#403B3B" />
<rect x="14" y="20" width="1" height="1" fill="#3C3837" />
<rect x="15" y="20" width="1" height="1" fill="#2D2B29" />
<rect x="16" y="20" width="1" height="1" fill="#0D0B0A" />
<rect x="6" y="21" width="1" height="1" fill="#0D0807" />
<rect x="7" y="21" width="1" height="1" fill="#3F3A39" />
<rect x="8" y="21" width="1" height="1" fill="#3C3837" />
<rect x="9" y="21" width="1" height="1" fill="#3F3838" />
<rect x="10" y="21" width="1" height="1" fill="#413A3B" />
<rect x="11" y="21" width="1" height="1" fill="#3B3736" />
<rect x="12" y="21" width="1" height="1" fill="#3F3A39" />
<rect x="13" y="21" width="1" height="1" fill="#3D3938" />
<rect x="14" y="21" width="1" height="1" fill="#2D2B29" />
<rect x="15" y="21" width="1" height="1" fill="#3D3B39" />
<rect x="16" y="21" width="1" height="1" fill="#0D0B0A" />
<rect x="6" y="22" width="1" height="1" fill="#100B0D" />
<rect x="7" y="22" width="1" height="1" fill="#30292B" />
<rect x="8" y="22" width="1" height="1" fill="#40393B" />
<rect x="9" y="22" width="1" height="1" fill="#40393B" />
<rect x="10" y="22" width="1" height="1" fill="#4E4749" />
<rect x="11" y="22" width="1" height="1" fill="#4D4648" />
<rect x="12" y="22" width="1" height="1" fill="#322D2F" />
<rect x="13" y="22" width="1" height="1" fill="#3C393A" />
<rect x="14" y="22" width="1" height="1" fill="#3B3B3B" />
<rect x="15" y="22" width="1" height="1" fill="#0C0C0C" />
<rect x="16" y="22" width="1" height="1" fill="#0C0C0C" />
<rect x="7" y="23" width="1" height="1" fill="#0E090A" />
<rect x="8" y="23" width="1" height="1" fill="#100B0D" />
<rect x="9" y="23" width="1" height="1" fill="#0F0A0C" />
<rect x="10" y="23" width="1" height="1" fill="#0F0A0C" />
<rect x="11" y="23" width="1" height="1" fill="#0D0809" />
<rect x="12" y="23" width="1" height="1" fill="#0C0A0A" />
<rect x="13" y="23" width="1" height="1" fill="#0D0D0D" />
<rect x="14" y="23" width="1" height="1" fill="#090B0A" />
<rect x="15" y="23" width="1" height="1" fill="#0C0F0E" />
</svg>