<?xml version="1.0" encoding="UTF-8" ?>
<svg version="1.1" width="25" height="25" xmlns="http://www.w3.org/2000/svg">
<rect x="9" y="1" width="1" height="1" fill="#030017" />
<rect x="10" y="1" width="1" height="1" fill="#00002E" />
<rect x="11" y="1" width="1" height="1" fill="#00002C" />
<rect x="12" y="1" width="1" height="1" fill="#01001B" />
<rect x="7" y="2" width="1" height="1" fill="#010007" />
<rect x="8" y="2" width="1" height="1" fill="#000019" />
<rect x="9" y="2" width="1" height="1" fill="#000041" />
<rect x="10" y="2" width="1" height="1" fill="#0F0EA5" />
<rect x="11" y="2" width="1" height="1" fill="#1210A5" />
<rect x="12" y="2" width="1" height="1" fill="#000043" />
<rect x="7" y="3" width="1" height="1" fill="#000011" />
<rect x="8" y="3" width="1" height="1" fill="#1A134C" />
<rect x="9" y="3" width="1" height="1" fill="#140C81" />
<rect x="10" y="3" width="1" height="1" fill="#0B08D1" />
<rect x="11" y="3" width="1" height="1" fill="#0B0AD5" />
<rect x="12" y="3" width="1" height="1" fill="#14108A" />
<rect x="13" y="3" width="1" height="1" fill="#000036" />
<rect x="6" y="4" width="1" height="1" fill="#00000B" />
<rect x="7" y="4" width="1" height="1" fill="#020026" />
<rect x="8" y="4" width="1" height="1" fill="#190C69" />
<rect x="9" y="4" width="1" height="1" fill="#140A9A" />
<rect x="10" y="4" width="1" height="1" fill="#0D08D2" />
<rect x="11" y="4" width="1" height="1" fill="#0A0ADB" />
<rect x="12" y="4" width="1" height="1" fill="#0F0FB5" />
<rect x="13" y="4" width="1" height="1" fill="#000061" />
<rect x="14" y="4" width="1" height="1" fill="#00001E" />
<rect x="6" y="5" width="1" height="1" fill="#00001C" />
<rect x="7" y="5" width="1" height="1" fill="#1C0F53" />
<rect x="8" y="5" width="1" height="1" fill="#19097C" />
<rect x="9" y="5" width="1" height="1" fill="#1508A0" />
<rect x="10" y="5" width="1" height="1" fill="#0F08C3" />
<rect x="11" y="5" width="1" height="1" fill="#0D08D0" />
<rect x="12" y="5" width="1" height="1" fill="#0D0CC7" />
<rect x="13" y="5" width="1" height="1" fill="#0E0F97" />
<rect x="14" y="5" width="1" height="1" fill="#00002A" />
<rect x="5" y="6" width="1" height="1" fill="#000011" />
<rect x="6" y="6" width="1" height="1" fill="#00002F" />
<rect x="7" y="6" width="1" height="1" fill="#1C0D69" />
<rect x="8" y="6" width="1" height="1" fill="#1A0983" />
<rect x="9" y="6" width="1" height="1" fill="#170697" />
<rect x="10" y="6" width="1" height="1" fill="#1507A6" />
<rect x="11" y="6" width="1" height="1" fill="#1206B2" />
<rect x="12" y="6" width="1" height="1" fill="#0E07C0" />
<rect x="13" y="6" width="1" height="1" fill="#120FA0" />
<rect x="14" y="6" width="1" height="1" fill="#000030" />
<rect x="5" y="7" width="1" height="1" fill="#00001A" />
<rect x="6" y="7" width="1" height="1" fill="#1B0E5D" />
<rect x="7" y="7" width="1" height="1" fill="#1E0D79" />
<rect x="8" y="7" width="1" height="1" fill="#1A0983" />
<rect x="9" y="7" width="1" height="1" fill="#1A0889" />
<rect x="10" y="7" width="1" height="1" fill="#1A078D" />
<rect x="11" y="7" width="1" height="1" fill="#16059A" />
<rect x="12" y="7" width="1" height="1" fill="#1104B3" />
<rect x="13" y="7" width="1" height="1" fill="#150DA2" />
<rect x="14" y="7" width="1" height="1" fill="#00003F" />
<rect x="15" y="7" width="1" height="1" fill="#000016" />
<rect x="4" y="8" width="1" height="1" fill="#01000D" />
<rect x="5" y="8" width="1" height="1" fill="#000026" />
<rect x="6" y="8" width="1" height="1" fill="#1A0D6F" />
<rect x="7" y="8" width="1" height="1" fill="#1C0A82" />
<rect x="8" y="8" width="1" height="1" fill="#1C0A79" />
<rect x="9" y="8" width="1" height="1" fill="#1B0976" />
<rect x="10" y="8" width="1" height="1" fill="#1E0979" />
<rect x="11" y="8" width="1" height="1" fill="#1C0988" />
<rect x="12" y="8" width="1" height="1" fill="#1201A0" />
<rect x="13" y="8" width="1" height="1" fill="#180EA3" />
<rect x="14" y="8" width="1" height="1" fill="#17147B" />
<rect x="15" y="8" width="1" height="1" fill="#000036" />
<rect x="3" y="9" width="1" height="1" fill="#02000C" />
<rect x="4" y="9" width="1" height="1" fill="#000022" />
<rect x="5" y="9" width="1" height="1" fill="#1C1156" />
<rect x="6" y="9" width="1" height="1" fill="#1A0C71" />
<rect x="7" y="9" width="1" height="1" fill="#19097A" />
<rect x="8" y="9" width="1" height="1" fill="#1B0A70" />
<rect x="9" y="9" width="1" height="1" fill="#000054" />
<rect x="10" y="9" width="1" height="1" fill="#020059" />
<rect x="11" y="9" width="1" height="1" fill="#1C0883" />
<rect x="12" y="9" width="1" height="1" fill="#1B089B" />
<rect x="13" y="9" width="1" height="1" fill="#17079E" />
<rect x="14" y="9" width="1" height="1" fill="#181296" />
<rect x="15" y="9" width="1" height="1" fill="#000051" />
<rect x="16" y="9" width="1" height="1" fill="#4A4F6B" />
<rect x="3" y="10" width="1" height="1" fill="#000015" />
<rect x="4" y="10" width="1" height="1" fill="#1A0F61" />
<rect x="5" y="10" width="1" height="1" fill="#190B72" />
<rect x="6" y="10" width="1" height="1" fill="#1D0F68" />
<rect x="7" y="10" width="1" height="1" fill="#000049" />
<rect x="8" y="10" width="1" height="1" fill="#00004D" />
<rect x="9" y="10" width="1" height="1" fill="#180972" />
<rect x="10" y="10" width="1" height="1" fill="#1C0A86" />
<rect x="11" y="10" width="1" height="1" fill="#1C0890" />
<rect x="12" y="10" width="1" height="1" fill="#1A0595" />
<rect x="13" y="10" width="1" height="1" fill="#16059A" />
<rect x="14" y="10" width="1" height="1" fill="#1610A8" />
<rect x="15" y="10" width="1" height="1" fill="#000067" />
<rect x="16" y="10" width="1" height="1" fill="#000020" />
<rect x="3" y="11" width="1" height="1" fill="#000016" />
<rect x="4" y="11" width="1" height="1" fill="#1C115E" />
<rect x="5" y="11" width="1" height="1" fill="#190D65" />
<rect x="6" y="11" width="1" height="1" fill="#1C1250" />
<rect x="7" y="11" width="1" height="1" fill="#000036" />
<rect x="8" y="11" width="1" height="1" fill="#1A0D6D" />
<rect x="9" y="11" width="1" height="1" fill="#190880" />
<rect x="10" y="11" width="1" height="1" fill="#19078F" />
<rect x="11" y="11" width="1" height="1" fill="#160493" />
<rect x="12" y="11" width="1" height="1" fill="#1C0593" />
<rect x="13" y="11" width="1" height="1" fill="#15039B" />
<rect x="14" y="11" width="1" height="1" fill="#120DB9" />
<rect x="15" y="11" width="1" height="1" fill="#11119A" />
<rect x="16" y="11" width="1" height="1" fill="#00002A" />
<rect x="3" y="12" width="1" height="1" fill="#000009" />
<rect x="4" y="12" width="1" height="1" fill="#000017" />
<rect x="5" y="12" width="1" height="1" fill="#000019" />
<rect x="6" y="12" width="1" height="1" fill="#020014" />
<rect x="7" y="12" width="1" height="1" fill="#020028" />
<rect x="8" y="12" width="1" height="1" fill="#1C0B75" />
<rect x="9" y="12" width="1" height="1" fill="#1A068F" />
<rect x="10" y="12" width="1" height="1" fill="#190693" />
<rect x="11" y="12" width="1" height="1" fill="#190695" />
<rect x="12" y="12" width="1" height="1" fill="#1A0693" />
<rect x="13" y="12" width="1" height="1" fill="#1406A3" />
<rect x="14" y="12" width="1" height="1" fill="#0C09C5" />
<rect x="15" y="12" width="1" height="1" fill="#1012AA" />
<rect x="16" y="12" width="1" height="1" fill="#00002E" />
<rect x="6" y="13" width="1" height="1" fill="#00000C" />
<rect x="7" y="13" width="1" height="1" fill="#000029" />
<rect x="8" y="13" width="1" height="1" fill="#1A0A7D" />
<rect x="9" y="13" width="1" height="1" fill="#1A0597" />
<rect x="10" y="13" width="1" height="1" fill="#1A0595" />
<rect x="11" y="13" width="1" height="1" fill="#190695" />
<rect x="12" y="13" width="1" height="1" fill="#190693" />
<rect x="13" y="13" width="1" height="1" fill="#1406A1" />
<rect x="14" y="13" width="1" height="1" fill="#0D06C1" />
<rect x="15" y="13" width="1" height="1" fill="#110EAC" />
<rect x="16" y="13" width="1" height="1" fill="#000038" />
<rect x="17" y="13" width="1" height="1" fill="#00000C" />
<rect x="6" y="14" width="1" height="1" fill="#00001E" />
<rect x="7" y="14" width="1" height="1" fill="#1D135D" />
<rect x="8" y="14" width="1" height="1" fill="#1A0983" />
<rect x="9" y="14" width="1" height="1" fill="#1A0597" />
<rect x="10" y="14" width="1" height="1" fill="#1A0595" />
<rect x="11" y="14" width="1" height="1" fill="#1A0693" />
<rect x="12" y="14" width="1" height="1" fill="#1A0894" />
<rect x="13" y="14" width="1" height="1" fill="#17069B" />
<rect x="14" y="14" width="1" height="1" fill="#1205AB" />
<rect x="15" y="14" width="1" height="1" fill="#170AA1" />
<rect x="16" y="14" width="1" height="1" fill="#1D1275" />
<rect x="17" y="14" width="1" height="1" fill="#000030" />
<rect x="18" y="14" width="1" height="1" fill="#00000C" />
<rect x="5" y="15" width="1" height="1" fill="#000107" />
<rect x="6" y="15" width="1" height="1" fill="#05001A" />
<rect x="7" y="15" width="1" height="1" fill="#241050" />
<rect x="8" y="15" width="1" height="1" fill="#21096F" />
<rect x="9" y="15" width="1" height="1" fill="#21077D" />
<rect x="10" y="15" width="1" height="1" fill="#22067B" />
<rect x="11" y="15" width="1" height="1" fill="#210779" />
<rect x="12" y="15" width="1" height="1" fill="#200A78" />
<rect x="13" y="15" width="1" height="1" fill="#1E0A73" />
<rect x="14" y="15" width="1" height="1" fill="#1F0B69" />
<rect x="15" y="15" width="1" height="1" fill="#220E60" />
<rect x="16" y="15" width="1" height="1" fill="#2B1258" />
<rect x="17" y="15" width="1" height="1" fill="#533F6F" />
<rect x="18" y="15" width="1" height="1" fill="#060010" />
<rect x="19" y="15" width="1" height="1" fill="#000006" />
<rect x="21" y="15" width="1" height="1" fill="#00001C" />
<rect x="22" y="15" width="1" height="1" fill="#00002D" />
<rect x="23" y="15" width="1" height="1" fill="#00002A" />
<rect x="24" y="15" width="1" height="1" fill="#000000" />
<rect x="1" y="16" width="1" height="1" fill="#000006" />
<rect x="2" y="16" width="1" height="1" fill="#000019" />
<rect x="3" y="16" width="1" height="1" fill="#00001B" />
<rect x="4" y="16" width="1" height="1" fill="#02000C" />
<rect x="5" y="16" width="1" height="1" fill="#060000" />
<rect x="6" y="16" width="1" height="1" fill="#5B3F46" />
<rect x="7" y="16" width="1" height="1" fill="#340E26" />
<rect x="8" y="16" width="1" height="1" fill="#2E0A3D" />
<rect x="9" y="16" width="1" height="1" fill="#300D4B" />
<rect x="10" y="16" width="1" height="1" fill="#310C4B" />
<rect x="11" y="16" width="1" height="1" fill="#2C0A43" />
<rect x="12" y="16" width="1" height="1" fill="#290E40" />
<rect x="13" y="16" width="1" height="1" fill="#2B1427" />
<rect x="14" y="16" width="1" height="1" fill="#AF9978" />
<rect x="15" y="16" width="1" height="1" fill="#B39667" />
<rect x="16" y="16" width="1" height="1" fill="#683F26" />
<rect x="17" y="16" width="1" height="1" fill="#643F39" />
<rect x="18" y="16" width="1" height="1" fill="#52404D" />
<rect x="19" y="16" width="1" height="1" fill="#01001F" />
<rect x="20" y="16" width="1" height="1" fill="#000038" />
<rect x="21" y="16" width="1" height="1" fill="#000061" />
<rect x="22" y="16" width="1" height="1" fill="#0E12B2" />
<rect x="23" y="16" width="1" height="1" fill="#0D129E" />
<rect x="24" y="16" width="1" height="1" fill="#000000" />
<rect x="0" y="17" width="1" height="1" fill="#000007" />
<rect x="1" y="17" width="1" height="1" fill="#01001D" />
<rect x="2" y="17" width="1" height="1" fill="#1B1051" />
<rect x="3" y="17" width="1" height="1" fill="#1B0F55" />
<rect x="4" y="17" width="1" height="1" fill="#01002A" />
<rect x="5" y="17" width="1" height="1" fill="#09001D" />
<rect x="6" y="17" width="1" height="1" fill="#5D3A5C" />
<rect x="7" y="17" width="1" height="1" fill="#643A5F" />
<rect x="8" y="17" width="1" height="1" fill="#603866" />
<rect x="9" y="17" width="1" height="1" fill="#5F3764" />
<rect x="10" y="17" width="1" height="1" fill="#653A62" />
<rect x="11" y="17" width="1" height="1" fill="#603958" />
<rect x="12" y="17" width="1" height="1" fill="#5D3E53" />
<rect x="13" y="17" width="1" height="1" fill="#AF9688" />
<rect x="14" y="17" width="1" height="1" fill="#644E03" />
<rect x="15" y="17" width="1" height="1" fill="#B69C50" />
<rect x="16" y="17" width="1" height="1" fill="#663F31" />
<rect x="17" y="17" width="1" height="1" fill="#5F3C5F" />
<rect x="18" y="17" width="1" height="1" fill="#231358" />
<rect x="19" y="17" width="1" height="1" fill="#00005A" />
<rect x="20" y="17" width="1" height="1" fill="#121292" />
<rect x="21" y="17" width="1" height="1" fill="#0C0FB2" />
<rect x="22" y="17" width="1" height="1" fill="#070CDB" />
<rect x="23" y="17" width="1" height="1" fill="#090FBA" />
<rect x="24" y="17" width="1" height="1" fill="#000000" />
<rect x="0" y="18" width="1" height="1" fill="#00001D" />
<rect x="1" y="18" width="1" height="1" fill="#1A1254" />
<rect x="2" y="18" width="1" height="1" fill="#1C0D72" />
<rect x="3" y="18" width="1" height="1" fill="#1C0B7E" />
<rect x="4" y="18" width="1" height="1" fill="#1C0C7A" />
<rect x="5" y="18" width="1" height="1" fill="#1E0977" />
<rect x="6" y="18" width="1" height="1" fill="#250874" />
<rect x="7" y="18" width="1" height="1" fill="#27076B" />
<rect x="8" y="18" width="1" height="1" fill="#2D095C" />
<rect x="9" y="18" width="1" height="1" fill="#5D3778" />
<rect x="10" y="18" width="1" height="1" fill="#603868" />
<rect x="11" y="18" width="1" height="1" fill="#603A5C" />
<rect x="12" y="18" width="1" height="1" fill="#5B3C52" />
<rect x="13" y="18" width="1" height="1" fill="#AE9496" />
<rect x="14" y="18" width="1" height="1" fill="#AF997C" />
<rect x="15" y="18" width="1" height="1" fill="#AA959A" />
<rect x="16" y="18" width="1" height="1" fill="#1E0D75" />
<rect x="17" y="18" width="1" height="1" fill="#150AB0" />
<rect x="18" y="18" width="1" height="1" fill="#0F09C6" />
<rect x="19" y="18" width="1" height="1" fill="#090AD4" />
<rect x="20" y="18" width="1" height="1" fill="#050BD8" />
<rect x="21" y="18" width="1" height="1" fill="#050BD6" />
<rect x="22" y="18" width="1" height="1" fill="#060BCD" />
<rect x="23" y="18" width="1" height="1" fill="#1012A1" />
<rect x="24" y="18" width="1" height="1" fill="#000000" />
<rect x="0" y="19" width="1" height="1" fill="#00001E" />
<rect x="1" y="19" width="1" height="1" fill="#180F56" />
<rect x="2" y="19" width="1" height="1" fill="#1C0B7E" />
<rect x="3" y="19" width="1" height="1" fill="#1A068F" />
<rect x="4" y="19" width="1" height="1" fill="#190492" />
<rect x="5" y="19" width="1" height="1" fill="#1D0897" />
<rect x="6" y="19" width="1" height="1" fill="#1A0293" />
<rect x="7" y="19" width="1" height="1" fill="#1F058B" />
<rect x="8" y="19" width="1" height="1" fill="#230576" />
<rect x="9" y="19" width="1" height="1" fill="#290765" />
<rect x="10" y="19" width="1" height="1" fill="#2C0858" />
<rect x="11" y="19" width="1" height="1" fill="#2A0A52" />
<rect x="12" y="19" width="1" height="1" fill="#250E58" />
<rect x="13" y="19" width="1" height="1" fill="#210F52" />
<rect x="14" y="19" width="1" height="1" fill="#21104A" />
<rect x="15" y="19" width="1" height="1" fill="#190E6D" />
<rect x="16" y="19" width="1" height="1" fill="#0F0CC3" />
<rect x="17" y="19" width="1" height="1" fill="#0306EF" />
<rect x="18" y="19" width="1" height="1" fill="#0104FB" />
<rect x="19" y="19" width="1" height="1" fill="#0105F7" />
<rect x="20" y="19" width="1" height="1" fill="#0308E3" />
<rect x="21" y="19" width="1" height="1" fill="#090FCC" />
<rect x="22" y="19" width="1" height="1" fill="#0B0FA9" />
<rect x="23" y="19" width="1" height="1" fill="#00005E" />
<rect x="24" y="19" width="1" height="1" fill="#000000" />
<rect x="0" y="20" width="1" height="1" fill="#000006" />
<rect x="1" y="20" width="1" height="1" fill="#000024" />
<rect x="2" y="20" width="1" height="1" fill="#1C0D76" />
<rect x="3" y="20" width="1" height="1" fill="#19058E" />
<rect x="4" y="20" width="1" height="1" fill="#190791" />
<rect x="5" y="20" width="1" height="1" fill="#190693" />
<rect x="6" y="20" width="1" height="1" fill="#1A0693" />
<rect x="7" y="20" width="1" height="1" fill="#1A0691" />
<rect x="8" y="20" width="1" height="1" fill="#1B058C" />
<rect x="9" y="20" width="1" height="1" fill="#1E068B" />
<rect x="10" y="20" width="1" height="1" fill="#1F058B" />
<rect x="11" y="20" width="1" height="1" fill="#1A0499" />
<rect x="12" y="20" width="1" height="1" fill="#150CBC" />
<rect x="13" y="20" width="1" height="1" fill="#0F0BC9" />
<rect x="14" y="20" width="1" height="1" fill="#0F0CC5" />
<rect x="15" y="20" width="1" height="1" fill="#0B0BD1" />
<rect x="16" y="20" width="1" height="1" fill="#0708EB" />
<rect x="17" y="20" width="1" height="1" fill="#0508FD" />
<rect x="18" y="20" width="1" height="1" fill="#0106FC" />
<rect x="19" y="20" width="1" height="1" fill="#0409E6" />
<rect x="20" y="20" width="1" height="1" fill="#0A0FB4" />
<rect x="21" y="20" width="1" height="1" fill="#10168D" />
<rect x="22" y="20" width="1" height="1" fill="#12196F" />
<rect x="23" y="20" width="1" height="1" fill="#00002E" />
<rect x="24" y="20" width="1" height="1" fill="#000000" />
<rect x="1" y="21" width="1" height="1" fill="#020014" />
<rect x="2" y="21" width="1" height="1" fill="#1D115C" />
<rect x="3" y="21" width="1" height="1" fill="#1A0C73" />
<rect x="4" y="21" width="1" height="1" fill="#1A0A7D" />
<rect x="5" y="21" width="1" height="1" fill="#1A0981" />
<rect x="6" y="21" width="1" height="1" fill="#1A0981" />
<rect x="7" y="21" width="1" height="1" fill="#1A0983" />
<rect x="8" y="21" width="1" height="1" fill="#190786" />
<rect x="9" y="21" width="1" height="1" fill="#19088B" />
<rect x="10" y="21" width="1" height="1" fill="#190791" />
<rect x="11" y="21" width="1" height="1" fill="#1406A3" />
<rect x="12" y="21" width="1" height="1" fill="#0D0AC6" />
<rect x="13" y="21" width="1" height="1" fill="#0808D5" />
<rect x="14" y="21" width="1" height="1" fill="#0808D7" />
<rect x="15" y="21" width="1" height="1" fill="#0808D7" />
<rect x="16" y="21" width="1" height="1" fill="#0809D3" />
<rect x="17" y="21" width="1" height="1" fill="#0A0CD1" />
<rect x="18" y="21" width="1" height="1" fill="#080BC9" />
<rect x="19" y="21" width="1" height="1" fill="#0C10AE" />
<rect x="20" y="21" width="1" height="1" fill="#00005C" />
<rect x="21" y="21" width="1" height="1" fill="#00003C" />
<rect x="22" y="21" width="1" height="1" fill="#000024" />
<rect x="23" y="21" width="1" height="1" fill="#000012" />
<rect x="1" y="22" width="1" height="1" fill="#030005" />
<rect x="2" y="22" width="1" height="1" fill="#010013" />
<rect x="3" y="22" width="1" height="1" fill="#020025" />
<rect x="4" y="22" width="1" height="1" fill="#1C1154" />
<rect x="5" y="22" width="1" height="1" fill="#1C0F5F" />
<rect x="6" y="22" width="1" height="1" fill="#1C0F5F" />
<rect x="7" y="22" width="1" height="1" fill="#1C0F5F" />
<rect x="8" y="22" width="1" height="1" fill="#1B0D5F" />
<rect x="9" y="22" width="1" height="1" fill="#1A0F63" />
<rect x="10" y="22" width="1" height="1" fill="#1A0E67" />
<rect x="11" y="22" width="1" height="1" fill="#1A0F6E" />
<rect x="12" y="22" width="1" height="1" fill="#151078" />
<rect x="13" y="22" width="1" height="1" fill="#140F80" />
<rect x="14" y="22" width="1" height="1" fill="#140E86" />
<rect x="15" y="22" width="1" height="1" fill="#140E84" />
<rect x="16" y="22" width="1" height="1" fill="#181481" />
<rect x="17" y="22" width="1" height="1" fill="#000052" />
<rect x="18" y="22" width="1" height="1" fill="#000044" />
<rect x="19" y="22" width="1" height="1" fill="#000030" />
<rect x="20" y="22" width="1" height="1" fill="#00001E" />
<rect x="3" y="23" width="1" height="1" fill="#000006" />
<rect x="4" y="23" width="1" height="1" fill="#00001A" />
<rect x="5" y="23" width="1" height="1" fill="#000024" />
<rect x="6" y="23" width="1" height="1" fill="#000024" />
<rect x="7" y="23" width="1" height="1" fill="#000024" />
<rect x="8" y="23" width="1" height="1" fill="#000023" />
<rect x="9" y="23" width="1" height="1" fill="#000024" />
<rect x="10" y="23" width="1" height="1" fill="#000026" />
<rect x="11" y="23" width="1" height="1" fill="#000026" />
<rect x="12" y="23" width="1" height="1" fill="#00002A" />
<rect x="13" y="23" width="1" height="1" fill="#00002C" />
<rect x="14" y="23" width="1" height="1" fill="#000030" />
<rect x="15" y="23" width="1" height="1" fill="#00002E" />
<rect x="16" y="23" width="1" height="1" fill="#010027" />
<rect x="17" y="23" width="1" height="1" fill="#000018" />
</svg>