<?xml version="1.0" encoding="UTF-8" ?>
<svg version="1.1" width="25" height="25" xmlns="http://www.w3.org/2000/svg">
<rect x="17" y="0" width="1" height="1" fill="#020000" />
<rect x="18" y="0" width="1" height="1" fill="#030000" />
<rect x="19" y="0" width="1" height="1" fill="#040200" />
<rect x="11" y="1" width="1" height="1" fill="#070500" />
<rect x="12" y="1" width="1" height="1" fill="#050400" />
<rect x="13" y="1" width="1" height="1" fill="#050400" />
<rect x="16" y="1" width="1" height="1" fill="#050000" />
<rect x="17" y="1" width="1" height="1" fill="#3B322E" />
<rect x="18" y="1" width="1" height="1" fill="#3C3332" />
<rect x="19" y="1" width="1" height="1" fill="#060000" />
<rect x="20" y="1" width="1" height="1" fill="#030100" />
<rect x="10" y="2" width="1" height="1" fill="#090600" />
<rect x="11" y="2" width="1" height="1" fill="#AFAD63" />
<rect x="12" y="2" width="1" height="1" fill="#B1B340" />
<rect x="13" y="2" width="1" height="1" fill="#AFB249" />
<rect x="14" y="2" width="1" height="1" fill="#020600" />
<rect x="15" y="2" width="1" height="1" fill="#020300" />
<rect x="16" y="2" width="1" height="1" fill="#3A3122" />
<rect x="17" y="2" width="1" height="1" fill="#413229" />
<rect x="18" y="2" width="1" height="1" fill="#41312D" />
<rect x="19" y="2" width="1" height="1" fill="#3B302D" />
<rect x="20" y="2" width="1" height="1" fill="#020000" />
<rect x="21" y="2" width="1" height="1" fill="#020300" />
<rect x="10" y="3" width="1" height="1" fill="#060400" />
<rect x="11" y="3" width="1" height="1" fill="#AEAC62" />
<rect x="12" y="3" width="1" height="1" fill="#B1B43C" />
<rect x="13" y="3" width="1" height="1" fill="#B2B63C" />
<rect x="14" y="3" width="1" height="1" fill="#ACB15B" />
<rect x="15" y="3" width="1" height="1" fill="#050600" />
<rect x="16" y="3" width="1" height="1" fill="#41380B" />
<rect x="17" y="3" width="1" height="1" fill="#423519" />
<rect x="18" y="3" width="1" height="1" fill="#403224" />
<rect x="19" y="3" width="1" height="1" fill="#3F342F" />
<rect x="20" y="3" width="1" height="1" fill="#020000" />
<rect x="21" y="3" width="1" height="1" fill="#000000" />
<rect x="11" y="4" width="1" height="1" fill="#060400" />
<rect x="12" y="4" width="1" height="1" fill="#050500" />
<rect x="13" y="4" width="1" height="1" fill="#AFAF59" />
<rect x="14" y="4" width="1" height="1" fill="#B6B63B" />
<rect x="15" y="4" width="1" height="1" fill="#B5B336" />
<rect x="16" y="4" width="1" height="1" fill="#473F00" />
<rect x="17" y="4" width="1" height="1" fill="#433B00" />
<rect x="18" y="4" width="1" height="1" fill="#3E371B" />
<rect x="19" y="4" width="1" height="1" fill="#050000" />
<rect x="20" y="4" width="1" height="1" fill="#020000" />
<rect x="13" y="5" width="1" height="1" fill="#050500" />
<rect x="14" y="5" width="1" height="1" fill="#B3B13D" />
<rect x="15" y="5" width="1" height="1" fill="#B7B42A" />
<rect x="16" y="5" width="1" height="1" fill="#B7B236" />
<rect x="17" y="5" width="1" height="1" fill="#B5B04E" />
<rect x="18" y="5" width="1" height="1" fill="#3F3D00" />
<rect x="19" y="5" width="1" height="1" fill="#050300" />
<rect x="12" y="6" width="1" height="1" fill="#000100" />
<rect x="13" y="6" width="1" height="1" fill="#5D5D3F" />
<rect x="14" y="6" width="1" height="1" fill="#5F5F1D" />
<rect x="15" y="6" width="1" height="1" fill="#B1AF49" />
<rect x="16" y="6" width="1" height="1" fill="#B6B62B" />
<rect x="17" y="6" width="1" height="1" fill="#B6B727" />
<rect x="18" y="6" width="1" height="1" fill="#B2B243" />
<rect x="19" y="6" width="1" height="1" fill="#090C00" />
<rect x="12" y="7" width="1" height="1" fill="#010200" />
<rect x="13" y="7" width="1" height="1" fill="#59594B" />
<rect x="14" y="7" width="1" height="1" fill="#605D41" />
<rect x="15" y="7" width="1" height="1" fill="#605F22" />
<rect x="16" y="7" width="1" height="1" fill="#B2B245" />
<rect x="17" y="7" width="1" height="1" fill="#B3B42F" />
<rect x="18" y="7" width="1" height="1" fill="#B4B434" />
<rect x="19" y="7" width="1" height="1" fill="#B0B250" />
<rect x="20" y="7" width="1" height="1" fill="#040700" />
<rect x="5" y="8" width="1" height="1" fill="#040000" />
<rect x="6" y="8" width="1" height="1" fill="#060000" />
<rect x="7" y="8" width="1" height="1" fill="#030000" />
<rect x="8" y="8" width="1" height="1" fill="#030000" />
<rect x="9" y="8" width="1" height="1" fill="#020000" />
<rect x="10" y="8" width="1" height="1" fill="#030000" />
<rect x="11" y="8" width="1" height="1" fill="#030000" />
<rect x="12" y="8" width="1" height="1" fill="#7B7678" />
<rect x="13" y="8" width="1" height="1" fill="#797474" />
<rect x="14" y="8" width="1" height="1" fill="#5E5B53" />
<rect x="15" y="8" width="1" height="1" fill="#5D5C48" />
<rect x="16" y="8" width="1" height="1" fill="#5D5E39" />
<rect x="17" y="8" width="1" height="1" fill="#080900" />
<rect x="18" y="8" width="1" height="1" fill="#B3B24A" />
<rect x="19" y="8" width="1" height="1" fill="#B6B347" />
<rect x="20" y="8" width="1" height="1" fill="#ACAD62" />
<rect x="21" y="8" width="1" height="1" fill="#070800" />
<rect x="4" y="9" width="1" height="1" fill="#0A0000" />
<rect x="5" y="9" width="1" height="1" fill="#B7ACA7" />
<rect x="6" y="9" width="1" height="1" fill="#B2ACA7" />
<rect x="7" y="9" width="1" height="1" fill="#B4B1AB" />
<rect x="8" y="9" width="1" height="1" fill="#B3AFAA" />
<rect x="9" y="9" width="1" height="1" fill="#B4B0AD" />
<rect x="10" y="9" width="1" height="1" fill="#030000" />
<rect x="11" y="9" width="1" height="1" fill="#7A7577" />
<rect x="12" y="9" width="1" height="1" fill="#797476" />
<rect x="13" y="9" width="1" height="1" fill="#7C777B" />
<rect x="14" y="9" width="1" height="1" fill="#777478" />
<rect x="15" y="9" width="1" height="1" fill="#5A5858" />
<rect x="16" y="9" width="1" height="1" fill="#020000" />
<rect x="17" y="9" width="1" height="1" fill="#070500" />
<rect x="18" y="9" width="1" height="1" fill="#0B0700" />
<rect x="19" y="9" width="1" height="1" fill="#B2AE59" />
<rect x="20" y="9" width="1" height="1" fill="#AFAC69" />
<rect x="21" y="9" width="1" height="1" fill="#050300" />
<rect x="3" y="10" width="1" height="1" fill="#060000" />
<rect x="4" y="10" width="1" height="1" fill="#B7AAA7" />
<rect x="5" y="10" width="1" height="1" fill="#B8ABA7" />
<rect x="6" y="10" width="1" height="1" fill="#FFFFFA" />
<rect x="7" y="10" width="1" height="1" fill="#FFFFF9" />
<rect x="8" y="10" width="1" height="1" fill="#FFFDFE" />
<rect x="9" y="10" width="1" height="1" fill="#040202" />
<rect x="10" y="10" width="1" height="1" fill="#787675" />
<rect x="11" y="10" width="1" height="1" fill="#787773" />
<rect x="12" y="10" width="1" height="1" fill="#757273" />
<rect x="13" y="10" width="1" height="1" fill="#787677" />
<rect x="14" y="10" width="1" height="1" fill="#787679" />
<rect x="15" y="10" width="1" height="1" fill="#040001" />
<rect x="16" y="10" width="1" height="1" fill="#B6AFAD" />
<rect x="17" y="10" width="1" height="1" fill="#050000" />
<rect x="18" y="10" width="1" height="1" fill="#040000" />
<rect x="19" y="10" width="1" height="1" fill="#090500" />
<rect x="20" y="10" width="1" height="1" fill="#080200" />
<rect x="2" y="11" width="1" height="1" fill="#080000" />
<rect x="3" y="11" width="1" height="1" fill="#BBAEA9" />
<rect x="4" y="11" width="1" height="1" fill="#B9ACA8" />
<rect x="5" y="11" width="1" height="1" fill="#FFFCF7" />
<rect x="6" y="11" width="1" height="1" fill="#FFFEF7" />
<rect x="7" y="11" width="1" height="1" fill="#85847E" />
<rect x="8" y="11" width="1" height="1" fill="#010101" />
<rect x="9" y="11" width="1" height="1" fill="#000002" />
<rect x="10" y="11" width="1" height="1" fill="#767674" />
<rect x="11" y="11" width="1" height="1" fill="#787974" />
<rect x="12" y="11" width="1" height="1" fill="#777775" />
<rect x="13" y="11" width="1" height="1" fill="#7B7879" />
<rect x="14" y="11" width="1" height="1" fill="#7A7778" />
<rect x="15" y="11" width="1" height="1" fill="#030000" />
<rect x="16" y="11" width="1" height="1" fill="#FFFEFC" />
<rect x="17" y="11" width="1" height="1" fill="#B5ADA9" />
<rect x="18" y="11" width="1" height="1" fill="#B3ADA9" />
<rect x="19" y="11" width="1" height="1" fill="#050000" />
<rect x="1" y="12" width="1" height="1" fill="#00002D" />
<rect x="2" y="12" width="1" height="1" fill="#BBAAA3" />
<rect x="3" y="12" width="1" height="1" fill="#BCA99F" />
<rect x="4" y="12" width="1" height="1" fill="#FFFDF3" />
<rect x="5" y="12" width="1" height="1" fill="#B7B0A7" />
<rect x="6" y="12" width="1" height="1" fill="#B4ACA3" />
<rect x="7" y="12" width="1" height="1" fill="#8B857E" />
<rect x="8" y="12" width="1" height="1" fill="#030100" />
<rect x="9" y="12" width="1" height="1" fill="#5A5A5A" />
<rect x="10" y="12" width="1" height="1" fill="#767978" />
<rect x="11" y="12" width="1" height="1" fill="#777777" />
<rect x="12" y="12" width="1" height="1" fill="#7B7977" />
<rect x="13" y="12" width="1" height="1" fill="#787675" />
<rect x="14" y="12" width="1" height="1" fill="#020000" />
<rect x="15" y="12" width="1" height="1" fill="#FFFFFF" />
<rect x="16" y="12" width="1" height="1" fill="#FFFFFD" />
<rect x="17" y="12" width="1" height="1" fill="#FFFFFB" />
<rect x="18" y="12" width="1" height="1" fill="#FFFFF6" />
<rect x="19" y="12" width="1" height="1" fill="#B9AEA9" />
<rect x="20" y="12" width="1" height="1" fill="#020000" />
<rect x="1" y="13" width="1" height="1" fill="#080000" />
<rect x="2" y="13" width="1" height="1" fill="#BDAAA1" />
<rect x="3" y="13" width="1" height="1" fill="#FFFAEE" />
<rect x="4" y="13" width="1" height="1" fill="#FFFDF2" />
<rect x="5" y="13" width="1" height="1" fill="#FFFFF5" />
<rect x="6" y="13" width="1" height="1" fill="#FFFEF5" />
<rect x="7" y="13" width="1" height="1" fill="#8C847E" />
<rect x="8" y="13" width="1" height="1" fill="#020000" />
<rect x="9" y="13" width="1" height="1" fill="#5A5856" />
<rect x="10" y="13" width="1" height="1" fill="#5B5B5B" />
<rect x="11" y="13" width="1" height="1" fill="#787878" />
<rect x="12" y="13" width="1" height="1" fill="#787675" />
<rect x="13" y="13" width="1" height="1" fill="#020000" />
<rect x="14" y="13" width="1" height="1" fill="#FFFFFF" />
<rect x="15" y="13" width="1" height="1" fill="#FEFEFE" />
<rect x="16" y="13" width="1" height="1" fill="#010101" />
<rect x="17" y="13" width="1" height="1" fill="#030100" />
<rect x="18" y="13" width="1" height="1" fill="#FFFDF5" />
<rect x="19" y="13" width="1" height="1" fill="#B9ADA6" />
<rect x="20" y="13" width="1" height="1" fill="#040000" />
<rect x="1" y="14" width="1" height="1" fill="#050000" />
<rect x="2" y="14" width="1" height="1" fill="#BBABA1" />
<rect x="3" y="14" width="1" height="1" fill="#FFFCF1" />
<rect x="4" y="14" width="1" height="1" fill="#FFFFF4" />
<rect x="5" y="14" width="1" height="1" fill="#FFFFF8" />
<rect x="6" y="14" width="1" height="1" fill="#FFFFF8" />
<rect x="7" y="14" width="1" height="1" fill="#FFFFFA" />
<rect x="8" y="14" width="1" height="1" fill="#8B8580" />
<rect x="9" y="14" width="1" height="1" fill="#020000" />
<rect x="10" y="14" width="1" height="1" fill="#5B5653" />
<rect x="11" y="14" width="1" height="1" fill="#5E5C5A" />
<rect x="12" y="14" width="1" height="1" fill="#030100" />
<rect x="13" y="14" width="1" height="1" fill="#FEFEFE" />
<rect x="14" y="14" width="1" height="1" fill="#FDFFFF" />
<rect x="15" y="14" width="1" height="1" fill="#FCFFFE" />
<rect x="16" y="14" width="1" height="1" fill="#000000" />
<rect x="17" y="14" width="1" height="1" fill="#888280" />
<rect x="18" y="14" width="1" height="1" fill="#FFFDF5" />
<rect x="19" y="14" width="1" height="1" fill="#B7ADA5" />
<rect x="20" y="14" width="1" height="1" fill="#050000" />
<rect x="1" y="15" width="1" height="1" fill="#040000" />
<rect x="2" y="15" width="1" height="1" fill="#B9AAA1" />
<rect x="3" y="15" width="1" height="1" fill="#B9AB9F" />
<rect x="4" y="15" width="1" height="1" fill="#FFFFF4" />
<rect x="5" y="15" width="1" height="1" fill="#FEFBF0" />
<rect x="6" y="15" width="1" height="1" fill="#FFFEF7" />
<rect x="7" y="15" width="1" height="1" fill="#8B837F" />
<rect x="8" y="15" width="1" height="1" fill="#8C8583" />
<rect x="9" y="15" width="1" height="1" fill="#898582" />
<rect x="10" y="15" width="1" height="1" fill="#FFFDFC" />
<rect x="11" y="15" width="1" height="1" fill="#FFFDFC" />
<rect x="12" y="15" width="1" height="1" fill="#FFFFFD" />
<rect x="13" y="15" width="1" height="1" fill="#FFFFFF" />
<rect x="14" y="15" width="1" height="1" fill="#FCFFFE" />
<rect x="15" y="15" width="1" height="1" fill="#FBFDFD" />
<rect x="16" y="15" width="1" height="1" fill="#030000" />
<rect x="17" y="15" width="1" height="1" fill="#050000" />
<rect x="18" y="15" width="1" height="1" fill="#FFFCF7" />
<rect x="19" y="15" width="1" height="1" fill="#B4ACA5" />
<rect x="20" y="15" width="1" height="1" fill="#040000" />
<rect x="1" y="16" width="1" height="1" fill="#020000" />
<rect x="2" y="16" width="1" height="1" fill="#908179" />
<rect x="3" y="16" width="1" height="1" fill="#BCA99D" />
<rect x="4" y="16" width="1" height="1" fill="#BCA99D" />
<rect x="5" y="16" width="1" height="1" fill="#BEAEA1" />
<rect x="6" y="16" width="1" height="1" fill="#FFFBF0" />
<rect x="7" y="16" width="1" height="1" fill="#B8ADA8" />
<rect x="8" y="16" width="1" height="1" fill="#FFFEFD" />
<rect x="9" y="16" width="1" height="1" fill="#FFFFFF" />
<rect x="10" y="16" width="1" height="1" fill="#FCFEFF" />
<rect x="11" y="16" width="1" height="1" fill="#010101" />
<rect x="12" y="16" width="1" height="1" fill="#000000" />
<rect x="13" y="16" width="1" height="1" fill="#010000" />
<rect x="14" y="16" width="1" height="1" fill="#000000" />
<rect x="15" y="16" width="1" height="1" fill="#FFFFFF" />
<rect x="16" y="16" width="1" height="1" fill="#FFFFFC" />
<rect x="17" y="16" width="1" height="1" fill="#FFFEF6" />
<rect x="18" y="16" width="1" height="1" fill="#FFFEF9" />
<rect x="19" y="16" width="1" height="1" fill="#FFFEF9" />
<rect x="20" y="16" width="1" height="1" fill="#B3ADA9" />
<rect x="21" y="16" width="1" height="1" fill="#040000" />
<rect x="1" y="17" width="1" height="1" fill="#020000" />
<rect x="2" y="17" width="1" height="1" fill="#8E827B" />
<rect x="3" y="17" width="1" height="1" fill="#BCA99D" />
<rect x="4" y="17" width="1" height="1" fill="#C1AA9E" />
<rect x="5" y="17" width="1" height="1" fill="#BDA99B" />
<rect x="6" y="17" width="1" height="1" fill="#BBABA1" />
<rect x="7" y="17" width="1" height="1" fill="#FFFFF7" />
<rect x="8" y="17" width="1" height="1" fill="#FFFFFF" />
<rect x="9" y="17" width="1" height="1" fill="#FFFFFF" />
<rect x="10" y="17" width="1" height="1" fill="#FDFFFF" />
<rect x="11" y="17" width="1" height="1" fill="#000000" />
<rect x="12" y="17" width="1" height="1" fill="#86827E" />
<rect x="13" y="17" width="1" height="1" fill="#B2AEAB" />
<rect x="14" y="17" width="1" height="1" fill="#010101" />
<rect x="15" y="17" width="1" height="1" fill="#FFFFFF" />
<rect x="16" y="17" width="1" height="1" fill="#FFFFFC" />
<rect x="17" y="17" width="1" height="1" fill="#000000" />
<rect x="18" y="17" width="1" height="1" fill="#050000" />
<rect x="19" y="17" width="1" height="1" fill="#8B8580" />
<rect x="20" y="17" width="1" height="1" fill="#FFFFFA" />
<rect x="21" y="17" width="1" height="1" fill="#B3AFAC" />
<rect x="22" y="17" width="1" height="1" fill="#030000" />
<rect x="1" y="18" width="1" height="1" fill="#020000" />
<rect x="2" y="18" width="1" height="1" fill="#8A827C" />
<rect x="3" y="18" width="1" height="1" fill="#918378" />
<rect x="4" y="18" width="1" height="1" fill="#908073" />
<rect x="5" y="18" width="1" height="1" fill="#BEAEA1" />
<rect x="6" y="18" width="1" height="1" fill="#B7ABA1" />
<rect x="7" y="18" width="1" height="1" fill="#FFFEF8" />
<rect x="8" y="18" width="1" height="1" fill="#FFFEFB" />
<rect x="9" y="18" width="1" height="1" fill="#FFFDFC" />
<rect x="10" y="18" width="1" height="1" fill="#FFFFFF" />
<rect x="11" y="18" width="1" height="1" fill="#010200" />
<rect x="12" y="18" width="1" height="1" fill="#030100" />
<rect x="13" y="18" width="1" height="1" fill="#000000" />
<rect x="14" y="18" width="1" height="1" fill="#FFFFFD" />
<rect x="15" y="18" width="1" height="1" fill="#FDFDFD" />
<rect x="16" y="18" width="1" height="1" fill="#FEFEFE" />
<rect x="17" y="18" width="1" height="1" fill="#040000" />
<rect x="18" y="18" width="1" height="1" fill="#8E847C" />
<rect x="19" y="18" width="1" height="1" fill="#B7ADA5" />
<rect x="20" y="18" width="1" height="1" fill="#FFFDFA" />
<rect x="21" y="18" width="1" height="1" fill="#FEFCFB" />
<rect x="22" y="18" width="1" height="1" fill="#B0AFAB" />
<rect x="23" y="18" width="1" height="1" fill="#020000" />
<rect x="1" y="19" width="1" height="1" fill="#020000" />
<rect x="2" y="19" width="1" height="1" fill="#8C847E" />
<rect x="3" y="19" width="1" height="1" fill="#8F857B" />
<rect x="4" y="19" width="1" height="1" fill="#8F8175" />
<rect x="5" y="19" width="1" height="1" fill="#91837A" />
<rect x="6" y="19" width="1" height="1" fill="#B8ACA5" />
<rect x="7" y="19" width="1" height="1" fill="#B5ABA5" />
<rect x="8" y="19" width="1" height="1" fill="#FFFDFB" />
<rect x="9" y="19" width="1" height="1" fill="#FFFEFB" />
<rect x="10" y="19" width="1" height="1" fill="#FFFDFC" />
<rect x="11" y="19" width="1" height="1" fill="#FFFFFE" />
<rect x="12" y="19" width="1" height="1" fill="#FFFCFA" />
<rect x="13" y="19" width="1" height="1" fill="#FFFEFC" />
<rect x="14" y="19" width="1" height="1" fill="#FFFBF9" />
<rect x="15" y="19" width="1" height="1" fill="#FFFFFE" />
<rect x="16" y="19" width="1" height="1" fill="#FFFCFE" />
<rect x="17" y="19" width="1" height="1" fill="#040000" />
<rect x="18" y="19" width="1" height="1" fill="#B5ABA3" />
<rect x="19" y="19" width="1" height="1" fill="#FFFCF4" />
<rect x="20" y="19" width="1" height="1" fill="#FFFFFA" />
<rect x="21" y="19" width="1" height="1" fill="#000000" />
<rect x="22" y="19" width="1" height="1" fill="#B1B0AC" />
<rect x="23" y="19" width="1" height="1" fill="#030100" />
<rect x="1" y="20" width="1" height="1" fill="#020000" />
<rect x="2" y="20" width="1" height="1" fill="#8A827C" />
<rect x="3" y="20" width="1" height="1" fill="#8C8179" />
<rect x="4" y="20" width="1" height="1" fill="#8C8179" />
<rect x="5" y="20" width="1" height="1" fill="#8F837C" />
<rect x="6" y="20" width="1" height="1" fill="#BBAAA3" />
<rect x="7" y="20" width="1" height="1" fill="#BAABA5" />
<rect x="8" y="20" width="1" height="1" fill="#FFFDFB" />
<rect x="9" y="20" width="1" height="1" fill="#FFFBFB" />
<rect x="10" y="20" width="1" height="1" fill="#FFFDFC" />
<rect x="11" y="20" width="1" height="1" fill="#FFFCFA" />
<rect x="12" y="20" width="1" height="1" fill="#FFFCF7" />
<rect x="13" y="20" width="1" height="1" fill="#FFF9F4" />
<rect x="14" y="20" width="1" height="1" fill="#BFACA7" />
<rect x="15" y="20" width="1" height="1" fill="#BAA9A5" />
<rect x="16" y="20" width="1" height="1" fill="#FFFBFB" />
<rect x="17" y="20" width="1" height="1" fill="#FFFDFB" />
<rect x="18" y="20" width="1" height="1" fill="#FFFFF9" />
<rect x="19" y="20" width="1" height="1" fill="#FFFEF8" />
<rect x="20" y="20" width="1" height="1" fill="#FFFDF7" />
<rect x="21" y="20" width="1" height="1" fill="#B2ADA5" />
<rect x="22" y="20" width="1" height="1" fill="#030000" />
<rect x="23" y="20" width="1" height="1" fill="#020000" />
<rect x="2" y="21" width="1" height="1" fill="#040000" />
<rect x="3" y="21" width="1" height="1" fill="#8C847E" />
<rect x="4" y="21" width="1" height="1" fill="#8C847E" />
<rect x="5" y="21" width="1" height="1" fill="#8E837E" />
<rect x="6" y="21" width="1" height="1" fill="#8F8079" />
<rect x="7" y="21" width="1" height="1" fill="#B8A9A2" />
<rect x="8" y="21" width="1" height="1" fill="#B5ADA9" />
<rect x="9" y="21" width="1" height="1" fill="#FFFDFB" />
<rect x="10" y="21" width="1" height="1" fill="#FFFFFD" />
<rect x="11" y="21" width="1" height="1" fill="#FFFDF9" />
<rect x="12" y="21" width="1" height="1" fill="#BAABA5" />
<rect x="13" y="21" width="1" height="1" fill="#BAA9A3" />
<rect x="14" y="21" width="1" height="1" fill="#BCA8A3" />
<rect x="15" y="21" width="1" height="1" fill="#BDABA8" />
<rect x="16" y="21" width="1" height="1" fill="#B8ABA9" />
<rect x="17" y="21" width="1" height="1" fill="#B4A9A6" />
<rect x="18" y="21" width="1" height="1" fill="#B5ADA9" />
<rect x="19" y="21" width="1" height="1" fill="#0A0100" />
<rect x="20" y="21" width="1" height="1" fill="#B4ACA5" />
<rect x="21" y="21" width="1" height="1" fill="#060000" />
<rect x="22" y="21" width="1" height="1" fill="#86857F" />
<rect x="23" y="21" width="1" height="1" fill="#030100" />
<rect x="3" y="22" width="1" height="1" fill="#030000" />
<rect x="4" y="22" width="1" height="1" fill="#87837E" />
<rect x="5" y="22" width="1" height="1" fill="#87837E" />
<rect x="6" y="22" width="1" height="1" fill="#8A837F" />
<rect x="7" y="22" width="1" height="1" fill="#8A817E" />
<rect x="8" y="22" width="1" height="1" fill="#B5ABA7" />
<rect x="9" y="22" width="1" height="1" fill="#B5ABA7" />
<rect x="10" y="22" width="1" height="1" fill="#B5ABA7" />
<rect x="11" y="22" width="1" height="1" fill="#B5ABA7" />
<rect x="12" y="22" width="1" height="1" fill="#B4ABA7" />
<rect x="13" y="22" width="1" height="1" fill="#8B8580" />
<rect x="14" y="22" width="1" height="1" fill="#040000" />
<rect x="15" y="22" width="1" height="1" fill="#020000" />
<rect x="16" y="22" width="1" height="1" fill="#8B8281" />
<rect x="17" y="22" width="1" height="1" fill="#8D8181" />
<rect x="18" y="22" width="1" height="1" fill="#B8ADAC" />
<rect x="19" y="22" width="1" height="1" fill="#B5ACAB" />
<rect x="20" y="22" width="1" height="1" fill="#020000" />
<rect x="21" y="22" width="1" height="1" fill="#868483" />
<rect x="22" y="22" width="1" height="1" fill="#010200" />
<rect x="4" y="23" width="1" height="1" fill="#040300" />
<rect x="5" y="23" width="1" height="1" fill="#030200" />
<rect x="6" y="23" width="1" height="1" fill="#020000" />
<rect x="7" y="23" width="1" height="1" fill="#030200" />
<rect x="8" y="23" width="1" height="1" fill="#050000" />
<rect x="9" y="23" width="1" height="1" fill="#080000" />
<rect x="10" y="23" width="1" height="1" fill="#060000" />
<rect x="11" y="23" width="1" height="1" fill="#050000" />
<rect x="12" y="23" width="1" height="1" fill="#000000" />
<rect x="13" y="23" width="1" height="1" fill="#010200" />
<rect x="14" y="23" width="1" height="1" fill="#000000" />
<rect x="16" y="23" width="1" height="1" fill="#000000" />
<rect x="17" y="23" width="1" height="1" fill="#060000" />
<rect x="18" y="23" width="1" height="1" fill="#060000" />
<rect x="19" y="23" width="1" height="1" fill="#060000" />
<rect x="20" y="23" width="1" height="1" fill="#020000" />
<rect x="21" y="23" width="1" height="1" fill="#000000" />
</svg>