<?xml version="1.0" encoding="UTF-8" ?>
<svg version="1.1" width="25" height="25" xmlns="http://www.w3.org/2000/svg">
<rect x="10" y="1" width="1" height="1" fill="#020300" />
<rect x="11" y="1" width="1" height="1" fill="#000000" />
<rect x="12" y="1" width="1" height="1" fill="#000000" />
<rect x="10" y="2" width="1" height="1" fill="#000000" />
<rect x="11" y="2" width="1" height="1" fill="#000300" />
<rect x="12" y="2" width="1" height="1" fill="#020500" />
<rect x="10" y="3" width="1" height="1" fill="#000100" />
<rect x="11" y="3" width="1" height="1" fill="#000000" />
<rect x="12" y="3" width="1" height="1" fill="#000200" />
<rect x="7" y="5" width="1" height="1" fill="#000000" />
<rect x="8" y="5" width="1" height="1" fill="#000000" />
<rect x="9" y="5" width="1" height="1" fill="#000000" />
<rect x="10" y="5" width="1" height="1" fill="#000000" />
<rect x="11" y="5" width="1" height="1" fill="#000000" />
<rect x="12" y="5" width="1" height="1" fill="#000000" />
<rect x="13" y="5" width="1" height="1" fill="#010200" />
<rect x="14" y="5" width="1" height="1" fill="#010200" />
<rect x="15" y="5" width="1" height="1" fill="#000000" />
<rect x="6" y="6" width="1" height="1" fill="#000000" />
<rect x="7" y="6" width="1" height="1" fill="#010101" />
<rect x="8" y="6" width="1" height="1" fill="#010101" />
<rect x="9" y="6" width="1" height="1" fill="#000000" />
<rect x="10" y="6" width="1" height="1" fill="#010101" />
<rect x="11" y="6" width="1" height="1" fill="#000000" />
<rect x="12" y="6" width="1" height="1" fill="#000000" />
<rect x="13" y="6" width="1" height="1" fill="#000000" />
<rect x="14" y="6" width="1" height="1" fill="#000000" />
<rect x="15" y="6" width="1" height="1" fill="#010200" />
<rect x="16" y="6" width="1" height="1" fill="#030401" />
<rect x="20" y="6" width="1" height="1" fill="#010200" />
<rect x="21" y="6" width="1" height="1" fill="#010200" />
<rect x="5" y="7" width="1" height="1" fill="#000000" />
<rect x="6" y="7" width="1" height="1" fill="#000000" />
<rect x="7" y="7" width="1" height="1" fill="#000000" />
<rect x="9" y="7" width="1" height="1" fill="#000000" />
<rect x="10" y="7" width="1" height="1" fill="#000000" />
<rect x="11" y="7" width="1" height="1" fill="#000000" />
<rect x="12" y="7" width="1" height="1" fill="#020202" />
<rect x="13" y="7" width="1" height="1" fill="#000000" />
<rect x="15" y="7" width="1" height="1" fill="#020300" />
<rect x="16" y="7" width="1" height="1" fill="#030401" />
<rect x="17" y="7" width="1" height="1" fill="#010200" />
<rect x="19" y="7" width="1" height="1" fill="#010200" />
<rect x="20" y="7" width="1" height="1" fill="#000000" />
<rect x="21" y="7" width="1" height="1" fill="#000000" />
<rect x="4" y="8" width="1" height="1" fill="#000000" />
<rect x="5" y="8" width="1" height="1" fill="#000000" />
<rect x="6" y="8" width="1" height="1" fill="#000000" />
<rect x="9" y="8" width="1" height="1" fill="#020202" />
<rect x="10" y="8" width="1" height="1" fill="#020202" />
<rect x="11" y="8" width="1" height="1" fill="#000000" />
<rect x="12" y="8" width="1" height="1" fill="#000000" />
<rect x="13" y="8" width="1" height="1" fill="#000000" />
<rect x="16" y="8" width="1" height="1" fill="#000000" />
<rect x="17" y="8" width="1" height="1" fill="#010200" />
<rect x="18" y="8" width="1" height="1" fill="#000000" />
<rect x="19" y="8" width="1" height="1" fill="#010200" />
<rect x="20" y="8" width="1" height="1" fill="#000000" />
<rect x="5" y="9" width="1" height="1" fill="#010101" />
<rect x="6" y="9" width="1" height="1" fill="#000000" />
<rect x="7" y="9" width="1" height="1" fill="#000000" />
<rect x="10" y="9" width="1" height="1" fill="#020202" />
<rect x="11" y="9" width="1" height="1" fill="#000000" />
<rect x="12" y="9" width="1" height="1" fill="#000000" />
<rect x="13" y="9" width="1" height="1" fill="#010200" />
<rect x="17" y="9" width="1" height="1" fill="#000000" />
<rect x="18" y="9" width="1" height="1" fill="#010200" />
<rect x="19" y="9" width="1" height="1" fill="#000000" />
<rect x="6" y="10" width="1" height="1" fill="#020202" />
<rect x="7" y="10" width="1" height="1" fill="#010101" />
<rect x="8" y="10" width="1" height="1" fill="#000000" />
<rect x="10" y="10" width="1" height="1" fill="#000000" />
<rect x="11" y="10" width="1" height="1" fill="#030303" />
<rect x="12" y="10" width="1" height="1" fill="#010101" />
<rect x="18" y="10" width="1" height="1" fill="#010200" />
<rect x="7" y="11" width="1" height="1" fill="#010101" />
<rect x="8" y="11" width="1" height="1" fill="#000000" />
<rect x="10" y="11" width="1" height="1" fill="#010101" />
<rect x="11" y="11" width="1" height="1" fill="#000000" />
<rect x="12" y="11" width="1" height="1" fill="#000000" />
<rect x="10" y="12" width="1" height="1" fill="#000000" />
<rect x="11" y="12" width="1" height="1" fill="#000000" />
<rect x="12" y="12" width="1" height="1" fill="#020300" />
<rect x="10" y="13" width="1" height="1" fill="#000000" />
<rect x="11" y="13" width="1" height="1" fill="#010200" />
<rect x="12" y="13" width="1" height="1" fill="#000000" />
<rect x="13" y="13" width="1" height="1" fill="#000000" />
<rect x="10" y="14" width="1" height="1" fill="#020300" />
<rect x="11" y="14" width="1" height="1" fill="#000000" />
<rect x="12" y="14" width="1" height="1" fill="#000000" />
<rect x="13" y="14" width="1" height="1" fill="#000000" />
<rect x="9" y="15" width="1" height="1" fill="#010200" />
<rect x="10" y="15" width="1" height="1" fill="#000000" />
<rect x="11" y="15" width="1" height="1" fill="#030401" />
<rect x="12" y="15" width="1" height="1" fill="#010200" />
<rect x="13" y="15" width="1" height="1" fill="#010200" />
<rect x="14" y="15" width="1" height="1" fill="#010200" />
<rect x="9" y="16" width="1" height="1" fill="#010200" />
<rect x="10" y="16" width="1" height="1" fill="#000000" />
<rect x="11" y="16" width="1" height="1" fill="#010200" />
<rect x="13" y="16" width="1" height="1" fill="#000000" />
<rect x="14" y="16" width="1" height="1" fill="#000000" />
<rect x="15" y="16" width="1" height="1" fill="#000000" />
<rect x="8" y="17" width="1" height="1" fill="#010200" />
<rect x="9" y="17" width="1" height="1" fill="#000000" />
<rect x="10" y="17" width="1" height="1" fill="#000000" />
<rect x="14" y="17" width="1" height="1" fill="#010200" />
<rect x="15" y="17" width="1" height="1" fill="#000000" />
<rect x="16" y="17" width="1" height="1" fill="#000000" />
<rect x="7" y="18" width="1" height="1" fill="#020300" />
<rect x="8" y="18" width="1" height="1" fill="#020300" />
<rect x="9" y="18" width="1" height="1" fill="#000000" />
<rect x="10" y="18" width="1" height="1" fill="#000000" />
<rect x="15" y="18" width="1" height="1" fill="#010200" />
<rect x="16" y="18" width="1" height="1" fill="#020300" />
<rect x="17" y="18" width="1" height="1" fill="#010200" />
<rect x="6" y="19" width="1" height="1" fill="#020300" />
<rect x="7" y="19" width="1" height="1" fill="#000000" />
<rect x="8" y="19" width="1" height="1" fill="#000000" />
<rect x="9" y="19" width="1" height="1" fill="#010200" />
<rect x="15" y="19" width="1" height="1" fill="#050503" />
<rect x="16" y="19" width="1" height="1" fill="#010200" />
<rect x="17" y="19" width="1" height="1" fill="#000000" />
<rect x="5" y="20" width="1" height="1" fill="#000000" />
<rect x="6" y="20" width="1" height="1" fill="#000000" />
<rect x="7" y="20" width="1" height="1" fill="#010200" />
<rect x="8" y="20" width="1" height="1" fill="#000000" />
<rect x="14" y="20" width="1" height="1" fill="#000100" />
<rect x="15" y="20" width="1" height="1" fill="#000100" />
<rect x="16" y="20" width="1" height="1" fill="#010200" />
<rect x="4" y="21" width="1" height="1" fill="#000200" />
<rect x="5" y="21" width="1" height="1" fill="#010200" />
<rect x="6" y="21" width="1" height="1" fill="#000000" />
<rect x="7" y="21" width="1" height="1" fill="#000000" />
<rect x="13" y="21" width="1" height="1" fill="#000000" />
<rect x="14" y="21" width="1" height="1" fill="#000100" />
<rect x="15" y="21" width="1" height="1" fill="#030400" />
<rect x="4" y="22" width="1" height="1" fill="#020300" />
<rect x="5" y="22" width="1" height="1" fill="#000201" />
<rect x="6" y="22" width="1" height="1" fill="#000000" />
<rect x="12" y="22" width="1" height="1" fill="#000201" />
<rect x="13" y="22" width="1" height="1" fill="#000100" />
<rect x="14" y="22" width="1" height="1" fill="#000200" />
<rect x="4" y="23" width="1" height="1" fill="#000000" />
<rect x="5" y="23" width="1" height="1" fill="#010200" />
<rect x="12" y="23" width="1" height="1" fill="#000100" />
<rect x="13" y="23" width="1" height="1" fill="#000000" />
</svg>